M48
; DRILL file {KiCad (5.1.0)-1} date 2019/07/26 12:41:42
; FORMAT={-:-/ absolute / metric / decimal}
; #@! TF.CreationDate,2019-07-26T12:41:42+09:00
; #@! TF.GenerationSoftware,Kicad,Pcbnew,(5.1.0)-1
FMAT,2
METRIC
T1C0.400
T2C0.600
T3C1.000
T4C2.499
T5C0.650
%
G90
G05
T1
X44.45Y-75.565
X49.53Y-69.85
X53.339Y-85.47
X53.34Y-68.58
X55.0Y-58.42
X57.15Y-59.69
X57.15Y-60.96
X57.785Y-64.135
X59.055Y-65.405
X60.325Y-59.69
X60.325Y-66.675
X61.4Y-58.42
X62.23Y-61.595
X62.23Y-63.5
X62.865Y-66.675
X63.5Y-63.5
X64.135Y-61.595
X64.77Y-67.945
X66.675Y-60.96
X66.675Y-67.945
X68.58Y-67.945
X69.85Y-61.595
X69.85Y-66.04
X71.12Y-62.23
X71.12Y-64.77
X73.025Y-62.23
X73.025Y-64.77
X73.025Y-75.565
X74.625Y-96.342
X74.93Y-62.23
X74.93Y-64.77
X76.2Y-83.82
X76.835Y-62.23
X76.835Y-64.77
X77.724Y-74.93
X78.74Y-62.23
X78.74Y-64.77
X80.645Y-62.23
X80.645Y-64.77
X81.915Y-66.04
X82.296Y-83.947
X82.296Y-86.868
X82.55Y-63.5
X83.185Y-67.31
X83.82Y-64.77
X84.455Y-68.58
X85.09Y-66.04
X85.09Y-69.596
X86.36Y-67.31
X87.376Y-69.596
X88.011Y-77.851
X90.17Y-66.04
X90.805Y-90.805
X92.71Y-66.04
X95.0Y-93.0
X96.52Y-67.945
X96.52Y-69.215
X97.79Y-85.09
X97.79Y-86.995
X102.116Y-60.46
X105.474Y-81.153
X107.315Y-83.82
X109.855Y-83.82
X109.855Y-89.535
X120.65Y-66.675
T3
X93.92Y-60.46
X93.92Y-63.0
X96.46Y-60.46
X96.46Y-63.0
X99.0Y-60.46
X99.0Y-63.0
X110.38Y-60.5
X112.92Y-60.5
X115.46Y-60.5
X118.0Y-60.5
X76.2Y-110.49
X76.2Y-113.03
X78.74Y-110.49
X78.74Y-113.03
X81.28Y-110.49
X81.28Y-113.03
X83.82Y-110.49
X83.82Y-113.03
X86.36Y-110.49
X86.36Y-113.03
X88.9Y-110.49
X88.9Y-113.03
X91.44Y-110.49
X91.44Y-113.03
X93.98Y-110.49
X93.98Y-113.03
X96.52Y-110.49
X96.52Y-113.03
X99.06Y-110.49
X99.06Y-113.03
X101.6Y-110.49
X101.6Y-113.03
X104.14Y-110.49
X104.14Y-113.03
X106.68Y-110.49
X106.68Y-113.03
X109.22Y-110.49
X109.22Y-113.03
X111.76Y-110.49
X111.76Y-113.03
T5
X55.31Y-55.05
X61.09Y-55.05
T2
G00X53.88Y-51.1
M15
G01X53.88Y-51.7
M16
G05
G00X53.88Y-55.03
M15
G01X53.88Y-56.13
M16
G05
G00X62.52Y-51.1
M15
G01X62.52Y-51.7
M16
G05
G00X62.52Y-55.03
M15
G01X62.52Y-56.13
M16
G05
T4
G00X63.202Y-78.4
M15
G01X65.704Y-78.4
M16
G05
G00X39.581Y-106.625
M15
G01X44.082Y-106.625
M16
G05
T0
M30
