G04 #@! TF.GenerationSoftware,KiCad,Pcbnew,(5.1.0)-1*
G04 #@! TF.CreationDate,2019-07-26T12:40:45+09:00*
G04 #@! TF.ProjectId,ChocIn60,43686f63-496e-4363-902e-6b696361645f,rev?*
G04 #@! TF.SameCoordinates,Original*
G04 #@! TF.FileFunction,Copper,L2,Bot*
G04 #@! TF.FilePolarity,Positive*
%FSLAX46Y46*%
G04 Gerber Fmt 4.6, Leading zero omitted, Abs format (unit mm)*
G04 Created by KiCad (PCBNEW (5.1.0)-1) date 2019-07-26 12:40:45*
%MOMM*%
%LPD*%
G04 APERTURE LIST*
%ADD10R,0.550000X1.450000*%
%ADD11R,0.300000X1.450000*%
%ADD12O,1.000000X2.100000*%
%ADD13O,1.000000X1.600000*%
%ADD14C,0.100000*%
%ADD15C,1.150000*%
%ADD16R,1.800000X2.100000*%
%ADD17R,0.700000X1.000000*%
%ADD18R,0.700000X0.600000*%
%ADD19R,1.500000X0.550000*%
%ADD20R,0.550000X1.500000*%
%ADD21R,1.800000X1.100000*%
%ADD22O,1.700000X1.700000*%
%ADD23R,1.700000X1.700000*%
%ADD24C,1.425000*%
%ADD25R,1.200000X0.900000*%
%ADD26C,0.950000*%
%ADD27C,7.000240*%
%ADD28O,9.999980X5.001260*%
%ADD29C,0.800000*%
%ADD30C,0.500000*%
%ADD31C,0.250000*%
%ADD32C,0.200000*%
%ADD33C,0.254000*%
G04 APERTURE END LIST*
D10*
X61425000Y-56495000D03*
X54975000Y-56495000D03*
X60650000Y-56495000D03*
X55750000Y-56495000D03*
D11*
X56450000Y-56495000D03*
X59950000Y-56495000D03*
X56950000Y-56495000D03*
X59450000Y-56495000D03*
X57450000Y-56495000D03*
X58950000Y-56495000D03*
X58450000Y-56495000D03*
X57950000Y-56495000D03*
D12*
X53880000Y-55580000D03*
X62520000Y-55580000D03*
D13*
X53880000Y-51400000D03*
X62520000Y-51400000D03*
D14*
G36*
X66069505Y-62229704D02*
G01*
X66093773Y-62233304D01*
X66117572Y-62239265D01*
X66140671Y-62247530D01*
X66162850Y-62258020D01*
X66183893Y-62270632D01*
X66203599Y-62285247D01*
X66221777Y-62301723D01*
X66238253Y-62319901D01*
X66252868Y-62339607D01*
X66265480Y-62360650D01*
X66275970Y-62382829D01*
X66284235Y-62405928D01*
X66290196Y-62429727D01*
X66293796Y-62453995D01*
X66295000Y-62478499D01*
X66295000Y-63378501D01*
X66293796Y-63403005D01*
X66290196Y-63427273D01*
X66284235Y-63451072D01*
X66275970Y-63474171D01*
X66265480Y-63496350D01*
X66252868Y-63517393D01*
X66238253Y-63537099D01*
X66221777Y-63555277D01*
X66203599Y-63571753D01*
X66183893Y-63586368D01*
X66162850Y-63598980D01*
X66140671Y-63609470D01*
X66117572Y-63617735D01*
X66093773Y-63623696D01*
X66069505Y-63627296D01*
X66045001Y-63628500D01*
X65394999Y-63628500D01*
X65370495Y-63627296D01*
X65346227Y-63623696D01*
X65322428Y-63617735D01*
X65299329Y-63609470D01*
X65277150Y-63598980D01*
X65256107Y-63586368D01*
X65236401Y-63571753D01*
X65218223Y-63555277D01*
X65201747Y-63537099D01*
X65187132Y-63517393D01*
X65174520Y-63496350D01*
X65164030Y-63474171D01*
X65155765Y-63451072D01*
X65149804Y-63427273D01*
X65146204Y-63403005D01*
X65145000Y-63378501D01*
X65145000Y-62478499D01*
X65146204Y-62453995D01*
X65149804Y-62429727D01*
X65155765Y-62405928D01*
X65164030Y-62382829D01*
X65174520Y-62360650D01*
X65187132Y-62339607D01*
X65201747Y-62319901D01*
X65218223Y-62301723D01*
X65236401Y-62285247D01*
X65256107Y-62270632D01*
X65277150Y-62258020D01*
X65299329Y-62247530D01*
X65322428Y-62239265D01*
X65346227Y-62233304D01*
X65370495Y-62229704D01*
X65394999Y-62228500D01*
X66045001Y-62228500D01*
X66069505Y-62229704D01*
X66069505Y-62229704D01*
G37*
D15*
X65720000Y-62928500D03*
D14*
G36*
X68119505Y-62229704D02*
G01*
X68143773Y-62233304D01*
X68167572Y-62239265D01*
X68190671Y-62247530D01*
X68212850Y-62258020D01*
X68233893Y-62270632D01*
X68253599Y-62285247D01*
X68271777Y-62301723D01*
X68288253Y-62319901D01*
X68302868Y-62339607D01*
X68315480Y-62360650D01*
X68325970Y-62382829D01*
X68334235Y-62405928D01*
X68340196Y-62429727D01*
X68343796Y-62453995D01*
X68345000Y-62478499D01*
X68345000Y-63378501D01*
X68343796Y-63403005D01*
X68340196Y-63427273D01*
X68334235Y-63451072D01*
X68325970Y-63474171D01*
X68315480Y-63496350D01*
X68302868Y-63517393D01*
X68288253Y-63537099D01*
X68271777Y-63555277D01*
X68253599Y-63571753D01*
X68233893Y-63586368D01*
X68212850Y-63598980D01*
X68190671Y-63609470D01*
X68167572Y-63617735D01*
X68143773Y-63623696D01*
X68119505Y-63627296D01*
X68095001Y-63628500D01*
X67444999Y-63628500D01*
X67420495Y-63627296D01*
X67396227Y-63623696D01*
X67372428Y-63617735D01*
X67349329Y-63609470D01*
X67327150Y-63598980D01*
X67306107Y-63586368D01*
X67286401Y-63571753D01*
X67268223Y-63555277D01*
X67251747Y-63537099D01*
X67237132Y-63517393D01*
X67224520Y-63496350D01*
X67214030Y-63474171D01*
X67205765Y-63451072D01*
X67199804Y-63427273D01*
X67196204Y-63403005D01*
X67195000Y-63378501D01*
X67195000Y-62478499D01*
X67196204Y-62453995D01*
X67199804Y-62429727D01*
X67205765Y-62405928D01*
X67214030Y-62382829D01*
X67224520Y-62360650D01*
X67237132Y-62339607D01*
X67251747Y-62319901D01*
X67268223Y-62301723D01*
X67286401Y-62285247D01*
X67306107Y-62270632D01*
X67327150Y-62258020D01*
X67349329Y-62247530D01*
X67372428Y-62239265D01*
X67396227Y-62233304D01*
X67420495Y-62229704D01*
X67444999Y-62228500D01*
X68095001Y-62228500D01*
X68119505Y-62229704D01*
X68119505Y-62229704D01*
G37*
D15*
X67770000Y-62928500D03*
D14*
G36*
X66069505Y-64993604D02*
G01*
X66093773Y-64997204D01*
X66117572Y-65003165D01*
X66140671Y-65011430D01*
X66162850Y-65021920D01*
X66183893Y-65034532D01*
X66203599Y-65049147D01*
X66221777Y-65065623D01*
X66238253Y-65083801D01*
X66252868Y-65103507D01*
X66265480Y-65124550D01*
X66275970Y-65146729D01*
X66284235Y-65169828D01*
X66290196Y-65193627D01*
X66293796Y-65217895D01*
X66295000Y-65242399D01*
X66295000Y-66142401D01*
X66293796Y-66166905D01*
X66290196Y-66191173D01*
X66284235Y-66214972D01*
X66275970Y-66238071D01*
X66265480Y-66260250D01*
X66252868Y-66281293D01*
X66238253Y-66300999D01*
X66221777Y-66319177D01*
X66203599Y-66335653D01*
X66183893Y-66350268D01*
X66162850Y-66362880D01*
X66140671Y-66373370D01*
X66117572Y-66381635D01*
X66093773Y-66387596D01*
X66069505Y-66391196D01*
X66045001Y-66392400D01*
X65394999Y-66392400D01*
X65370495Y-66391196D01*
X65346227Y-66387596D01*
X65322428Y-66381635D01*
X65299329Y-66373370D01*
X65277150Y-66362880D01*
X65256107Y-66350268D01*
X65236401Y-66335653D01*
X65218223Y-66319177D01*
X65201747Y-66300999D01*
X65187132Y-66281293D01*
X65174520Y-66260250D01*
X65164030Y-66238071D01*
X65155765Y-66214972D01*
X65149804Y-66191173D01*
X65146204Y-66166905D01*
X65145000Y-66142401D01*
X65145000Y-65242399D01*
X65146204Y-65217895D01*
X65149804Y-65193627D01*
X65155765Y-65169828D01*
X65164030Y-65146729D01*
X65174520Y-65124550D01*
X65187132Y-65103507D01*
X65201747Y-65083801D01*
X65218223Y-65065623D01*
X65236401Y-65049147D01*
X65256107Y-65034532D01*
X65277150Y-65021920D01*
X65299329Y-65011430D01*
X65322428Y-65003165D01*
X65346227Y-64997204D01*
X65370495Y-64993604D01*
X65394999Y-64992400D01*
X66045001Y-64992400D01*
X66069505Y-64993604D01*
X66069505Y-64993604D01*
G37*
D15*
X65720000Y-65692400D03*
D14*
G36*
X68119505Y-64993604D02*
G01*
X68143773Y-64997204D01*
X68167572Y-65003165D01*
X68190671Y-65011430D01*
X68212850Y-65021920D01*
X68233893Y-65034532D01*
X68253599Y-65049147D01*
X68271777Y-65065623D01*
X68288253Y-65083801D01*
X68302868Y-65103507D01*
X68315480Y-65124550D01*
X68325970Y-65146729D01*
X68334235Y-65169828D01*
X68340196Y-65193627D01*
X68343796Y-65217895D01*
X68345000Y-65242399D01*
X68345000Y-66142401D01*
X68343796Y-66166905D01*
X68340196Y-66191173D01*
X68334235Y-66214972D01*
X68325970Y-66238071D01*
X68315480Y-66260250D01*
X68302868Y-66281293D01*
X68288253Y-66300999D01*
X68271777Y-66319177D01*
X68253599Y-66335653D01*
X68233893Y-66350268D01*
X68212850Y-66362880D01*
X68190671Y-66373370D01*
X68167572Y-66381635D01*
X68143773Y-66387596D01*
X68119505Y-66391196D01*
X68095001Y-66392400D01*
X67444999Y-66392400D01*
X67420495Y-66391196D01*
X67396227Y-66387596D01*
X67372428Y-66381635D01*
X67349329Y-66373370D01*
X67327150Y-66362880D01*
X67306107Y-66350268D01*
X67286401Y-66335653D01*
X67268223Y-66319177D01*
X67251747Y-66300999D01*
X67237132Y-66281293D01*
X67224520Y-66260250D01*
X67214030Y-66238071D01*
X67205765Y-66214972D01*
X67199804Y-66191173D01*
X67196204Y-66166905D01*
X67195000Y-66142401D01*
X67195000Y-65242399D01*
X67196204Y-65217895D01*
X67199804Y-65193627D01*
X67205765Y-65169828D01*
X67214030Y-65146729D01*
X67224520Y-65124550D01*
X67237132Y-65103507D01*
X67251747Y-65083801D01*
X67268223Y-65065623D01*
X67286401Y-65049147D01*
X67306107Y-65034532D01*
X67327150Y-65021920D01*
X67349329Y-65011430D01*
X67372428Y-65003165D01*
X67396227Y-64997204D01*
X67420495Y-64993604D01*
X67444999Y-64992400D01*
X68095001Y-64992400D01*
X68119505Y-64993604D01*
X68119505Y-64993604D01*
G37*
D15*
X67770000Y-65692400D03*
D14*
G36*
X49353505Y-58991204D02*
G01*
X49377773Y-58994804D01*
X49401572Y-59000765D01*
X49424671Y-59009030D01*
X49446850Y-59019520D01*
X49467893Y-59032132D01*
X49487599Y-59046747D01*
X49505777Y-59063223D01*
X49522253Y-59081401D01*
X49536868Y-59101107D01*
X49549480Y-59122150D01*
X49559970Y-59144329D01*
X49568235Y-59167428D01*
X49574196Y-59191227D01*
X49577796Y-59215495D01*
X49579000Y-59239999D01*
X49579000Y-60140001D01*
X49577796Y-60164505D01*
X49574196Y-60188773D01*
X49568235Y-60212572D01*
X49559970Y-60235671D01*
X49549480Y-60257850D01*
X49536868Y-60278893D01*
X49522253Y-60298599D01*
X49505777Y-60316777D01*
X49487599Y-60333253D01*
X49467893Y-60347868D01*
X49446850Y-60360480D01*
X49424671Y-60370970D01*
X49401572Y-60379235D01*
X49377773Y-60385196D01*
X49353505Y-60388796D01*
X49329001Y-60390000D01*
X48678999Y-60390000D01*
X48654495Y-60388796D01*
X48630227Y-60385196D01*
X48606428Y-60379235D01*
X48583329Y-60370970D01*
X48561150Y-60360480D01*
X48540107Y-60347868D01*
X48520401Y-60333253D01*
X48502223Y-60316777D01*
X48485747Y-60298599D01*
X48471132Y-60278893D01*
X48458520Y-60257850D01*
X48448030Y-60235671D01*
X48439765Y-60212572D01*
X48433804Y-60188773D01*
X48430204Y-60164505D01*
X48429000Y-60140001D01*
X48429000Y-59239999D01*
X48430204Y-59215495D01*
X48433804Y-59191227D01*
X48439765Y-59167428D01*
X48448030Y-59144329D01*
X48458520Y-59122150D01*
X48471132Y-59101107D01*
X48485747Y-59081401D01*
X48502223Y-59063223D01*
X48520401Y-59046747D01*
X48540107Y-59032132D01*
X48561150Y-59019520D01*
X48583329Y-59009030D01*
X48606428Y-59000765D01*
X48630227Y-58994804D01*
X48654495Y-58991204D01*
X48678999Y-58990000D01*
X49329001Y-58990000D01*
X49353505Y-58991204D01*
X49353505Y-58991204D01*
G37*
D15*
X49004000Y-59690000D03*
D14*
G36*
X51403505Y-58991204D02*
G01*
X51427773Y-58994804D01*
X51451572Y-59000765D01*
X51474671Y-59009030D01*
X51496850Y-59019520D01*
X51517893Y-59032132D01*
X51537599Y-59046747D01*
X51555777Y-59063223D01*
X51572253Y-59081401D01*
X51586868Y-59101107D01*
X51599480Y-59122150D01*
X51609970Y-59144329D01*
X51618235Y-59167428D01*
X51624196Y-59191227D01*
X51627796Y-59215495D01*
X51629000Y-59239999D01*
X51629000Y-60140001D01*
X51627796Y-60164505D01*
X51624196Y-60188773D01*
X51618235Y-60212572D01*
X51609970Y-60235671D01*
X51599480Y-60257850D01*
X51586868Y-60278893D01*
X51572253Y-60298599D01*
X51555777Y-60316777D01*
X51537599Y-60333253D01*
X51517893Y-60347868D01*
X51496850Y-60360480D01*
X51474671Y-60370970D01*
X51451572Y-60379235D01*
X51427773Y-60385196D01*
X51403505Y-60388796D01*
X51379001Y-60390000D01*
X50728999Y-60390000D01*
X50704495Y-60388796D01*
X50680227Y-60385196D01*
X50656428Y-60379235D01*
X50633329Y-60370970D01*
X50611150Y-60360480D01*
X50590107Y-60347868D01*
X50570401Y-60333253D01*
X50552223Y-60316777D01*
X50535747Y-60298599D01*
X50521132Y-60278893D01*
X50508520Y-60257850D01*
X50498030Y-60235671D01*
X50489765Y-60212572D01*
X50483804Y-60188773D01*
X50480204Y-60164505D01*
X50479000Y-60140001D01*
X50479000Y-59239999D01*
X50480204Y-59215495D01*
X50483804Y-59191227D01*
X50489765Y-59167428D01*
X50498030Y-59144329D01*
X50508520Y-59122150D01*
X50521132Y-59101107D01*
X50535747Y-59081401D01*
X50552223Y-59063223D01*
X50570401Y-59046747D01*
X50590107Y-59032132D01*
X50611150Y-59019520D01*
X50633329Y-59009030D01*
X50656428Y-59000765D01*
X50680227Y-58994804D01*
X50704495Y-58991204D01*
X50728999Y-58990000D01*
X51379001Y-58990000D01*
X51403505Y-58991204D01*
X51403505Y-58991204D01*
G37*
D15*
X51054000Y-59690000D03*
D14*
G36*
X65999505Y-58356204D02*
G01*
X66023773Y-58359804D01*
X66047572Y-58365765D01*
X66070671Y-58374030D01*
X66092850Y-58384520D01*
X66113893Y-58397132D01*
X66133599Y-58411747D01*
X66151777Y-58428223D01*
X66168253Y-58446401D01*
X66182868Y-58466107D01*
X66195480Y-58487150D01*
X66205970Y-58509329D01*
X66214235Y-58532428D01*
X66220196Y-58556227D01*
X66223796Y-58580495D01*
X66225000Y-58604999D01*
X66225000Y-59505001D01*
X66223796Y-59529505D01*
X66220196Y-59553773D01*
X66214235Y-59577572D01*
X66205970Y-59600671D01*
X66195480Y-59622850D01*
X66182868Y-59643893D01*
X66168253Y-59663599D01*
X66151777Y-59681777D01*
X66133599Y-59698253D01*
X66113893Y-59712868D01*
X66092850Y-59725480D01*
X66070671Y-59735970D01*
X66047572Y-59744235D01*
X66023773Y-59750196D01*
X65999505Y-59753796D01*
X65975001Y-59755000D01*
X65324999Y-59755000D01*
X65300495Y-59753796D01*
X65276227Y-59750196D01*
X65252428Y-59744235D01*
X65229329Y-59735970D01*
X65207150Y-59725480D01*
X65186107Y-59712868D01*
X65166401Y-59698253D01*
X65148223Y-59681777D01*
X65131747Y-59663599D01*
X65117132Y-59643893D01*
X65104520Y-59622850D01*
X65094030Y-59600671D01*
X65085765Y-59577572D01*
X65079804Y-59553773D01*
X65076204Y-59529505D01*
X65075000Y-59505001D01*
X65075000Y-58604999D01*
X65076204Y-58580495D01*
X65079804Y-58556227D01*
X65085765Y-58532428D01*
X65094030Y-58509329D01*
X65104520Y-58487150D01*
X65117132Y-58466107D01*
X65131747Y-58446401D01*
X65148223Y-58428223D01*
X65166401Y-58411747D01*
X65186107Y-58397132D01*
X65207150Y-58384520D01*
X65229329Y-58374030D01*
X65252428Y-58365765D01*
X65276227Y-58359804D01*
X65300495Y-58356204D01*
X65324999Y-58355000D01*
X65975001Y-58355000D01*
X65999505Y-58356204D01*
X65999505Y-58356204D01*
G37*
D15*
X65650000Y-59055000D03*
D14*
G36*
X68049505Y-58356204D02*
G01*
X68073773Y-58359804D01*
X68097572Y-58365765D01*
X68120671Y-58374030D01*
X68142850Y-58384520D01*
X68163893Y-58397132D01*
X68183599Y-58411747D01*
X68201777Y-58428223D01*
X68218253Y-58446401D01*
X68232868Y-58466107D01*
X68245480Y-58487150D01*
X68255970Y-58509329D01*
X68264235Y-58532428D01*
X68270196Y-58556227D01*
X68273796Y-58580495D01*
X68275000Y-58604999D01*
X68275000Y-59505001D01*
X68273796Y-59529505D01*
X68270196Y-59553773D01*
X68264235Y-59577572D01*
X68255970Y-59600671D01*
X68245480Y-59622850D01*
X68232868Y-59643893D01*
X68218253Y-59663599D01*
X68201777Y-59681777D01*
X68183599Y-59698253D01*
X68163893Y-59712868D01*
X68142850Y-59725480D01*
X68120671Y-59735970D01*
X68097572Y-59744235D01*
X68073773Y-59750196D01*
X68049505Y-59753796D01*
X68025001Y-59755000D01*
X67374999Y-59755000D01*
X67350495Y-59753796D01*
X67326227Y-59750196D01*
X67302428Y-59744235D01*
X67279329Y-59735970D01*
X67257150Y-59725480D01*
X67236107Y-59712868D01*
X67216401Y-59698253D01*
X67198223Y-59681777D01*
X67181747Y-59663599D01*
X67167132Y-59643893D01*
X67154520Y-59622850D01*
X67144030Y-59600671D01*
X67135765Y-59577572D01*
X67129804Y-59553773D01*
X67126204Y-59529505D01*
X67125000Y-59505001D01*
X67125000Y-58604999D01*
X67126204Y-58580495D01*
X67129804Y-58556227D01*
X67135765Y-58532428D01*
X67144030Y-58509329D01*
X67154520Y-58487150D01*
X67167132Y-58466107D01*
X67181747Y-58446401D01*
X67198223Y-58428223D01*
X67216401Y-58411747D01*
X67236107Y-58397132D01*
X67257150Y-58384520D01*
X67279329Y-58374030D01*
X67302428Y-58365765D01*
X67326227Y-58359804D01*
X67350495Y-58356204D01*
X67374999Y-58355000D01*
X68025001Y-58355000D01*
X68049505Y-58356204D01*
X68049505Y-58356204D01*
G37*
D15*
X67700000Y-59055000D03*
D16*
X103702500Y-78920000D03*
X103702500Y-76020000D03*
X101402500Y-76020000D03*
X101402500Y-78920000D03*
D17*
X60674800Y-61420000D03*
D18*
X58674800Y-61220000D03*
X60674800Y-63120000D03*
X58674800Y-63120000D03*
D19*
X82412600Y-73978000D03*
X82412600Y-74778000D03*
X82412600Y-75578000D03*
X82412600Y-76378000D03*
X82412600Y-77178000D03*
X82412600Y-77978000D03*
X82412600Y-78778000D03*
X82412600Y-79578000D03*
X82412600Y-80378000D03*
X82412600Y-81178000D03*
X82412600Y-81978000D03*
D20*
X84112600Y-83678000D03*
X84912600Y-83678000D03*
X85712600Y-83678000D03*
X86512600Y-83678000D03*
X87312600Y-83678000D03*
X88112600Y-83678000D03*
X88912600Y-83678000D03*
X89712600Y-83678000D03*
X90512600Y-83678000D03*
X91312600Y-83678000D03*
X92112600Y-83678000D03*
D19*
X93812600Y-81978000D03*
X93812600Y-81178000D03*
X93812600Y-80378000D03*
X93812600Y-79578000D03*
X93812600Y-78778000D03*
X93812600Y-77978000D03*
X93812600Y-77178000D03*
X93812600Y-76378000D03*
X93812600Y-75578000D03*
X93812600Y-74778000D03*
X93812600Y-73978000D03*
D20*
X92112600Y-72278000D03*
X91312600Y-72278000D03*
X90512600Y-72278000D03*
X89712600Y-72278000D03*
X88912600Y-72278000D03*
X88112600Y-72278000D03*
X87312600Y-72278000D03*
X86512600Y-72278000D03*
X85712600Y-72278000D03*
X84912600Y-72278000D03*
X84112600Y-72278000D03*
D21*
X66050000Y-96350000D03*
X72250000Y-100050000D03*
X66050000Y-100050000D03*
X72250000Y-96350000D03*
D14*
G36*
X117880505Y-62801204D02*
G01*
X117904773Y-62804804D01*
X117928572Y-62810765D01*
X117951671Y-62819030D01*
X117973850Y-62829520D01*
X117994893Y-62842132D01*
X118014599Y-62856747D01*
X118032777Y-62873223D01*
X118049253Y-62891401D01*
X118063868Y-62911107D01*
X118076480Y-62932150D01*
X118086970Y-62954329D01*
X118095235Y-62977428D01*
X118101196Y-63001227D01*
X118104796Y-63025495D01*
X118106000Y-63049999D01*
X118106000Y-63950001D01*
X118104796Y-63974505D01*
X118101196Y-63998773D01*
X118095235Y-64022572D01*
X118086970Y-64045671D01*
X118076480Y-64067850D01*
X118063868Y-64088893D01*
X118049253Y-64108599D01*
X118032777Y-64126777D01*
X118014599Y-64143253D01*
X117994893Y-64157868D01*
X117973850Y-64170480D01*
X117951671Y-64180970D01*
X117928572Y-64189235D01*
X117904773Y-64195196D01*
X117880505Y-64198796D01*
X117856001Y-64200000D01*
X117205999Y-64200000D01*
X117181495Y-64198796D01*
X117157227Y-64195196D01*
X117133428Y-64189235D01*
X117110329Y-64180970D01*
X117088150Y-64170480D01*
X117067107Y-64157868D01*
X117047401Y-64143253D01*
X117029223Y-64126777D01*
X117012747Y-64108599D01*
X116998132Y-64088893D01*
X116985520Y-64067850D01*
X116975030Y-64045671D01*
X116966765Y-64022572D01*
X116960804Y-63998773D01*
X116957204Y-63974505D01*
X116956000Y-63950001D01*
X116956000Y-63049999D01*
X116957204Y-63025495D01*
X116960804Y-63001227D01*
X116966765Y-62977428D01*
X116975030Y-62954329D01*
X116985520Y-62932150D01*
X116998132Y-62911107D01*
X117012747Y-62891401D01*
X117029223Y-62873223D01*
X117047401Y-62856747D01*
X117067107Y-62842132D01*
X117088150Y-62829520D01*
X117110329Y-62819030D01*
X117133428Y-62810765D01*
X117157227Y-62804804D01*
X117181495Y-62801204D01*
X117205999Y-62800000D01*
X117856001Y-62800000D01*
X117880505Y-62801204D01*
X117880505Y-62801204D01*
G37*
D15*
X117531000Y-63500000D03*
D14*
G36*
X115830505Y-62801204D02*
G01*
X115854773Y-62804804D01*
X115878572Y-62810765D01*
X115901671Y-62819030D01*
X115923850Y-62829520D01*
X115944893Y-62842132D01*
X115964599Y-62856747D01*
X115982777Y-62873223D01*
X115999253Y-62891401D01*
X116013868Y-62911107D01*
X116026480Y-62932150D01*
X116036970Y-62954329D01*
X116045235Y-62977428D01*
X116051196Y-63001227D01*
X116054796Y-63025495D01*
X116056000Y-63049999D01*
X116056000Y-63950001D01*
X116054796Y-63974505D01*
X116051196Y-63998773D01*
X116045235Y-64022572D01*
X116036970Y-64045671D01*
X116026480Y-64067850D01*
X116013868Y-64088893D01*
X115999253Y-64108599D01*
X115982777Y-64126777D01*
X115964599Y-64143253D01*
X115944893Y-64157868D01*
X115923850Y-64170480D01*
X115901671Y-64180970D01*
X115878572Y-64189235D01*
X115854773Y-64195196D01*
X115830505Y-64198796D01*
X115806001Y-64200000D01*
X115155999Y-64200000D01*
X115131495Y-64198796D01*
X115107227Y-64195196D01*
X115083428Y-64189235D01*
X115060329Y-64180970D01*
X115038150Y-64170480D01*
X115017107Y-64157868D01*
X114997401Y-64143253D01*
X114979223Y-64126777D01*
X114962747Y-64108599D01*
X114948132Y-64088893D01*
X114935520Y-64067850D01*
X114925030Y-64045671D01*
X114916765Y-64022572D01*
X114910804Y-63998773D01*
X114907204Y-63974505D01*
X114906000Y-63950001D01*
X114906000Y-63049999D01*
X114907204Y-63025495D01*
X114910804Y-63001227D01*
X114916765Y-62977428D01*
X114925030Y-62954329D01*
X114935520Y-62932150D01*
X114948132Y-62911107D01*
X114962747Y-62891401D01*
X114979223Y-62873223D01*
X114997401Y-62856747D01*
X115017107Y-62842132D01*
X115038150Y-62829520D01*
X115060329Y-62819030D01*
X115083428Y-62810765D01*
X115107227Y-62804804D01*
X115131495Y-62801204D01*
X115155999Y-62800000D01*
X115806001Y-62800000D01*
X115830505Y-62801204D01*
X115830505Y-62801204D01*
G37*
D15*
X115481000Y-63500000D03*
D14*
G36*
X113317505Y-62801204D02*
G01*
X113341773Y-62804804D01*
X113365572Y-62810765D01*
X113388671Y-62819030D01*
X113410850Y-62829520D01*
X113431893Y-62842132D01*
X113451599Y-62856747D01*
X113469777Y-62873223D01*
X113486253Y-62891401D01*
X113500868Y-62911107D01*
X113513480Y-62932150D01*
X113523970Y-62954329D01*
X113532235Y-62977428D01*
X113538196Y-63001227D01*
X113541796Y-63025495D01*
X113543000Y-63049999D01*
X113543000Y-63950001D01*
X113541796Y-63974505D01*
X113538196Y-63998773D01*
X113532235Y-64022572D01*
X113523970Y-64045671D01*
X113513480Y-64067850D01*
X113500868Y-64088893D01*
X113486253Y-64108599D01*
X113469777Y-64126777D01*
X113451599Y-64143253D01*
X113431893Y-64157868D01*
X113410850Y-64170480D01*
X113388671Y-64180970D01*
X113365572Y-64189235D01*
X113341773Y-64195196D01*
X113317505Y-64198796D01*
X113293001Y-64200000D01*
X112642999Y-64200000D01*
X112618495Y-64198796D01*
X112594227Y-64195196D01*
X112570428Y-64189235D01*
X112547329Y-64180970D01*
X112525150Y-64170480D01*
X112504107Y-64157868D01*
X112484401Y-64143253D01*
X112466223Y-64126777D01*
X112449747Y-64108599D01*
X112435132Y-64088893D01*
X112422520Y-64067850D01*
X112412030Y-64045671D01*
X112403765Y-64022572D01*
X112397804Y-63998773D01*
X112394204Y-63974505D01*
X112393000Y-63950001D01*
X112393000Y-63049999D01*
X112394204Y-63025495D01*
X112397804Y-63001227D01*
X112403765Y-62977428D01*
X112412030Y-62954329D01*
X112422520Y-62932150D01*
X112435132Y-62911107D01*
X112449747Y-62891401D01*
X112466223Y-62873223D01*
X112484401Y-62856747D01*
X112504107Y-62842132D01*
X112525150Y-62829520D01*
X112547329Y-62819030D01*
X112570428Y-62810765D01*
X112594227Y-62804804D01*
X112618495Y-62801204D01*
X112642999Y-62800000D01*
X113293001Y-62800000D01*
X113317505Y-62801204D01*
X113317505Y-62801204D01*
G37*
D15*
X112968000Y-63500000D03*
D14*
G36*
X111267505Y-62801204D02*
G01*
X111291773Y-62804804D01*
X111315572Y-62810765D01*
X111338671Y-62819030D01*
X111360850Y-62829520D01*
X111381893Y-62842132D01*
X111401599Y-62856747D01*
X111419777Y-62873223D01*
X111436253Y-62891401D01*
X111450868Y-62911107D01*
X111463480Y-62932150D01*
X111473970Y-62954329D01*
X111482235Y-62977428D01*
X111488196Y-63001227D01*
X111491796Y-63025495D01*
X111493000Y-63049999D01*
X111493000Y-63950001D01*
X111491796Y-63974505D01*
X111488196Y-63998773D01*
X111482235Y-64022572D01*
X111473970Y-64045671D01*
X111463480Y-64067850D01*
X111450868Y-64088893D01*
X111436253Y-64108599D01*
X111419777Y-64126777D01*
X111401599Y-64143253D01*
X111381893Y-64157868D01*
X111360850Y-64170480D01*
X111338671Y-64180970D01*
X111315572Y-64189235D01*
X111291773Y-64195196D01*
X111267505Y-64198796D01*
X111243001Y-64200000D01*
X110592999Y-64200000D01*
X110568495Y-64198796D01*
X110544227Y-64195196D01*
X110520428Y-64189235D01*
X110497329Y-64180970D01*
X110475150Y-64170480D01*
X110454107Y-64157868D01*
X110434401Y-64143253D01*
X110416223Y-64126777D01*
X110399747Y-64108599D01*
X110385132Y-64088893D01*
X110372520Y-64067850D01*
X110362030Y-64045671D01*
X110353765Y-64022572D01*
X110347804Y-63998773D01*
X110344204Y-63974505D01*
X110343000Y-63950001D01*
X110343000Y-63049999D01*
X110344204Y-63025495D01*
X110347804Y-63001227D01*
X110353765Y-62977428D01*
X110362030Y-62954329D01*
X110372520Y-62932150D01*
X110385132Y-62911107D01*
X110399747Y-62891401D01*
X110416223Y-62873223D01*
X110434401Y-62856747D01*
X110454107Y-62842132D01*
X110475150Y-62829520D01*
X110497329Y-62819030D01*
X110520428Y-62810765D01*
X110544227Y-62804804D01*
X110568495Y-62801204D01*
X110592999Y-62800000D01*
X111243001Y-62800000D01*
X111267505Y-62801204D01*
X111267505Y-62801204D01*
G37*
D15*
X110918000Y-63500000D03*
D14*
G36*
X83670505Y-88836204D02*
G01*
X83694773Y-88839804D01*
X83718572Y-88845765D01*
X83741671Y-88854030D01*
X83763850Y-88864520D01*
X83784893Y-88877132D01*
X83804599Y-88891747D01*
X83822777Y-88908223D01*
X83839253Y-88926401D01*
X83853868Y-88946107D01*
X83866480Y-88967150D01*
X83876970Y-88989329D01*
X83885235Y-89012428D01*
X83891196Y-89036227D01*
X83894796Y-89060495D01*
X83896000Y-89084999D01*
X83896000Y-89985001D01*
X83894796Y-90009505D01*
X83891196Y-90033773D01*
X83885235Y-90057572D01*
X83876970Y-90080671D01*
X83866480Y-90102850D01*
X83853868Y-90123893D01*
X83839253Y-90143599D01*
X83822777Y-90161777D01*
X83804599Y-90178253D01*
X83784893Y-90192868D01*
X83763850Y-90205480D01*
X83741671Y-90215970D01*
X83718572Y-90224235D01*
X83694773Y-90230196D01*
X83670505Y-90233796D01*
X83646001Y-90235000D01*
X82995999Y-90235000D01*
X82971495Y-90233796D01*
X82947227Y-90230196D01*
X82923428Y-90224235D01*
X82900329Y-90215970D01*
X82878150Y-90205480D01*
X82857107Y-90192868D01*
X82837401Y-90178253D01*
X82819223Y-90161777D01*
X82802747Y-90143599D01*
X82788132Y-90123893D01*
X82775520Y-90102850D01*
X82765030Y-90080671D01*
X82756765Y-90057572D01*
X82750804Y-90033773D01*
X82747204Y-90009505D01*
X82746000Y-89985001D01*
X82746000Y-89084999D01*
X82747204Y-89060495D01*
X82750804Y-89036227D01*
X82756765Y-89012428D01*
X82765030Y-88989329D01*
X82775520Y-88967150D01*
X82788132Y-88946107D01*
X82802747Y-88926401D01*
X82819223Y-88908223D01*
X82837401Y-88891747D01*
X82857107Y-88877132D01*
X82878150Y-88864520D01*
X82900329Y-88854030D01*
X82923428Y-88845765D01*
X82947227Y-88839804D01*
X82971495Y-88836204D01*
X82995999Y-88835000D01*
X83646001Y-88835000D01*
X83670505Y-88836204D01*
X83670505Y-88836204D01*
G37*
D15*
X83321000Y-89535000D03*
D14*
G36*
X81620505Y-88836204D02*
G01*
X81644773Y-88839804D01*
X81668572Y-88845765D01*
X81691671Y-88854030D01*
X81713850Y-88864520D01*
X81734893Y-88877132D01*
X81754599Y-88891747D01*
X81772777Y-88908223D01*
X81789253Y-88926401D01*
X81803868Y-88946107D01*
X81816480Y-88967150D01*
X81826970Y-88989329D01*
X81835235Y-89012428D01*
X81841196Y-89036227D01*
X81844796Y-89060495D01*
X81846000Y-89084999D01*
X81846000Y-89985001D01*
X81844796Y-90009505D01*
X81841196Y-90033773D01*
X81835235Y-90057572D01*
X81826970Y-90080671D01*
X81816480Y-90102850D01*
X81803868Y-90123893D01*
X81789253Y-90143599D01*
X81772777Y-90161777D01*
X81754599Y-90178253D01*
X81734893Y-90192868D01*
X81713850Y-90205480D01*
X81691671Y-90215970D01*
X81668572Y-90224235D01*
X81644773Y-90230196D01*
X81620505Y-90233796D01*
X81596001Y-90235000D01*
X80945999Y-90235000D01*
X80921495Y-90233796D01*
X80897227Y-90230196D01*
X80873428Y-90224235D01*
X80850329Y-90215970D01*
X80828150Y-90205480D01*
X80807107Y-90192868D01*
X80787401Y-90178253D01*
X80769223Y-90161777D01*
X80752747Y-90143599D01*
X80738132Y-90123893D01*
X80725520Y-90102850D01*
X80715030Y-90080671D01*
X80706765Y-90057572D01*
X80700804Y-90033773D01*
X80697204Y-90009505D01*
X80696000Y-89985001D01*
X80696000Y-89084999D01*
X80697204Y-89060495D01*
X80700804Y-89036227D01*
X80706765Y-89012428D01*
X80715030Y-88989329D01*
X80725520Y-88967150D01*
X80738132Y-88946107D01*
X80752747Y-88926401D01*
X80769223Y-88908223D01*
X80787401Y-88891747D01*
X80807107Y-88877132D01*
X80828150Y-88864520D01*
X80850329Y-88854030D01*
X80873428Y-88845765D01*
X80897227Y-88839804D01*
X80921495Y-88836204D01*
X80945999Y-88835000D01*
X81596001Y-88835000D01*
X81620505Y-88836204D01*
X81620505Y-88836204D01*
G37*
D15*
X81271000Y-89535000D03*
D22*
X110380000Y-60500000D03*
X112920000Y-60500000D03*
X115460000Y-60500000D03*
D23*
X118000000Y-60500000D03*
D22*
X111760000Y-113030000D03*
X111760000Y-110490000D03*
X109220000Y-113030000D03*
X109220000Y-110490000D03*
X106680000Y-113030000D03*
X106680000Y-110490000D03*
X104140000Y-113030000D03*
X104140000Y-110490000D03*
X101600000Y-113030000D03*
X101600000Y-110490000D03*
X99060000Y-113030000D03*
X99060000Y-110490000D03*
X96520000Y-113030000D03*
X96520000Y-110490000D03*
X93980000Y-113030000D03*
X93980000Y-110490000D03*
X91440000Y-113030000D03*
X91440000Y-110490000D03*
X88900000Y-113030000D03*
X88900000Y-110490000D03*
X86360000Y-113030000D03*
X86360000Y-110490000D03*
X83820000Y-113030000D03*
X83820000Y-110490000D03*
X81280000Y-113030000D03*
X81280000Y-110490000D03*
X78740000Y-113030000D03*
X78740000Y-110490000D03*
X76200000Y-113030000D03*
D23*
X76200000Y-110490000D03*
D22*
X93920000Y-60460000D03*
X93920000Y-63000000D03*
X96460000Y-60460000D03*
X96460000Y-63000000D03*
X99000000Y-60460000D03*
D23*
X99000000Y-63000000D03*
D14*
G36*
X50179504Y-73736104D02*
G01*
X50203773Y-73739704D01*
X50227571Y-73745665D01*
X50250671Y-73753930D01*
X50272849Y-73764420D01*
X50293893Y-73777033D01*
X50313598Y-73791647D01*
X50331777Y-73808123D01*
X50348253Y-73826302D01*
X50362867Y-73846007D01*
X50375480Y-73867051D01*
X50385970Y-73889229D01*
X50394235Y-73912329D01*
X50400196Y-73936127D01*
X50403796Y-73960396D01*
X50405000Y-73984900D01*
X50405000Y-74909900D01*
X50403796Y-74934404D01*
X50400196Y-74958673D01*
X50394235Y-74982471D01*
X50385970Y-75005571D01*
X50375480Y-75027749D01*
X50362867Y-75048793D01*
X50348253Y-75068498D01*
X50331777Y-75086677D01*
X50313598Y-75103153D01*
X50293893Y-75117767D01*
X50272849Y-75130380D01*
X50250671Y-75140870D01*
X50227571Y-75149135D01*
X50203773Y-75155096D01*
X50179504Y-75158696D01*
X50155000Y-75159900D01*
X48905000Y-75159900D01*
X48880496Y-75158696D01*
X48856227Y-75155096D01*
X48832429Y-75149135D01*
X48809329Y-75140870D01*
X48787151Y-75130380D01*
X48766107Y-75117767D01*
X48746402Y-75103153D01*
X48728223Y-75086677D01*
X48711747Y-75068498D01*
X48697133Y-75048793D01*
X48684520Y-75027749D01*
X48674030Y-75005571D01*
X48665765Y-74982471D01*
X48659804Y-74958673D01*
X48656204Y-74934404D01*
X48655000Y-74909900D01*
X48655000Y-73984900D01*
X48656204Y-73960396D01*
X48659804Y-73936127D01*
X48665765Y-73912329D01*
X48674030Y-73889229D01*
X48684520Y-73867051D01*
X48697133Y-73846007D01*
X48711747Y-73826302D01*
X48728223Y-73808123D01*
X48746402Y-73791647D01*
X48766107Y-73777033D01*
X48787151Y-73764420D01*
X48809329Y-73753930D01*
X48832429Y-73745665D01*
X48856227Y-73739704D01*
X48880496Y-73736104D01*
X48905000Y-73734900D01*
X50155000Y-73734900D01*
X50179504Y-73736104D01*
X50179504Y-73736104D01*
G37*
D24*
X49530000Y-74447400D03*
D14*
G36*
X50179504Y-76711104D02*
G01*
X50203773Y-76714704D01*
X50227571Y-76720665D01*
X50250671Y-76728930D01*
X50272849Y-76739420D01*
X50293893Y-76752033D01*
X50313598Y-76766647D01*
X50331777Y-76783123D01*
X50348253Y-76801302D01*
X50362867Y-76821007D01*
X50375480Y-76842051D01*
X50385970Y-76864229D01*
X50394235Y-76887329D01*
X50400196Y-76911127D01*
X50403796Y-76935396D01*
X50405000Y-76959900D01*
X50405000Y-77884900D01*
X50403796Y-77909404D01*
X50400196Y-77933673D01*
X50394235Y-77957471D01*
X50385970Y-77980571D01*
X50375480Y-78002749D01*
X50362867Y-78023793D01*
X50348253Y-78043498D01*
X50331777Y-78061677D01*
X50313598Y-78078153D01*
X50293893Y-78092767D01*
X50272849Y-78105380D01*
X50250671Y-78115870D01*
X50227571Y-78124135D01*
X50203773Y-78130096D01*
X50179504Y-78133696D01*
X50155000Y-78134900D01*
X48905000Y-78134900D01*
X48880496Y-78133696D01*
X48856227Y-78130096D01*
X48832429Y-78124135D01*
X48809329Y-78115870D01*
X48787151Y-78105380D01*
X48766107Y-78092767D01*
X48746402Y-78078153D01*
X48728223Y-78061677D01*
X48711747Y-78043498D01*
X48697133Y-78023793D01*
X48684520Y-78002749D01*
X48674030Y-77980571D01*
X48665765Y-77957471D01*
X48659804Y-77933673D01*
X48656204Y-77909404D01*
X48655000Y-77884900D01*
X48655000Y-76959900D01*
X48656204Y-76935396D01*
X48659804Y-76911127D01*
X48665765Y-76887329D01*
X48674030Y-76864229D01*
X48684520Y-76842051D01*
X48697133Y-76821007D01*
X48711747Y-76801302D01*
X48728223Y-76783123D01*
X48746402Y-76766647D01*
X48766107Y-76752033D01*
X48787151Y-76739420D01*
X48809329Y-76728930D01*
X48832429Y-76720665D01*
X48856227Y-76714704D01*
X48880496Y-76711104D01*
X48905000Y-76709900D01*
X50155000Y-76709900D01*
X50179504Y-76711104D01*
X50179504Y-76711104D01*
G37*
D24*
X49530000Y-77422400D03*
D25*
X49530000Y-82170000D03*
X49530000Y-85470000D03*
D14*
G36*
X79635779Y-71753144D02*
G01*
X79658834Y-71756563D01*
X79681443Y-71762227D01*
X79703387Y-71770079D01*
X79724457Y-71780044D01*
X79744448Y-71792026D01*
X79763168Y-71805910D01*
X79780438Y-71821562D01*
X79796090Y-71838832D01*
X79809974Y-71857552D01*
X79821956Y-71877543D01*
X79831921Y-71898613D01*
X79839773Y-71920557D01*
X79845437Y-71943166D01*
X79848856Y-71966221D01*
X79850000Y-71989500D01*
X79850000Y-72564500D01*
X79848856Y-72587779D01*
X79845437Y-72610834D01*
X79839773Y-72633443D01*
X79831921Y-72655387D01*
X79821956Y-72676457D01*
X79809974Y-72696448D01*
X79796090Y-72715168D01*
X79780438Y-72732438D01*
X79763168Y-72748090D01*
X79744448Y-72761974D01*
X79724457Y-72773956D01*
X79703387Y-72783921D01*
X79681443Y-72791773D01*
X79658834Y-72797437D01*
X79635779Y-72800856D01*
X79612500Y-72802000D01*
X79137500Y-72802000D01*
X79114221Y-72800856D01*
X79091166Y-72797437D01*
X79068557Y-72791773D01*
X79046613Y-72783921D01*
X79025543Y-72773956D01*
X79005552Y-72761974D01*
X78986832Y-72748090D01*
X78969562Y-72732438D01*
X78953910Y-72715168D01*
X78940026Y-72696448D01*
X78928044Y-72676457D01*
X78918079Y-72655387D01*
X78910227Y-72633443D01*
X78904563Y-72610834D01*
X78901144Y-72587779D01*
X78900000Y-72564500D01*
X78900000Y-71989500D01*
X78901144Y-71966221D01*
X78904563Y-71943166D01*
X78910227Y-71920557D01*
X78918079Y-71898613D01*
X78928044Y-71877543D01*
X78940026Y-71857552D01*
X78953910Y-71838832D01*
X78969562Y-71821562D01*
X78986832Y-71805910D01*
X79005552Y-71792026D01*
X79025543Y-71780044D01*
X79046613Y-71770079D01*
X79068557Y-71762227D01*
X79091166Y-71756563D01*
X79114221Y-71753144D01*
X79137500Y-71752000D01*
X79612500Y-71752000D01*
X79635779Y-71753144D01*
X79635779Y-71753144D01*
G37*
D26*
X79375000Y-72277000D03*
D14*
G36*
X79635779Y-73503144D02*
G01*
X79658834Y-73506563D01*
X79681443Y-73512227D01*
X79703387Y-73520079D01*
X79724457Y-73530044D01*
X79744448Y-73542026D01*
X79763168Y-73555910D01*
X79780438Y-73571562D01*
X79796090Y-73588832D01*
X79809974Y-73607552D01*
X79821956Y-73627543D01*
X79831921Y-73648613D01*
X79839773Y-73670557D01*
X79845437Y-73693166D01*
X79848856Y-73716221D01*
X79850000Y-73739500D01*
X79850000Y-74314500D01*
X79848856Y-74337779D01*
X79845437Y-74360834D01*
X79839773Y-74383443D01*
X79831921Y-74405387D01*
X79821956Y-74426457D01*
X79809974Y-74446448D01*
X79796090Y-74465168D01*
X79780438Y-74482438D01*
X79763168Y-74498090D01*
X79744448Y-74511974D01*
X79724457Y-74523956D01*
X79703387Y-74533921D01*
X79681443Y-74541773D01*
X79658834Y-74547437D01*
X79635779Y-74550856D01*
X79612500Y-74552000D01*
X79137500Y-74552000D01*
X79114221Y-74550856D01*
X79091166Y-74547437D01*
X79068557Y-74541773D01*
X79046613Y-74533921D01*
X79025543Y-74523956D01*
X79005552Y-74511974D01*
X78986832Y-74498090D01*
X78969562Y-74482438D01*
X78953910Y-74465168D01*
X78940026Y-74446448D01*
X78928044Y-74426457D01*
X78918079Y-74405387D01*
X78910227Y-74383443D01*
X78904563Y-74360834D01*
X78901144Y-74337779D01*
X78900000Y-74314500D01*
X78900000Y-73739500D01*
X78901144Y-73716221D01*
X78904563Y-73693166D01*
X78910227Y-73670557D01*
X78918079Y-73648613D01*
X78928044Y-73627543D01*
X78940026Y-73607552D01*
X78953910Y-73588832D01*
X78969562Y-73571562D01*
X78986832Y-73555910D01*
X79005552Y-73542026D01*
X79025543Y-73530044D01*
X79046613Y-73520079D01*
X79068557Y-73512227D01*
X79091166Y-73506563D01*
X79114221Y-73503144D01*
X79137500Y-73502000D01*
X79612500Y-73502000D01*
X79635779Y-73503144D01*
X79635779Y-73503144D01*
G37*
D26*
X79375000Y-74027000D03*
D14*
G36*
X93260779Y-89061144D02*
G01*
X93283834Y-89064563D01*
X93306443Y-89070227D01*
X93328387Y-89078079D01*
X93349457Y-89088044D01*
X93369448Y-89100026D01*
X93388168Y-89113910D01*
X93405438Y-89129562D01*
X93421090Y-89146832D01*
X93434974Y-89165552D01*
X93446956Y-89185543D01*
X93456921Y-89206613D01*
X93464773Y-89228557D01*
X93470437Y-89251166D01*
X93473856Y-89274221D01*
X93475000Y-89297500D01*
X93475000Y-89772500D01*
X93473856Y-89795779D01*
X93470437Y-89818834D01*
X93464773Y-89841443D01*
X93456921Y-89863387D01*
X93446956Y-89884457D01*
X93434974Y-89904448D01*
X93421090Y-89923168D01*
X93405438Y-89940438D01*
X93388168Y-89956090D01*
X93369448Y-89969974D01*
X93349457Y-89981956D01*
X93328387Y-89991921D01*
X93306443Y-89999773D01*
X93283834Y-90005437D01*
X93260779Y-90008856D01*
X93237500Y-90010000D01*
X92662500Y-90010000D01*
X92639221Y-90008856D01*
X92616166Y-90005437D01*
X92593557Y-89999773D01*
X92571613Y-89991921D01*
X92550543Y-89981956D01*
X92530552Y-89969974D01*
X92511832Y-89956090D01*
X92494562Y-89940438D01*
X92478910Y-89923168D01*
X92465026Y-89904448D01*
X92453044Y-89884457D01*
X92443079Y-89863387D01*
X92435227Y-89841443D01*
X92429563Y-89818834D01*
X92426144Y-89795779D01*
X92425000Y-89772500D01*
X92425000Y-89297500D01*
X92426144Y-89274221D01*
X92429563Y-89251166D01*
X92435227Y-89228557D01*
X92443079Y-89206613D01*
X92453044Y-89185543D01*
X92465026Y-89165552D01*
X92478910Y-89146832D01*
X92494562Y-89129562D01*
X92511832Y-89113910D01*
X92530552Y-89100026D01*
X92550543Y-89088044D01*
X92571613Y-89078079D01*
X92593557Y-89070227D01*
X92616166Y-89064563D01*
X92639221Y-89061144D01*
X92662500Y-89060000D01*
X93237500Y-89060000D01*
X93260779Y-89061144D01*
X93260779Y-89061144D01*
G37*
D26*
X92950000Y-89535000D03*
D14*
G36*
X91510779Y-89061144D02*
G01*
X91533834Y-89064563D01*
X91556443Y-89070227D01*
X91578387Y-89078079D01*
X91599457Y-89088044D01*
X91619448Y-89100026D01*
X91638168Y-89113910D01*
X91655438Y-89129562D01*
X91671090Y-89146832D01*
X91684974Y-89165552D01*
X91696956Y-89185543D01*
X91706921Y-89206613D01*
X91714773Y-89228557D01*
X91720437Y-89251166D01*
X91723856Y-89274221D01*
X91725000Y-89297500D01*
X91725000Y-89772500D01*
X91723856Y-89795779D01*
X91720437Y-89818834D01*
X91714773Y-89841443D01*
X91706921Y-89863387D01*
X91696956Y-89884457D01*
X91684974Y-89904448D01*
X91671090Y-89923168D01*
X91655438Y-89940438D01*
X91638168Y-89956090D01*
X91619448Y-89969974D01*
X91599457Y-89981956D01*
X91578387Y-89991921D01*
X91556443Y-89999773D01*
X91533834Y-90005437D01*
X91510779Y-90008856D01*
X91487500Y-90010000D01*
X90912500Y-90010000D01*
X90889221Y-90008856D01*
X90866166Y-90005437D01*
X90843557Y-89999773D01*
X90821613Y-89991921D01*
X90800543Y-89981956D01*
X90780552Y-89969974D01*
X90761832Y-89956090D01*
X90744562Y-89940438D01*
X90728910Y-89923168D01*
X90715026Y-89904448D01*
X90703044Y-89884457D01*
X90693079Y-89863387D01*
X90685227Y-89841443D01*
X90679563Y-89818834D01*
X90676144Y-89795779D01*
X90675000Y-89772500D01*
X90675000Y-89297500D01*
X90676144Y-89274221D01*
X90679563Y-89251166D01*
X90685227Y-89228557D01*
X90693079Y-89206613D01*
X90703044Y-89185543D01*
X90715026Y-89165552D01*
X90728910Y-89146832D01*
X90744562Y-89129562D01*
X90761832Y-89113910D01*
X90780552Y-89100026D01*
X90800543Y-89088044D01*
X90821613Y-89078079D01*
X90843557Y-89070227D01*
X90866166Y-89064563D01*
X90889221Y-89061144D01*
X90912500Y-89060000D01*
X91487500Y-89060000D01*
X91510779Y-89061144D01*
X91510779Y-89061144D01*
G37*
D26*
X91200000Y-89535000D03*
D14*
G36*
X79635779Y-81532144D02*
G01*
X79658834Y-81535563D01*
X79681443Y-81541227D01*
X79703387Y-81549079D01*
X79724457Y-81559044D01*
X79744448Y-81571026D01*
X79763168Y-81584910D01*
X79780438Y-81600562D01*
X79796090Y-81617832D01*
X79809974Y-81636552D01*
X79821956Y-81656543D01*
X79831921Y-81677613D01*
X79839773Y-81699557D01*
X79845437Y-81722166D01*
X79848856Y-81745221D01*
X79850000Y-81768500D01*
X79850000Y-82343500D01*
X79848856Y-82366779D01*
X79845437Y-82389834D01*
X79839773Y-82412443D01*
X79831921Y-82434387D01*
X79821956Y-82455457D01*
X79809974Y-82475448D01*
X79796090Y-82494168D01*
X79780438Y-82511438D01*
X79763168Y-82527090D01*
X79744448Y-82540974D01*
X79724457Y-82552956D01*
X79703387Y-82562921D01*
X79681443Y-82570773D01*
X79658834Y-82576437D01*
X79635779Y-82579856D01*
X79612500Y-82581000D01*
X79137500Y-82581000D01*
X79114221Y-82579856D01*
X79091166Y-82576437D01*
X79068557Y-82570773D01*
X79046613Y-82562921D01*
X79025543Y-82552956D01*
X79005552Y-82540974D01*
X78986832Y-82527090D01*
X78969562Y-82511438D01*
X78953910Y-82494168D01*
X78940026Y-82475448D01*
X78928044Y-82455457D01*
X78918079Y-82434387D01*
X78910227Y-82412443D01*
X78904563Y-82389834D01*
X78901144Y-82366779D01*
X78900000Y-82343500D01*
X78900000Y-81768500D01*
X78901144Y-81745221D01*
X78904563Y-81722166D01*
X78910227Y-81699557D01*
X78918079Y-81677613D01*
X78928044Y-81656543D01*
X78940026Y-81636552D01*
X78953910Y-81617832D01*
X78969562Y-81600562D01*
X78986832Y-81584910D01*
X79005552Y-81571026D01*
X79025543Y-81559044D01*
X79046613Y-81549079D01*
X79068557Y-81541227D01*
X79091166Y-81535563D01*
X79114221Y-81532144D01*
X79137500Y-81531000D01*
X79612500Y-81531000D01*
X79635779Y-81532144D01*
X79635779Y-81532144D01*
G37*
D26*
X79375000Y-82056000D03*
D14*
G36*
X79635779Y-83282144D02*
G01*
X79658834Y-83285563D01*
X79681443Y-83291227D01*
X79703387Y-83299079D01*
X79724457Y-83309044D01*
X79744448Y-83321026D01*
X79763168Y-83334910D01*
X79780438Y-83350562D01*
X79796090Y-83367832D01*
X79809974Y-83386552D01*
X79821956Y-83406543D01*
X79831921Y-83427613D01*
X79839773Y-83449557D01*
X79845437Y-83472166D01*
X79848856Y-83495221D01*
X79850000Y-83518500D01*
X79850000Y-84093500D01*
X79848856Y-84116779D01*
X79845437Y-84139834D01*
X79839773Y-84162443D01*
X79831921Y-84184387D01*
X79821956Y-84205457D01*
X79809974Y-84225448D01*
X79796090Y-84244168D01*
X79780438Y-84261438D01*
X79763168Y-84277090D01*
X79744448Y-84290974D01*
X79724457Y-84302956D01*
X79703387Y-84312921D01*
X79681443Y-84320773D01*
X79658834Y-84326437D01*
X79635779Y-84329856D01*
X79612500Y-84331000D01*
X79137500Y-84331000D01*
X79114221Y-84329856D01*
X79091166Y-84326437D01*
X79068557Y-84320773D01*
X79046613Y-84312921D01*
X79025543Y-84302956D01*
X79005552Y-84290974D01*
X78986832Y-84277090D01*
X78969562Y-84261438D01*
X78953910Y-84244168D01*
X78940026Y-84225448D01*
X78928044Y-84205457D01*
X78918079Y-84184387D01*
X78910227Y-84162443D01*
X78904563Y-84139834D01*
X78901144Y-84116779D01*
X78900000Y-84093500D01*
X78900000Y-83518500D01*
X78901144Y-83495221D01*
X78904563Y-83472166D01*
X78910227Y-83449557D01*
X78918079Y-83427613D01*
X78928044Y-83406543D01*
X78940026Y-83386552D01*
X78953910Y-83367832D01*
X78969562Y-83350562D01*
X78986832Y-83334910D01*
X79005552Y-83321026D01*
X79025543Y-83309044D01*
X79046613Y-83299079D01*
X79068557Y-83291227D01*
X79091166Y-83285563D01*
X79114221Y-83282144D01*
X79137500Y-83281000D01*
X79612500Y-83281000D01*
X79635779Y-83282144D01*
X79635779Y-83282144D01*
G37*
D26*
X79375000Y-83806000D03*
D14*
G36*
X98368779Y-69630144D02*
G01*
X98391834Y-69633563D01*
X98414443Y-69639227D01*
X98436387Y-69647079D01*
X98457457Y-69657044D01*
X98477448Y-69669026D01*
X98496168Y-69682910D01*
X98513438Y-69698562D01*
X98529090Y-69715832D01*
X98542974Y-69734552D01*
X98554956Y-69754543D01*
X98564921Y-69775613D01*
X98572773Y-69797557D01*
X98578437Y-69820166D01*
X98581856Y-69843221D01*
X98583000Y-69866500D01*
X98583000Y-70341500D01*
X98581856Y-70364779D01*
X98578437Y-70387834D01*
X98572773Y-70410443D01*
X98564921Y-70432387D01*
X98554956Y-70453457D01*
X98542974Y-70473448D01*
X98529090Y-70492168D01*
X98513438Y-70509438D01*
X98496168Y-70525090D01*
X98477448Y-70538974D01*
X98457457Y-70550956D01*
X98436387Y-70560921D01*
X98414443Y-70568773D01*
X98391834Y-70574437D01*
X98368779Y-70577856D01*
X98345500Y-70579000D01*
X97770500Y-70579000D01*
X97747221Y-70577856D01*
X97724166Y-70574437D01*
X97701557Y-70568773D01*
X97679613Y-70560921D01*
X97658543Y-70550956D01*
X97638552Y-70538974D01*
X97619832Y-70525090D01*
X97602562Y-70509438D01*
X97586910Y-70492168D01*
X97573026Y-70473448D01*
X97561044Y-70453457D01*
X97551079Y-70432387D01*
X97543227Y-70410443D01*
X97537563Y-70387834D01*
X97534144Y-70364779D01*
X97533000Y-70341500D01*
X97533000Y-69866500D01*
X97534144Y-69843221D01*
X97537563Y-69820166D01*
X97543227Y-69797557D01*
X97551079Y-69775613D01*
X97561044Y-69754543D01*
X97573026Y-69734552D01*
X97586910Y-69715832D01*
X97602562Y-69698562D01*
X97619832Y-69682910D01*
X97638552Y-69669026D01*
X97658543Y-69657044D01*
X97679613Y-69647079D01*
X97701557Y-69639227D01*
X97724166Y-69633563D01*
X97747221Y-69630144D01*
X97770500Y-69629000D01*
X98345500Y-69629000D01*
X98368779Y-69630144D01*
X98368779Y-69630144D01*
G37*
D26*
X98058000Y-70104000D03*
D14*
G36*
X100118779Y-69630144D02*
G01*
X100141834Y-69633563D01*
X100164443Y-69639227D01*
X100186387Y-69647079D01*
X100207457Y-69657044D01*
X100227448Y-69669026D01*
X100246168Y-69682910D01*
X100263438Y-69698562D01*
X100279090Y-69715832D01*
X100292974Y-69734552D01*
X100304956Y-69754543D01*
X100314921Y-69775613D01*
X100322773Y-69797557D01*
X100328437Y-69820166D01*
X100331856Y-69843221D01*
X100333000Y-69866500D01*
X100333000Y-70341500D01*
X100331856Y-70364779D01*
X100328437Y-70387834D01*
X100322773Y-70410443D01*
X100314921Y-70432387D01*
X100304956Y-70453457D01*
X100292974Y-70473448D01*
X100279090Y-70492168D01*
X100263438Y-70509438D01*
X100246168Y-70525090D01*
X100227448Y-70538974D01*
X100207457Y-70550956D01*
X100186387Y-70560921D01*
X100164443Y-70568773D01*
X100141834Y-70574437D01*
X100118779Y-70577856D01*
X100095500Y-70579000D01*
X99520500Y-70579000D01*
X99497221Y-70577856D01*
X99474166Y-70574437D01*
X99451557Y-70568773D01*
X99429613Y-70560921D01*
X99408543Y-70550956D01*
X99388552Y-70538974D01*
X99369832Y-70525090D01*
X99352562Y-70509438D01*
X99336910Y-70492168D01*
X99323026Y-70473448D01*
X99311044Y-70453457D01*
X99301079Y-70432387D01*
X99293227Y-70410443D01*
X99287563Y-70387834D01*
X99284144Y-70364779D01*
X99283000Y-70341500D01*
X99283000Y-69866500D01*
X99284144Y-69843221D01*
X99287563Y-69820166D01*
X99293227Y-69797557D01*
X99301079Y-69775613D01*
X99311044Y-69754543D01*
X99323026Y-69734552D01*
X99336910Y-69715832D01*
X99352562Y-69698562D01*
X99369832Y-69682910D01*
X99388552Y-69669026D01*
X99408543Y-69657044D01*
X99429613Y-69647079D01*
X99451557Y-69639227D01*
X99474166Y-69633563D01*
X99497221Y-69630144D01*
X99520500Y-69629000D01*
X100095500Y-69629000D01*
X100118779Y-69630144D01*
X100118779Y-69630144D01*
G37*
D26*
X99808000Y-70104000D03*
D14*
G36*
X88398779Y-63244144D02*
G01*
X88421834Y-63247563D01*
X88444443Y-63253227D01*
X88466387Y-63261079D01*
X88487457Y-63271044D01*
X88507448Y-63283026D01*
X88526168Y-63296910D01*
X88543438Y-63312562D01*
X88559090Y-63329832D01*
X88572974Y-63348552D01*
X88584956Y-63368543D01*
X88594921Y-63389613D01*
X88602773Y-63411557D01*
X88608437Y-63434166D01*
X88611856Y-63457221D01*
X88613000Y-63480500D01*
X88613000Y-64055500D01*
X88611856Y-64078779D01*
X88608437Y-64101834D01*
X88602773Y-64124443D01*
X88594921Y-64146387D01*
X88584956Y-64167457D01*
X88572974Y-64187448D01*
X88559090Y-64206168D01*
X88543438Y-64223438D01*
X88526168Y-64239090D01*
X88507448Y-64252974D01*
X88487457Y-64264956D01*
X88466387Y-64274921D01*
X88444443Y-64282773D01*
X88421834Y-64288437D01*
X88398779Y-64291856D01*
X88375500Y-64293000D01*
X87900500Y-64293000D01*
X87877221Y-64291856D01*
X87854166Y-64288437D01*
X87831557Y-64282773D01*
X87809613Y-64274921D01*
X87788543Y-64264956D01*
X87768552Y-64252974D01*
X87749832Y-64239090D01*
X87732562Y-64223438D01*
X87716910Y-64206168D01*
X87703026Y-64187448D01*
X87691044Y-64167457D01*
X87681079Y-64146387D01*
X87673227Y-64124443D01*
X87667563Y-64101834D01*
X87664144Y-64078779D01*
X87663000Y-64055500D01*
X87663000Y-63480500D01*
X87664144Y-63457221D01*
X87667563Y-63434166D01*
X87673227Y-63411557D01*
X87681079Y-63389613D01*
X87691044Y-63368543D01*
X87703026Y-63348552D01*
X87716910Y-63329832D01*
X87732562Y-63312562D01*
X87749832Y-63296910D01*
X87768552Y-63283026D01*
X87788543Y-63271044D01*
X87809613Y-63261079D01*
X87831557Y-63253227D01*
X87854166Y-63247563D01*
X87877221Y-63244144D01*
X87900500Y-63243000D01*
X88375500Y-63243000D01*
X88398779Y-63244144D01*
X88398779Y-63244144D01*
G37*
D26*
X88138000Y-63768000D03*
D14*
G36*
X88398779Y-64994144D02*
G01*
X88421834Y-64997563D01*
X88444443Y-65003227D01*
X88466387Y-65011079D01*
X88487457Y-65021044D01*
X88507448Y-65033026D01*
X88526168Y-65046910D01*
X88543438Y-65062562D01*
X88559090Y-65079832D01*
X88572974Y-65098552D01*
X88584956Y-65118543D01*
X88594921Y-65139613D01*
X88602773Y-65161557D01*
X88608437Y-65184166D01*
X88611856Y-65207221D01*
X88613000Y-65230500D01*
X88613000Y-65805500D01*
X88611856Y-65828779D01*
X88608437Y-65851834D01*
X88602773Y-65874443D01*
X88594921Y-65896387D01*
X88584956Y-65917457D01*
X88572974Y-65937448D01*
X88559090Y-65956168D01*
X88543438Y-65973438D01*
X88526168Y-65989090D01*
X88507448Y-66002974D01*
X88487457Y-66014956D01*
X88466387Y-66024921D01*
X88444443Y-66032773D01*
X88421834Y-66038437D01*
X88398779Y-66041856D01*
X88375500Y-66043000D01*
X87900500Y-66043000D01*
X87877221Y-66041856D01*
X87854166Y-66038437D01*
X87831557Y-66032773D01*
X87809613Y-66024921D01*
X87788543Y-66014956D01*
X87768552Y-66002974D01*
X87749832Y-65989090D01*
X87732562Y-65973438D01*
X87716910Y-65956168D01*
X87703026Y-65937448D01*
X87691044Y-65917457D01*
X87681079Y-65896387D01*
X87673227Y-65874443D01*
X87667563Y-65851834D01*
X87664144Y-65828779D01*
X87663000Y-65805500D01*
X87663000Y-65230500D01*
X87664144Y-65207221D01*
X87667563Y-65184166D01*
X87673227Y-65161557D01*
X87681079Y-65139613D01*
X87691044Y-65118543D01*
X87703026Y-65098552D01*
X87716910Y-65079832D01*
X87732562Y-65062562D01*
X87749832Y-65046910D01*
X87768552Y-65033026D01*
X87788543Y-65021044D01*
X87809613Y-65011079D01*
X87831557Y-65003227D01*
X87854166Y-64997563D01*
X87877221Y-64994144D01*
X87900500Y-64993000D01*
X88375500Y-64993000D01*
X88398779Y-64994144D01*
X88398779Y-64994144D01*
G37*
D26*
X88138000Y-65518000D03*
D14*
G36*
X99003279Y-75281144D02*
G01*
X99026334Y-75284563D01*
X99048943Y-75290227D01*
X99070887Y-75298079D01*
X99091957Y-75308044D01*
X99111948Y-75320026D01*
X99130668Y-75333910D01*
X99147938Y-75349562D01*
X99163590Y-75366832D01*
X99177474Y-75385552D01*
X99189456Y-75405543D01*
X99199421Y-75426613D01*
X99207273Y-75448557D01*
X99212937Y-75471166D01*
X99216356Y-75494221D01*
X99217500Y-75517500D01*
X99217500Y-76092500D01*
X99216356Y-76115779D01*
X99212937Y-76138834D01*
X99207273Y-76161443D01*
X99199421Y-76183387D01*
X99189456Y-76204457D01*
X99177474Y-76224448D01*
X99163590Y-76243168D01*
X99147938Y-76260438D01*
X99130668Y-76276090D01*
X99111948Y-76289974D01*
X99091957Y-76301956D01*
X99070887Y-76311921D01*
X99048943Y-76319773D01*
X99026334Y-76325437D01*
X99003279Y-76328856D01*
X98980000Y-76330000D01*
X98505000Y-76330000D01*
X98481721Y-76328856D01*
X98458666Y-76325437D01*
X98436057Y-76319773D01*
X98414113Y-76311921D01*
X98393043Y-76301956D01*
X98373052Y-76289974D01*
X98354332Y-76276090D01*
X98337062Y-76260438D01*
X98321410Y-76243168D01*
X98307526Y-76224448D01*
X98295544Y-76204457D01*
X98285579Y-76183387D01*
X98277727Y-76161443D01*
X98272063Y-76138834D01*
X98268644Y-76115779D01*
X98267500Y-76092500D01*
X98267500Y-75517500D01*
X98268644Y-75494221D01*
X98272063Y-75471166D01*
X98277727Y-75448557D01*
X98285579Y-75426613D01*
X98295544Y-75405543D01*
X98307526Y-75385552D01*
X98321410Y-75366832D01*
X98337062Y-75349562D01*
X98354332Y-75333910D01*
X98373052Y-75320026D01*
X98393043Y-75308044D01*
X98414113Y-75298079D01*
X98436057Y-75290227D01*
X98458666Y-75284563D01*
X98481721Y-75281144D01*
X98505000Y-75280000D01*
X98980000Y-75280000D01*
X99003279Y-75281144D01*
X99003279Y-75281144D01*
G37*
D26*
X98742500Y-75805000D03*
D14*
G36*
X99003279Y-73531144D02*
G01*
X99026334Y-73534563D01*
X99048943Y-73540227D01*
X99070887Y-73548079D01*
X99091957Y-73558044D01*
X99111948Y-73570026D01*
X99130668Y-73583910D01*
X99147938Y-73599562D01*
X99163590Y-73616832D01*
X99177474Y-73635552D01*
X99189456Y-73655543D01*
X99199421Y-73676613D01*
X99207273Y-73698557D01*
X99212937Y-73721166D01*
X99216356Y-73744221D01*
X99217500Y-73767500D01*
X99217500Y-74342500D01*
X99216356Y-74365779D01*
X99212937Y-74388834D01*
X99207273Y-74411443D01*
X99199421Y-74433387D01*
X99189456Y-74454457D01*
X99177474Y-74474448D01*
X99163590Y-74493168D01*
X99147938Y-74510438D01*
X99130668Y-74526090D01*
X99111948Y-74539974D01*
X99091957Y-74551956D01*
X99070887Y-74561921D01*
X99048943Y-74569773D01*
X99026334Y-74575437D01*
X99003279Y-74578856D01*
X98980000Y-74580000D01*
X98505000Y-74580000D01*
X98481721Y-74578856D01*
X98458666Y-74575437D01*
X98436057Y-74569773D01*
X98414113Y-74561921D01*
X98393043Y-74551956D01*
X98373052Y-74539974D01*
X98354332Y-74526090D01*
X98337062Y-74510438D01*
X98321410Y-74493168D01*
X98307526Y-74474448D01*
X98295544Y-74454457D01*
X98285579Y-74433387D01*
X98277727Y-74411443D01*
X98272063Y-74388834D01*
X98268644Y-74365779D01*
X98267500Y-74342500D01*
X98267500Y-73767500D01*
X98268644Y-73744221D01*
X98272063Y-73721166D01*
X98277727Y-73698557D01*
X98285579Y-73676613D01*
X98295544Y-73655543D01*
X98307526Y-73635552D01*
X98321410Y-73616832D01*
X98337062Y-73599562D01*
X98354332Y-73583910D01*
X98373052Y-73570026D01*
X98393043Y-73558044D01*
X98414113Y-73548079D01*
X98436057Y-73540227D01*
X98458666Y-73534563D01*
X98481721Y-73531144D01*
X98505000Y-73530000D01*
X98980000Y-73530000D01*
X99003279Y-73531144D01*
X99003279Y-73531144D01*
G37*
D26*
X98742500Y-74055000D03*
D14*
G36*
X99003279Y-79091144D02*
G01*
X99026334Y-79094563D01*
X99048943Y-79100227D01*
X99070887Y-79108079D01*
X99091957Y-79118044D01*
X99111948Y-79130026D01*
X99130668Y-79143910D01*
X99147938Y-79159562D01*
X99163590Y-79176832D01*
X99177474Y-79195552D01*
X99189456Y-79215543D01*
X99199421Y-79236613D01*
X99207273Y-79258557D01*
X99212937Y-79281166D01*
X99216356Y-79304221D01*
X99217500Y-79327500D01*
X99217500Y-79902500D01*
X99216356Y-79925779D01*
X99212937Y-79948834D01*
X99207273Y-79971443D01*
X99199421Y-79993387D01*
X99189456Y-80014457D01*
X99177474Y-80034448D01*
X99163590Y-80053168D01*
X99147938Y-80070438D01*
X99130668Y-80086090D01*
X99111948Y-80099974D01*
X99091957Y-80111956D01*
X99070887Y-80121921D01*
X99048943Y-80129773D01*
X99026334Y-80135437D01*
X99003279Y-80138856D01*
X98980000Y-80140000D01*
X98505000Y-80140000D01*
X98481721Y-80138856D01*
X98458666Y-80135437D01*
X98436057Y-80129773D01*
X98414113Y-80121921D01*
X98393043Y-80111956D01*
X98373052Y-80099974D01*
X98354332Y-80086090D01*
X98337062Y-80070438D01*
X98321410Y-80053168D01*
X98307526Y-80034448D01*
X98295544Y-80014457D01*
X98285579Y-79993387D01*
X98277727Y-79971443D01*
X98272063Y-79948834D01*
X98268644Y-79925779D01*
X98267500Y-79902500D01*
X98267500Y-79327500D01*
X98268644Y-79304221D01*
X98272063Y-79281166D01*
X98277727Y-79258557D01*
X98285579Y-79236613D01*
X98295544Y-79215543D01*
X98307526Y-79195552D01*
X98321410Y-79176832D01*
X98337062Y-79159562D01*
X98354332Y-79143910D01*
X98373052Y-79130026D01*
X98393043Y-79118044D01*
X98414113Y-79108079D01*
X98436057Y-79100227D01*
X98458666Y-79094563D01*
X98481721Y-79091144D01*
X98505000Y-79090000D01*
X98980000Y-79090000D01*
X99003279Y-79091144D01*
X99003279Y-79091144D01*
G37*
D26*
X98742500Y-79615000D03*
D14*
G36*
X99003279Y-77341144D02*
G01*
X99026334Y-77344563D01*
X99048943Y-77350227D01*
X99070887Y-77358079D01*
X99091957Y-77368044D01*
X99111948Y-77380026D01*
X99130668Y-77393910D01*
X99147938Y-77409562D01*
X99163590Y-77426832D01*
X99177474Y-77445552D01*
X99189456Y-77465543D01*
X99199421Y-77486613D01*
X99207273Y-77508557D01*
X99212937Y-77531166D01*
X99216356Y-77554221D01*
X99217500Y-77577500D01*
X99217500Y-78152500D01*
X99216356Y-78175779D01*
X99212937Y-78198834D01*
X99207273Y-78221443D01*
X99199421Y-78243387D01*
X99189456Y-78264457D01*
X99177474Y-78284448D01*
X99163590Y-78303168D01*
X99147938Y-78320438D01*
X99130668Y-78336090D01*
X99111948Y-78349974D01*
X99091957Y-78361956D01*
X99070887Y-78371921D01*
X99048943Y-78379773D01*
X99026334Y-78385437D01*
X99003279Y-78388856D01*
X98980000Y-78390000D01*
X98505000Y-78390000D01*
X98481721Y-78388856D01*
X98458666Y-78385437D01*
X98436057Y-78379773D01*
X98414113Y-78371921D01*
X98393043Y-78361956D01*
X98373052Y-78349974D01*
X98354332Y-78336090D01*
X98337062Y-78320438D01*
X98321410Y-78303168D01*
X98307526Y-78284448D01*
X98295544Y-78264457D01*
X98285579Y-78243387D01*
X98277727Y-78221443D01*
X98272063Y-78198834D01*
X98268644Y-78175779D01*
X98267500Y-78152500D01*
X98267500Y-77577500D01*
X98268644Y-77554221D01*
X98272063Y-77531166D01*
X98277727Y-77508557D01*
X98285579Y-77486613D01*
X98295544Y-77465543D01*
X98307526Y-77445552D01*
X98321410Y-77426832D01*
X98337062Y-77409562D01*
X98354332Y-77393910D01*
X98373052Y-77380026D01*
X98393043Y-77368044D01*
X98414113Y-77358079D01*
X98436057Y-77350227D01*
X98458666Y-77344563D01*
X98481721Y-77341144D01*
X98505000Y-77340000D01*
X98980000Y-77340000D01*
X99003279Y-77341144D01*
X99003279Y-77341144D01*
G37*
D26*
X98742500Y-77865000D03*
D27*
X64453146Y-78400048D03*
D28*
X41831252Y-106625000D03*
D29*
X88011000Y-77851000D03*
X105473500Y-81153000D03*
X95000000Y-93000000D03*
X53340000Y-68580000D03*
X73025000Y-75565000D03*
X85090000Y-69596000D03*
X87376000Y-69596000D03*
X85090000Y-66040000D03*
X83185000Y-67310000D03*
X86360000Y-67310000D03*
X84455000Y-68580000D03*
X81915000Y-66040000D03*
X83820000Y-64770000D03*
X80645000Y-64770000D03*
X82550000Y-63500000D03*
X78740000Y-64770000D03*
X80645000Y-62230000D03*
X78740000Y-62230000D03*
X76835000Y-62230000D03*
X76835000Y-64770000D03*
X74930000Y-62230000D03*
X74930000Y-64770000D03*
X73025000Y-62230000D03*
X73025000Y-64770000D03*
X71120000Y-62230000D03*
X71120000Y-64770000D03*
X69850000Y-66040000D03*
X68580000Y-67945000D03*
X66675000Y-67945000D03*
X64770000Y-67945000D03*
X62865000Y-66675000D03*
X60325000Y-66675000D03*
X66675000Y-60960000D03*
X64135000Y-61595000D03*
X63500000Y-63500000D03*
X62230000Y-63500000D03*
X62230000Y-61595000D03*
X60325000Y-59690000D03*
X57150000Y-59690000D03*
X57150000Y-60960000D03*
X57785000Y-64135000D03*
X59055000Y-65405000D03*
X69850000Y-61595000D03*
X82296000Y-83947000D03*
X82296000Y-86868000D03*
X53339000Y-85470000D03*
X77724000Y-74930000D03*
X90805022Y-90805000D03*
X102116000Y-60460000D03*
X120650000Y-66675000D03*
X76200000Y-83819940D03*
X109855000Y-89535000D03*
X90170000Y-66040000D03*
X44450000Y-75565000D03*
X61400000Y-58420000D03*
X55000000Y-58420000D03*
X49530000Y-69849980D03*
X96520000Y-69215000D03*
X74625200Y-96342200D03*
X97790000Y-86995000D03*
X109855000Y-83820000D03*
X97790000Y-85090000D03*
X107315000Y-83820000D03*
X96519992Y-67945000D03*
X92710000Y-66040000D03*
D30*
X100355400Y-69494400D02*
X101371400Y-69494400D01*
D31*
X103702500Y-78594600D02*
X103702500Y-78920000D01*
X101402500Y-76020000D02*
X101402500Y-76294600D01*
X101402500Y-76294600D02*
X103702500Y-78594600D01*
X92112600Y-81952600D02*
X92112600Y-83678000D01*
X87312600Y-72278000D02*
X87312600Y-77152600D01*
X87312600Y-77152600D02*
X88011000Y-77851000D01*
X91262000Y-76378000D02*
X93812600Y-76378000D01*
X82412600Y-81178000D02*
X86462000Y-81178000D01*
X86462000Y-81178000D02*
X91262000Y-76378000D01*
X89713000Y-76378000D02*
X93812600Y-76378000D01*
X82412600Y-74778000D02*
X88113000Y-74778000D01*
X88113000Y-74778000D02*
X89713000Y-76378000D01*
X88011000Y-77851000D02*
X92112600Y-81952600D01*
X96419500Y-76378000D02*
X98742500Y-74055000D01*
X93812600Y-76378000D02*
X96419500Y-76378000D01*
X62520000Y-52500000D02*
X62520000Y-55630000D01*
X62520000Y-51450000D02*
X62520000Y-52500000D01*
X62520000Y-55630000D02*
X62340000Y-55630000D01*
X53880000Y-55630000D02*
X54060000Y-55630000D01*
X53880000Y-55630000D02*
X53880000Y-51450000D01*
X61605000Y-56495000D02*
X62520000Y-55580000D01*
X61425000Y-56495000D02*
X61605000Y-56495000D01*
X54795000Y-56495000D02*
X53880000Y-55580000D01*
X54975000Y-56495000D02*
X54795000Y-56495000D01*
X54630000Y-51400000D02*
X62520000Y-51400000D01*
X53880000Y-51400000D02*
X54630000Y-51400000D01*
X101092000Y-69723000D02*
X101210072Y-69604928D01*
D30*
X101066600Y-69748400D02*
X101092000Y-69723000D01*
X99949000Y-69850000D02*
X100050600Y-69748400D01*
X100050600Y-69748400D02*
X101066600Y-69748400D01*
X99822000Y-69799200D02*
X100787200Y-68783200D01*
D31*
X100460500Y-77978000D02*
X101402500Y-78920000D01*
X93954600Y-77978000D02*
X100460500Y-77978000D01*
D30*
X49530000Y-85470000D02*
X53339000Y-85470000D01*
X82412600Y-73978000D02*
X78676000Y-73978000D01*
X78676000Y-73978000D02*
X78123999Y-74530001D01*
X78123999Y-74530001D02*
X77724000Y-74930000D01*
X78740000Y-110490000D02*
X76200000Y-110490000D01*
X76200000Y-113030000D02*
X76200000Y-110490000D01*
X76200000Y-110490000D02*
X59055000Y-110490000D01*
X59055000Y-110490000D02*
X49530000Y-100965000D01*
X49530000Y-100965000D02*
X49530000Y-85470000D01*
X91312600Y-90297422D02*
X91205021Y-90405001D01*
X91205021Y-90405001D02*
X90805022Y-90805000D01*
X91312600Y-83678000D02*
X91312600Y-90297422D01*
X102116000Y-66032000D02*
X102116000Y-61025685D01*
X102116000Y-61025685D02*
X102116000Y-60460000D01*
X95885000Y-72263000D02*
X102116000Y-66032000D01*
X95885000Y-74755600D02*
X95885000Y-72263000D01*
X95062600Y-75578000D02*
X95885000Y-74755600D01*
X93812600Y-75578000D02*
X95062600Y-75578000D01*
X110380000Y-62962000D02*
X110918000Y-63500000D01*
X110380000Y-60500000D02*
X110380000Y-62962000D01*
X82412600Y-81978000D02*
X81937600Y-81978000D01*
X81937600Y-81978000D02*
X80095660Y-83819940D01*
X76765685Y-83819940D02*
X76200000Y-83819940D01*
X80095660Y-83819940D02*
X76765685Y-83819940D01*
X110254999Y-89135001D02*
X109855000Y-89535000D01*
X120650000Y-78740000D02*
X110254999Y-89135001D01*
X117531000Y-63500000D02*
X120650000Y-66619000D01*
X120650000Y-66619000D02*
X120650000Y-78740000D01*
X49530000Y-77422400D02*
X49530000Y-82170000D01*
X88912600Y-72278000D02*
X88912600Y-67297400D01*
X88912600Y-67297400D02*
X90170000Y-66040000D01*
X49530000Y-77422400D02*
X46307400Y-77422400D01*
X46307400Y-77422400D02*
X44450000Y-75565000D01*
X50301347Y-76651053D02*
X49530000Y-77422400D01*
X57102400Y-69850000D02*
X50301347Y-76651053D01*
X83439000Y-69850000D02*
X57102400Y-69850000D01*
X84912600Y-72278000D02*
X84912600Y-71323600D01*
X84912600Y-71323600D02*
X83439000Y-69850000D01*
X60650000Y-57670000D02*
X61400000Y-58420000D01*
X60650000Y-56545000D02*
X60650000Y-57670000D01*
X55750000Y-57670000D02*
X55000000Y-58420000D01*
X55750000Y-56545000D02*
X55750000Y-57670000D01*
X49530000Y-74447400D02*
X49530000Y-69849980D01*
X58624800Y-61220000D02*
X49994820Y-69849980D01*
X49994820Y-69849980D02*
X49530000Y-69849980D01*
X58674800Y-61220000D02*
X58624800Y-61220000D01*
D31*
X72250000Y-96350000D02*
X72250000Y-100050000D01*
X95122998Y-70612002D02*
X96120001Y-69614999D01*
X95122998Y-74467602D02*
X95122998Y-70612002D01*
X93812600Y-74778000D02*
X94812600Y-74778000D01*
X96120001Y-69614999D02*
X96520000Y-69215000D01*
X94812600Y-74778000D02*
X95122998Y-74467602D01*
X74160200Y-96350000D02*
X72250000Y-96350000D01*
X74625200Y-96342200D02*
X74160200Y-96350000D01*
X91312600Y-72278000D02*
X91312600Y-70104400D01*
X91312600Y-70104400D02*
X97663000Y-63754000D01*
X97309999Y-61309999D02*
X96460000Y-60460000D01*
X97663000Y-61663000D02*
X97309999Y-61309999D01*
X97663000Y-63754000D02*
X97663000Y-61663000D01*
X90512600Y-72278000D02*
X90512600Y-69634400D01*
X90512600Y-69634400D02*
X96460000Y-63687000D01*
X96460000Y-63687000D02*
X96460000Y-63000000D01*
X92112600Y-70574400D02*
X99000000Y-63687000D01*
X92112600Y-72278000D02*
X92112600Y-70574400D01*
X99000000Y-63687000D02*
X99000000Y-63000000D01*
X87630000Y-111760000D02*
X86360000Y-113030000D01*
X87630000Y-106045000D02*
X87630000Y-111760000D01*
X74562000Y-80378000D02*
X73533000Y-81407000D01*
X82412600Y-80378000D02*
X74562000Y-80378000D01*
X73533000Y-81407000D02*
X73533000Y-86233000D01*
X73533000Y-86233000D02*
X80645000Y-93345000D01*
X80645000Y-93345000D02*
X80645000Y-99060000D01*
X80645000Y-99060000D02*
X87630000Y-106045000D01*
X82412600Y-79578000D02*
X74092000Y-79578000D01*
X72771000Y-80899000D02*
X72771000Y-87376000D01*
X86360000Y-106680000D02*
X86360000Y-110490000D01*
X72771000Y-87376000D02*
X79375000Y-93980000D01*
X79375000Y-93980000D02*
X79375000Y-99695000D01*
X74092000Y-79578000D02*
X72771000Y-80899000D01*
X79375000Y-99695000D02*
X86360000Y-106680000D01*
X85090000Y-111760000D02*
X83820000Y-113030000D01*
X85090000Y-107315000D02*
X85090000Y-111760000D01*
X73622000Y-78778000D02*
X72009000Y-80391000D01*
X82412600Y-78778000D02*
X73622000Y-78778000D01*
X72009000Y-80391000D02*
X72009000Y-88519000D01*
X72009000Y-88519000D02*
X78105000Y-94615000D01*
X78105000Y-94615000D02*
X78105000Y-100330000D01*
X78105000Y-100330000D02*
X85090000Y-107315000D01*
X83820000Y-107950000D02*
X83820000Y-110490000D01*
X73152000Y-77978000D02*
X71247000Y-79883000D01*
X82412600Y-77978000D02*
X73152000Y-77978000D01*
X71247000Y-79883000D02*
X71247000Y-89662000D01*
X71247000Y-89662000D02*
X76835000Y-95250000D01*
X76835000Y-95250000D02*
X76835000Y-100965000D01*
X76835000Y-100965000D02*
X83820000Y-107950000D01*
X72682000Y-77178000D02*
X82412600Y-77178000D01*
X70485000Y-79375000D02*
X72682000Y-77178000D01*
X82455001Y-111854999D02*
X82455001Y-108490001D01*
X81280000Y-113030000D02*
X82455001Y-111854999D01*
X82455001Y-108490001D02*
X75565000Y-101600000D01*
X75565000Y-101600000D02*
X75565000Y-95885000D01*
X75565000Y-95885000D02*
X70485000Y-90805000D01*
X70485000Y-90805000D02*
X70485000Y-79375000D01*
X81280000Y-109220000D02*
X81280000Y-110490000D01*
X72212000Y-76378000D02*
X69723000Y-78867000D01*
X82412600Y-76378000D02*
X72212000Y-76378000D01*
X69723000Y-78867000D02*
X69723000Y-101473000D01*
X69723000Y-101473000D02*
X71120000Y-102870000D01*
X71120000Y-102870000D02*
X74930000Y-102870000D01*
X74930000Y-102870000D02*
X81280000Y-109220000D01*
X80010000Y-111760000D02*
X78740000Y-113030000D01*
X70485000Y-104140000D02*
X74295000Y-104140000D01*
X74295000Y-104140000D02*
X80010000Y-109855000D01*
X84112600Y-72278000D02*
X84112600Y-72047600D01*
X83185000Y-71120000D02*
X76200000Y-71120000D01*
X76200000Y-71120000D02*
X68580000Y-78740000D01*
X68580000Y-78740000D02*
X68580000Y-102235000D01*
X80010000Y-109855000D02*
X80010000Y-111760000D01*
X84112600Y-72047600D02*
X83185000Y-71120000D01*
X68580000Y-102235000D02*
X70485000Y-104140000D01*
X95250000Y-111760000D02*
X94829999Y-112180001D01*
X88900000Y-83690600D02*
X88900000Y-84836000D01*
X88912600Y-83678000D02*
X88900000Y-83690600D01*
X88900000Y-84836000D02*
X88392000Y-85344000D01*
X88392000Y-85344000D02*
X88392000Y-95377000D01*
X94829999Y-112180001D02*
X93980000Y-113030000D01*
X88392000Y-95377000D02*
X95250000Y-102235000D01*
X95250000Y-102235000D02*
X95250000Y-111760000D01*
X96520000Y-109287919D02*
X96520000Y-110490000D01*
X89662000Y-83728600D02*
X89662000Y-84836000D01*
X89712600Y-83678000D02*
X89662000Y-83728600D01*
X89662000Y-84836000D02*
X89154000Y-85344000D01*
X89154000Y-85344000D02*
X89154000Y-94234000D01*
X89154000Y-94234000D02*
X96520000Y-101600000D01*
X96520000Y-101600000D02*
X96520000Y-109287919D01*
X93812600Y-87462600D02*
X93812600Y-81978000D01*
X99060000Y-110490000D02*
X99060000Y-92710000D01*
X99060000Y-92710000D02*
X93812600Y-87462600D01*
X97369999Y-112180001D02*
X96520000Y-113030000D01*
X90512600Y-84678000D02*
X89916000Y-85274600D01*
X90512600Y-83678000D02*
X90512600Y-84678000D01*
X89916000Y-85274600D02*
X89916000Y-93091000D01*
X89916000Y-93091000D02*
X97695001Y-100870001D01*
X97695001Y-100870001D02*
X97695001Y-111854999D01*
X97695001Y-111854999D02*
X97369999Y-112180001D01*
X99909999Y-112180001D02*
X99060000Y-113030000D01*
X94724602Y-81280000D02*
X95250000Y-81805398D01*
X93899200Y-81280000D02*
X94724602Y-81280000D01*
X95250000Y-81805398D02*
X95250000Y-87630000D01*
X95250000Y-87630000D02*
X100235001Y-92615001D01*
X100235001Y-92615001D02*
X100235001Y-111854999D01*
X100235001Y-111854999D02*
X99909999Y-112180001D01*
X101600000Y-109287919D02*
X101600000Y-110490000D01*
X101600000Y-92710000D02*
X101600000Y-109287919D01*
X95758000Y-86868000D02*
X101600000Y-92710000D01*
X95758000Y-81513398D02*
X95758000Y-86868000D01*
X93812600Y-80378000D02*
X94622602Y-80378000D01*
X94622602Y-80378000D02*
X95758000Y-81513398D01*
X102449999Y-112180001D02*
X101600000Y-113030000D01*
X94513200Y-79578000D02*
X96266000Y-81330800D01*
X96266000Y-81330800D02*
X96266000Y-85471000D01*
X96266000Y-85471000D02*
X97790000Y-86995000D01*
X102964999Y-92169999D02*
X102964999Y-111665001D01*
X93812600Y-79578000D02*
X94513200Y-79578000D01*
X102964999Y-111665001D02*
X102449999Y-112180001D01*
X97790000Y-86995000D02*
X102964999Y-92169999D01*
X109855000Y-74930000D02*
X109855000Y-83820000D01*
X115481000Y-63500000D02*
X115481000Y-69304000D01*
X115481000Y-69304000D02*
X109855000Y-74930000D01*
X115481000Y-60521000D02*
X115460000Y-60500000D01*
X115481000Y-63500000D02*
X115481000Y-60521000D01*
X104140000Y-109287919D02*
X104140000Y-110490000D01*
X93812600Y-78977999D02*
X94725999Y-78977999D01*
X93812600Y-78778000D02*
X93812600Y-78977999D01*
X94725999Y-78977999D02*
X96716010Y-80968010D01*
X96716010Y-80968010D02*
X96716010Y-84016010D01*
X96716010Y-84016010D02*
X97790000Y-85090000D01*
X104140000Y-91440000D02*
X104140000Y-109287919D01*
X97790000Y-85090000D02*
X104140000Y-91440000D01*
X113030000Y-63562000D02*
X112968000Y-63500000D01*
X113030000Y-67310000D02*
X113030000Y-63562000D01*
X107315000Y-73025000D02*
X113030000Y-67310000D01*
X107315000Y-83820000D02*
X107315000Y-73025000D01*
X112920000Y-63452000D02*
X112968000Y-63500000D01*
X112920000Y-60500000D02*
X112920000Y-63452000D01*
X84912600Y-84251400D02*
X84836000Y-84328000D01*
X88900000Y-109287919D02*
X88900000Y-110490000D01*
X88900000Y-105410000D02*
X88900000Y-109287919D01*
X84582000Y-101092000D02*
X88900000Y-105410000D01*
X84582000Y-85344000D02*
X84582000Y-101092000D01*
X84912600Y-83678000D02*
X84912600Y-85013400D01*
X84912600Y-85013400D02*
X84582000Y-85344000D01*
X90170000Y-111760000D02*
X90170000Y-104775000D01*
X88900000Y-113030000D02*
X90170000Y-111760000D01*
X85598000Y-83792600D02*
X85712600Y-83678000D01*
X90170000Y-104775000D02*
X85344000Y-99949000D01*
X85344000Y-99949000D02*
X85344000Y-85344000D01*
X85344000Y-85344000D02*
X85598000Y-85090000D01*
X85598000Y-85090000D02*
X85598000Y-83792600D01*
X93812600Y-70652392D02*
X96119993Y-68344999D01*
X93812600Y-73978000D02*
X93812600Y-70652392D01*
X96119993Y-68344999D02*
X96519992Y-67945000D01*
X86512600Y-84937400D02*
X86512600Y-83678000D01*
X86106000Y-85344000D02*
X86512600Y-84937400D01*
X86106000Y-98806000D02*
X86106000Y-85344000D01*
X91440000Y-110490000D02*
X91440000Y-104140000D01*
X91440000Y-104140000D02*
X86106000Y-98806000D01*
X87312600Y-84899400D02*
X87312600Y-83678000D01*
X86868000Y-85344000D02*
X87312600Y-84899400D01*
X86868000Y-97663000D02*
X86868000Y-85344000D01*
X92615001Y-103410001D02*
X86868000Y-97663000D01*
X91440000Y-113030000D02*
X92615001Y-111854999D01*
X92615001Y-111854999D02*
X92615001Y-103410001D01*
X88112600Y-84861400D02*
X88112600Y-83678000D01*
X87630000Y-85344000D02*
X88112600Y-84861400D01*
X87630000Y-96520000D02*
X87630000Y-85344000D01*
X93980000Y-110490000D02*
X93980000Y-102870000D01*
X93980000Y-102870000D02*
X87630000Y-96520000D01*
X89712600Y-72278000D02*
X89712600Y-69037400D01*
X89712600Y-69037400D02*
X92710000Y-66040000D01*
D32*
X68445000Y-62928500D02*
X67770000Y-62928500D01*
X68762500Y-63246000D02*
X68445000Y-62928500D01*
X80963200Y-63246000D02*
X68762500Y-63246000D01*
X86512600Y-72278000D02*
X86512600Y-68795400D01*
X86512600Y-68795400D02*
X80963200Y-63246000D01*
X69708400Y-63754000D02*
X67770000Y-65692400D01*
X85887600Y-70977999D02*
X85887600Y-68806800D01*
X80834800Y-63754000D02*
X69708400Y-63754000D01*
X85887600Y-68806800D02*
X80834800Y-63754000D01*
X85712600Y-72278000D02*
X85712600Y-71152999D01*
X85712600Y-71152999D02*
X85887600Y-70977999D01*
D31*
X83820000Y-89290000D02*
X83575000Y-89535000D01*
X83820000Y-85344000D02*
X83820000Y-89290000D01*
X84112600Y-83678000D02*
X84112600Y-85051400D01*
X84112600Y-85051400D02*
X83820000Y-85344000D01*
D32*
X58170000Y-55400000D02*
X57950000Y-55620000D01*
X60624800Y-63120000D02*
X59963011Y-62458211D01*
X57950000Y-55620000D02*
X57950000Y-56545000D01*
X58730000Y-55400000D02*
X58170000Y-55400000D01*
X60674800Y-63120000D02*
X60624800Y-63120000D01*
X59963011Y-62458211D02*
X59963011Y-60540311D01*
X59963011Y-60540311D02*
X58950000Y-59527300D01*
X58950000Y-59527300D02*
X58950000Y-55620000D01*
X58950000Y-55620000D02*
X58730000Y-55400000D01*
X63406100Y-65242400D02*
X65720000Y-62928500D01*
X61433597Y-65242400D02*
X63406100Y-65242400D01*
X60198000Y-64006803D02*
X61433597Y-65242400D01*
X60674800Y-63120000D02*
X60198000Y-63596800D01*
X60198000Y-63596800D02*
X60198000Y-64006803D01*
X58349999Y-57570001D02*
X58450000Y-57470000D01*
X57559999Y-57570001D02*
X58349999Y-57570001D01*
X57450000Y-57460002D02*
X57559999Y-57570001D01*
X57450000Y-56545000D02*
X57450000Y-57460002D01*
X61247200Y-65692400D02*
X63406100Y-65692400D01*
X63406100Y-65692400D02*
X65720000Y-65692400D01*
X58674800Y-63120000D02*
X61247200Y-65692400D01*
X58450000Y-57470000D02*
X58450000Y-56545000D01*
X58450000Y-59592998D02*
X58450000Y-56545000D01*
X59563001Y-60705999D02*
X58450000Y-59592998D01*
X59563001Y-61731799D02*
X59563001Y-60705999D01*
X58674800Y-63120000D02*
X58674800Y-62620000D01*
X58674800Y-62620000D02*
X59563001Y-61731799D01*
D31*
X97369500Y-77178000D02*
X98742500Y-75805000D01*
X93812600Y-77178000D02*
X97369500Y-77178000D01*
X98742500Y-75805000D02*
X100252500Y-74295000D01*
X103702500Y-75870000D02*
X103702500Y-76020000D01*
X102127500Y-74295000D02*
X103702500Y-75870000D01*
X100252500Y-74295000D02*
X102127500Y-74295000D01*
X88112600Y-65543400D02*
X88124000Y-65532000D01*
X88112600Y-72278000D02*
X88112600Y-65543400D01*
X51729000Y-59690000D02*
X51054000Y-59690000D01*
X54803002Y-59690000D02*
X51729000Y-59690000D01*
X56950000Y-57543002D02*
X54803002Y-59690000D01*
X56950000Y-56545000D02*
X56950000Y-57543002D01*
X64975000Y-59690000D02*
X65650000Y-59690000D01*
X61596998Y-59690000D02*
X64975000Y-59690000D01*
X59950000Y-58043002D02*
X61596998Y-59690000D01*
X59950000Y-56545000D02*
X59950000Y-58043002D01*
D33*
G36*
X84637600Y-73666072D02*
G01*
X85187600Y-73666072D01*
X85249252Y-73660000D01*
X85375948Y-73660000D01*
X85437600Y-73666072D01*
X85987600Y-73666072D01*
X86049252Y-73660000D01*
X86175948Y-73660000D01*
X86237600Y-73666072D01*
X86787600Y-73666072D01*
X86849252Y-73660000D01*
X86991153Y-73660000D01*
X87026850Y-73663000D01*
X87029850Y-73660000D01*
X87595350Y-73660000D01*
X87598350Y-73663000D01*
X87634047Y-73660000D01*
X87775948Y-73660000D01*
X87837600Y-73666072D01*
X88387600Y-73666072D01*
X88449252Y-73660000D01*
X88575948Y-73660000D01*
X88637600Y-73666072D01*
X89187600Y-73666072D01*
X89249252Y-73660000D01*
X89375948Y-73660000D01*
X89437600Y-73666072D01*
X89987600Y-73666072D01*
X90049252Y-73660000D01*
X90175948Y-73660000D01*
X90237600Y-73666072D01*
X90787600Y-73666072D01*
X90849252Y-73660000D01*
X90975948Y-73660000D01*
X91037600Y-73666072D01*
X91587600Y-73666072D01*
X91649252Y-73660000D01*
X91775948Y-73660000D01*
X91837600Y-73666072D01*
X92387600Y-73666072D01*
X92428562Y-73662038D01*
X92424528Y-73703000D01*
X92424528Y-74253000D01*
X92436788Y-74377482D01*
X92436945Y-74378000D01*
X92436788Y-74378518D01*
X92424528Y-74503000D01*
X92424528Y-75053000D01*
X92436788Y-75177482D01*
X92436945Y-75178000D01*
X92436788Y-75178518D01*
X92424528Y-75303000D01*
X92424528Y-75853000D01*
X92436788Y-75977482D01*
X92437146Y-75978663D01*
X92427600Y-76092250D01*
X92456000Y-76120650D01*
X92456000Y-76635350D01*
X92427600Y-76663750D01*
X92437146Y-76777337D01*
X92436788Y-76778518D01*
X92424528Y-76903000D01*
X92424528Y-77453000D01*
X92436788Y-77577482D01*
X92436945Y-77578000D01*
X92436788Y-77578518D01*
X92424528Y-77703000D01*
X92424528Y-78253000D01*
X92436788Y-78377482D01*
X92436945Y-78378000D01*
X92436788Y-78378518D01*
X92424528Y-78503000D01*
X92424528Y-79053000D01*
X92436788Y-79177482D01*
X92436945Y-79178000D01*
X92436788Y-79178518D01*
X92424528Y-79303000D01*
X92424528Y-79853000D01*
X92436788Y-79977482D01*
X92436945Y-79978000D01*
X92436788Y-79978518D01*
X92424528Y-80103000D01*
X92424528Y-80653000D01*
X92436788Y-80777482D01*
X92436945Y-80778000D01*
X92436788Y-80778518D01*
X92424528Y-80903000D01*
X92424528Y-81453000D01*
X92436788Y-81577482D01*
X92436945Y-81578000D01*
X92436788Y-81578518D01*
X92424528Y-81703000D01*
X92424528Y-82253000D01*
X92428719Y-82295552D01*
X92398350Y-82293000D01*
X92395350Y-82296000D01*
X91829850Y-82296000D01*
X91826850Y-82293000D01*
X91791153Y-82296000D01*
X91649252Y-82296000D01*
X91587600Y-82289928D01*
X91037600Y-82289928D01*
X90975948Y-82296000D01*
X90849252Y-82296000D01*
X90787600Y-82289928D01*
X90237600Y-82289928D01*
X90175948Y-82296000D01*
X90049252Y-82296000D01*
X89987600Y-82289928D01*
X89437600Y-82289928D01*
X89375948Y-82296000D01*
X89249252Y-82296000D01*
X89187600Y-82289928D01*
X88637600Y-82289928D01*
X88575948Y-82296000D01*
X88449252Y-82296000D01*
X88387600Y-82289928D01*
X87837600Y-82289928D01*
X87775948Y-82296000D01*
X87649252Y-82296000D01*
X87587600Y-82289928D01*
X87037600Y-82289928D01*
X86975948Y-82296000D01*
X86849252Y-82296000D01*
X86787600Y-82289928D01*
X86237600Y-82289928D01*
X86175948Y-82296000D01*
X86049252Y-82296000D01*
X85987600Y-82289928D01*
X85437600Y-82289928D01*
X85375948Y-82296000D01*
X85249252Y-82296000D01*
X85187600Y-82289928D01*
X84637600Y-82289928D01*
X84575948Y-82296000D01*
X84449252Y-82296000D01*
X84387600Y-82289928D01*
X83837600Y-82289928D01*
X83820000Y-82291661D01*
X83820000Y-73664339D01*
X83837600Y-73666072D01*
X84387600Y-73666072D01*
X84449252Y-73660000D01*
X84575948Y-73660000D01*
X84637600Y-73666072D01*
X84637600Y-73666072D01*
G37*
X84637600Y-73666072D02*
X85187600Y-73666072D01*
X85249252Y-73660000D01*
X85375948Y-73660000D01*
X85437600Y-73666072D01*
X85987600Y-73666072D01*
X86049252Y-73660000D01*
X86175948Y-73660000D01*
X86237600Y-73666072D01*
X86787600Y-73666072D01*
X86849252Y-73660000D01*
X86991153Y-73660000D01*
X87026850Y-73663000D01*
X87029850Y-73660000D01*
X87595350Y-73660000D01*
X87598350Y-73663000D01*
X87634047Y-73660000D01*
X87775948Y-73660000D01*
X87837600Y-73666072D01*
X88387600Y-73666072D01*
X88449252Y-73660000D01*
X88575948Y-73660000D01*
X88637600Y-73666072D01*
X89187600Y-73666072D01*
X89249252Y-73660000D01*
X89375948Y-73660000D01*
X89437600Y-73666072D01*
X89987600Y-73666072D01*
X90049252Y-73660000D01*
X90175948Y-73660000D01*
X90237600Y-73666072D01*
X90787600Y-73666072D01*
X90849252Y-73660000D01*
X90975948Y-73660000D01*
X91037600Y-73666072D01*
X91587600Y-73666072D01*
X91649252Y-73660000D01*
X91775948Y-73660000D01*
X91837600Y-73666072D01*
X92387600Y-73666072D01*
X92428562Y-73662038D01*
X92424528Y-73703000D01*
X92424528Y-74253000D01*
X92436788Y-74377482D01*
X92436945Y-74378000D01*
X92436788Y-74378518D01*
X92424528Y-74503000D01*
X92424528Y-75053000D01*
X92436788Y-75177482D01*
X92436945Y-75178000D01*
X92436788Y-75178518D01*
X92424528Y-75303000D01*
X92424528Y-75853000D01*
X92436788Y-75977482D01*
X92437146Y-75978663D01*
X92427600Y-76092250D01*
X92456000Y-76120650D01*
X92456000Y-76635350D01*
X92427600Y-76663750D01*
X92437146Y-76777337D01*
X92436788Y-76778518D01*
X92424528Y-76903000D01*
X92424528Y-77453000D01*
X92436788Y-77577482D01*
X92436945Y-77578000D01*
X92436788Y-77578518D01*
X92424528Y-77703000D01*
X92424528Y-78253000D01*
X92436788Y-78377482D01*
X92436945Y-78378000D01*
X92436788Y-78378518D01*
X92424528Y-78503000D01*
X92424528Y-79053000D01*
X92436788Y-79177482D01*
X92436945Y-79178000D01*
X92436788Y-79178518D01*
X92424528Y-79303000D01*
X92424528Y-79853000D01*
X92436788Y-79977482D01*
X92436945Y-79978000D01*
X92436788Y-79978518D01*
X92424528Y-80103000D01*
X92424528Y-80653000D01*
X92436788Y-80777482D01*
X92436945Y-80778000D01*
X92436788Y-80778518D01*
X92424528Y-80903000D01*
X92424528Y-81453000D01*
X92436788Y-81577482D01*
X92436945Y-81578000D01*
X92436788Y-81578518D01*
X92424528Y-81703000D01*
X92424528Y-82253000D01*
X92428719Y-82295552D01*
X92398350Y-82293000D01*
X92395350Y-82296000D01*
X91829850Y-82296000D01*
X91826850Y-82293000D01*
X91791153Y-82296000D01*
X91649252Y-82296000D01*
X91587600Y-82289928D01*
X91037600Y-82289928D01*
X90975948Y-82296000D01*
X90849252Y-82296000D01*
X90787600Y-82289928D01*
X90237600Y-82289928D01*
X90175948Y-82296000D01*
X90049252Y-82296000D01*
X89987600Y-82289928D01*
X89437600Y-82289928D01*
X89375948Y-82296000D01*
X89249252Y-82296000D01*
X89187600Y-82289928D01*
X88637600Y-82289928D01*
X88575948Y-82296000D01*
X88449252Y-82296000D01*
X88387600Y-82289928D01*
X87837600Y-82289928D01*
X87775948Y-82296000D01*
X87649252Y-82296000D01*
X87587600Y-82289928D01*
X87037600Y-82289928D01*
X86975948Y-82296000D01*
X86849252Y-82296000D01*
X86787600Y-82289928D01*
X86237600Y-82289928D01*
X86175948Y-82296000D01*
X86049252Y-82296000D01*
X85987600Y-82289928D01*
X85437600Y-82289928D01*
X85375948Y-82296000D01*
X85249252Y-82296000D01*
X85187600Y-82289928D01*
X84637600Y-82289928D01*
X84575948Y-82296000D01*
X84449252Y-82296000D01*
X84387600Y-82289928D01*
X83837600Y-82289928D01*
X83820000Y-82291661D01*
X83820000Y-73664339D01*
X83837600Y-73666072D01*
X84387600Y-73666072D01*
X84449252Y-73660000D01*
X84575948Y-73660000D01*
X84637600Y-73666072D01*
G36*
X106235500Y-81788000D02*
G01*
X97599500Y-81788000D01*
X97599500Y-80708500D01*
X97597060Y-80683724D01*
X97589833Y-80659899D01*
X97578097Y-80637943D01*
X97562303Y-80618697D01*
X97083606Y-80140000D01*
X97629428Y-80140000D01*
X97641688Y-80264482D01*
X97677998Y-80384180D01*
X97736963Y-80494494D01*
X97816315Y-80591185D01*
X97913006Y-80670537D01*
X98023320Y-80729502D01*
X98143018Y-80765812D01*
X98267500Y-80778072D01*
X98456750Y-80775000D01*
X98615500Y-80616250D01*
X98615500Y-79742000D01*
X98869500Y-79742000D01*
X98869500Y-80616250D01*
X99028250Y-80775000D01*
X99217500Y-80778072D01*
X99341982Y-80765812D01*
X99461680Y-80729502D01*
X99571994Y-80670537D01*
X99668685Y-80591185D01*
X99748037Y-80494494D01*
X99807002Y-80384180D01*
X99843312Y-80264482D01*
X99855572Y-80140000D01*
X99852500Y-79900750D01*
X99693750Y-79742000D01*
X98869500Y-79742000D01*
X98615500Y-79742000D01*
X97791250Y-79742000D01*
X97632500Y-79900750D01*
X97629428Y-80140000D01*
X97083606Y-80140000D01*
X96139000Y-79195394D01*
X96139000Y-78738000D01*
X97735630Y-78738000D01*
X97677998Y-78845820D01*
X97641688Y-78965518D01*
X97629428Y-79090000D01*
X97632500Y-79329250D01*
X97791250Y-79488000D01*
X98615500Y-79488000D01*
X98615500Y-79468000D01*
X98869500Y-79468000D01*
X98869500Y-79488000D01*
X99693750Y-79488000D01*
X99852500Y-79329250D01*
X99855572Y-79090000D01*
X99843312Y-78965518D01*
X99807002Y-78845820D01*
X99749370Y-78738000D01*
X99864428Y-78738000D01*
X99864428Y-79970000D01*
X99876688Y-80094482D01*
X99912998Y-80214180D01*
X99971963Y-80324494D01*
X100051315Y-80421185D01*
X100148006Y-80500537D01*
X100258320Y-80559502D01*
X100378018Y-80595812D01*
X100502500Y-80608072D01*
X102302500Y-80608072D01*
X102426982Y-80595812D01*
X102546680Y-80559502D01*
X102552500Y-80556391D01*
X102558320Y-80559502D01*
X102678018Y-80595812D01*
X102802500Y-80608072D01*
X103416750Y-80605000D01*
X103575500Y-80446250D01*
X103575500Y-79047000D01*
X103829500Y-79047000D01*
X103829500Y-80446250D01*
X103988250Y-80605000D01*
X104602500Y-80608072D01*
X104726982Y-80595812D01*
X104846680Y-80559502D01*
X104956994Y-80500537D01*
X105053685Y-80421185D01*
X105133037Y-80324494D01*
X105192002Y-80214180D01*
X105228312Y-80094482D01*
X105240572Y-79970000D01*
X105237500Y-79205750D01*
X105078750Y-79047000D01*
X103829500Y-79047000D01*
X103575500Y-79047000D01*
X103555500Y-79047000D01*
X103555500Y-78793000D01*
X103575500Y-78793000D01*
X103575500Y-78773000D01*
X103829500Y-78773000D01*
X103829500Y-78793000D01*
X105078750Y-78793000D01*
X105237500Y-78634250D01*
X105240572Y-77870000D01*
X105228312Y-77745518D01*
X105192002Y-77625820D01*
X105133037Y-77515506D01*
X105095691Y-77470000D01*
X105133037Y-77424494D01*
X105192002Y-77314180D01*
X105228312Y-77194482D01*
X105240572Y-77070000D01*
X105240572Y-74970000D01*
X105228312Y-74845518D01*
X105192002Y-74725820D01*
X105133037Y-74615506D01*
X105053685Y-74518815D01*
X104956994Y-74439463D01*
X104846680Y-74380498D01*
X104726982Y-74344188D01*
X104602500Y-74331928D01*
X103239229Y-74331928D01*
X102691304Y-73784003D01*
X102667501Y-73754999D01*
X102551776Y-73660026D01*
X102419747Y-73589454D01*
X102276486Y-73545997D01*
X102164833Y-73535000D01*
X102164822Y-73535000D01*
X102127500Y-73531324D01*
X102090178Y-73535000D01*
X100289822Y-73535000D01*
X100252499Y-73531324D01*
X100215176Y-73535000D01*
X100215167Y-73535000D01*
X100103514Y-73545997D01*
X99960253Y-73589454D01*
X99854080Y-73646206D01*
X99855572Y-73530000D01*
X99843312Y-73405518D01*
X99807002Y-73285820D01*
X99748037Y-73175506D01*
X99668685Y-73078815D01*
X99571994Y-72999463D01*
X99461680Y-72940498D01*
X99341982Y-72904188D01*
X99217500Y-72891928D01*
X99028250Y-72895000D01*
X98869500Y-73053750D01*
X98869500Y-73928000D01*
X98889500Y-73928000D01*
X98889500Y-74182000D01*
X98869500Y-74182000D01*
X98869500Y-74202000D01*
X98615500Y-74202000D01*
X98615500Y-74182000D01*
X97791250Y-74182000D01*
X97632500Y-74340750D01*
X97629428Y-74580000D01*
X97641688Y-74704482D01*
X97677998Y-74824180D01*
X97736963Y-74934494D01*
X97796599Y-75007161D01*
X97776988Y-75031058D01*
X97696077Y-75182433D01*
X97646252Y-75346684D01*
X97629428Y-75517500D01*
X97629428Y-75843270D01*
X97054699Y-76418000D01*
X96139000Y-76418000D01*
X96139000Y-75998606D01*
X96863803Y-75273803D01*
X96879597Y-75254557D01*
X96891333Y-75232601D01*
X96898560Y-75208776D01*
X96901000Y-75184000D01*
X96901000Y-73530000D01*
X97629428Y-73530000D01*
X97632500Y-73769250D01*
X97791250Y-73928000D01*
X98615500Y-73928000D01*
X98615500Y-73053750D01*
X98456750Y-72895000D01*
X98267500Y-72891928D01*
X98143018Y-72904188D01*
X98023320Y-72940498D01*
X97913006Y-72999463D01*
X97816315Y-73078815D01*
X97736963Y-73175506D01*
X97677998Y-73285820D01*
X97641688Y-73405518D01*
X97629428Y-73530000D01*
X96901000Y-73530000D01*
X96901000Y-72517000D01*
X106235500Y-72517000D01*
X106235500Y-81788000D01*
X106235500Y-81788000D01*
G37*
X106235500Y-81788000D02*
X97599500Y-81788000D01*
X97599500Y-80708500D01*
X97597060Y-80683724D01*
X97589833Y-80659899D01*
X97578097Y-80637943D01*
X97562303Y-80618697D01*
X97083606Y-80140000D01*
X97629428Y-80140000D01*
X97641688Y-80264482D01*
X97677998Y-80384180D01*
X97736963Y-80494494D01*
X97816315Y-80591185D01*
X97913006Y-80670537D01*
X98023320Y-80729502D01*
X98143018Y-80765812D01*
X98267500Y-80778072D01*
X98456750Y-80775000D01*
X98615500Y-80616250D01*
X98615500Y-79742000D01*
X98869500Y-79742000D01*
X98869500Y-80616250D01*
X99028250Y-80775000D01*
X99217500Y-80778072D01*
X99341982Y-80765812D01*
X99461680Y-80729502D01*
X99571994Y-80670537D01*
X99668685Y-80591185D01*
X99748037Y-80494494D01*
X99807002Y-80384180D01*
X99843312Y-80264482D01*
X99855572Y-80140000D01*
X99852500Y-79900750D01*
X99693750Y-79742000D01*
X98869500Y-79742000D01*
X98615500Y-79742000D01*
X97791250Y-79742000D01*
X97632500Y-79900750D01*
X97629428Y-80140000D01*
X97083606Y-80140000D01*
X96139000Y-79195394D01*
X96139000Y-78738000D01*
X97735630Y-78738000D01*
X97677998Y-78845820D01*
X97641688Y-78965518D01*
X97629428Y-79090000D01*
X97632500Y-79329250D01*
X97791250Y-79488000D01*
X98615500Y-79488000D01*
X98615500Y-79468000D01*
X98869500Y-79468000D01*
X98869500Y-79488000D01*
X99693750Y-79488000D01*
X99852500Y-79329250D01*
X99855572Y-79090000D01*
X99843312Y-78965518D01*
X99807002Y-78845820D01*
X99749370Y-78738000D01*
X99864428Y-78738000D01*
X99864428Y-79970000D01*
X99876688Y-80094482D01*
X99912998Y-80214180D01*
X99971963Y-80324494D01*
X100051315Y-80421185D01*
X100148006Y-80500537D01*
X100258320Y-80559502D01*
X100378018Y-80595812D01*
X100502500Y-80608072D01*
X102302500Y-80608072D01*
X102426982Y-80595812D01*
X102546680Y-80559502D01*
X102552500Y-80556391D01*
X102558320Y-80559502D01*
X102678018Y-80595812D01*
X102802500Y-80608072D01*
X103416750Y-80605000D01*
X103575500Y-80446250D01*
X103575500Y-79047000D01*
X103829500Y-79047000D01*
X103829500Y-80446250D01*
X103988250Y-80605000D01*
X104602500Y-80608072D01*
X104726982Y-80595812D01*
X104846680Y-80559502D01*
X104956994Y-80500537D01*
X105053685Y-80421185D01*
X105133037Y-80324494D01*
X105192002Y-80214180D01*
X105228312Y-80094482D01*
X105240572Y-79970000D01*
X105237500Y-79205750D01*
X105078750Y-79047000D01*
X103829500Y-79047000D01*
X103575500Y-79047000D01*
X103555500Y-79047000D01*
X103555500Y-78793000D01*
X103575500Y-78793000D01*
X103575500Y-78773000D01*
X103829500Y-78773000D01*
X103829500Y-78793000D01*
X105078750Y-78793000D01*
X105237500Y-78634250D01*
X105240572Y-77870000D01*
X105228312Y-77745518D01*
X105192002Y-77625820D01*
X105133037Y-77515506D01*
X105095691Y-77470000D01*
X105133037Y-77424494D01*
X105192002Y-77314180D01*
X105228312Y-77194482D01*
X105240572Y-77070000D01*
X105240572Y-74970000D01*
X105228312Y-74845518D01*
X105192002Y-74725820D01*
X105133037Y-74615506D01*
X105053685Y-74518815D01*
X104956994Y-74439463D01*
X104846680Y-74380498D01*
X104726982Y-74344188D01*
X104602500Y-74331928D01*
X103239229Y-74331928D01*
X102691304Y-73784003D01*
X102667501Y-73754999D01*
X102551776Y-73660026D01*
X102419747Y-73589454D01*
X102276486Y-73545997D01*
X102164833Y-73535000D01*
X102164822Y-73535000D01*
X102127500Y-73531324D01*
X102090178Y-73535000D01*
X100289822Y-73535000D01*
X100252499Y-73531324D01*
X100215176Y-73535000D01*
X100215167Y-73535000D01*
X100103514Y-73545997D01*
X99960253Y-73589454D01*
X99854080Y-73646206D01*
X99855572Y-73530000D01*
X99843312Y-73405518D01*
X99807002Y-73285820D01*
X99748037Y-73175506D01*
X99668685Y-73078815D01*
X99571994Y-72999463D01*
X99461680Y-72940498D01*
X99341982Y-72904188D01*
X99217500Y-72891928D01*
X99028250Y-72895000D01*
X98869500Y-73053750D01*
X98869500Y-73928000D01*
X98889500Y-73928000D01*
X98889500Y-74182000D01*
X98869500Y-74182000D01*
X98869500Y-74202000D01*
X98615500Y-74202000D01*
X98615500Y-74182000D01*
X97791250Y-74182000D01*
X97632500Y-74340750D01*
X97629428Y-74580000D01*
X97641688Y-74704482D01*
X97677998Y-74824180D01*
X97736963Y-74934494D01*
X97796599Y-75007161D01*
X97776988Y-75031058D01*
X97696077Y-75182433D01*
X97646252Y-75346684D01*
X97629428Y-75517500D01*
X97629428Y-75843270D01*
X97054699Y-76418000D01*
X96139000Y-76418000D01*
X96139000Y-75998606D01*
X96863803Y-75273803D01*
X96879597Y-75254557D01*
X96891333Y-75232601D01*
X96898560Y-75208776D01*
X96901000Y-75184000D01*
X96901000Y-73530000D01*
X97629428Y-73530000D01*
X97632500Y-73769250D01*
X97791250Y-73928000D01*
X98615500Y-73928000D01*
X98615500Y-73053750D01*
X98456750Y-72895000D01*
X98267500Y-72891928D01*
X98143018Y-72904188D01*
X98023320Y-72940498D01*
X97913006Y-72999463D01*
X97816315Y-73078815D01*
X97736963Y-73175506D01*
X97677998Y-73285820D01*
X97641688Y-73405518D01*
X97629428Y-73530000D01*
X96901000Y-73530000D01*
X96901000Y-72517000D01*
X106235500Y-72517000D01*
X106235500Y-81788000D01*
G36*
X100026250Y-75893000D02*
G01*
X101275500Y-75893000D01*
X101275500Y-75873000D01*
X101529500Y-75873000D01*
X101529500Y-75893000D01*
X101549500Y-75893000D01*
X101549500Y-76147000D01*
X101529500Y-76147000D01*
X101529500Y-76167000D01*
X101275500Y-76167000D01*
X101275500Y-76147000D01*
X100026250Y-76147000D01*
X99867500Y-76305750D01*
X99864428Y-77070000D01*
X99876688Y-77194482D01*
X99883822Y-77218000D01*
X99775863Y-77218000D01*
X99708012Y-77091058D01*
X99599123Y-76958377D01*
X99466442Y-76849488D01*
X99439337Y-76835000D01*
X99466442Y-76820512D01*
X99599123Y-76711623D01*
X99708012Y-76578942D01*
X99788923Y-76427567D01*
X99838748Y-76263316D01*
X99855572Y-76092500D01*
X99855572Y-75766730D01*
X99877776Y-75744526D01*
X100026250Y-75893000D01*
X100026250Y-75893000D01*
G37*
X100026250Y-75893000D02*
X101275500Y-75893000D01*
X101275500Y-75873000D01*
X101529500Y-75873000D01*
X101529500Y-75893000D01*
X101549500Y-75893000D01*
X101549500Y-76147000D01*
X101529500Y-76147000D01*
X101529500Y-76167000D01*
X101275500Y-76167000D01*
X101275500Y-76147000D01*
X100026250Y-76147000D01*
X99867500Y-76305750D01*
X99864428Y-77070000D01*
X99876688Y-77194482D01*
X99883822Y-77218000D01*
X99775863Y-77218000D01*
X99708012Y-77091058D01*
X99599123Y-76958377D01*
X99466442Y-76849488D01*
X99439337Y-76835000D01*
X99466442Y-76820512D01*
X99599123Y-76711623D01*
X99708012Y-76578942D01*
X99788923Y-76427567D01*
X99838748Y-76263316D01*
X99855572Y-76092500D01*
X99855572Y-75766730D01*
X99877776Y-75744526D01*
X100026250Y-75893000D01*
G36*
X52791585Y-50754013D02*
G01*
X52745000Y-50973000D01*
X52745000Y-51273000D01*
X53753000Y-51273000D01*
X53753000Y-51253000D01*
X54007000Y-51253000D01*
X54007000Y-51273000D01*
X55015000Y-51273000D01*
X55015000Y-50973000D01*
X54968415Y-50754013D01*
X54938751Y-50685000D01*
X61461249Y-50685000D01*
X61431585Y-50754013D01*
X61385000Y-50973000D01*
X61385000Y-51273000D01*
X62393000Y-51273000D01*
X62393000Y-51253000D01*
X62647000Y-51253000D01*
X62647000Y-51273000D01*
X63655000Y-51273000D01*
X63655000Y-50973000D01*
X63608415Y-50754013D01*
X63578751Y-50685000D01*
X137966495Y-50685000D01*
X138254782Y-50713267D01*
X138499855Y-50787259D01*
X138725890Y-50907443D01*
X138924281Y-51069248D01*
X139087460Y-51266497D01*
X139209220Y-51491687D01*
X139284924Y-51736247D01*
X139315000Y-52022398D01*
X139315001Y-112966484D01*
X139286733Y-113254782D01*
X139212741Y-113499855D01*
X139092554Y-113725893D01*
X138930754Y-113924279D01*
X138733503Y-114087460D01*
X138508310Y-114209221D01*
X138263753Y-114284924D01*
X137973320Y-114315450D01*
X112505304Y-114315450D01*
X112589014Y-114270706D01*
X112815134Y-114085134D01*
X113000706Y-113859014D01*
X113138599Y-113601034D01*
X113223513Y-113321111D01*
X113252185Y-113030000D01*
X113223513Y-112738889D01*
X113138599Y-112458966D01*
X113000706Y-112200986D01*
X112815134Y-111974866D01*
X112589014Y-111789294D01*
X112531244Y-111758416D01*
X112760269Y-111587588D01*
X112955178Y-111371355D01*
X113104157Y-111121252D01*
X113201481Y-110846891D01*
X113080814Y-110617000D01*
X111887000Y-110617000D01*
X111887000Y-110637000D01*
X111633000Y-110637000D01*
X111633000Y-110617000D01*
X111613000Y-110617000D01*
X111613000Y-110363000D01*
X111633000Y-110363000D01*
X111633000Y-109169845D01*
X111887000Y-109169845D01*
X111887000Y-110363000D01*
X113080814Y-110363000D01*
X113201481Y-110133109D01*
X113104157Y-109858748D01*
X112955178Y-109608645D01*
X112760269Y-109392412D01*
X112526920Y-109218359D01*
X112264099Y-109093175D01*
X112116890Y-109048524D01*
X111887000Y-109169845D01*
X111633000Y-109169845D01*
X111403110Y-109048524D01*
X111255901Y-109093175D01*
X110993080Y-109218359D01*
X110759731Y-109392412D01*
X110564822Y-109608645D01*
X110495201Y-109725523D01*
X110460706Y-109660986D01*
X110275134Y-109434866D01*
X110049014Y-109249294D01*
X109791034Y-109111401D01*
X109511111Y-109026487D01*
X109292950Y-109005000D01*
X109147050Y-109005000D01*
X108928889Y-109026487D01*
X108648966Y-109111401D01*
X108390986Y-109249294D01*
X108164866Y-109434866D01*
X107979294Y-109660986D01*
X107950000Y-109715791D01*
X107920706Y-109660986D01*
X107735134Y-109434866D01*
X107509014Y-109249294D01*
X107251034Y-109111401D01*
X106971111Y-109026487D01*
X106752950Y-109005000D01*
X106607050Y-109005000D01*
X106388889Y-109026487D01*
X106108966Y-109111401D01*
X105850986Y-109249294D01*
X105624866Y-109434866D01*
X105439294Y-109660986D01*
X105410000Y-109715791D01*
X105380706Y-109660986D01*
X105195134Y-109434866D01*
X104969014Y-109249294D01*
X104900000Y-109212405D01*
X104900000Y-91477322D01*
X104903676Y-91439999D01*
X104900000Y-91402676D01*
X104900000Y-91402667D01*
X104889003Y-91291014D01*
X104845546Y-91147753D01*
X104799460Y-91061533D01*
X104774974Y-91015723D01*
X104703799Y-90928997D01*
X104680001Y-90899999D01*
X104651004Y-90876202D01*
X99901801Y-86127000D01*
X109000000Y-86127000D01*
X109024776Y-86124560D01*
X109048601Y-86117333D01*
X109070557Y-86105597D01*
X109089803Y-86089803D01*
X109105597Y-86070557D01*
X109117333Y-86048601D01*
X109124560Y-86024776D01*
X109127000Y-86000000D01*
X109127000Y-84555711D01*
X109195226Y-84623937D01*
X109364744Y-84737205D01*
X109553102Y-84815226D01*
X109753061Y-84855000D01*
X109956939Y-84855000D01*
X110156898Y-84815226D01*
X110345256Y-84737205D01*
X110514774Y-84623937D01*
X110658937Y-84479774D01*
X110772205Y-84310256D01*
X110850226Y-84121898D01*
X110890000Y-83921939D01*
X110890000Y-83718061D01*
X110850226Y-83518102D01*
X110772205Y-83329744D01*
X110658937Y-83160226D01*
X110615000Y-83116289D01*
X110615000Y-75244801D01*
X115992003Y-69867799D01*
X116021001Y-69844001D01*
X116115974Y-69728276D01*
X116186546Y-69596247D01*
X116230003Y-69452986D01*
X116241000Y-69341333D01*
X116244677Y-69304000D01*
X116241000Y-69266667D01*
X116241000Y-64719614D01*
X116299387Y-64688405D01*
X116433962Y-64577962D01*
X116506000Y-64490184D01*
X116578038Y-64577962D01*
X116712613Y-64688405D01*
X116866149Y-64770472D01*
X117032745Y-64821008D01*
X117205999Y-64838072D01*
X117617494Y-64838072D01*
X119629560Y-66850139D01*
X119654774Y-66976898D01*
X119732795Y-67165256D01*
X119765000Y-67213454D01*
X119765001Y-78373420D01*
X109659953Y-88478469D01*
X109609957Y-88528465D01*
X109553102Y-88539774D01*
X109364744Y-88617795D01*
X109195226Y-88731063D01*
X109051063Y-88875226D01*
X108937795Y-89044744D01*
X108859774Y-89233102D01*
X108820000Y-89433061D01*
X108820000Y-89636939D01*
X108859774Y-89836898D01*
X108937795Y-90025256D01*
X109051063Y-90194774D01*
X109195226Y-90338937D01*
X109364744Y-90452205D01*
X109553102Y-90530226D01*
X109753061Y-90570000D01*
X109956939Y-90570000D01*
X110156898Y-90530226D01*
X110345256Y-90452205D01*
X110514774Y-90338937D01*
X110658937Y-90194774D01*
X110772205Y-90025256D01*
X110850226Y-89836898D01*
X110861535Y-89780043D01*
X110911531Y-89730047D01*
X121245049Y-79396530D01*
X121278817Y-79368817D01*
X121332177Y-79303799D01*
X121389410Y-79234060D01*
X121389411Y-79234059D01*
X121471589Y-79080313D01*
X121522195Y-78913490D01*
X121535000Y-78783477D01*
X121535000Y-78783467D01*
X121539281Y-78740001D01*
X121535000Y-78696535D01*
X121535000Y-67213454D01*
X121567205Y-67165256D01*
X121645226Y-66976898D01*
X121685000Y-66776939D01*
X121685000Y-66573061D01*
X121645226Y-66373102D01*
X121567205Y-66184744D01*
X121453937Y-66015226D01*
X121309774Y-65871063D01*
X121140256Y-65757795D01*
X120969746Y-65687167D01*
X118744072Y-63461494D01*
X118744072Y-63049999D01*
X118727008Y-62876745D01*
X118676472Y-62710149D01*
X118594405Y-62556613D01*
X118483962Y-62422038D01*
X118349387Y-62311595D01*
X118195851Y-62229528D01*
X118029255Y-62178992D01*
X117856001Y-62161928D01*
X117205999Y-62161928D01*
X117032745Y-62178992D01*
X116866149Y-62229528D01*
X116712613Y-62311595D01*
X116578038Y-62422038D01*
X116506000Y-62509816D01*
X116433962Y-62422038D01*
X116299387Y-62311595D01*
X116241000Y-62280386D01*
X116241000Y-61766370D01*
X116289014Y-61740706D01*
X116515134Y-61555134D01*
X116539607Y-61525313D01*
X116560498Y-61594180D01*
X116619463Y-61704494D01*
X116698815Y-61801185D01*
X116795506Y-61880537D01*
X116905820Y-61939502D01*
X117025518Y-61975812D01*
X117150000Y-61988072D01*
X117714250Y-61985000D01*
X117873000Y-61826250D01*
X117873000Y-60627000D01*
X118127000Y-60627000D01*
X118127000Y-61826250D01*
X118285750Y-61985000D01*
X118850000Y-61988072D01*
X118974482Y-61975812D01*
X119094180Y-61939502D01*
X119204494Y-61880537D01*
X119301185Y-61801185D01*
X119380537Y-61704494D01*
X119439502Y-61594180D01*
X119475812Y-61474482D01*
X119488072Y-61350000D01*
X119485000Y-60785750D01*
X119326250Y-60627000D01*
X118127000Y-60627000D01*
X117873000Y-60627000D01*
X117853000Y-60627000D01*
X117853000Y-60373000D01*
X117873000Y-60373000D01*
X117873000Y-59173750D01*
X118127000Y-59173750D01*
X118127000Y-60373000D01*
X119326250Y-60373000D01*
X119485000Y-60214250D01*
X119488072Y-59650000D01*
X119475812Y-59525518D01*
X119439502Y-59405820D01*
X119380537Y-59295506D01*
X119301185Y-59198815D01*
X119204494Y-59119463D01*
X119094180Y-59060498D01*
X118974482Y-59024188D01*
X118850000Y-59011928D01*
X118285750Y-59015000D01*
X118127000Y-59173750D01*
X117873000Y-59173750D01*
X117714250Y-59015000D01*
X117150000Y-59011928D01*
X117025518Y-59024188D01*
X116905820Y-59060498D01*
X116795506Y-59119463D01*
X116698815Y-59198815D01*
X116619463Y-59295506D01*
X116560498Y-59405820D01*
X116539607Y-59474687D01*
X116515134Y-59444866D01*
X116289014Y-59259294D01*
X116031034Y-59121401D01*
X115751111Y-59036487D01*
X115532950Y-59015000D01*
X115387050Y-59015000D01*
X115168889Y-59036487D01*
X114888966Y-59121401D01*
X114630986Y-59259294D01*
X114404866Y-59444866D01*
X114219294Y-59670986D01*
X114190000Y-59725791D01*
X114160706Y-59670986D01*
X113975134Y-59444866D01*
X113749014Y-59259294D01*
X113491034Y-59121401D01*
X113211111Y-59036487D01*
X112992950Y-59015000D01*
X112847050Y-59015000D01*
X112628889Y-59036487D01*
X112348966Y-59121401D01*
X112090986Y-59259294D01*
X111864866Y-59444866D01*
X111679294Y-59670986D01*
X111650000Y-59725791D01*
X111620706Y-59670986D01*
X111435134Y-59444866D01*
X111209014Y-59259294D01*
X110951034Y-59121401D01*
X110671111Y-59036487D01*
X110452950Y-59015000D01*
X110307050Y-59015000D01*
X110088889Y-59036487D01*
X109808966Y-59121401D01*
X109550986Y-59259294D01*
X109324866Y-59444866D01*
X109139294Y-59670986D01*
X109001401Y-59928966D01*
X108916487Y-60208889D01*
X108887815Y-60500000D01*
X108916487Y-60791111D01*
X109001401Y-61071034D01*
X109139294Y-61329014D01*
X109324866Y-61555134D01*
X109495000Y-61694760D01*
X109495001Y-62918521D01*
X109490719Y-62962000D01*
X109507805Y-63135490D01*
X109558412Y-63302313D01*
X109640590Y-63456059D01*
X109704928Y-63534455D01*
X109704928Y-63950001D01*
X109721992Y-64123255D01*
X109772528Y-64289851D01*
X109854595Y-64443387D01*
X109965038Y-64577962D01*
X110099613Y-64688405D01*
X110253149Y-64770472D01*
X110419745Y-64821008D01*
X110592999Y-64838072D01*
X111243001Y-64838072D01*
X111416255Y-64821008D01*
X111582851Y-64770472D01*
X111736387Y-64688405D01*
X111870962Y-64577962D01*
X111943000Y-64490184D01*
X112015038Y-64577962D01*
X112149613Y-64688405D01*
X112270001Y-64752754D01*
X112270000Y-66995198D01*
X109127000Y-70138199D01*
X109127000Y-70000000D01*
X109124560Y-69975224D01*
X109117333Y-69951399D01*
X109105597Y-69929443D01*
X109089803Y-69910197D01*
X109070557Y-69894403D01*
X109048601Y-69882667D01*
X109024776Y-69875440D01*
X109000000Y-69873000D01*
X100913250Y-69873000D01*
X100968000Y-69818250D01*
X100971072Y-69629000D01*
X100958812Y-69504518D01*
X100922502Y-69384820D01*
X100863537Y-69274506D01*
X100784185Y-69177815D01*
X100687494Y-69098463D01*
X100577180Y-69039498D01*
X100457482Y-69003188D01*
X100401868Y-68997711D01*
X102711051Y-66688528D01*
X102744817Y-66660817D01*
X102779137Y-66618999D01*
X102855411Y-66526059D01*
X102855412Y-66526058D01*
X102937589Y-66372313D01*
X102988195Y-66205490D01*
X103001000Y-66075477D01*
X103001000Y-66075469D01*
X103005281Y-66032000D01*
X103001000Y-65988531D01*
X103001000Y-60998454D01*
X103033205Y-60950256D01*
X103111226Y-60761898D01*
X103151000Y-60561939D01*
X103151000Y-60358061D01*
X103111226Y-60158102D01*
X103033205Y-59969744D01*
X102919937Y-59800226D01*
X102775774Y-59656063D01*
X102606256Y-59542795D01*
X102417898Y-59464774D01*
X102217939Y-59425000D01*
X102014061Y-59425000D01*
X101814102Y-59464774D01*
X101625744Y-59542795D01*
X101456226Y-59656063D01*
X101312063Y-59800226D01*
X101198795Y-59969744D01*
X101120774Y-60158102D01*
X101081000Y-60358061D01*
X101081000Y-60561939D01*
X101120774Y-60761898D01*
X101198795Y-60950256D01*
X101231000Y-60998454D01*
X101231000Y-61069161D01*
X101231001Y-61069171D01*
X101231000Y-65665421D01*
X97905494Y-68990928D01*
X97770500Y-68990928D01*
X97599684Y-69007752D01*
X97537788Y-69026528D01*
X97515226Y-68913102D01*
X97437205Y-68724744D01*
X97340486Y-68579994D01*
X97437197Y-68435256D01*
X97515218Y-68246898D01*
X97554992Y-68046939D01*
X97554992Y-67843061D01*
X97515218Y-67643102D01*
X97437197Y-67454744D01*
X97323929Y-67285226D01*
X97179766Y-67141063D01*
X97010248Y-67027795D01*
X96821890Y-66949774D01*
X96813664Y-66948138D01*
X99273731Y-64488072D01*
X99850000Y-64488072D01*
X99974482Y-64475812D01*
X100094180Y-64439502D01*
X100204494Y-64380537D01*
X100301185Y-64301185D01*
X100380537Y-64204494D01*
X100439502Y-64094180D01*
X100475812Y-63974482D01*
X100488072Y-63850000D01*
X100488072Y-62150000D01*
X100475812Y-62025518D01*
X100439502Y-61905820D01*
X100380537Y-61795506D01*
X100301185Y-61698815D01*
X100204494Y-61619463D01*
X100094180Y-61560498D01*
X100025313Y-61539607D01*
X100055134Y-61515134D01*
X100240706Y-61289014D01*
X100378599Y-61031034D01*
X100463513Y-60751111D01*
X100492185Y-60460000D01*
X100463513Y-60168889D01*
X100378599Y-59888966D01*
X100240706Y-59630986D01*
X100055134Y-59404866D01*
X99829014Y-59219294D01*
X99571034Y-59081401D01*
X99291111Y-58996487D01*
X99072950Y-58975000D01*
X98927050Y-58975000D01*
X98708889Y-58996487D01*
X98428966Y-59081401D01*
X98170986Y-59219294D01*
X97944866Y-59404866D01*
X97759294Y-59630986D01*
X97730000Y-59685791D01*
X97700706Y-59630986D01*
X97515134Y-59404866D01*
X97289014Y-59219294D01*
X97031034Y-59081401D01*
X96751111Y-58996487D01*
X96532950Y-58975000D01*
X96387050Y-58975000D01*
X96168889Y-58996487D01*
X95888966Y-59081401D01*
X95630986Y-59219294D01*
X95404866Y-59404866D01*
X95219294Y-59630986D01*
X95184799Y-59695523D01*
X95115178Y-59578645D01*
X94920269Y-59362412D01*
X94686920Y-59188359D01*
X94424099Y-59063175D01*
X94276890Y-59018524D01*
X94047000Y-59139845D01*
X94047000Y-60333000D01*
X94067000Y-60333000D01*
X94067000Y-60587000D01*
X94047000Y-60587000D01*
X94047000Y-60607000D01*
X93793000Y-60607000D01*
X93793000Y-60587000D01*
X92599186Y-60587000D01*
X92478519Y-60816891D01*
X92575843Y-61091252D01*
X92724822Y-61341355D01*
X92919731Y-61557588D01*
X93148756Y-61728416D01*
X93090986Y-61759294D01*
X92864866Y-61944866D01*
X92679294Y-62170986D01*
X92541401Y-62428966D01*
X92456487Y-62708889D01*
X92427815Y-63000000D01*
X92456487Y-63291111D01*
X92541401Y-63571034D01*
X92679294Y-63829014D01*
X92864866Y-64055134D01*
X93090986Y-64240706D01*
X93348966Y-64378599D01*
X93628889Y-64463513D01*
X93847050Y-64485000D01*
X93992950Y-64485000D01*
X94211111Y-64463513D01*
X94491034Y-64378599D01*
X94749014Y-64240706D01*
X94975134Y-64055134D01*
X95160706Y-63829014D01*
X95190000Y-63774209D01*
X95219294Y-63829014D01*
X95230063Y-63842136D01*
X93585248Y-65486951D01*
X93513937Y-65380226D01*
X93369774Y-65236063D01*
X93200256Y-65122795D01*
X93011898Y-65044774D01*
X92811939Y-65005000D01*
X92608061Y-65005000D01*
X92408102Y-65044774D01*
X92219744Y-65122795D01*
X92050226Y-65236063D01*
X91906063Y-65380226D01*
X91792795Y-65549744D01*
X91714774Y-65738102D01*
X91675000Y-65938061D01*
X91675000Y-66000198D01*
X89797600Y-67877599D01*
X89797600Y-67663978D01*
X90415044Y-67046535D01*
X90471898Y-67035226D01*
X90660256Y-66957205D01*
X90829774Y-66843937D01*
X90973937Y-66699774D01*
X91087205Y-66530256D01*
X91165226Y-66341898D01*
X91205000Y-66141939D01*
X91205000Y-65938061D01*
X91165226Y-65738102D01*
X91087205Y-65549744D01*
X90973937Y-65380226D01*
X90829774Y-65236063D01*
X90660256Y-65122795D01*
X90471898Y-65044774D01*
X90271939Y-65005000D01*
X90068061Y-65005000D01*
X89868102Y-65044774D01*
X89679744Y-65122795D01*
X89510226Y-65236063D01*
X89366063Y-65380226D01*
X89252795Y-65549744D01*
X89251072Y-65553904D01*
X89251072Y-65230500D01*
X89234248Y-65059684D01*
X89184423Y-64895433D01*
X89103512Y-64744058D01*
X89083901Y-64720161D01*
X89143537Y-64647494D01*
X89202502Y-64537180D01*
X89238812Y-64417482D01*
X89251072Y-64293000D01*
X89248000Y-64053750D01*
X89089250Y-63895000D01*
X88265000Y-63895000D01*
X88265000Y-63915000D01*
X88011000Y-63915000D01*
X88011000Y-63895000D01*
X87186750Y-63895000D01*
X87028000Y-64053750D01*
X87024928Y-64293000D01*
X87037188Y-64417482D01*
X87073498Y-64537180D01*
X87132463Y-64647494D01*
X87192099Y-64720161D01*
X87172488Y-64744058D01*
X87091577Y-64895433D01*
X87041752Y-65059684D01*
X87024928Y-65230500D01*
X87024928Y-65805500D01*
X87041752Y-65976316D01*
X87091577Y-66140567D01*
X87172488Y-66291942D01*
X87281377Y-66424623D01*
X87352601Y-66483075D01*
X87352600Y-69873000D01*
X87247600Y-69873000D01*
X87247600Y-68831505D01*
X87251156Y-68795400D01*
X87236965Y-68651315D01*
X87194937Y-68512766D01*
X87126687Y-68385080D01*
X87057853Y-68301206D01*
X87034838Y-68273162D01*
X87006793Y-68250146D01*
X81999647Y-63243000D01*
X87024928Y-63243000D01*
X87028000Y-63482250D01*
X87186750Y-63641000D01*
X88011000Y-63641000D01*
X88011000Y-62766750D01*
X88265000Y-62766750D01*
X88265000Y-63641000D01*
X89089250Y-63641000D01*
X89248000Y-63482250D01*
X89251072Y-63243000D01*
X89238812Y-63118518D01*
X89202502Y-62998820D01*
X89143537Y-62888506D01*
X89064185Y-62791815D01*
X88967494Y-62712463D01*
X88857180Y-62653498D01*
X88737482Y-62617188D01*
X88613000Y-62604928D01*
X88423750Y-62608000D01*
X88265000Y-62766750D01*
X88011000Y-62766750D01*
X87852250Y-62608000D01*
X87663000Y-62604928D01*
X87538518Y-62617188D01*
X87418820Y-62653498D01*
X87308506Y-62712463D01*
X87211815Y-62791815D01*
X87132463Y-62888506D01*
X87073498Y-62998820D01*
X87037188Y-63118518D01*
X87024928Y-63243000D01*
X81999647Y-63243000D01*
X81508459Y-62751813D01*
X81485438Y-62723762D01*
X81373520Y-62631913D01*
X81245833Y-62563663D01*
X81107285Y-62521635D01*
X80999305Y-62511000D01*
X80963200Y-62507444D01*
X80927095Y-62511000D01*
X69066946Y-62511000D01*
X68990259Y-62434313D01*
X68977146Y-62418335D01*
X68966008Y-62305245D01*
X68915472Y-62138649D01*
X68833405Y-61985113D01*
X68722962Y-61850538D01*
X68588387Y-61740095D01*
X68434851Y-61658028D01*
X68268255Y-61607492D01*
X68095001Y-61590428D01*
X67444999Y-61590428D01*
X67271745Y-61607492D01*
X67105149Y-61658028D01*
X66951613Y-61740095D01*
X66817038Y-61850538D01*
X66745000Y-61938316D01*
X66672962Y-61850538D01*
X66538387Y-61740095D01*
X66384851Y-61658028D01*
X66218255Y-61607492D01*
X66045001Y-61590428D01*
X65394999Y-61590428D01*
X65221745Y-61607492D01*
X65055149Y-61658028D01*
X64901613Y-61740095D01*
X64767038Y-61850538D01*
X64656595Y-61985113D01*
X64574528Y-62138649D01*
X64523992Y-62305245D01*
X64506928Y-62478499D01*
X64506928Y-63102125D01*
X63101654Y-64507400D01*
X61738044Y-64507400D01*
X61246857Y-64016213D01*
X61268980Y-64009502D01*
X61379294Y-63950537D01*
X61475985Y-63871185D01*
X61555337Y-63774494D01*
X61614302Y-63664180D01*
X61650612Y-63544482D01*
X61662872Y-63420000D01*
X61662872Y-62820000D01*
X61650612Y-62695518D01*
X61614302Y-62575820D01*
X61555337Y-62465506D01*
X61476958Y-62370000D01*
X61555337Y-62274494D01*
X61614302Y-62164180D01*
X61650612Y-62044482D01*
X61662872Y-61920000D01*
X61659800Y-61705750D01*
X61501050Y-61547000D01*
X60801800Y-61547000D01*
X60801800Y-61567000D01*
X60698011Y-61567000D01*
X60698011Y-60576416D01*
X60701567Y-60540311D01*
X60687376Y-60396226D01*
X60673661Y-60351014D01*
X60645348Y-60257678D01*
X60577098Y-60129991D01*
X60485249Y-60018073D01*
X60457204Y-59995057D01*
X59685000Y-59222854D01*
X59685000Y-58852803D01*
X61033199Y-60201003D01*
X61056997Y-60230001D01*
X61085995Y-60253799D01*
X61133289Y-60292613D01*
X61024800Y-60281928D01*
X60960550Y-60285000D01*
X60801800Y-60443750D01*
X60801800Y-61293000D01*
X61501050Y-61293000D01*
X61659800Y-61134250D01*
X61662872Y-60920000D01*
X61650612Y-60795518D01*
X61614302Y-60675820D01*
X61555337Y-60565506D01*
X61475985Y-60468815D01*
X61434761Y-60434983D01*
X61448012Y-60439003D01*
X61559665Y-60450000D01*
X61559675Y-60450000D01*
X61596998Y-60453676D01*
X61634321Y-60450000D01*
X65687333Y-60450000D01*
X65798986Y-60439003D01*
X65942247Y-60395546D01*
X65946875Y-60393072D01*
X65975001Y-60393072D01*
X66148255Y-60376008D01*
X66314851Y-60325472D01*
X66468387Y-60243405D01*
X66602962Y-60132962D01*
X66608342Y-60126406D01*
X66673815Y-60206185D01*
X66770506Y-60285537D01*
X66880820Y-60344502D01*
X67000518Y-60380812D01*
X67125000Y-60393072D01*
X67414250Y-60390000D01*
X67573000Y-60231250D01*
X67573000Y-59182000D01*
X67827000Y-59182000D01*
X67827000Y-60231250D01*
X67985750Y-60390000D01*
X68275000Y-60393072D01*
X68399482Y-60380812D01*
X68519180Y-60344502D01*
X68629494Y-60285537D01*
X68726185Y-60206185D01*
X68805537Y-60109494D01*
X68808949Y-60103109D01*
X92478519Y-60103109D01*
X92599186Y-60333000D01*
X93793000Y-60333000D01*
X93793000Y-59139845D01*
X93563110Y-59018524D01*
X93415901Y-59063175D01*
X93153080Y-59188359D01*
X92919731Y-59362412D01*
X92724822Y-59578645D01*
X92575843Y-59828748D01*
X92478519Y-60103109D01*
X68808949Y-60103109D01*
X68864502Y-59999180D01*
X68900812Y-59879482D01*
X68913072Y-59755000D01*
X68910000Y-59340750D01*
X68751250Y-59182000D01*
X67827000Y-59182000D01*
X67573000Y-59182000D01*
X67553000Y-59182000D01*
X67553000Y-58928000D01*
X67573000Y-58928000D01*
X67573000Y-57878750D01*
X67827000Y-57878750D01*
X67827000Y-58928000D01*
X68751250Y-58928000D01*
X68910000Y-58769250D01*
X68913072Y-58355000D01*
X68900812Y-58230518D01*
X68864502Y-58110820D01*
X68805537Y-58000506D01*
X68726185Y-57903815D01*
X68629494Y-57824463D01*
X68519180Y-57765498D01*
X68399482Y-57729188D01*
X68275000Y-57716928D01*
X67985750Y-57720000D01*
X67827000Y-57878750D01*
X67573000Y-57878750D01*
X67414250Y-57720000D01*
X67125000Y-57716928D01*
X67000518Y-57729188D01*
X66880820Y-57765498D01*
X66770506Y-57824463D01*
X66673815Y-57903815D01*
X66608342Y-57983594D01*
X66602962Y-57977038D01*
X66468387Y-57866595D01*
X66314851Y-57784528D01*
X66148255Y-57733992D01*
X65975001Y-57716928D01*
X65324999Y-57716928D01*
X65151745Y-57733992D01*
X64985149Y-57784528D01*
X64831613Y-57866595D01*
X64697038Y-57977038D01*
X64586595Y-58111613D01*
X64504528Y-58265149D01*
X64453992Y-58431745D01*
X64436928Y-58604999D01*
X64436928Y-58930000D01*
X62304013Y-58930000D01*
X62317205Y-58910256D01*
X62395226Y-58721898D01*
X62435000Y-58521939D01*
X62435000Y-58318061D01*
X62395226Y-58118102D01*
X62317205Y-57929744D01*
X62203937Y-57760226D01*
X62131125Y-57687414D01*
X62153505Y-57668853D01*
X62232358Y-57571754D01*
X62290753Y-57461137D01*
X62326445Y-57341253D01*
X62338064Y-57216710D01*
X62337511Y-57137987D01*
X62393000Y-57097954D01*
X62393000Y-55707000D01*
X62647000Y-55707000D01*
X62647000Y-57097954D01*
X62821874Y-57224119D01*
X63044976Y-57144276D01*
X63232764Y-57022369D01*
X63393161Y-56866169D01*
X63520003Y-56681678D01*
X63608415Y-56475987D01*
X63655000Y-56257000D01*
X63655000Y-55707000D01*
X62647000Y-55707000D01*
X62393000Y-55707000D01*
X62373000Y-55707000D01*
X62373000Y-55453000D01*
X62393000Y-55453000D01*
X62393000Y-54062046D01*
X62647000Y-54062046D01*
X62647000Y-55453000D01*
X63655000Y-55453000D01*
X63655000Y-54903000D01*
X63608415Y-54684013D01*
X63520003Y-54478322D01*
X63393161Y-54293831D01*
X63232764Y-54137631D01*
X63044976Y-54015724D01*
X62821874Y-53935881D01*
X62647000Y-54062046D01*
X62393000Y-54062046D01*
X62218126Y-53935881D01*
X61995024Y-54015724D01*
X61807236Y-54137631D01*
X61662884Y-54278206D01*
X61544731Y-54199259D01*
X61370022Y-54126892D01*
X61184552Y-54090000D01*
X60995448Y-54090000D01*
X60809978Y-54126892D01*
X60635269Y-54199259D01*
X60478036Y-54304319D01*
X60344319Y-54438036D01*
X60239259Y-54595269D01*
X60166892Y-54769978D01*
X60130000Y-54955448D01*
X60130000Y-55134883D01*
X60100000Y-55131928D01*
X59800000Y-55131928D01*
X59700000Y-55141777D01*
X59600000Y-55131928D01*
X59500277Y-55131928D01*
X59472238Y-55097762D01*
X59444187Y-55074741D01*
X59275259Y-54905813D01*
X59252238Y-54877762D01*
X59140320Y-54785913D01*
X59012633Y-54717663D01*
X58874085Y-54675635D01*
X58766105Y-54665000D01*
X58730000Y-54661444D01*
X58693895Y-54665000D01*
X58206105Y-54665000D01*
X58170000Y-54661444D01*
X58025914Y-54675635D01*
X57998296Y-54684013D01*
X57887367Y-54717663D01*
X57759680Y-54785913D01*
X57647762Y-54877762D01*
X57624741Y-54905813D01*
X57455808Y-55074746D01*
X57427762Y-55097763D01*
X57399723Y-55131928D01*
X57300000Y-55131928D01*
X57200000Y-55141777D01*
X57100000Y-55131928D01*
X56800000Y-55131928D01*
X56700000Y-55141777D01*
X56600000Y-55131928D01*
X56300000Y-55131928D01*
X56270000Y-55134883D01*
X56270000Y-54955448D01*
X56233108Y-54769978D01*
X56160741Y-54595269D01*
X56055681Y-54438036D01*
X55921964Y-54304319D01*
X55764731Y-54199259D01*
X55590022Y-54126892D01*
X55404552Y-54090000D01*
X55215448Y-54090000D01*
X55029978Y-54126892D01*
X54855269Y-54199259D01*
X54737116Y-54278206D01*
X54592764Y-54137631D01*
X54404976Y-54015724D01*
X54181874Y-53935881D01*
X54007000Y-54062046D01*
X54007000Y-55453000D01*
X54027000Y-55453000D01*
X54027000Y-55707000D01*
X54007000Y-55707000D01*
X54007000Y-57097954D01*
X54062489Y-57137987D01*
X54061936Y-57216710D01*
X54073555Y-57341253D01*
X54109247Y-57461137D01*
X54167642Y-57571754D01*
X54246495Y-57668853D01*
X54268875Y-57687414D01*
X54196063Y-57760226D01*
X54082795Y-57929744D01*
X54004774Y-58118102D01*
X53965000Y-58318061D01*
X53965000Y-58521939D01*
X54004774Y-58721898D01*
X54082795Y-58910256D01*
X54095987Y-58930000D01*
X52208527Y-58930000D01*
X52199472Y-58900149D01*
X52117405Y-58746613D01*
X52006962Y-58612038D01*
X51872387Y-58501595D01*
X51718851Y-58419528D01*
X51552255Y-58368992D01*
X51379001Y-58351928D01*
X50728999Y-58351928D01*
X50555745Y-58368992D01*
X50389149Y-58419528D01*
X50235613Y-58501595D01*
X50101038Y-58612038D01*
X50095658Y-58618594D01*
X50030185Y-58538815D01*
X49933494Y-58459463D01*
X49823180Y-58400498D01*
X49703482Y-58364188D01*
X49579000Y-58351928D01*
X49289750Y-58355000D01*
X49131000Y-58513750D01*
X49131000Y-59563000D01*
X49151000Y-59563000D01*
X49151000Y-59817000D01*
X49131000Y-59817000D01*
X49131000Y-60866250D01*
X49289750Y-61025000D01*
X49579000Y-61028072D01*
X49703482Y-61015812D01*
X49823180Y-60979502D01*
X49933494Y-60920537D01*
X50030185Y-60841185D01*
X50095658Y-60761406D01*
X50101038Y-60767962D01*
X50235613Y-60878405D01*
X50389149Y-60960472D01*
X50555745Y-61011008D01*
X50728999Y-61028072D01*
X51379001Y-61028072D01*
X51552255Y-61011008D01*
X51718851Y-60960472D01*
X51872387Y-60878405D01*
X52006962Y-60767962D01*
X52117405Y-60633387D01*
X52199472Y-60479851D01*
X52208527Y-60450000D01*
X54765680Y-60450000D01*
X54803002Y-60453676D01*
X54840324Y-60450000D01*
X54840335Y-60450000D01*
X54951988Y-60439003D01*
X55095249Y-60395546D01*
X55227278Y-60324974D01*
X55343003Y-60230001D01*
X55366806Y-60200997D01*
X57306598Y-58261206D01*
X57408131Y-58292005D01*
X57415914Y-58294366D01*
X57559998Y-58308557D01*
X57596103Y-58305001D01*
X57715000Y-58305001D01*
X57715000Y-59556893D01*
X57711444Y-59592998D01*
X57725560Y-59736323D01*
X57725635Y-59737082D01*
X57767663Y-59875630D01*
X57835913Y-60003317D01*
X57927762Y-60115235D01*
X57955808Y-60138252D01*
X58132359Y-60314803D01*
X58080620Y-60330498D01*
X57970306Y-60389463D01*
X57873615Y-60468815D01*
X57794263Y-60565506D01*
X57735298Y-60675820D01*
X57698988Y-60795518D01*
X57688204Y-60905017D01*
X49753969Y-68839253D01*
X49631939Y-68814980D01*
X49428061Y-68814980D01*
X49228102Y-68854754D01*
X49039744Y-68932775D01*
X48870226Y-69046043D01*
X48726063Y-69190206D01*
X48612795Y-69359724D01*
X48534774Y-69548082D01*
X48495000Y-69748041D01*
X48495000Y-69951919D01*
X48534774Y-70151878D01*
X48612795Y-70340236D01*
X48645001Y-70388436D01*
X48645000Y-73140206D01*
X48565150Y-73164428D01*
X48411614Y-73246495D01*
X48277038Y-73356938D01*
X48166595Y-73491514D01*
X48084528Y-73645050D01*
X48033992Y-73811646D01*
X48016928Y-73984900D01*
X48016928Y-74909900D01*
X48033992Y-75083154D01*
X48084528Y-75249750D01*
X48166595Y-75403286D01*
X48277038Y-75537862D01*
X48411614Y-75648305D01*
X48565150Y-75730372D01*
X48731746Y-75780908D01*
X48905000Y-75797972D01*
X49902850Y-75797972D01*
X49706306Y-75994516D01*
X49706300Y-75994521D01*
X49628993Y-76071828D01*
X48905000Y-76071828D01*
X48731746Y-76088892D01*
X48565150Y-76139428D01*
X48411614Y-76221495D01*
X48277038Y-76331938D01*
X48166595Y-76466514D01*
X48128706Y-76537400D01*
X46673979Y-76537400D01*
X45456535Y-75319957D01*
X45445226Y-75263102D01*
X45367205Y-75074744D01*
X45253937Y-74905226D01*
X45109774Y-74761063D01*
X44940256Y-74647795D01*
X44751898Y-74569774D01*
X44551939Y-74530000D01*
X44348061Y-74530000D01*
X44148102Y-74569774D01*
X43959744Y-74647795D01*
X43790226Y-74761063D01*
X43646063Y-74905226D01*
X43532795Y-75074744D01*
X43454774Y-75263102D01*
X43415000Y-75463061D01*
X43415000Y-75666939D01*
X43454774Y-75866898D01*
X43532795Y-76055256D01*
X43646063Y-76224774D01*
X43790226Y-76368937D01*
X43959744Y-76482205D01*
X44148102Y-76560226D01*
X44204957Y-76571535D01*
X45650870Y-78017449D01*
X45678583Y-78051217D01*
X45712351Y-78078930D01*
X45712353Y-78078932D01*
X45744149Y-78105026D01*
X45813341Y-78161811D01*
X45967087Y-78243989D01*
X46133910Y-78294595D01*
X46263923Y-78307400D01*
X46263933Y-78307400D01*
X46307399Y-78311681D01*
X46350865Y-78307400D01*
X48128706Y-78307400D01*
X48166595Y-78378286D01*
X48277038Y-78512862D01*
X48411614Y-78623305D01*
X48565150Y-78705372D01*
X48645000Y-78729594D01*
X48645001Y-81152317D01*
X48575506Y-81189463D01*
X48478815Y-81268815D01*
X48399463Y-81365506D01*
X48340498Y-81475820D01*
X48304188Y-81595518D01*
X48291928Y-81720000D01*
X48291928Y-82620000D01*
X48304188Y-82744482D01*
X48340498Y-82864180D01*
X48399463Y-82974494D01*
X48478815Y-83071185D01*
X48575506Y-83150537D01*
X48685820Y-83209502D01*
X48805518Y-83245812D01*
X48930000Y-83258072D01*
X50130000Y-83258072D01*
X50254482Y-83245812D01*
X50374180Y-83209502D01*
X50484494Y-83150537D01*
X50581185Y-83071185D01*
X50660537Y-82974494D01*
X50719502Y-82864180D01*
X50755812Y-82744482D01*
X50768072Y-82620000D01*
X50768072Y-81720000D01*
X50755812Y-81595518D01*
X50719502Y-81475820D01*
X50660537Y-81365506D01*
X50618506Y-81314290D01*
X61718510Y-81314290D01*
X62114709Y-81834695D01*
X62829708Y-82224906D01*
X63607094Y-82468129D01*
X64416994Y-82555019D01*
X65228284Y-82482235D01*
X66009785Y-82252575D01*
X66731465Y-81874864D01*
X66791583Y-81834695D01*
X67187782Y-81314290D01*
X64453146Y-78579653D01*
X61718510Y-81314290D01*
X50618506Y-81314290D01*
X50581185Y-81268815D01*
X50484494Y-81189463D01*
X50415000Y-81152317D01*
X50415000Y-78729594D01*
X50494850Y-78705372D01*
X50648386Y-78623305D01*
X50782962Y-78512862D01*
X50893405Y-78378286D01*
X50901096Y-78363896D01*
X60298175Y-78363896D01*
X60370959Y-79175186D01*
X60600619Y-79956687D01*
X60978330Y-80678367D01*
X61018499Y-80738485D01*
X61538904Y-81134684D01*
X64273541Y-78400048D01*
X61538904Y-75665412D01*
X61018499Y-76061611D01*
X60628288Y-76776610D01*
X60385065Y-77553996D01*
X60298175Y-78363896D01*
X50901096Y-78363896D01*
X50975472Y-78224750D01*
X51026008Y-78058154D01*
X51043072Y-77884900D01*
X51043072Y-77160906D01*
X52718172Y-75485806D01*
X61718510Y-75485806D01*
X64453146Y-78220443D01*
X67187782Y-75485806D01*
X66791583Y-74965401D01*
X66076584Y-74575190D01*
X65299198Y-74331967D01*
X64489298Y-74245077D01*
X63678008Y-74317861D01*
X62896507Y-74547521D01*
X62174827Y-74925232D01*
X62114709Y-74965401D01*
X61718510Y-75485806D01*
X52718172Y-75485806D01*
X57468979Y-70735000D01*
X75510198Y-70735000D01*
X68542327Y-77702872D01*
X68535333Y-77624910D01*
X68305673Y-76843409D01*
X67927962Y-76121729D01*
X67887793Y-76061611D01*
X67367388Y-75665412D01*
X64632751Y-78400048D01*
X67367388Y-81134684D01*
X67820000Y-80790098D01*
X67820001Y-102197667D01*
X67816324Y-102235000D01*
X67820001Y-102272333D01*
X67827553Y-102349003D01*
X67830998Y-102383985D01*
X67874454Y-102527246D01*
X67945026Y-102659276D01*
X68016201Y-102746002D01*
X68040000Y-102775001D01*
X68068998Y-102798799D01*
X69921200Y-104651002D01*
X69944999Y-104680001D01*
X70060724Y-104774974D01*
X70192753Y-104845546D01*
X70336014Y-104889003D01*
X70447667Y-104900000D01*
X70447677Y-104900000D01*
X70485000Y-104903676D01*
X70522323Y-104900000D01*
X73980199Y-104900000D01*
X78186331Y-109106133D01*
X78168966Y-109111401D01*
X77910986Y-109249294D01*
X77684866Y-109434866D01*
X77660393Y-109464687D01*
X77639502Y-109395820D01*
X77580537Y-109285506D01*
X77501185Y-109188815D01*
X77404494Y-109109463D01*
X77294180Y-109050498D01*
X77174482Y-109014188D01*
X77050000Y-109001928D01*
X75350000Y-109001928D01*
X75225518Y-109014188D01*
X75105820Y-109050498D01*
X74995506Y-109109463D01*
X74898815Y-109188815D01*
X74819463Y-109285506D01*
X74760498Y-109395820D01*
X74724188Y-109515518D01*
X74715375Y-109605000D01*
X59421579Y-109605000D01*
X50416579Y-100600000D01*
X64511928Y-100600000D01*
X64524188Y-100724482D01*
X64560498Y-100844180D01*
X64619463Y-100954494D01*
X64698815Y-101051185D01*
X64795506Y-101130537D01*
X64905820Y-101189502D01*
X65025518Y-101225812D01*
X65150000Y-101238072D01*
X65764250Y-101235000D01*
X65923000Y-101076250D01*
X65923000Y-100177000D01*
X66177000Y-100177000D01*
X66177000Y-101076250D01*
X66335750Y-101235000D01*
X66950000Y-101238072D01*
X67074482Y-101225812D01*
X67194180Y-101189502D01*
X67304494Y-101130537D01*
X67401185Y-101051185D01*
X67480537Y-100954494D01*
X67539502Y-100844180D01*
X67575812Y-100724482D01*
X67588072Y-100600000D01*
X67585000Y-100335750D01*
X67426250Y-100177000D01*
X66177000Y-100177000D01*
X65923000Y-100177000D01*
X64673750Y-100177000D01*
X64515000Y-100335750D01*
X64511928Y-100600000D01*
X50416579Y-100600000D01*
X50415000Y-100598422D01*
X50415000Y-99500000D01*
X64511928Y-99500000D01*
X64515000Y-99764250D01*
X64673750Y-99923000D01*
X65923000Y-99923000D01*
X65923000Y-99023750D01*
X66177000Y-99023750D01*
X66177000Y-99923000D01*
X67426250Y-99923000D01*
X67585000Y-99764250D01*
X67588072Y-99500000D01*
X67575812Y-99375518D01*
X67539502Y-99255820D01*
X67480537Y-99145506D01*
X67401185Y-99048815D01*
X67304494Y-98969463D01*
X67194180Y-98910498D01*
X67074482Y-98874188D01*
X66950000Y-98861928D01*
X66335750Y-98865000D01*
X66177000Y-99023750D01*
X65923000Y-99023750D01*
X65764250Y-98865000D01*
X65150000Y-98861928D01*
X65025518Y-98874188D01*
X64905820Y-98910498D01*
X64795506Y-98969463D01*
X64698815Y-99048815D01*
X64619463Y-99145506D01*
X64560498Y-99255820D01*
X64524188Y-99375518D01*
X64511928Y-99500000D01*
X50415000Y-99500000D01*
X50415000Y-96900000D01*
X64511928Y-96900000D01*
X64524188Y-97024482D01*
X64560498Y-97144180D01*
X64619463Y-97254494D01*
X64698815Y-97351185D01*
X64795506Y-97430537D01*
X64905820Y-97489502D01*
X65025518Y-97525812D01*
X65150000Y-97538072D01*
X65764250Y-97535000D01*
X65923000Y-97376250D01*
X65923000Y-96477000D01*
X66177000Y-96477000D01*
X66177000Y-97376250D01*
X66335750Y-97535000D01*
X66950000Y-97538072D01*
X67074482Y-97525812D01*
X67194180Y-97489502D01*
X67304494Y-97430537D01*
X67401185Y-97351185D01*
X67480537Y-97254494D01*
X67539502Y-97144180D01*
X67575812Y-97024482D01*
X67588072Y-96900000D01*
X67585000Y-96635750D01*
X67426250Y-96477000D01*
X66177000Y-96477000D01*
X65923000Y-96477000D01*
X64673750Y-96477000D01*
X64515000Y-96635750D01*
X64511928Y-96900000D01*
X50415000Y-96900000D01*
X50415000Y-95800000D01*
X64511928Y-95800000D01*
X64515000Y-96064250D01*
X64673750Y-96223000D01*
X65923000Y-96223000D01*
X65923000Y-95323750D01*
X66177000Y-95323750D01*
X66177000Y-96223000D01*
X67426250Y-96223000D01*
X67585000Y-96064250D01*
X67588072Y-95800000D01*
X67575812Y-95675518D01*
X67539502Y-95555820D01*
X67480537Y-95445506D01*
X67401185Y-95348815D01*
X67304494Y-95269463D01*
X67194180Y-95210498D01*
X67074482Y-95174188D01*
X66950000Y-95161928D01*
X66335750Y-95165000D01*
X66177000Y-95323750D01*
X65923000Y-95323750D01*
X65764250Y-95165000D01*
X65150000Y-95161928D01*
X65025518Y-95174188D01*
X64905820Y-95210498D01*
X64795506Y-95269463D01*
X64698815Y-95348815D01*
X64619463Y-95445506D01*
X64560498Y-95555820D01*
X64524188Y-95675518D01*
X64511928Y-95800000D01*
X50415000Y-95800000D01*
X50415000Y-86487683D01*
X50484494Y-86450537D01*
X50581185Y-86371185D01*
X50594468Y-86355000D01*
X52800546Y-86355000D01*
X52848744Y-86387205D01*
X53037102Y-86465226D01*
X53237061Y-86505000D01*
X53440939Y-86505000D01*
X53640898Y-86465226D01*
X53829256Y-86387205D01*
X53998774Y-86273937D01*
X54142937Y-86129774D01*
X54256205Y-85960256D01*
X54334226Y-85771898D01*
X54374000Y-85571939D01*
X54374000Y-85368061D01*
X54334226Y-85168102D01*
X54256205Y-84979744D01*
X54142937Y-84810226D01*
X53998774Y-84666063D01*
X53829256Y-84552795D01*
X53640898Y-84474774D01*
X53440939Y-84435000D01*
X53237061Y-84435000D01*
X53037102Y-84474774D01*
X52848744Y-84552795D01*
X52800546Y-84585000D01*
X50594468Y-84585000D01*
X50581185Y-84568815D01*
X50484494Y-84489463D01*
X50374180Y-84430498D01*
X50254482Y-84394188D01*
X50130000Y-84381928D01*
X48930000Y-84381928D01*
X48805518Y-84394188D01*
X48685820Y-84430498D01*
X48575506Y-84489463D01*
X48478815Y-84568815D01*
X48399463Y-84665506D01*
X48340498Y-84775820D01*
X48304188Y-84895518D01*
X48291928Y-85020000D01*
X48291928Y-85920000D01*
X48304188Y-86044482D01*
X48340498Y-86164180D01*
X48399463Y-86274494D01*
X48478815Y-86371185D01*
X48575506Y-86450537D01*
X48645001Y-86487683D01*
X48645000Y-100921531D01*
X48640719Y-100965000D01*
X48645000Y-101008469D01*
X48645000Y-101008476D01*
X48657805Y-101138489D01*
X48708411Y-101305312D01*
X48790589Y-101459058D01*
X48901183Y-101593817D01*
X48934956Y-101621534D01*
X58398470Y-111085049D01*
X58426183Y-111118817D01*
X58459951Y-111146530D01*
X58459953Y-111146532D01*
X58519677Y-111195546D01*
X58560941Y-111229411D01*
X58714687Y-111311589D01*
X58881510Y-111362195D01*
X59011523Y-111375000D01*
X59011533Y-111375000D01*
X59054999Y-111379281D01*
X59098465Y-111375000D01*
X74715375Y-111375000D01*
X74724188Y-111464482D01*
X74760498Y-111584180D01*
X74819463Y-111694494D01*
X74898815Y-111791185D01*
X74995506Y-111870537D01*
X75105820Y-111929502D01*
X75174687Y-111950393D01*
X75144866Y-111974866D01*
X74959294Y-112200986D01*
X74821401Y-112458966D01*
X74736487Y-112738889D01*
X74707815Y-113030000D01*
X74736487Y-113321111D01*
X74821401Y-113601034D01*
X74959294Y-113859014D01*
X75144866Y-114085134D01*
X75370986Y-114270706D01*
X75454696Y-114315450D01*
X42038095Y-114315450D01*
X41745218Y-114286733D01*
X41500145Y-114212741D01*
X41274107Y-114092554D01*
X41075721Y-113930754D01*
X40912540Y-113733503D01*
X40790779Y-113508310D01*
X40715076Y-113263753D01*
X40685000Y-112977602D01*
X40685000Y-109760630D01*
X41704252Y-109760630D01*
X41704252Y-106752000D01*
X41958252Y-106752000D01*
X41958252Y-109760630D01*
X44457612Y-109760630D01*
X45066903Y-109675603D01*
X45647898Y-109473343D01*
X46178271Y-109161623D01*
X46637639Y-108752422D01*
X47008350Y-108261466D01*
X47276157Y-107707621D01*
X47405229Y-107240555D01*
X47304782Y-106752000D01*
X41958252Y-106752000D01*
X41704252Y-106752000D01*
X41684252Y-106752000D01*
X41684252Y-106498000D01*
X41704252Y-106498000D01*
X41704252Y-106478000D01*
X41958252Y-106478000D01*
X41958252Y-106498000D01*
X47304782Y-106498000D01*
X47405229Y-106009445D01*
X47276157Y-105542379D01*
X47008350Y-104988534D01*
X46637639Y-104497578D01*
X46178271Y-104088377D01*
X45647898Y-103776657D01*
X45066903Y-103574397D01*
X44457612Y-103489370D01*
X40685000Y-103489370D01*
X40685000Y-60390000D01*
X47790928Y-60390000D01*
X47803188Y-60514482D01*
X47839498Y-60634180D01*
X47898463Y-60744494D01*
X47977815Y-60841185D01*
X48074506Y-60920537D01*
X48184820Y-60979502D01*
X48304518Y-61015812D01*
X48429000Y-61028072D01*
X48718250Y-61025000D01*
X48877000Y-60866250D01*
X48877000Y-59817000D01*
X47952750Y-59817000D01*
X47794000Y-59975750D01*
X47790928Y-60390000D01*
X40685000Y-60390000D01*
X40685000Y-58990000D01*
X47790928Y-58990000D01*
X47794000Y-59404250D01*
X47952750Y-59563000D01*
X48877000Y-59563000D01*
X48877000Y-58513750D01*
X48718250Y-58355000D01*
X48429000Y-58351928D01*
X48304518Y-58364188D01*
X48184820Y-58400498D01*
X48074506Y-58459463D01*
X47977815Y-58538815D01*
X47898463Y-58635506D01*
X47839498Y-58745820D01*
X47803188Y-58865518D01*
X47790928Y-58990000D01*
X40685000Y-58990000D01*
X40685000Y-55707000D01*
X52745000Y-55707000D01*
X52745000Y-56257000D01*
X52791585Y-56475987D01*
X52879997Y-56681678D01*
X53006839Y-56866169D01*
X53167236Y-57022369D01*
X53355024Y-57144276D01*
X53578126Y-57224119D01*
X53753000Y-57097954D01*
X53753000Y-55707000D01*
X52745000Y-55707000D01*
X40685000Y-55707000D01*
X40685000Y-54903000D01*
X52745000Y-54903000D01*
X52745000Y-55453000D01*
X53753000Y-55453000D01*
X53753000Y-54062046D01*
X53578126Y-53935881D01*
X53355024Y-54015724D01*
X53167236Y-54137631D01*
X53006839Y-54293831D01*
X52879997Y-54478322D01*
X52791585Y-54684013D01*
X52745000Y-54903000D01*
X40685000Y-54903000D01*
X40685000Y-52028892D01*
X40712823Y-51745130D01*
X40778680Y-51527000D01*
X52745000Y-51527000D01*
X52745000Y-51827000D01*
X52791585Y-52045987D01*
X52879997Y-52251678D01*
X53006839Y-52436169D01*
X53167236Y-52592369D01*
X53355024Y-52714276D01*
X53578126Y-52794119D01*
X53753000Y-52667954D01*
X53753000Y-51527000D01*
X54007000Y-51527000D01*
X54007000Y-52667954D01*
X54181874Y-52794119D01*
X54404976Y-52714276D01*
X54592764Y-52592369D01*
X54753161Y-52436169D01*
X54880003Y-52251678D01*
X54968415Y-52045987D01*
X55015000Y-51827000D01*
X55015000Y-51527000D01*
X61385000Y-51527000D01*
X61385000Y-51827000D01*
X61431585Y-52045987D01*
X61519997Y-52251678D01*
X61646839Y-52436169D01*
X61807236Y-52592369D01*
X61995024Y-52714276D01*
X62218126Y-52794119D01*
X62393000Y-52667954D01*
X62393000Y-51527000D01*
X62647000Y-51527000D01*
X62647000Y-52667954D01*
X62821874Y-52794119D01*
X63044976Y-52714276D01*
X63232764Y-52592369D01*
X63393161Y-52436169D01*
X63520003Y-52251678D01*
X63608415Y-52045987D01*
X63655000Y-51827000D01*
X63655000Y-51527000D01*
X62647000Y-51527000D01*
X62393000Y-51527000D01*
X61385000Y-51527000D01*
X55015000Y-51527000D01*
X54007000Y-51527000D01*
X53753000Y-51527000D01*
X52745000Y-51527000D01*
X40778680Y-51527000D01*
X40786841Y-51499972D01*
X40907068Y-51273859D01*
X41068927Y-51075401D01*
X41266243Y-50912166D01*
X41491515Y-50790362D01*
X41736153Y-50714634D01*
X42018098Y-50685000D01*
X52821249Y-50685000D01*
X52791585Y-50754013D01*
X52791585Y-50754013D01*
G37*
X52791585Y-50754013D02*
X52745000Y-50973000D01*
X52745000Y-51273000D01*
X53753000Y-51273000D01*
X53753000Y-51253000D01*
X54007000Y-51253000D01*
X54007000Y-51273000D01*
X55015000Y-51273000D01*
X55015000Y-50973000D01*
X54968415Y-50754013D01*
X54938751Y-50685000D01*
X61461249Y-50685000D01*
X61431585Y-50754013D01*
X61385000Y-50973000D01*
X61385000Y-51273000D01*
X62393000Y-51273000D01*
X62393000Y-51253000D01*
X62647000Y-51253000D01*
X62647000Y-51273000D01*
X63655000Y-51273000D01*
X63655000Y-50973000D01*
X63608415Y-50754013D01*
X63578751Y-50685000D01*
X137966495Y-50685000D01*
X138254782Y-50713267D01*
X138499855Y-50787259D01*
X138725890Y-50907443D01*
X138924281Y-51069248D01*
X139087460Y-51266497D01*
X139209220Y-51491687D01*
X139284924Y-51736247D01*
X139315000Y-52022398D01*
X139315001Y-112966484D01*
X139286733Y-113254782D01*
X139212741Y-113499855D01*
X139092554Y-113725893D01*
X138930754Y-113924279D01*
X138733503Y-114087460D01*
X138508310Y-114209221D01*
X138263753Y-114284924D01*
X137973320Y-114315450D01*
X112505304Y-114315450D01*
X112589014Y-114270706D01*
X112815134Y-114085134D01*
X113000706Y-113859014D01*
X113138599Y-113601034D01*
X113223513Y-113321111D01*
X113252185Y-113030000D01*
X113223513Y-112738889D01*
X113138599Y-112458966D01*
X113000706Y-112200986D01*
X112815134Y-111974866D01*
X112589014Y-111789294D01*
X112531244Y-111758416D01*
X112760269Y-111587588D01*
X112955178Y-111371355D01*
X113104157Y-111121252D01*
X113201481Y-110846891D01*
X113080814Y-110617000D01*
X111887000Y-110617000D01*
X111887000Y-110637000D01*
X111633000Y-110637000D01*
X111633000Y-110617000D01*
X111613000Y-110617000D01*
X111613000Y-110363000D01*
X111633000Y-110363000D01*
X111633000Y-109169845D01*
X111887000Y-109169845D01*
X111887000Y-110363000D01*
X113080814Y-110363000D01*
X113201481Y-110133109D01*
X113104157Y-109858748D01*
X112955178Y-109608645D01*
X112760269Y-109392412D01*
X112526920Y-109218359D01*
X112264099Y-109093175D01*
X112116890Y-109048524D01*
X111887000Y-109169845D01*
X111633000Y-109169845D01*
X111403110Y-109048524D01*
X111255901Y-109093175D01*
X110993080Y-109218359D01*
X110759731Y-109392412D01*
X110564822Y-109608645D01*
X110495201Y-109725523D01*
X110460706Y-109660986D01*
X110275134Y-109434866D01*
X110049014Y-109249294D01*
X109791034Y-109111401D01*
X109511111Y-109026487D01*
X109292950Y-109005000D01*
X109147050Y-109005000D01*
X108928889Y-109026487D01*
X108648966Y-109111401D01*
X108390986Y-109249294D01*
X108164866Y-109434866D01*
X107979294Y-109660986D01*
X107950000Y-109715791D01*
X107920706Y-109660986D01*
X107735134Y-109434866D01*
X107509014Y-109249294D01*
X107251034Y-109111401D01*
X106971111Y-109026487D01*
X106752950Y-109005000D01*
X106607050Y-109005000D01*
X106388889Y-109026487D01*
X106108966Y-109111401D01*
X105850986Y-109249294D01*
X105624866Y-109434866D01*
X105439294Y-109660986D01*
X105410000Y-109715791D01*
X105380706Y-109660986D01*
X105195134Y-109434866D01*
X104969014Y-109249294D01*
X104900000Y-109212405D01*
X104900000Y-91477322D01*
X104903676Y-91439999D01*
X104900000Y-91402676D01*
X104900000Y-91402667D01*
X104889003Y-91291014D01*
X104845546Y-91147753D01*
X104799460Y-91061533D01*
X104774974Y-91015723D01*
X104703799Y-90928997D01*
X104680001Y-90899999D01*
X104651004Y-90876202D01*
X99901801Y-86127000D01*
X109000000Y-86127000D01*
X109024776Y-86124560D01*
X109048601Y-86117333D01*
X109070557Y-86105597D01*
X109089803Y-86089803D01*
X109105597Y-86070557D01*
X109117333Y-86048601D01*
X109124560Y-86024776D01*
X109127000Y-86000000D01*
X109127000Y-84555711D01*
X109195226Y-84623937D01*
X109364744Y-84737205D01*
X109553102Y-84815226D01*
X109753061Y-84855000D01*
X109956939Y-84855000D01*
X110156898Y-84815226D01*
X110345256Y-84737205D01*
X110514774Y-84623937D01*
X110658937Y-84479774D01*
X110772205Y-84310256D01*
X110850226Y-84121898D01*
X110890000Y-83921939D01*
X110890000Y-83718061D01*
X110850226Y-83518102D01*
X110772205Y-83329744D01*
X110658937Y-83160226D01*
X110615000Y-83116289D01*
X110615000Y-75244801D01*
X115992003Y-69867799D01*
X116021001Y-69844001D01*
X116115974Y-69728276D01*
X116186546Y-69596247D01*
X116230003Y-69452986D01*
X116241000Y-69341333D01*
X116244677Y-69304000D01*
X116241000Y-69266667D01*
X116241000Y-64719614D01*
X116299387Y-64688405D01*
X116433962Y-64577962D01*
X116506000Y-64490184D01*
X116578038Y-64577962D01*
X116712613Y-64688405D01*
X116866149Y-64770472D01*
X117032745Y-64821008D01*
X117205999Y-64838072D01*
X117617494Y-64838072D01*
X119629560Y-66850139D01*
X119654774Y-66976898D01*
X119732795Y-67165256D01*
X119765000Y-67213454D01*
X119765001Y-78373420D01*
X109659953Y-88478469D01*
X109609957Y-88528465D01*
X109553102Y-88539774D01*
X109364744Y-88617795D01*
X109195226Y-88731063D01*
X109051063Y-88875226D01*
X108937795Y-89044744D01*
X108859774Y-89233102D01*
X108820000Y-89433061D01*
X108820000Y-89636939D01*
X108859774Y-89836898D01*
X108937795Y-90025256D01*
X109051063Y-90194774D01*
X109195226Y-90338937D01*
X109364744Y-90452205D01*
X109553102Y-90530226D01*
X109753061Y-90570000D01*
X109956939Y-90570000D01*
X110156898Y-90530226D01*
X110345256Y-90452205D01*
X110514774Y-90338937D01*
X110658937Y-90194774D01*
X110772205Y-90025256D01*
X110850226Y-89836898D01*
X110861535Y-89780043D01*
X110911531Y-89730047D01*
X121245049Y-79396530D01*
X121278817Y-79368817D01*
X121332177Y-79303799D01*
X121389410Y-79234060D01*
X121389411Y-79234059D01*
X121471589Y-79080313D01*
X121522195Y-78913490D01*
X121535000Y-78783477D01*
X121535000Y-78783467D01*
X121539281Y-78740001D01*
X121535000Y-78696535D01*
X121535000Y-67213454D01*
X121567205Y-67165256D01*
X121645226Y-66976898D01*
X121685000Y-66776939D01*
X121685000Y-66573061D01*
X121645226Y-66373102D01*
X121567205Y-66184744D01*
X121453937Y-66015226D01*
X121309774Y-65871063D01*
X121140256Y-65757795D01*
X120969746Y-65687167D01*
X118744072Y-63461494D01*
X118744072Y-63049999D01*
X118727008Y-62876745D01*
X118676472Y-62710149D01*
X118594405Y-62556613D01*
X118483962Y-62422038D01*
X118349387Y-62311595D01*
X118195851Y-62229528D01*
X118029255Y-62178992D01*
X117856001Y-62161928D01*
X117205999Y-62161928D01*
X117032745Y-62178992D01*
X116866149Y-62229528D01*
X116712613Y-62311595D01*
X116578038Y-62422038D01*
X116506000Y-62509816D01*
X116433962Y-62422038D01*
X116299387Y-62311595D01*
X116241000Y-62280386D01*
X116241000Y-61766370D01*
X116289014Y-61740706D01*
X116515134Y-61555134D01*
X116539607Y-61525313D01*
X116560498Y-61594180D01*
X116619463Y-61704494D01*
X116698815Y-61801185D01*
X116795506Y-61880537D01*
X116905820Y-61939502D01*
X117025518Y-61975812D01*
X117150000Y-61988072D01*
X117714250Y-61985000D01*
X117873000Y-61826250D01*
X117873000Y-60627000D01*
X118127000Y-60627000D01*
X118127000Y-61826250D01*
X118285750Y-61985000D01*
X118850000Y-61988072D01*
X118974482Y-61975812D01*
X119094180Y-61939502D01*
X119204494Y-61880537D01*
X119301185Y-61801185D01*
X119380537Y-61704494D01*
X119439502Y-61594180D01*
X119475812Y-61474482D01*
X119488072Y-61350000D01*
X119485000Y-60785750D01*
X119326250Y-60627000D01*
X118127000Y-60627000D01*
X117873000Y-60627000D01*
X117853000Y-60627000D01*
X117853000Y-60373000D01*
X117873000Y-60373000D01*
X117873000Y-59173750D01*
X118127000Y-59173750D01*
X118127000Y-60373000D01*
X119326250Y-60373000D01*
X119485000Y-60214250D01*
X119488072Y-59650000D01*
X119475812Y-59525518D01*
X119439502Y-59405820D01*
X119380537Y-59295506D01*
X119301185Y-59198815D01*
X119204494Y-59119463D01*
X119094180Y-59060498D01*
X118974482Y-59024188D01*
X118850000Y-59011928D01*
X118285750Y-59015000D01*
X118127000Y-59173750D01*
X117873000Y-59173750D01*
X117714250Y-59015000D01*
X117150000Y-59011928D01*
X117025518Y-59024188D01*
X116905820Y-59060498D01*
X116795506Y-59119463D01*
X116698815Y-59198815D01*
X116619463Y-59295506D01*
X116560498Y-59405820D01*
X116539607Y-59474687D01*
X116515134Y-59444866D01*
X116289014Y-59259294D01*
X116031034Y-59121401D01*
X115751111Y-59036487D01*
X115532950Y-59015000D01*
X115387050Y-59015000D01*
X115168889Y-59036487D01*
X114888966Y-59121401D01*
X114630986Y-59259294D01*
X114404866Y-59444866D01*
X114219294Y-59670986D01*
X114190000Y-59725791D01*
X114160706Y-59670986D01*
X113975134Y-59444866D01*
X113749014Y-59259294D01*
X113491034Y-59121401D01*
X113211111Y-59036487D01*
X112992950Y-59015000D01*
X112847050Y-59015000D01*
X112628889Y-59036487D01*
X112348966Y-59121401D01*
X112090986Y-59259294D01*
X111864866Y-59444866D01*
X111679294Y-59670986D01*
X111650000Y-59725791D01*
X111620706Y-59670986D01*
X111435134Y-59444866D01*
X111209014Y-59259294D01*
X110951034Y-59121401D01*
X110671111Y-59036487D01*
X110452950Y-59015000D01*
X110307050Y-59015000D01*
X110088889Y-59036487D01*
X109808966Y-59121401D01*
X109550986Y-59259294D01*
X109324866Y-59444866D01*
X109139294Y-59670986D01*
X109001401Y-59928966D01*
X108916487Y-60208889D01*
X108887815Y-60500000D01*
X108916487Y-60791111D01*
X109001401Y-61071034D01*
X109139294Y-61329014D01*
X109324866Y-61555134D01*
X109495000Y-61694760D01*
X109495001Y-62918521D01*
X109490719Y-62962000D01*
X109507805Y-63135490D01*
X109558412Y-63302313D01*
X109640590Y-63456059D01*
X109704928Y-63534455D01*
X109704928Y-63950001D01*
X109721992Y-64123255D01*
X109772528Y-64289851D01*
X109854595Y-64443387D01*
X109965038Y-64577962D01*
X110099613Y-64688405D01*
X110253149Y-64770472D01*
X110419745Y-64821008D01*
X110592999Y-64838072D01*
X111243001Y-64838072D01*
X111416255Y-64821008D01*
X111582851Y-64770472D01*
X111736387Y-64688405D01*
X111870962Y-64577962D01*
X111943000Y-64490184D01*
X112015038Y-64577962D01*
X112149613Y-64688405D01*
X112270001Y-64752754D01*
X112270000Y-66995198D01*
X109127000Y-70138199D01*
X109127000Y-70000000D01*
X109124560Y-69975224D01*
X109117333Y-69951399D01*
X109105597Y-69929443D01*
X109089803Y-69910197D01*
X109070557Y-69894403D01*
X109048601Y-69882667D01*
X109024776Y-69875440D01*
X109000000Y-69873000D01*
X100913250Y-69873000D01*
X100968000Y-69818250D01*
X100971072Y-69629000D01*
X100958812Y-69504518D01*
X100922502Y-69384820D01*
X100863537Y-69274506D01*
X100784185Y-69177815D01*
X100687494Y-69098463D01*
X100577180Y-69039498D01*
X100457482Y-69003188D01*
X100401868Y-68997711D01*
X102711051Y-66688528D01*
X102744817Y-66660817D01*
X102779137Y-66618999D01*
X102855411Y-66526059D01*
X102855412Y-66526058D01*
X102937589Y-66372313D01*
X102988195Y-66205490D01*
X103001000Y-66075477D01*
X103001000Y-66075469D01*
X103005281Y-66032000D01*
X103001000Y-65988531D01*
X103001000Y-60998454D01*
X103033205Y-60950256D01*
X103111226Y-60761898D01*
X103151000Y-60561939D01*
X103151000Y-60358061D01*
X103111226Y-60158102D01*
X103033205Y-59969744D01*
X102919937Y-59800226D01*
X102775774Y-59656063D01*
X102606256Y-59542795D01*
X102417898Y-59464774D01*
X102217939Y-59425000D01*
X102014061Y-59425000D01*
X101814102Y-59464774D01*
X101625744Y-59542795D01*
X101456226Y-59656063D01*
X101312063Y-59800226D01*
X101198795Y-59969744D01*
X101120774Y-60158102D01*
X101081000Y-60358061D01*
X101081000Y-60561939D01*
X101120774Y-60761898D01*
X101198795Y-60950256D01*
X101231000Y-60998454D01*
X101231000Y-61069161D01*
X101231001Y-61069171D01*
X101231000Y-65665421D01*
X97905494Y-68990928D01*
X97770500Y-68990928D01*
X97599684Y-69007752D01*
X97537788Y-69026528D01*
X97515226Y-68913102D01*
X97437205Y-68724744D01*
X97340486Y-68579994D01*
X97437197Y-68435256D01*
X97515218Y-68246898D01*
X97554992Y-68046939D01*
X97554992Y-67843061D01*
X97515218Y-67643102D01*
X97437197Y-67454744D01*
X97323929Y-67285226D01*
X97179766Y-67141063D01*
X97010248Y-67027795D01*
X96821890Y-66949774D01*
X96813664Y-66948138D01*
X99273731Y-64488072D01*
X99850000Y-64488072D01*
X99974482Y-64475812D01*
X100094180Y-64439502D01*
X100204494Y-64380537D01*
X100301185Y-64301185D01*
X100380537Y-64204494D01*
X100439502Y-64094180D01*
X100475812Y-63974482D01*
X100488072Y-63850000D01*
X100488072Y-62150000D01*
X100475812Y-62025518D01*
X100439502Y-61905820D01*
X100380537Y-61795506D01*
X100301185Y-61698815D01*
X100204494Y-61619463D01*
X100094180Y-61560498D01*
X100025313Y-61539607D01*
X100055134Y-61515134D01*
X100240706Y-61289014D01*
X100378599Y-61031034D01*
X100463513Y-60751111D01*
X100492185Y-60460000D01*
X100463513Y-60168889D01*
X100378599Y-59888966D01*
X100240706Y-59630986D01*
X100055134Y-59404866D01*
X99829014Y-59219294D01*
X99571034Y-59081401D01*
X99291111Y-58996487D01*
X99072950Y-58975000D01*
X98927050Y-58975000D01*
X98708889Y-58996487D01*
X98428966Y-59081401D01*
X98170986Y-59219294D01*
X97944866Y-59404866D01*
X97759294Y-59630986D01*
X97730000Y-59685791D01*
X97700706Y-59630986D01*
X97515134Y-59404866D01*
X97289014Y-59219294D01*
X97031034Y-59081401D01*
X96751111Y-58996487D01*
X96532950Y-58975000D01*
X96387050Y-58975000D01*
X96168889Y-58996487D01*
X95888966Y-59081401D01*
X95630986Y-59219294D01*
X95404866Y-59404866D01*
X95219294Y-59630986D01*
X95184799Y-59695523D01*
X95115178Y-59578645D01*
X94920269Y-59362412D01*
X94686920Y-59188359D01*
X94424099Y-59063175D01*
X94276890Y-59018524D01*
X94047000Y-59139845D01*
X94047000Y-60333000D01*
X94067000Y-60333000D01*
X94067000Y-60587000D01*
X94047000Y-60587000D01*
X94047000Y-60607000D01*
X93793000Y-60607000D01*
X93793000Y-60587000D01*
X92599186Y-60587000D01*
X92478519Y-60816891D01*
X92575843Y-61091252D01*
X92724822Y-61341355D01*
X92919731Y-61557588D01*
X93148756Y-61728416D01*
X93090986Y-61759294D01*
X92864866Y-61944866D01*
X92679294Y-62170986D01*
X92541401Y-62428966D01*
X92456487Y-62708889D01*
X92427815Y-63000000D01*
X92456487Y-63291111D01*
X92541401Y-63571034D01*
X92679294Y-63829014D01*
X92864866Y-64055134D01*
X93090986Y-64240706D01*
X93348966Y-64378599D01*
X93628889Y-64463513D01*
X93847050Y-64485000D01*
X93992950Y-64485000D01*
X94211111Y-64463513D01*
X94491034Y-64378599D01*
X94749014Y-64240706D01*
X94975134Y-64055134D01*
X95160706Y-63829014D01*
X95190000Y-63774209D01*
X95219294Y-63829014D01*
X95230063Y-63842136D01*
X93585248Y-65486951D01*
X93513937Y-65380226D01*
X93369774Y-65236063D01*
X93200256Y-65122795D01*
X93011898Y-65044774D01*
X92811939Y-65005000D01*
X92608061Y-65005000D01*
X92408102Y-65044774D01*
X92219744Y-65122795D01*
X92050226Y-65236063D01*
X91906063Y-65380226D01*
X91792795Y-65549744D01*
X91714774Y-65738102D01*
X91675000Y-65938061D01*
X91675000Y-66000198D01*
X89797600Y-67877599D01*
X89797600Y-67663978D01*
X90415044Y-67046535D01*
X90471898Y-67035226D01*
X90660256Y-66957205D01*
X90829774Y-66843937D01*
X90973937Y-66699774D01*
X91087205Y-66530256D01*
X91165226Y-66341898D01*
X91205000Y-66141939D01*
X91205000Y-65938061D01*
X91165226Y-65738102D01*
X91087205Y-65549744D01*
X90973937Y-65380226D01*
X90829774Y-65236063D01*
X90660256Y-65122795D01*
X90471898Y-65044774D01*
X90271939Y-65005000D01*
X90068061Y-65005000D01*
X89868102Y-65044774D01*
X89679744Y-65122795D01*
X89510226Y-65236063D01*
X89366063Y-65380226D01*
X89252795Y-65549744D01*
X89251072Y-65553904D01*
X89251072Y-65230500D01*
X89234248Y-65059684D01*
X89184423Y-64895433D01*
X89103512Y-64744058D01*
X89083901Y-64720161D01*
X89143537Y-64647494D01*
X89202502Y-64537180D01*
X89238812Y-64417482D01*
X89251072Y-64293000D01*
X89248000Y-64053750D01*
X89089250Y-63895000D01*
X88265000Y-63895000D01*
X88265000Y-63915000D01*
X88011000Y-63915000D01*
X88011000Y-63895000D01*
X87186750Y-63895000D01*
X87028000Y-64053750D01*
X87024928Y-64293000D01*
X87037188Y-64417482D01*
X87073498Y-64537180D01*
X87132463Y-64647494D01*
X87192099Y-64720161D01*
X87172488Y-64744058D01*
X87091577Y-64895433D01*
X87041752Y-65059684D01*
X87024928Y-65230500D01*
X87024928Y-65805500D01*
X87041752Y-65976316D01*
X87091577Y-66140567D01*
X87172488Y-66291942D01*
X87281377Y-66424623D01*
X87352601Y-66483075D01*
X87352600Y-69873000D01*
X87247600Y-69873000D01*
X87247600Y-68831505D01*
X87251156Y-68795400D01*
X87236965Y-68651315D01*
X87194937Y-68512766D01*
X87126687Y-68385080D01*
X87057853Y-68301206D01*
X87034838Y-68273162D01*
X87006793Y-68250146D01*
X81999647Y-63243000D01*
X87024928Y-63243000D01*
X87028000Y-63482250D01*
X87186750Y-63641000D01*
X88011000Y-63641000D01*
X88011000Y-62766750D01*
X88265000Y-62766750D01*
X88265000Y-63641000D01*
X89089250Y-63641000D01*
X89248000Y-63482250D01*
X89251072Y-63243000D01*
X89238812Y-63118518D01*
X89202502Y-62998820D01*
X89143537Y-62888506D01*
X89064185Y-62791815D01*
X88967494Y-62712463D01*
X88857180Y-62653498D01*
X88737482Y-62617188D01*
X88613000Y-62604928D01*
X88423750Y-62608000D01*
X88265000Y-62766750D01*
X88011000Y-62766750D01*
X87852250Y-62608000D01*
X87663000Y-62604928D01*
X87538518Y-62617188D01*
X87418820Y-62653498D01*
X87308506Y-62712463D01*
X87211815Y-62791815D01*
X87132463Y-62888506D01*
X87073498Y-62998820D01*
X87037188Y-63118518D01*
X87024928Y-63243000D01*
X81999647Y-63243000D01*
X81508459Y-62751813D01*
X81485438Y-62723762D01*
X81373520Y-62631913D01*
X81245833Y-62563663D01*
X81107285Y-62521635D01*
X80999305Y-62511000D01*
X80963200Y-62507444D01*
X80927095Y-62511000D01*
X69066946Y-62511000D01*
X68990259Y-62434313D01*
X68977146Y-62418335D01*
X68966008Y-62305245D01*
X68915472Y-62138649D01*
X68833405Y-61985113D01*
X68722962Y-61850538D01*
X68588387Y-61740095D01*
X68434851Y-61658028D01*
X68268255Y-61607492D01*
X68095001Y-61590428D01*
X67444999Y-61590428D01*
X67271745Y-61607492D01*
X67105149Y-61658028D01*
X66951613Y-61740095D01*
X66817038Y-61850538D01*
X66745000Y-61938316D01*
X66672962Y-61850538D01*
X66538387Y-61740095D01*
X66384851Y-61658028D01*
X66218255Y-61607492D01*
X66045001Y-61590428D01*
X65394999Y-61590428D01*
X65221745Y-61607492D01*
X65055149Y-61658028D01*
X64901613Y-61740095D01*
X64767038Y-61850538D01*
X64656595Y-61985113D01*
X64574528Y-62138649D01*
X64523992Y-62305245D01*
X64506928Y-62478499D01*
X64506928Y-63102125D01*
X63101654Y-64507400D01*
X61738044Y-64507400D01*
X61246857Y-64016213D01*
X61268980Y-64009502D01*
X61379294Y-63950537D01*
X61475985Y-63871185D01*
X61555337Y-63774494D01*
X61614302Y-63664180D01*
X61650612Y-63544482D01*
X61662872Y-63420000D01*
X61662872Y-62820000D01*
X61650612Y-62695518D01*
X61614302Y-62575820D01*
X61555337Y-62465506D01*
X61476958Y-62370000D01*
X61555337Y-62274494D01*
X61614302Y-62164180D01*
X61650612Y-62044482D01*
X61662872Y-61920000D01*
X61659800Y-61705750D01*
X61501050Y-61547000D01*
X60801800Y-61547000D01*
X60801800Y-61567000D01*
X60698011Y-61567000D01*
X60698011Y-60576416D01*
X60701567Y-60540311D01*
X60687376Y-60396226D01*
X60673661Y-60351014D01*
X60645348Y-60257678D01*
X60577098Y-60129991D01*
X60485249Y-60018073D01*
X60457204Y-59995057D01*
X59685000Y-59222854D01*
X59685000Y-58852803D01*
X61033199Y-60201003D01*
X61056997Y-60230001D01*
X61085995Y-60253799D01*
X61133289Y-60292613D01*
X61024800Y-60281928D01*
X60960550Y-60285000D01*
X60801800Y-60443750D01*
X60801800Y-61293000D01*
X61501050Y-61293000D01*
X61659800Y-61134250D01*
X61662872Y-60920000D01*
X61650612Y-60795518D01*
X61614302Y-60675820D01*
X61555337Y-60565506D01*
X61475985Y-60468815D01*
X61434761Y-60434983D01*
X61448012Y-60439003D01*
X61559665Y-60450000D01*
X61559675Y-60450000D01*
X61596998Y-60453676D01*
X61634321Y-60450000D01*
X65687333Y-60450000D01*
X65798986Y-60439003D01*
X65942247Y-60395546D01*
X65946875Y-60393072D01*
X65975001Y-60393072D01*
X66148255Y-60376008D01*
X66314851Y-60325472D01*
X66468387Y-60243405D01*
X66602962Y-60132962D01*
X66608342Y-60126406D01*
X66673815Y-60206185D01*
X66770506Y-60285537D01*
X66880820Y-60344502D01*
X67000518Y-60380812D01*
X67125000Y-60393072D01*
X67414250Y-60390000D01*
X67573000Y-60231250D01*
X67573000Y-59182000D01*
X67827000Y-59182000D01*
X67827000Y-60231250D01*
X67985750Y-60390000D01*
X68275000Y-60393072D01*
X68399482Y-60380812D01*
X68519180Y-60344502D01*
X68629494Y-60285537D01*
X68726185Y-60206185D01*
X68805537Y-60109494D01*
X68808949Y-60103109D01*
X92478519Y-60103109D01*
X92599186Y-60333000D01*
X93793000Y-60333000D01*
X93793000Y-59139845D01*
X93563110Y-59018524D01*
X93415901Y-59063175D01*
X93153080Y-59188359D01*
X92919731Y-59362412D01*
X92724822Y-59578645D01*
X92575843Y-59828748D01*
X92478519Y-60103109D01*
X68808949Y-60103109D01*
X68864502Y-59999180D01*
X68900812Y-59879482D01*
X68913072Y-59755000D01*
X68910000Y-59340750D01*
X68751250Y-59182000D01*
X67827000Y-59182000D01*
X67573000Y-59182000D01*
X67553000Y-59182000D01*
X67553000Y-58928000D01*
X67573000Y-58928000D01*
X67573000Y-57878750D01*
X67827000Y-57878750D01*
X67827000Y-58928000D01*
X68751250Y-58928000D01*
X68910000Y-58769250D01*
X68913072Y-58355000D01*
X68900812Y-58230518D01*
X68864502Y-58110820D01*
X68805537Y-58000506D01*
X68726185Y-57903815D01*
X68629494Y-57824463D01*
X68519180Y-57765498D01*
X68399482Y-57729188D01*
X68275000Y-57716928D01*
X67985750Y-57720000D01*
X67827000Y-57878750D01*
X67573000Y-57878750D01*
X67414250Y-57720000D01*
X67125000Y-57716928D01*
X67000518Y-57729188D01*
X66880820Y-57765498D01*
X66770506Y-57824463D01*
X66673815Y-57903815D01*
X66608342Y-57983594D01*
X66602962Y-57977038D01*
X66468387Y-57866595D01*
X66314851Y-57784528D01*
X66148255Y-57733992D01*
X65975001Y-57716928D01*
X65324999Y-57716928D01*
X65151745Y-57733992D01*
X64985149Y-57784528D01*
X64831613Y-57866595D01*
X64697038Y-57977038D01*
X64586595Y-58111613D01*
X64504528Y-58265149D01*
X64453992Y-58431745D01*
X64436928Y-58604999D01*
X64436928Y-58930000D01*
X62304013Y-58930000D01*
X62317205Y-58910256D01*
X62395226Y-58721898D01*
X62435000Y-58521939D01*
X62435000Y-58318061D01*
X62395226Y-58118102D01*
X62317205Y-57929744D01*
X62203937Y-57760226D01*
X62131125Y-57687414D01*
X62153505Y-57668853D01*
X62232358Y-57571754D01*
X62290753Y-57461137D01*
X62326445Y-57341253D01*
X62338064Y-57216710D01*
X62337511Y-57137987D01*
X62393000Y-57097954D01*
X62393000Y-55707000D01*
X62647000Y-55707000D01*
X62647000Y-57097954D01*
X62821874Y-57224119D01*
X63044976Y-57144276D01*
X63232764Y-57022369D01*
X63393161Y-56866169D01*
X63520003Y-56681678D01*
X63608415Y-56475987D01*
X63655000Y-56257000D01*
X63655000Y-55707000D01*
X62647000Y-55707000D01*
X62393000Y-55707000D01*
X62373000Y-55707000D01*
X62373000Y-55453000D01*
X62393000Y-55453000D01*
X62393000Y-54062046D01*
X62647000Y-54062046D01*
X62647000Y-55453000D01*
X63655000Y-55453000D01*
X63655000Y-54903000D01*
X63608415Y-54684013D01*
X63520003Y-54478322D01*
X63393161Y-54293831D01*
X63232764Y-54137631D01*
X63044976Y-54015724D01*
X62821874Y-53935881D01*
X62647000Y-54062046D01*
X62393000Y-54062046D01*
X62218126Y-53935881D01*
X61995024Y-54015724D01*
X61807236Y-54137631D01*
X61662884Y-54278206D01*
X61544731Y-54199259D01*
X61370022Y-54126892D01*
X61184552Y-54090000D01*
X60995448Y-54090000D01*
X60809978Y-54126892D01*
X60635269Y-54199259D01*
X60478036Y-54304319D01*
X60344319Y-54438036D01*
X60239259Y-54595269D01*
X60166892Y-54769978D01*
X60130000Y-54955448D01*
X60130000Y-55134883D01*
X60100000Y-55131928D01*
X59800000Y-55131928D01*
X59700000Y-55141777D01*
X59600000Y-55131928D01*
X59500277Y-55131928D01*
X59472238Y-55097762D01*
X59444187Y-55074741D01*
X59275259Y-54905813D01*
X59252238Y-54877762D01*
X59140320Y-54785913D01*
X59012633Y-54717663D01*
X58874085Y-54675635D01*
X58766105Y-54665000D01*
X58730000Y-54661444D01*
X58693895Y-54665000D01*
X58206105Y-54665000D01*
X58170000Y-54661444D01*
X58025914Y-54675635D01*
X57998296Y-54684013D01*
X57887367Y-54717663D01*
X57759680Y-54785913D01*
X57647762Y-54877762D01*
X57624741Y-54905813D01*
X57455808Y-55074746D01*
X57427762Y-55097763D01*
X57399723Y-55131928D01*
X57300000Y-55131928D01*
X57200000Y-55141777D01*
X57100000Y-55131928D01*
X56800000Y-55131928D01*
X56700000Y-55141777D01*
X56600000Y-55131928D01*
X56300000Y-55131928D01*
X56270000Y-55134883D01*
X56270000Y-54955448D01*
X56233108Y-54769978D01*
X56160741Y-54595269D01*
X56055681Y-54438036D01*
X55921964Y-54304319D01*
X55764731Y-54199259D01*
X55590022Y-54126892D01*
X55404552Y-54090000D01*
X55215448Y-54090000D01*
X55029978Y-54126892D01*
X54855269Y-54199259D01*
X54737116Y-54278206D01*
X54592764Y-54137631D01*
X54404976Y-54015724D01*
X54181874Y-53935881D01*
X54007000Y-54062046D01*
X54007000Y-55453000D01*
X54027000Y-55453000D01*
X54027000Y-55707000D01*
X54007000Y-55707000D01*
X54007000Y-57097954D01*
X54062489Y-57137987D01*
X54061936Y-57216710D01*
X54073555Y-57341253D01*
X54109247Y-57461137D01*
X54167642Y-57571754D01*
X54246495Y-57668853D01*
X54268875Y-57687414D01*
X54196063Y-57760226D01*
X54082795Y-57929744D01*
X54004774Y-58118102D01*
X53965000Y-58318061D01*
X53965000Y-58521939D01*
X54004774Y-58721898D01*
X54082795Y-58910256D01*
X54095987Y-58930000D01*
X52208527Y-58930000D01*
X52199472Y-58900149D01*
X52117405Y-58746613D01*
X52006962Y-58612038D01*
X51872387Y-58501595D01*
X51718851Y-58419528D01*
X51552255Y-58368992D01*
X51379001Y-58351928D01*
X50728999Y-58351928D01*
X50555745Y-58368992D01*
X50389149Y-58419528D01*
X50235613Y-58501595D01*
X50101038Y-58612038D01*
X50095658Y-58618594D01*
X50030185Y-58538815D01*
X49933494Y-58459463D01*
X49823180Y-58400498D01*
X49703482Y-58364188D01*
X49579000Y-58351928D01*
X49289750Y-58355000D01*
X49131000Y-58513750D01*
X49131000Y-59563000D01*
X49151000Y-59563000D01*
X49151000Y-59817000D01*
X49131000Y-59817000D01*
X49131000Y-60866250D01*
X49289750Y-61025000D01*
X49579000Y-61028072D01*
X49703482Y-61015812D01*
X49823180Y-60979502D01*
X49933494Y-60920537D01*
X50030185Y-60841185D01*
X50095658Y-60761406D01*
X50101038Y-60767962D01*
X50235613Y-60878405D01*
X50389149Y-60960472D01*
X50555745Y-61011008D01*
X50728999Y-61028072D01*
X51379001Y-61028072D01*
X51552255Y-61011008D01*
X51718851Y-60960472D01*
X51872387Y-60878405D01*
X52006962Y-60767962D01*
X52117405Y-60633387D01*
X52199472Y-60479851D01*
X52208527Y-60450000D01*
X54765680Y-60450000D01*
X54803002Y-60453676D01*
X54840324Y-60450000D01*
X54840335Y-60450000D01*
X54951988Y-60439003D01*
X55095249Y-60395546D01*
X55227278Y-60324974D01*
X55343003Y-60230001D01*
X55366806Y-60200997D01*
X57306598Y-58261206D01*
X57408131Y-58292005D01*
X57415914Y-58294366D01*
X57559998Y-58308557D01*
X57596103Y-58305001D01*
X57715000Y-58305001D01*
X57715000Y-59556893D01*
X57711444Y-59592998D01*
X57725560Y-59736323D01*
X57725635Y-59737082D01*
X57767663Y-59875630D01*
X57835913Y-60003317D01*
X57927762Y-60115235D01*
X57955808Y-60138252D01*
X58132359Y-60314803D01*
X58080620Y-60330498D01*
X57970306Y-60389463D01*
X57873615Y-60468815D01*
X57794263Y-60565506D01*
X57735298Y-60675820D01*
X57698988Y-60795518D01*
X57688204Y-60905017D01*
X49753969Y-68839253D01*
X49631939Y-68814980D01*
X49428061Y-68814980D01*
X49228102Y-68854754D01*
X49039744Y-68932775D01*
X48870226Y-69046043D01*
X48726063Y-69190206D01*
X48612795Y-69359724D01*
X48534774Y-69548082D01*
X48495000Y-69748041D01*
X48495000Y-69951919D01*
X48534774Y-70151878D01*
X48612795Y-70340236D01*
X48645001Y-70388436D01*
X48645000Y-73140206D01*
X48565150Y-73164428D01*
X48411614Y-73246495D01*
X48277038Y-73356938D01*
X48166595Y-73491514D01*
X48084528Y-73645050D01*
X48033992Y-73811646D01*
X48016928Y-73984900D01*
X48016928Y-74909900D01*
X48033992Y-75083154D01*
X48084528Y-75249750D01*
X48166595Y-75403286D01*
X48277038Y-75537862D01*
X48411614Y-75648305D01*
X48565150Y-75730372D01*
X48731746Y-75780908D01*
X48905000Y-75797972D01*
X49902850Y-75797972D01*
X49706306Y-75994516D01*
X49706300Y-75994521D01*
X49628993Y-76071828D01*
X48905000Y-76071828D01*
X48731746Y-76088892D01*
X48565150Y-76139428D01*
X48411614Y-76221495D01*
X48277038Y-76331938D01*
X48166595Y-76466514D01*
X48128706Y-76537400D01*
X46673979Y-76537400D01*
X45456535Y-75319957D01*
X45445226Y-75263102D01*
X45367205Y-75074744D01*
X45253937Y-74905226D01*
X45109774Y-74761063D01*
X44940256Y-74647795D01*
X44751898Y-74569774D01*
X44551939Y-74530000D01*
X44348061Y-74530000D01*
X44148102Y-74569774D01*
X43959744Y-74647795D01*
X43790226Y-74761063D01*
X43646063Y-74905226D01*
X43532795Y-75074744D01*
X43454774Y-75263102D01*
X43415000Y-75463061D01*
X43415000Y-75666939D01*
X43454774Y-75866898D01*
X43532795Y-76055256D01*
X43646063Y-76224774D01*
X43790226Y-76368937D01*
X43959744Y-76482205D01*
X44148102Y-76560226D01*
X44204957Y-76571535D01*
X45650870Y-78017449D01*
X45678583Y-78051217D01*
X45712351Y-78078930D01*
X45712353Y-78078932D01*
X45744149Y-78105026D01*
X45813341Y-78161811D01*
X45967087Y-78243989D01*
X46133910Y-78294595D01*
X46263923Y-78307400D01*
X46263933Y-78307400D01*
X46307399Y-78311681D01*
X46350865Y-78307400D01*
X48128706Y-78307400D01*
X48166595Y-78378286D01*
X48277038Y-78512862D01*
X48411614Y-78623305D01*
X48565150Y-78705372D01*
X48645000Y-78729594D01*
X48645001Y-81152317D01*
X48575506Y-81189463D01*
X48478815Y-81268815D01*
X48399463Y-81365506D01*
X48340498Y-81475820D01*
X48304188Y-81595518D01*
X48291928Y-81720000D01*
X48291928Y-82620000D01*
X48304188Y-82744482D01*
X48340498Y-82864180D01*
X48399463Y-82974494D01*
X48478815Y-83071185D01*
X48575506Y-83150537D01*
X48685820Y-83209502D01*
X48805518Y-83245812D01*
X48930000Y-83258072D01*
X50130000Y-83258072D01*
X50254482Y-83245812D01*
X50374180Y-83209502D01*
X50484494Y-83150537D01*
X50581185Y-83071185D01*
X50660537Y-82974494D01*
X50719502Y-82864180D01*
X50755812Y-82744482D01*
X50768072Y-82620000D01*
X50768072Y-81720000D01*
X50755812Y-81595518D01*
X50719502Y-81475820D01*
X50660537Y-81365506D01*
X50618506Y-81314290D01*
X61718510Y-81314290D01*
X62114709Y-81834695D01*
X62829708Y-82224906D01*
X63607094Y-82468129D01*
X64416994Y-82555019D01*
X65228284Y-82482235D01*
X66009785Y-82252575D01*
X66731465Y-81874864D01*
X66791583Y-81834695D01*
X67187782Y-81314290D01*
X64453146Y-78579653D01*
X61718510Y-81314290D01*
X50618506Y-81314290D01*
X50581185Y-81268815D01*
X50484494Y-81189463D01*
X50415000Y-81152317D01*
X50415000Y-78729594D01*
X50494850Y-78705372D01*
X50648386Y-78623305D01*
X50782962Y-78512862D01*
X50893405Y-78378286D01*
X50901096Y-78363896D01*
X60298175Y-78363896D01*
X60370959Y-79175186D01*
X60600619Y-79956687D01*
X60978330Y-80678367D01*
X61018499Y-80738485D01*
X61538904Y-81134684D01*
X64273541Y-78400048D01*
X61538904Y-75665412D01*
X61018499Y-76061611D01*
X60628288Y-76776610D01*
X60385065Y-77553996D01*
X60298175Y-78363896D01*
X50901096Y-78363896D01*
X50975472Y-78224750D01*
X51026008Y-78058154D01*
X51043072Y-77884900D01*
X51043072Y-77160906D01*
X52718172Y-75485806D01*
X61718510Y-75485806D01*
X64453146Y-78220443D01*
X67187782Y-75485806D01*
X66791583Y-74965401D01*
X66076584Y-74575190D01*
X65299198Y-74331967D01*
X64489298Y-74245077D01*
X63678008Y-74317861D01*
X62896507Y-74547521D01*
X62174827Y-74925232D01*
X62114709Y-74965401D01*
X61718510Y-75485806D01*
X52718172Y-75485806D01*
X57468979Y-70735000D01*
X75510198Y-70735000D01*
X68542327Y-77702872D01*
X68535333Y-77624910D01*
X68305673Y-76843409D01*
X67927962Y-76121729D01*
X67887793Y-76061611D01*
X67367388Y-75665412D01*
X64632751Y-78400048D01*
X67367388Y-81134684D01*
X67820000Y-80790098D01*
X67820001Y-102197667D01*
X67816324Y-102235000D01*
X67820001Y-102272333D01*
X67827553Y-102349003D01*
X67830998Y-102383985D01*
X67874454Y-102527246D01*
X67945026Y-102659276D01*
X68016201Y-102746002D01*
X68040000Y-102775001D01*
X68068998Y-102798799D01*
X69921200Y-104651002D01*
X69944999Y-104680001D01*
X70060724Y-104774974D01*
X70192753Y-104845546D01*
X70336014Y-104889003D01*
X70447667Y-104900000D01*
X70447677Y-104900000D01*
X70485000Y-104903676D01*
X70522323Y-104900000D01*
X73980199Y-104900000D01*
X78186331Y-109106133D01*
X78168966Y-109111401D01*
X77910986Y-109249294D01*
X77684866Y-109434866D01*
X77660393Y-109464687D01*
X77639502Y-109395820D01*
X77580537Y-109285506D01*
X77501185Y-109188815D01*
X77404494Y-109109463D01*
X77294180Y-109050498D01*
X77174482Y-109014188D01*
X77050000Y-109001928D01*
X75350000Y-109001928D01*
X75225518Y-109014188D01*
X75105820Y-109050498D01*
X74995506Y-109109463D01*
X74898815Y-109188815D01*
X74819463Y-109285506D01*
X74760498Y-109395820D01*
X74724188Y-109515518D01*
X74715375Y-109605000D01*
X59421579Y-109605000D01*
X50416579Y-100600000D01*
X64511928Y-100600000D01*
X64524188Y-100724482D01*
X64560498Y-100844180D01*
X64619463Y-100954494D01*
X64698815Y-101051185D01*
X64795506Y-101130537D01*
X64905820Y-101189502D01*
X65025518Y-101225812D01*
X65150000Y-101238072D01*
X65764250Y-101235000D01*
X65923000Y-101076250D01*
X65923000Y-100177000D01*
X66177000Y-100177000D01*
X66177000Y-101076250D01*
X66335750Y-101235000D01*
X66950000Y-101238072D01*
X67074482Y-101225812D01*
X67194180Y-101189502D01*
X67304494Y-101130537D01*
X67401185Y-101051185D01*
X67480537Y-100954494D01*
X67539502Y-100844180D01*
X67575812Y-100724482D01*
X67588072Y-100600000D01*
X67585000Y-100335750D01*
X67426250Y-100177000D01*
X66177000Y-100177000D01*
X65923000Y-100177000D01*
X64673750Y-100177000D01*
X64515000Y-100335750D01*
X64511928Y-100600000D01*
X50416579Y-100600000D01*
X50415000Y-100598422D01*
X50415000Y-99500000D01*
X64511928Y-99500000D01*
X64515000Y-99764250D01*
X64673750Y-99923000D01*
X65923000Y-99923000D01*
X65923000Y-99023750D01*
X66177000Y-99023750D01*
X66177000Y-99923000D01*
X67426250Y-99923000D01*
X67585000Y-99764250D01*
X67588072Y-99500000D01*
X67575812Y-99375518D01*
X67539502Y-99255820D01*
X67480537Y-99145506D01*
X67401185Y-99048815D01*
X67304494Y-98969463D01*
X67194180Y-98910498D01*
X67074482Y-98874188D01*
X66950000Y-98861928D01*
X66335750Y-98865000D01*
X66177000Y-99023750D01*
X65923000Y-99023750D01*
X65764250Y-98865000D01*
X65150000Y-98861928D01*
X65025518Y-98874188D01*
X64905820Y-98910498D01*
X64795506Y-98969463D01*
X64698815Y-99048815D01*
X64619463Y-99145506D01*
X64560498Y-99255820D01*
X64524188Y-99375518D01*
X64511928Y-99500000D01*
X50415000Y-99500000D01*
X50415000Y-96900000D01*
X64511928Y-96900000D01*
X64524188Y-97024482D01*
X64560498Y-97144180D01*
X64619463Y-97254494D01*
X64698815Y-97351185D01*
X64795506Y-97430537D01*
X64905820Y-97489502D01*
X65025518Y-97525812D01*
X65150000Y-97538072D01*
X65764250Y-97535000D01*
X65923000Y-97376250D01*
X65923000Y-96477000D01*
X66177000Y-96477000D01*
X66177000Y-97376250D01*
X66335750Y-97535000D01*
X66950000Y-97538072D01*
X67074482Y-97525812D01*
X67194180Y-97489502D01*
X67304494Y-97430537D01*
X67401185Y-97351185D01*
X67480537Y-97254494D01*
X67539502Y-97144180D01*
X67575812Y-97024482D01*
X67588072Y-96900000D01*
X67585000Y-96635750D01*
X67426250Y-96477000D01*
X66177000Y-96477000D01*
X65923000Y-96477000D01*
X64673750Y-96477000D01*
X64515000Y-96635750D01*
X64511928Y-96900000D01*
X50415000Y-96900000D01*
X50415000Y-95800000D01*
X64511928Y-95800000D01*
X64515000Y-96064250D01*
X64673750Y-96223000D01*
X65923000Y-96223000D01*
X65923000Y-95323750D01*
X66177000Y-95323750D01*
X66177000Y-96223000D01*
X67426250Y-96223000D01*
X67585000Y-96064250D01*
X67588072Y-95800000D01*
X67575812Y-95675518D01*
X67539502Y-95555820D01*
X67480537Y-95445506D01*
X67401185Y-95348815D01*
X67304494Y-95269463D01*
X67194180Y-95210498D01*
X67074482Y-95174188D01*
X66950000Y-95161928D01*
X66335750Y-95165000D01*
X66177000Y-95323750D01*
X65923000Y-95323750D01*
X65764250Y-95165000D01*
X65150000Y-95161928D01*
X65025518Y-95174188D01*
X64905820Y-95210498D01*
X64795506Y-95269463D01*
X64698815Y-95348815D01*
X64619463Y-95445506D01*
X64560498Y-95555820D01*
X64524188Y-95675518D01*
X64511928Y-95800000D01*
X50415000Y-95800000D01*
X50415000Y-86487683D01*
X50484494Y-86450537D01*
X50581185Y-86371185D01*
X50594468Y-86355000D01*
X52800546Y-86355000D01*
X52848744Y-86387205D01*
X53037102Y-86465226D01*
X53237061Y-86505000D01*
X53440939Y-86505000D01*
X53640898Y-86465226D01*
X53829256Y-86387205D01*
X53998774Y-86273937D01*
X54142937Y-86129774D01*
X54256205Y-85960256D01*
X54334226Y-85771898D01*
X54374000Y-85571939D01*
X54374000Y-85368061D01*
X54334226Y-85168102D01*
X54256205Y-84979744D01*
X54142937Y-84810226D01*
X53998774Y-84666063D01*
X53829256Y-84552795D01*
X53640898Y-84474774D01*
X53440939Y-84435000D01*
X53237061Y-84435000D01*
X53037102Y-84474774D01*
X52848744Y-84552795D01*
X52800546Y-84585000D01*
X50594468Y-84585000D01*
X50581185Y-84568815D01*
X50484494Y-84489463D01*
X50374180Y-84430498D01*
X50254482Y-84394188D01*
X50130000Y-84381928D01*
X48930000Y-84381928D01*
X48805518Y-84394188D01*
X48685820Y-84430498D01*
X48575506Y-84489463D01*
X48478815Y-84568815D01*
X48399463Y-84665506D01*
X48340498Y-84775820D01*
X48304188Y-84895518D01*
X48291928Y-85020000D01*
X48291928Y-85920000D01*
X48304188Y-86044482D01*
X48340498Y-86164180D01*
X48399463Y-86274494D01*
X48478815Y-86371185D01*
X48575506Y-86450537D01*
X48645001Y-86487683D01*
X48645000Y-100921531D01*
X48640719Y-100965000D01*
X48645000Y-101008469D01*
X48645000Y-101008476D01*
X48657805Y-101138489D01*
X48708411Y-101305312D01*
X48790589Y-101459058D01*
X48901183Y-101593817D01*
X48934956Y-101621534D01*
X58398470Y-111085049D01*
X58426183Y-111118817D01*
X58459951Y-111146530D01*
X58459953Y-111146532D01*
X58519677Y-111195546D01*
X58560941Y-111229411D01*
X58714687Y-111311589D01*
X58881510Y-111362195D01*
X59011523Y-111375000D01*
X59011533Y-111375000D01*
X59054999Y-111379281D01*
X59098465Y-111375000D01*
X74715375Y-111375000D01*
X74724188Y-111464482D01*
X74760498Y-111584180D01*
X74819463Y-111694494D01*
X74898815Y-111791185D01*
X74995506Y-111870537D01*
X75105820Y-111929502D01*
X75174687Y-111950393D01*
X75144866Y-111974866D01*
X74959294Y-112200986D01*
X74821401Y-112458966D01*
X74736487Y-112738889D01*
X74707815Y-113030000D01*
X74736487Y-113321111D01*
X74821401Y-113601034D01*
X74959294Y-113859014D01*
X75144866Y-114085134D01*
X75370986Y-114270706D01*
X75454696Y-114315450D01*
X42038095Y-114315450D01*
X41745218Y-114286733D01*
X41500145Y-114212741D01*
X41274107Y-114092554D01*
X41075721Y-113930754D01*
X40912540Y-113733503D01*
X40790779Y-113508310D01*
X40715076Y-113263753D01*
X40685000Y-112977602D01*
X40685000Y-109760630D01*
X41704252Y-109760630D01*
X41704252Y-106752000D01*
X41958252Y-106752000D01*
X41958252Y-109760630D01*
X44457612Y-109760630D01*
X45066903Y-109675603D01*
X45647898Y-109473343D01*
X46178271Y-109161623D01*
X46637639Y-108752422D01*
X47008350Y-108261466D01*
X47276157Y-107707621D01*
X47405229Y-107240555D01*
X47304782Y-106752000D01*
X41958252Y-106752000D01*
X41704252Y-106752000D01*
X41684252Y-106752000D01*
X41684252Y-106498000D01*
X41704252Y-106498000D01*
X41704252Y-106478000D01*
X41958252Y-106478000D01*
X41958252Y-106498000D01*
X47304782Y-106498000D01*
X47405229Y-106009445D01*
X47276157Y-105542379D01*
X47008350Y-104988534D01*
X46637639Y-104497578D01*
X46178271Y-104088377D01*
X45647898Y-103776657D01*
X45066903Y-103574397D01*
X44457612Y-103489370D01*
X40685000Y-103489370D01*
X40685000Y-60390000D01*
X47790928Y-60390000D01*
X47803188Y-60514482D01*
X47839498Y-60634180D01*
X47898463Y-60744494D01*
X47977815Y-60841185D01*
X48074506Y-60920537D01*
X48184820Y-60979502D01*
X48304518Y-61015812D01*
X48429000Y-61028072D01*
X48718250Y-61025000D01*
X48877000Y-60866250D01*
X48877000Y-59817000D01*
X47952750Y-59817000D01*
X47794000Y-59975750D01*
X47790928Y-60390000D01*
X40685000Y-60390000D01*
X40685000Y-58990000D01*
X47790928Y-58990000D01*
X47794000Y-59404250D01*
X47952750Y-59563000D01*
X48877000Y-59563000D01*
X48877000Y-58513750D01*
X48718250Y-58355000D01*
X48429000Y-58351928D01*
X48304518Y-58364188D01*
X48184820Y-58400498D01*
X48074506Y-58459463D01*
X47977815Y-58538815D01*
X47898463Y-58635506D01*
X47839498Y-58745820D01*
X47803188Y-58865518D01*
X47790928Y-58990000D01*
X40685000Y-58990000D01*
X40685000Y-55707000D01*
X52745000Y-55707000D01*
X52745000Y-56257000D01*
X52791585Y-56475987D01*
X52879997Y-56681678D01*
X53006839Y-56866169D01*
X53167236Y-57022369D01*
X53355024Y-57144276D01*
X53578126Y-57224119D01*
X53753000Y-57097954D01*
X53753000Y-55707000D01*
X52745000Y-55707000D01*
X40685000Y-55707000D01*
X40685000Y-54903000D01*
X52745000Y-54903000D01*
X52745000Y-55453000D01*
X53753000Y-55453000D01*
X53753000Y-54062046D01*
X53578126Y-53935881D01*
X53355024Y-54015724D01*
X53167236Y-54137631D01*
X53006839Y-54293831D01*
X52879997Y-54478322D01*
X52791585Y-54684013D01*
X52745000Y-54903000D01*
X40685000Y-54903000D01*
X40685000Y-52028892D01*
X40712823Y-51745130D01*
X40778680Y-51527000D01*
X52745000Y-51527000D01*
X52745000Y-51827000D01*
X52791585Y-52045987D01*
X52879997Y-52251678D01*
X53006839Y-52436169D01*
X53167236Y-52592369D01*
X53355024Y-52714276D01*
X53578126Y-52794119D01*
X53753000Y-52667954D01*
X53753000Y-51527000D01*
X54007000Y-51527000D01*
X54007000Y-52667954D01*
X54181874Y-52794119D01*
X54404976Y-52714276D01*
X54592764Y-52592369D01*
X54753161Y-52436169D01*
X54880003Y-52251678D01*
X54968415Y-52045987D01*
X55015000Y-51827000D01*
X55015000Y-51527000D01*
X61385000Y-51527000D01*
X61385000Y-51827000D01*
X61431585Y-52045987D01*
X61519997Y-52251678D01*
X61646839Y-52436169D01*
X61807236Y-52592369D01*
X61995024Y-52714276D01*
X62218126Y-52794119D01*
X62393000Y-52667954D01*
X62393000Y-51527000D01*
X62647000Y-51527000D01*
X62647000Y-52667954D01*
X62821874Y-52794119D01*
X63044976Y-52714276D01*
X63232764Y-52592369D01*
X63393161Y-52436169D01*
X63520003Y-52251678D01*
X63608415Y-52045987D01*
X63655000Y-51827000D01*
X63655000Y-51527000D01*
X62647000Y-51527000D01*
X62393000Y-51527000D01*
X61385000Y-51527000D01*
X55015000Y-51527000D01*
X54007000Y-51527000D01*
X53753000Y-51527000D01*
X52745000Y-51527000D01*
X40778680Y-51527000D01*
X40786841Y-51499972D01*
X40907068Y-51273859D01*
X41068927Y-51075401D01*
X41266243Y-50912166D01*
X41491515Y-50790362D01*
X41736153Y-50714634D01*
X42018098Y-50685000D01*
X52821249Y-50685000D01*
X52791585Y-50754013D01*
G36*
X78369463Y-81176506D02*
G01*
X78310498Y-81286820D01*
X78274188Y-81406518D01*
X78261928Y-81531000D01*
X78265000Y-81770250D01*
X78423750Y-81929000D01*
X79248000Y-81929000D01*
X79248000Y-81909000D01*
X79502000Y-81909000D01*
X79502000Y-81929000D01*
X79522000Y-81929000D01*
X79522000Y-82183000D01*
X79502000Y-82183000D01*
X79502000Y-82203000D01*
X79248000Y-82203000D01*
X79248000Y-82183000D01*
X78423750Y-82183000D01*
X78265000Y-82341750D01*
X78261928Y-82581000D01*
X78274188Y-82705482D01*
X78310498Y-82825180D01*
X78369167Y-82934940D01*
X76738454Y-82934940D01*
X76690256Y-82902735D01*
X76501898Y-82824714D01*
X76301939Y-82784940D01*
X76098061Y-82784940D01*
X75898102Y-82824714D01*
X75709744Y-82902735D01*
X75540226Y-83016003D01*
X75396063Y-83160166D01*
X75282795Y-83329684D01*
X75204774Y-83518042D01*
X75165000Y-83718001D01*
X75165000Y-83921879D01*
X75204774Y-84121838D01*
X75282795Y-84310196D01*
X75396063Y-84479714D01*
X75540226Y-84623877D01*
X75709744Y-84737145D01*
X75898102Y-84815166D01*
X76098061Y-84854940D01*
X76301939Y-84854940D01*
X76501898Y-84815166D01*
X76690256Y-84737145D01*
X76738454Y-84704940D01*
X78512072Y-84704940D01*
X78518377Y-84712623D01*
X78651058Y-84821512D01*
X78802433Y-84902423D01*
X78966684Y-84952248D01*
X79137500Y-84969072D01*
X79612500Y-84969072D01*
X79783316Y-84952248D01*
X79873000Y-84925043D01*
X79873000Y-86000000D01*
X79875440Y-86024776D01*
X79882667Y-86048601D01*
X79894403Y-86070557D01*
X79910197Y-86089803D01*
X79929443Y-86105597D01*
X79951399Y-86117333D01*
X79975224Y-86124560D01*
X80000000Y-86127000D01*
X83060000Y-86127000D01*
X83060001Y-88196928D01*
X82995999Y-88196928D01*
X82822745Y-88213992D01*
X82656149Y-88264528D01*
X82502613Y-88346595D01*
X82368038Y-88457038D01*
X82362658Y-88463594D01*
X82297185Y-88383815D01*
X82200494Y-88304463D01*
X82090180Y-88245498D01*
X81970482Y-88209188D01*
X81846000Y-88196928D01*
X81556750Y-88200000D01*
X81398000Y-88358750D01*
X81398000Y-89408000D01*
X81418000Y-89408000D01*
X81418000Y-89662000D01*
X81398000Y-89662000D01*
X81398000Y-90711250D01*
X81556750Y-90870000D01*
X81846000Y-90873072D01*
X81970482Y-90860812D01*
X82090180Y-90824502D01*
X82200494Y-90765537D01*
X82297185Y-90686185D01*
X82362658Y-90606406D01*
X82368038Y-90612962D01*
X82502613Y-90723405D01*
X82656149Y-90805472D01*
X82822745Y-90856008D01*
X82995999Y-90873072D01*
X83646001Y-90873072D01*
X83819255Y-90856008D01*
X83822000Y-90855175D01*
X83822001Y-101054667D01*
X83818324Y-101092000D01*
X83822001Y-101129333D01*
X83825592Y-101165790D01*
X81405000Y-98745199D01*
X81405000Y-93382323D01*
X81408676Y-93345000D01*
X81405000Y-93307677D01*
X81405000Y-93307667D01*
X81394003Y-93196014D01*
X81350546Y-93052753D01*
X81279974Y-92920724D01*
X81185001Y-92804999D01*
X81156004Y-92781202D01*
X78609802Y-90235000D01*
X80057928Y-90235000D01*
X80070188Y-90359482D01*
X80106498Y-90479180D01*
X80165463Y-90589494D01*
X80244815Y-90686185D01*
X80341506Y-90765537D01*
X80451820Y-90824502D01*
X80571518Y-90860812D01*
X80696000Y-90873072D01*
X80985250Y-90870000D01*
X81144000Y-90711250D01*
X81144000Y-89662000D01*
X80219750Y-89662000D01*
X80061000Y-89820750D01*
X80057928Y-90235000D01*
X78609802Y-90235000D01*
X77209802Y-88835000D01*
X80057928Y-88835000D01*
X80061000Y-89249250D01*
X80219750Y-89408000D01*
X81144000Y-89408000D01*
X81144000Y-88358750D01*
X80985250Y-88200000D01*
X80696000Y-88196928D01*
X80571518Y-88209188D01*
X80451820Y-88245498D01*
X80341506Y-88304463D01*
X80244815Y-88383815D01*
X80165463Y-88480506D01*
X80106498Y-88590820D01*
X80070188Y-88710518D01*
X80057928Y-88835000D01*
X77209802Y-88835000D01*
X74293000Y-85918199D01*
X74293000Y-81721801D01*
X74876802Y-81138000D01*
X78401064Y-81138000D01*
X78369463Y-81176506D01*
X78369463Y-81176506D01*
G37*
X78369463Y-81176506D02*
X78310498Y-81286820D01*
X78274188Y-81406518D01*
X78261928Y-81531000D01*
X78265000Y-81770250D01*
X78423750Y-81929000D01*
X79248000Y-81929000D01*
X79248000Y-81909000D01*
X79502000Y-81909000D01*
X79502000Y-81929000D01*
X79522000Y-81929000D01*
X79522000Y-82183000D01*
X79502000Y-82183000D01*
X79502000Y-82203000D01*
X79248000Y-82203000D01*
X79248000Y-82183000D01*
X78423750Y-82183000D01*
X78265000Y-82341750D01*
X78261928Y-82581000D01*
X78274188Y-82705482D01*
X78310498Y-82825180D01*
X78369167Y-82934940D01*
X76738454Y-82934940D01*
X76690256Y-82902735D01*
X76501898Y-82824714D01*
X76301939Y-82784940D01*
X76098061Y-82784940D01*
X75898102Y-82824714D01*
X75709744Y-82902735D01*
X75540226Y-83016003D01*
X75396063Y-83160166D01*
X75282795Y-83329684D01*
X75204774Y-83518042D01*
X75165000Y-83718001D01*
X75165000Y-83921879D01*
X75204774Y-84121838D01*
X75282795Y-84310196D01*
X75396063Y-84479714D01*
X75540226Y-84623877D01*
X75709744Y-84737145D01*
X75898102Y-84815166D01*
X76098061Y-84854940D01*
X76301939Y-84854940D01*
X76501898Y-84815166D01*
X76690256Y-84737145D01*
X76738454Y-84704940D01*
X78512072Y-84704940D01*
X78518377Y-84712623D01*
X78651058Y-84821512D01*
X78802433Y-84902423D01*
X78966684Y-84952248D01*
X79137500Y-84969072D01*
X79612500Y-84969072D01*
X79783316Y-84952248D01*
X79873000Y-84925043D01*
X79873000Y-86000000D01*
X79875440Y-86024776D01*
X79882667Y-86048601D01*
X79894403Y-86070557D01*
X79910197Y-86089803D01*
X79929443Y-86105597D01*
X79951399Y-86117333D01*
X79975224Y-86124560D01*
X80000000Y-86127000D01*
X83060000Y-86127000D01*
X83060001Y-88196928D01*
X82995999Y-88196928D01*
X82822745Y-88213992D01*
X82656149Y-88264528D01*
X82502613Y-88346595D01*
X82368038Y-88457038D01*
X82362658Y-88463594D01*
X82297185Y-88383815D01*
X82200494Y-88304463D01*
X82090180Y-88245498D01*
X81970482Y-88209188D01*
X81846000Y-88196928D01*
X81556750Y-88200000D01*
X81398000Y-88358750D01*
X81398000Y-89408000D01*
X81418000Y-89408000D01*
X81418000Y-89662000D01*
X81398000Y-89662000D01*
X81398000Y-90711250D01*
X81556750Y-90870000D01*
X81846000Y-90873072D01*
X81970482Y-90860812D01*
X82090180Y-90824502D01*
X82200494Y-90765537D01*
X82297185Y-90686185D01*
X82362658Y-90606406D01*
X82368038Y-90612962D01*
X82502613Y-90723405D01*
X82656149Y-90805472D01*
X82822745Y-90856008D01*
X82995999Y-90873072D01*
X83646001Y-90873072D01*
X83819255Y-90856008D01*
X83822000Y-90855175D01*
X83822001Y-101054667D01*
X83818324Y-101092000D01*
X83822001Y-101129333D01*
X83825592Y-101165790D01*
X81405000Y-98745199D01*
X81405000Y-93382323D01*
X81408676Y-93345000D01*
X81405000Y-93307677D01*
X81405000Y-93307667D01*
X81394003Y-93196014D01*
X81350546Y-93052753D01*
X81279974Y-92920724D01*
X81185001Y-92804999D01*
X81156004Y-92781202D01*
X78609802Y-90235000D01*
X80057928Y-90235000D01*
X80070188Y-90359482D01*
X80106498Y-90479180D01*
X80165463Y-90589494D01*
X80244815Y-90686185D01*
X80341506Y-90765537D01*
X80451820Y-90824502D01*
X80571518Y-90860812D01*
X80696000Y-90873072D01*
X80985250Y-90870000D01*
X81144000Y-90711250D01*
X81144000Y-89662000D01*
X80219750Y-89662000D01*
X80061000Y-89820750D01*
X80057928Y-90235000D01*
X78609802Y-90235000D01*
X77209802Y-88835000D01*
X80057928Y-88835000D01*
X80061000Y-89249250D01*
X80219750Y-89408000D01*
X81144000Y-89408000D01*
X81144000Y-88358750D01*
X80985250Y-88200000D01*
X80696000Y-88196928D01*
X80571518Y-88209188D01*
X80451820Y-88245498D01*
X80341506Y-88304463D01*
X80244815Y-88383815D01*
X80165463Y-88480506D01*
X80106498Y-88590820D01*
X80070188Y-88710518D01*
X80057928Y-88835000D01*
X77209802Y-88835000D01*
X74293000Y-85918199D01*
X74293000Y-81721801D01*
X74876802Y-81138000D01*
X78401064Y-81138000D01*
X78369463Y-81176506D01*
G36*
X93052600Y-87425277D02*
G01*
X93048924Y-87462600D01*
X93052600Y-87499922D01*
X93052600Y-87499932D01*
X93063597Y-87611585D01*
X93103765Y-87744002D01*
X93107054Y-87754846D01*
X93177626Y-87886876D01*
X93201529Y-87916001D01*
X93272599Y-88002601D01*
X93301603Y-88026404D01*
X93776147Y-88500948D01*
X93719180Y-88470498D01*
X93599482Y-88434188D01*
X93475000Y-88421928D01*
X93235750Y-88425000D01*
X93077000Y-88583750D01*
X93077000Y-89408000D01*
X93951250Y-89408000D01*
X94110000Y-89249250D01*
X94113072Y-89060000D01*
X94100812Y-88935518D01*
X94064502Y-88815820D01*
X94034052Y-88758853D01*
X98300001Y-93024803D01*
X98300001Y-100409201D01*
X98235002Y-100330000D01*
X98206005Y-100306203D01*
X90676000Y-92776199D01*
X90676000Y-91834613D01*
X90703083Y-91840000D01*
X90906961Y-91840000D01*
X91106920Y-91800226D01*
X91295278Y-91722205D01*
X91464796Y-91608937D01*
X91608959Y-91464774D01*
X91722227Y-91295256D01*
X91800248Y-91106898D01*
X91811557Y-91050043D01*
X91907644Y-90953956D01*
X91941417Y-90926239D01*
X92052011Y-90791481D01*
X92134189Y-90637735D01*
X92150675Y-90583389D01*
X92180820Y-90599502D01*
X92300518Y-90635812D01*
X92425000Y-90648072D01*
X92664250Y-90645000D01*
X92823000Y-90486250D01*
X92823000Y-89662000D01*
X93077000Y-89662000D01*
X93077000Y-90486250D01*
X93235750Y-90645000D01*
X93475000Y-90648072D01*
X93599482Y-90635812D01*
X93719180Y-90599502D01*
X93829494Y-90540537D01*
X93926185Y-90461185D01*
X94005537Y-90364494D01*
X94064502Y-90254180D01*
X94100812Y-90134482D01*
X94113072Y-90010000D01*
X94110000Y-89820750D01*
X93951250Y-89662000D01*
X93077000Y-89662000D01*
X92823000Y-89662000D01*
X92803000Y-89662000D01*
X92803000Y-89408000D01*
X92823000Y-89408000D01*
X92823000Y-88583750D01*
X92664250Y-88425000D01*
X92425000Y-88421928D01*
X92300518Y-88434188D01*
X92197600Y-88465408D01*
X92197600Y-86127000D01*
X93052600Y-86127000D01*
X93052600Y-87425277D01*
X93052600Y-87425277D01*
G37*
X93052600Y-87425277D02*
X93048924Y-87462600D01*
X93052600Y-87499922D01*
X93052600Y-87499932D01*
X93063597Y-87611585D01*
X93103765Y-87744002D01*
X93107054Y-87754846D01*
X93177626Y-87886876D01*
X93201529Y-87916001D01*
X93272599Y-88002601D01*
X93301603Y-88026404D01*
X93776147Y-88500948D01*
X93719180Y-88470498D01*
X93599482Y-88434188D01*
X93475000Y-88421928D01*
X93235750Y-88425000D01*
X93077000Y-88583750D01*
X93077000Y-89408000D01*
X93951250Y-89408000D01*
X94110000Y-89249250D01*
X94113072Y-89060000D01*
X94100812Y-88935518D01*
X94064502Y-88815820D01*
X94034052Y-88758853D01*
X98300001Y-93024803D01*
X98300001Y-100409201D01*
X98235002Y-100330000D01*
X98206005Y-100306203D01*
X90676000Y-92776199D01*
X90676000Y-91834613D01*
X90703083Y-91840000D01*
X90906961Y-91840000D01*
X91106920Y-91800226D01*
X91295278Y-91722205D01*
X91464796Y-91608937D01*
X91608959Y-91464774D01*
X91722227Y-91295256D01*
X91800248Y-91106898D01*
X91811557Y-91050043D01*
X91907644Y-90953956D01*
X91941417Y-90926239D01*
X92052011Y-90791481D01*
X92134189Y-90637735D01*
X92150675Y-90583389D01*
X92180820Y-90599502D01*
X92300518Y-90635812D01*
X92425000Y-90648072D01*
X92664250Y-90645000D01*
X92823000Y-90486250D01*
X92823000Y-89662000D01*
X93077000Y-89662000D01*
X93077000Y-90486250D01*
X93235750Y-90645000D01*
X93475000Y-90648072D01*
X93599482Y-90635812D01*
X93719180Y-90599502D01*
X93829494Y-90540537D01*
X93926185Y-90461185D01*
X94005537Y-90364494D01*
X94064502Y-90254180D01*
X94100812Y-90134482D01*
X94113072Y-90010000D01*
X94110000Y-89820750D01*
X93951250Y-89662000D01*
X93077000Y-89662000D01*
X92823000Y-89662000D01*
X92803000Y-89662000D01*
X92803000Y-89408000D01*
X92823000Y-89408000D01*
X92823000Y-88583750D01*
X92664250Y-88425000D01*
X92425000Y-88421928D01*
X92300518Y-88434188D01*
X92197600Y-88465408D01*
X92197600Y-86127000D01*
X93052600Y-86127000D01*
X93052600Y-87425277D01*
G36*
X78265000Y-71991250D02*
G01*
X78423750Y-72150000D01*
X79248000Y-72150000D01*
X79248000Y-72130000D01*
X79502000Y-72130000D01*
X79502000Y-72150000D01*
X79522000Y-72150000D01*
X79522000Y-72404000D01*
X79502000Y-72404000D01*
X79502000Y-72424000D01*
X79248000Y-72424000D01*
X79248000Y-72404000D01*
X78423750Y-72404000D01*
X78265000Y-72562750D01*
X78261928Y-72802000D01*
X78274188Y-72926482D01*
X78310498Y-73046180D01*
X78364712Y-73147606D01*
X78335687Y-73156411D01*
X78181941Y-73238589D01*
X78047183Y-73349183D01*
X78019466Y-73382956D01*
X77478957Y-73923465D01*
X77422102Y-73934774D01*
X77233744Y-74012795D01*
X77064226Y-74126063D01*
X76920063Y-74270226D01*
X76806795Y-74439744D01*
X76728774Y-74628102D01*
X76689000Y-74828061D01*
X76689000Y-75031939D01*
X76728774Y-75231898D01*
X76806795Y-75420256D01*
X76920063Y-75589774D01*
X76948289Y-75618000D01*
X72776801Y-75618000D01*
X76514802Y-71880000D01*
X78263572Y-71880000D01*
X78265000Y-71991250D01*
X78265000Y-71991250D01*
G37*
X78265000Y-71991250D02*
X78423750Y-72150000D01*
X79248000Y-72150000D01*
X79248000Y-72130000D01*
X79502000Y-72130000D01*
X79502000Y-72150000D01*
X79522000Y-72150000D01*
X79522000Y-72404000D01*
X79502000Y-72404000D01*
X79502000Y-72424000D01*
X79248000Y-72424000D01*
X79248000Y-72404000D01*
X78423750Y-72404000D01*
X78265000Y-72562750D01*
X78261928Y-72802000D01*
X78274188Y-72926482D01*
X78310498Y-73046180D01*
X78364712Y-73147606D01*
X78335687Y-73156411D01*
X78181941Y-73238589D01*
X78047183Y-73349183D01*
X78019466Y-73382956D01*
X77478957Y-73923465D01*
X77422102Y-73934774D01*
X77233744Y-74012795D01*
X77064226Y-74126063D01*
X76920063Y-74270226D01*
X76806795Y-74439744D01*
X76728774Y-74628102D01*
X76689000Y-74828061D01*
X76689000Y-75031939D01*
X76728774Y-75231898D01*
X76806795Y-75420256D01*
X76920063Y-75589774D01*
X76948289Y-75618000D01*
X72776801Y-75618000D01*
X76514802Y-71880000D01*
X78263572Y-71880000D01*
X78265000Y-71991250D01*
G36*
X57686728Y-63420000D02*
G01*
X57698988Y-63544482D01*
X57735298Y-63664180D01*
X57794263Y-63774494D01*
X57873615Y-63871185D01*
X57970306Y-63950537D01*
X58080620Y-64009502D01*
X58200318Y-64045812D01*
X58324800Y-64058072D01*
X58573426Y-64058072D01*
X60701946Y-66186593D01*
X60724962Y-66214638D01*
X60836880Y-66306487D01*
X60964567Y-66374737D01*
X61061086Y-66404016D01*
X61103114Y-66416765D01*
X61247200Y-66430956D01*
X61283305Y-66427400D01*
X64557889Y-66427400D01*
X64574528Y-66482251D01*
X64656595Y-66635787D01*
X64767038Y-66770362D01*
X64901613Y-66880805D01*
X65055149Y-66962872D01*
X65221745Y-67013408D01*
X65394999Y-67030472D01*
X66045001Y-67030472D01*
X66218255Y-67013408D01*
X66384851Y-66962872D01*
X66538387Y-66880805D01*
X66672962Y-66770362D01*
X66745000Y-66682584D01*
X66817038Y-66770362D01*
X66951613Y-66880805D01*
X67105149Y-66962872D01*
X67271745Y-67013408D01*
X67444999Y-67030472D01*
X68095001Y-67030472D01*
X68268255Y-67013408D01*
X68434851Y-66962872D01*
X68588387Y-66880805D01*
X68722962Y-66770362D01*
X68833405Y-66635787D01*
X68915472Y-66482251D01*
X68966008Y-66315655D01*
X68983072Y-66142401D01*
X68983072Y-65518774D01*
X70012847Y-64489000D01*
X80530354Y-64489000D01*
X85152601Y-69111248D01*
X85152600Y-69873000D01*
X84713578Y-69873000D01*
X84095534Y-69254956D01*
X84067817Y-69221183D01*
X83933059Y-69110589D01*
X83779313Y-69028411D01*
X83612490Y-68977805D01*
X83482477Y-68965000D01*
X83482469Y-68965000D01*
X83439000Y-68960719D01*
X83395531Y-68965000D01*
X57145865Y-68965000D01*
X57102399Y-68960719D01*
X57058933Y-68965000D01*
X57058923Y-68965000D01*
X56928910Y-68977805D01*
X56762087Y-69028411D01*
X56608341Y-69110589D01*
X56608339Y-69110590D01*
X56608340Y-69110590D01*
X56507353Y-69193468D01*
X56507351Y-69193470D01*
X56473583Y-69221183D01*
X56445870Y-69254951D01*
X51043072Y-74657750D01*
X51043072Y-73984900D01*
X51026008Y-73811646D01*
X50975472Y-73645050D01*
X50893405Y-73491514D01*
X50782962Y-73356938D01*
X50648386Y-73246495D01*
X50494850Y-73164428D01*
X50415000Y-73140206D01*
X50415000Y-70628880D01*
X50488879Y-70589391D01*
X50623637Y-70478797D01*
X50651354Y-70445024D01*
X57686728Y-63409651D01*
X57686728Y-63420000D01*
X57686728Y-63420000D01*
G37*
X57686728Y-63420000D02*
X57698988Y-63544482D01*
X57735298Y-63664180D01*
X57794263Y-63774494D01*
X57873615Y-63871185D01*
X57970306Y-63950537D01*
X58080620Y-64009502D01*
X58200318Y-64045812D01*
X58324800Y-64058072D01*
X58573426Y-64058072D01*
X60701946Y-66186593D01*
X60724962Y-66214638D01*
X60836880Y-66306487D01*
X60964567Y-66374737D01*
X61061086Y-66404016D01*
X61103114Y-66416765D01*
X61247200Y-66430956D01*
X61283305Y-66427400D01*
X64557889Y-66427400D01*
X64574528Y-66482251D01*
X64656595Y-66635787D01*
X64767038Y-66770362D01*
X64901613Y-66880805D01*
X65055149Y-66962872D01*
X65221745Y-67013408D01*
X65394999Y-67030472D01*
X66045001Y-67030472D01*
X66218255Y-67013408D01*
X66384851Y-66962872D01*
X66538387Y-66880805D01*
X66672962Y-66770362D01*
X66745000Y-66682584D01*
X66817038Y-66770362D01*
X66951613Y-66880805D01*
X67105149Y-66962872D01*
X67271745Y-67013408D01*
X67444999Y-67030472D01*
X68095001Y-67030472D01*
X68268255Y-67013408D01*
X68434851Y-66962872D01*
X68588387Y-66880805D01*
X68722962Y-66770362D01*
X68833405Y-66635787D01*
X68915472Y-66482251D01*
X68966008Y-66315655D01*
X68983072Y-66142401D01*
X68983072Y-65518774D01*
X70012847Y-64489000D01*
X80530354Y-64489000D01*
X85152601Y-69111248D01*
X85152600Y-69873000D01*
X84713578Y-69873000D01*
X84095534Y-69254956D01*
X84067817Y-69221183D01*
X83933059Y-69110589D01*
X83779313Y-69028411D01*
X83612490Y-68977805D01*
X83482477Y-68965000D01*
X83482469Y-68965000D01*
X83439000Y-68960719D01*
X83395531Y-68965000D01*
X57145865Y-68965000D01*
X57102399Y-68960719D01*
X57058933Y-68965000D01*
X57058923Y-68965000D01*
X56928910Y-68977805D01*
X56762087Y-69028411D01*
X56608341Y-69110589D01*
X56608339Y-69110590D01*
X56608340Y-69110590D01*
X56507353Y-69193468D01*
X56507351Y-69193470D01*
X56473583Y-69221183D01*
X56445870Y-69254951D01*
X51043072Y-74657750D01*
X51043072Y-73984900D01*
X51026008Y-73811646D01*
X50975472Y-73645050D01*
X50893405Y-73491514D01*
X50782962Y-73356938D01*
X50648386Y-73246495D01*
X50494850Y-73164428D01*
X50415000Y-73140206D01*
X50415000Y-70628880D01*
X50488879Y-70589391D01*
X50623637Y-70478797D01*
X50651354Y-70445024D01*
X57686728Y-63409651D01*
X57686728Y-63420000D01*
M02*
