G04 #@! TF.GenerationSoftware,KiCad,Pcbnew,(5.1.0)-1*
G04 #@! TF.CreationDate,2019-07-26T12:40:46+09:00*
G04 #@! TF.ProjectId,ChocIn60,43686f63-496e-4363-902e-6b696361645f,rev?*
G04 #@! TF.SameCoordinates,Original*
G04 #@! TF.FileFunction,Paste,Bot*
G04 #@! TF.FilePolarity,Positive*
%FSLAX46Y46*%
G04 Gerber Fmt 4.6, Leading zero omitted, Abs format (unit mm)*
G04 Created by KiCad (PCBNEW (5.1.0)-1) date 2019-07-26 12:40:46*
%MOMM*%
%LPD*%
G04 APERTURE LIST*
%ADD10R,0.550000X1.450000*%
%ADD11R,0.300000X1.450000*%
%ADD12C,0.100000*%
%ADD13C,1.150000*%
%ADD14R,1.800000X2.100000*%
%ADD15R,0.700000X1.000000*%
%ADD16R,0.700000X0.600000*%
%ADD17R,1.500000X0.550000*%
%ADD18R,0.550000X1.500000*%
%ADD19R,1.800000X1.100000*%
%ADD20C,1.425000*%
%ADD21R,1.200000X0.900000*%
%ADD22C,0.950000*%
G04 APERTURE END LIST*
D10*
X61425000Y-56495000D03*
X54975000Y-56495000D03*
X60650000Y-56495000D03*
X55750000Y-56495000D03*
D11*
X56450000Y-56495000D03*
X59950000Y-56495000D03*
X56950000Y-56495000D03*
X59450000Y-56495000D03*
X57450000Y-56495000D03*
X58950000Y-56495000D03*
X58450000Y-56495000D03*
X57950000Y-56495000D03*
D12*
G36*
X66069505Y-62229704D02*
G01*
X66093773Y-62233304D01*
X66117572Y-62239265D01*
X66140671Y-62247530D01*
X66162850Y-62258020D01*
X66183893Y-62270632D01*
X66203599Y-62285247D01*
X66221777Y-62301723D01*
X66238253Y-62319901D01*
X66252868Y-62339607D01*
X66265480Y-62360650D01*
X66275970Y-62382829D01*
X66284235Y-62405928D01*
X66290196Y-62429727D01*
X66293796Y-62453995D01*
X66295000Y-62478499D01*
X66295000Y-63378501D01*
X66293796Y-63403005D01*
X66290196Y-63427273D01*
X66284235Y-63451072D01*
X66275970Y-63474171D01*
X66265480Y-63496350D01*
X66252868Y-63517393D01*
X66238253Y-63537099D01*
X66221777Y-63555277D01*
X66203599Y-63571753D01*
X66183893Y-63586368D01*
X66162850Y-63598980D01*
X66140671Y-63609470D01*
X66117572Y-63617735D01*
X66093773Y-63623696D01*
X66069505Y-63627296D01*
X66045001Y-63628500D01*
X65394999Y-63628500D01*
X65370495Y-63627296D01*
X65346227Y-63623696D01*
X65322428Y-63617735D01*
X65299329Y-63609470D01*
X65277150Y-63598980D01*
X65256107Y-63586368D01*
X65236401Y-63571753D01*
X65218223Y-63555277D01*
X65201747Y-63537099D01*
X65187132Y-63517393D01*
X65174520Y-63496350D01*
X65164030Y-63474171D01*
X65155765Y-63451072D01*
X65149804Y-63427273D01*
X65146204Y-63403005D01*
X65145000Y-63378501D01*
X65145000Y-62478499D01*
X65146204Y-62453995D01*
X65149804Y-62429727D01*
X65155765Y-62405928D01*
X65164030Y-62382829D01*
X65174520Y-62360650D01*
X65187132Y-62339607D01*
X65201747Y-62319901D01*
X65218223Y-62301723D01*
X65236401Y-62285247D01*
X65256107Y-62270632D01*
X65277150Y-62258020D01*
X65299329Y-62247530D01*
X65322428Y-62239265D01*
X65346227Y-62233304D01*
X65370495Y-62229704D01*
X65394999Y-62228500D01*
X66045001Y-62228500D01*
X66069505Y-62229704D01*
X66069505Y-62229704D01*
G37*
D13*
X65720000Y-62928500D03*
D12*
G36*
X68119505Y-62229704D02*
G01*
X68143773Y-62233304D01*
X68167572Y-62239265D01*
X68190671Y-62247530D01*
X68212850Y-62258020D01*
X68233893Y-62270632D01*
X68253599Y-62285247D01*
X68271777Y-62301723D01*
X68288253Y-62319901D01*
X68302868Y-62339607D01*
X68315480Y-62360650D01*
X68325970Y-62382829D01*
X68334235Y-62405928D01*
X68340196Y-62429727D01*
X68343796Y-62453995D01*
X68345000Y-62478499D01*
X68345000Y-63378501D01*
X68343796Y-63403005D01*
X68340196Y-63427273D01*
X68334235Y-63451072D01*
X68325970Y-63474171D01*
X68315480Y-63496350D01*
X68302868Y-63517393D01*
X68288253Y-63537099D01*
X68271777Y-63555277D01*
X68253599Y-63571753D01*
X68233893Y-63586368D01*
X68212850Y-63598980D01*
X68190671Y-63609470D01*
X68167572Y-63617735D01*
X68143773Y-63623696D01*
X68119505Y-63627296D01*
X68095001Y-63628500D01*
X67444999Y-63628500D01*
X67420495Y-63627296D01*
X67396227Y-63623696D01*
X67372428Y-63617735D01*
X67349329Y-63609470D01*
X67327150Y-63598980D01*
X67306107Y-63586368D01*
X67286401Y-63571753D01*
X67268223Y-63555277D01*
X67251747Y-63537099D01*
X67237132Y-63517393D01*
X67224520Y-63496350D01*
X67214030Y-63474171D01*
X67205765Y-63451072D01*
X67199804Y-63427273D01*
X67196204Y-63403005D01*
X67195000Y-63378501D01*
X67195000Y-62478499D01*
X67196204Y-62453995D01*
X67199804Y-62429727D01*
X67205765Y-62405928D01*
X67214030Y-62382829D01*
X67224520Y-62360650D01*
X67237132Y-62339607D01*
X67251747Y-62319901D01*
X67268223Y-62301723D01*
X67286401Y-62285247D01*
X67306107Y-62270632D01*
X67327150Y-62258020D01*
X67349329Y-62247530D01*
X67372428Y-62239265D01*
X67396227Y-62233304D01*
X67420495Y-62229704D01*
X67444999Y-62228500D01*
X68095001Y-62228500D01*
X68119505Y-62229704D01*
X68119505Y-62229704D01*
G37*
D13*
X67770000Y-62928500D03*
D12*
G36*
X66069505Y-64993604D02*
G01*
X66093773Y-64997204D01*
X66117572Y-65003165D01*
X66140671Y-65011430D01*
X66162850Y-65021920D01*
X66183893Y-65034532D01*
X66203599Y-65049147D01*
X66221777Y-65065623D01*
X66238253Y-65083801D01*
X66252868Y-65103507D01*
X66265480Y-65124550D01*
X66275970Y-65146729D01*
X66284235Y-65169828D01*
X66290196Y-65193627D01*
X66293796Y-65217895D01*
X66295000Y-65242399D01*
X66295000Y-66142401D01*
X66293796Y-66166905D01*
X66290196Y-66191173D01*
X66284235Y-66214972D01*
X66275970Y-66238071D01*
X66265480Y-66260250D01*
X66252868Y-66281293D01*
X66238253Y-66300999D01*
X66221777Y-66319177D01*
X66203599Y-66335653D01*
X66183893Y-66350268D01*
X66162850Y-66362880D01*
X66140671Y-66373370D01*
X66117572Y-66381635D01*
X66093773Y-66387596D01*
X66069505Y-66391196D01*
X66045001Y-66392400D01*
X65394999Y-66392400D01*
X65370495Y-66391196D01*
X65346227Y-66387596D01*
X65322428Y-66381635D01*
X65299329Y-66373370D01*
X65277150Y-66362880D01*
X65256107Y-66350268D01*
X65236401Y-66335653D01*
X65218223Y-66319177D01*
X65201747Y-66300999D01*
X65187132Y-66281293D01*
X65174520Y-66260250D01*
X65164030Y-66238071D01*
X65155765Y-66214972D01*
X65149804Y-66191173D01*
X65146204Y-66166905D01*
X65145000Y-66142401D01*
X65145000Y-65242399D01*
X65146204Y-65217895D01*
X65149804Y-65193627D01*
X65155765Y-65169828D01*
X65164030Y-65146729D01*
X65174520Y-65124550D01*
X65187132Y-65103507D01*
X65201747Y-65083801D01*
X65218223Y-65065623D01*
X65236401Y-65049147D01*
X65256107Y-65034532D01*
X65277150Y-65021920D01*
X65299329Y-65011430D01*
X65322428Y-65003165D01*
X65346227Y-64997204D01*
X65370495Y-64993604D01*
X65394999Y-64992400D01*
X66045001Y-64992400D01*
X66069505Y-64993604D01*
X66069505Y-64993604D01*
G37*
D13*
X65720000Y-65692400D03*
D12*
G36*
X68119505Y-64993604D02*
G01*
X68143773Y-64997204D01*
X68167572Y-65003165D01*
X68190671Y-65011430D01*
X68212850Y-65021920D01*
X68233893Y-65034532D01*
X68253599Y-65049147D01*
X68271777Y-65065623D01*
X68288253Y-65083801D01*
X68302868Y-65103507D01*
X68315480Y-65124550D01*
X68325970Y-65146729D01*
X68334235Y-65169828D01*
X68340196Y-65193627D01*
X68343796Y-65217895D01*
X68345000Y-65242399D01*
X68345000Y-66142401D01*
X68343796Y-66166905D01*
X68340196Y-66191173D01*
X68334235Y-66214972D01*
X68325970Y-66238071D01*
X68315480Y-66260250D01*
X68302868Y-66281293D01*
X68288253Y-66300999D01*
X68271777Y-66319177D01*
X68253599Y-66335653D01*
X68233893Y-66350268D01*
X68212850Y-66362880D01*
X68190671Y-66373370D01*
X68167572Y-66381635D01*
X68143773Y-66387596D01*
X68119505Y-66391196D01*
X68095001Y-66392400D01*
X67444999Y-66392400D01*
X67420495Y-66391196D01*
X67396227Y-66387596D01*
X67372428Y-66381635D01*
X67349329Y-66373370D01*
X67327150Y-66362880D01*
X67306107Y-66350268D01*
X67286401Y-66335653D01*
X67268223Y-66319177D01*
X67251747Y-66300999D01*
X67237132Y-66281293D01*
X67224520Y-66260250D01*
X67214030Y-66238071D01*
X67205765Y-66214972D01*
X67199804Y-66191173D01*
X67196204Y-66166905D01*
X67195000Y-66142401D01*
X67195000Y-65242399D01*
X67196204Y-65217895D01*
X67199804Y-65193627D01*
X67205765Y-65169828D01*
X67214030Y-65146729D01*
X67224520Y-65124550D01*
X67237132Y-65103507D01*
X67251747Y-65083801D01*
X67268223Y-65065623D01*
X67286401Y-65049147D01*
X67306107Y-65034532D01*
X67327150Y-65021920D01*
X67349329Y-65011430D01*
X67372428Y-65003165D01*
X67396227Y-64997204D01*
X67420495Y-64993604D01*
X67444999Y-64992400D01*
X68095001Y-64992400D01*
X68119505Y-64993604D01*
X68119505Y-64993604D01*
G37*
D13*
X67770000Y-65692400D03*
D12*
G36*
X49353505Y-58991204D02*
G01*
X49377773Y-58994804D01*
X49401572Y-59000765D01*
X49424671Y-59009030D01*
X49446850Y-59019520D01*
X49467893Y-59032132D01*
X49487599Y-59046747D01*
X49505777Y-59063223D01*
X49522253Y-59081401D01*
X49536868Y-59101107D01*
X49549480Y-59122150D01*
X49559970Y-59144329D01*
X49568235Y-59167428D01*
X49574196Y-59191227D01*
X49577796Y-59215495D01*
X49579000Y-59239999D01*
X49579000Y-60140001D01*
X49577796Y-60164505D01*
X49574196Y-60188773D01*
X49568235Y-60212572D01*
X49559970Y-60235671D01*
X49549480Y-60257850D01*
X49536868Y-60278893D01*
X49522253Y-60298599D01*
X49505777Y-60316777D01*
X49487599Y-60333253D01*
X49467893Y-60347868D01*
X49446850Y-60360480D01*
X49424671Y-60370970D01*
X49401572Y-60379235D01*
X49377773Y-60385196D01*
X49353505Y-60388796D01*
X49329001Y-60390000D01*
X48678999Y-60390000D01*
X48654495Y-60388796D01*
X48630227Y-60385196D01*
X48606428Y-60379235D01*
X48583329Y-60370970D01*
X48561150Y-60360480D01*
X48540107Y-60347868D01*
X48520401Y-60333253D01*
X48502223Y-60316777D01*
X48485747Y-60298599D01*
X48471132Y-60278893D01*
X48458520Y-60257850D01*
X48448030Y-60235671D01*
X48439765Y-60212572D01*
X48433804Y-60188773D01*
X48430204Y-60164505D01*
X48429000Y-60140001D01*
X48429000Y-59239999D01*
X48430204Y-59215495D01*
X48433804Y-59191227D01*
X48439765Y-59167428D01*
X48448030Y-59144329D01*
X48458520Y-59122150D01*
X48471132Y-59101107D01*
X48485747Y-59081401D01*
X48502223Y-59063223D01*
X48520401Y-59046747D01*
X48540107Y-59032132D01*
X48561150Y-59019520D01*
X48583329Y-59009030D01*
X48606428Y-59000765D01*
X48630227Y-58994804D01*
X48654495Y-58991204D01*
X48678999Y-58990000D01*
X49329001Y-58990000D01*
X49353505Y-58991204D01*
X49353505Y-58991204D01*
G37*
D13*
X49004000Y-59690000D03*
D12*
G36*
X51403505Y-58991204D02*
G01*
X51427773Y-58994804D01*
X51451572Y-59000765D01*
X51474671Y-59009030D01*
X51496850Y-59019520D01*
X51517893Y-59032132D01*
X51537599Y-59046747D01*
X51555777Y-59063223D01*
X51572253Y-59081401D01*
X51586868Y-59101107D01*
X51599480Y-59122150D01*
X51609970Y-59144329D01*
X51618235Y-59167428D01*
X51624196Y-59191227D01*
X51627796Y-59215495D01*
X51629000Y-59239999D01*
X51629000Y-60140001D01*
X51627796Y-60164505D01*
X51624196Y-60188773D01*
X51618235Y-60212572D01*
X51609970Y-60235671D01*
X51599480Y-60257850D01*
X51586868Y-60278893D01*
X51572253Y-60298599D01*
X51555777Y-60316777D01*
X51537599Y-60333253D01*
X51517893Y-60347868D01*
X51496850Y-60360480D01*
X51474671Y-60370970D01*
X51451572Y-60379235D01*
X51427773Y-60385196D01*
X51403505Y-60388796D01*
X51379001Y-60390000D01*
X50728999Y-60390000D01*
X50704495Y-60388796D01*
X50680227Y-60385196D01*
X50656428Y-60379235D01*
X50633329Y-60370970D01*
X50611150Y-60360480D01*
X50590107Y-60347868D01*
X50570401Y-60333253D01*
X50552223Y-60316777D01*
X50535747Y-60298599D01*
X50521132Y-60278893D01*
X50508520Y-60257850D01*
X50498030Y-60235671D01*
X50489765Y-60212572D01*
X50483804Y-60188773D01*
X50480204Y-60164505D01*
X50479000Y-60140001D01*
X50479000Y-59239999D01*
X50480204Y-59215495D01*
X50483804Y-59191227D01*
X50489765Y-59167428D01*
X50498030Y-59144329D01*
X50508520Y-59122150D01*
X50521132Y-59101107D01*
X50535747Y-59081401D01*
X50552223Y-59063223D01*
X50570401Y-59046747D01*
X50590107Y-59032132D01*
X50611150Y-59019520D01*
X50633329Y-59009030D01*
X50656428Y-59000765D01*
X50680227Y-58994804D01*
X50704495Y-58991204D01*
X50728999Y-58990000D01*
X51379001Y-58990000D01*
X51403505Y-58991204D01*
X51403505Y-58991204D01*
G37*
D13*
X51054000Y-59690000D03*
D12*
G36*
X65999505Y-58356204D02*
G01*
X66023773Y-58359804D01*
X66047572Y-58365765D01*
X66070671Y-58374030D01*
X66092850Y-58384520D01*
X66113893Y-58397132D01*
X66133599Y-58411747D01*
X66151777Y-58428223D01*
X66168253Y-58446401D01*
X66182868Y-58466107D01*
X66195480Y-58487150D01*
X66205970Y-58509329D01*
X66214235Y-58532428D01*
X66220196Y-58556227D01*
X66223796Y-58580495D01*
X66225000Y-58604999D01*
X66225000Y-59505001D01*
X66223796Y-59529505D01*
X66220196Y-59553773D01*
X66214235Y-59577572D01*
X66205970Y-59600671D01*
X66195480Y-59622850D01*
X66182868Y-59643893D01*
X66168253Y-59663599D01*
X66151777Y-59681777D01*
X66133599Y-59698253D01*
X66113893Y-59712868D01*
X66092850Y-59725480D01*
X66070671Y-59735970D01*
X66047572Y-59744235D01*
X66023773Y-59750196D01*
X65999505Y-59753796D01*
X65975001Y-59755000D01*
X65324999Y-59755000D01*
X65300495Y-59753796D01*
X65276227Y-59750196D01*
X65252428Y-59744235D01*
X65229329Y-59735970D01*
X65207150Y-59725480D01*
X65186107Y-59712868D01*
X65166401Y-59698253D01*
X65148223Y-59681777D01*
X65131747Y-59663599D01*
X65117132Y-59643893D01*
X65104520Y-59622850D01*
X65094030Y-59600671D01*
X65085765Y-59577572D01*
X65079804Y-59553773D01*
X65076204Y-59529505D01*
X65075000Y-59505001D01*
X65075000Y-58604999D01*
X65076204Y-58580495D01*
X65079804Y-58556227D01*
X65085765Y-58532428D01*
X65094030Y-58509329D01*
X65104520Y-58487150D01*
X65117132Y-58466107D01*
X65131747Y-58446401D01*
X65148223Y-58428223D01*
X65166401Y-58411747D01*
X65186107Y-58397132D01*
X65207150Y-58384520D01*
X65229329Y-58374030D01*
X65252428Y-58365765D01*
X65276227Y-58359804D01*
X65300495Y-58356204D01*
X65324999Y-58355000D01*
X65975001Y-58355000D01*
X65999505Y-58356204D01*
X65999505Y-58356204D01*
G37*
D13*
X65650000Y-59055000D03*
D12*
G36*
X68049505Y-58356204D02*
G01*
X68073773Y-58359804D01*
X68097572Y-58365765D01*
X68120671Y-58374030D01*
X68142850Y-58384520D01*
X68163893Y-58397132D01*
X68183599Y-58411747D01*
X68201777Y-58428223D01*
X68218253Y-58446401D01*
X68232868Y-58466107D01*
X68245480Y-58487150D01*
X68255970Y-58509329D01*
X68264235Y-58532428D01*
X68270196Y-58556227D01*
X68273796Y-58580495D01*
X68275000Y-58604999D01*
X68275000Y-59505001D01*
X68273796Y-59529505D01*
X68270196Y-59553773D01*
X68264235Y-59577572D01*
X68255970Y-59600671D01*
X68245480Y-59622850D01*
X68232868Y-59643893D01*
X68218253Y-59663599D01*
X68201777Y-59681777D01*
X68183599Y-59698253D01*
X68163893Y-59712868D01*
X68142850Y-59725480D01*
X68120671Y-59735970D01*
X68097572Y-59744235D01*
X68073773Y-59750196D01*
X68049505Y-59753796D01*
X68025001Y-59755000D01*
X67374999Y-59755000D01*
X67350495Y-59753796D01*
X67326227Y-59750196D01*
X67302428Y-59744235D01*
X67279329Y-59735970D01*
X67257150Y-59725480D01*
X67236107Y-59712868D01*
X67216401Y-59698253D01*
X67198223Y-59681777D01*
X67181747Y-59663599D01*
X67167132Y-59643893D01*
X67154520Y-59622850D01*
X67144030Y-59600671D01*
X67135765Y-59577572D01*
X67129804Y-59553773D01*
X67126204Y-59529505D01*
X67125000Y-59505001D01*
X67125000Y-58604999D01*
X67126204Y-58580495D01*
X67129804Y-58556227D01*
X67135765Y-58532428D01*
X67144030Y-58509329D01*
X67154520Y-58487150D01*
X67167132Y-58466107D01*
X67181747Y-58446401D01*
X67198223Y-58428223D01*
X67216401Y-58411747D01*
X67236107Y-58397132D01*
X67257150Y-58384520D01*
X67279329Y-58374030D01*
X67302428Y-58365765D01*
X67326227Y-58359804D01*
X67350495Y-58356204D01*
X67374999Y-58355000D01*
X68025001Y-58355000D01*
X68049505Y-58356204D01*
X68049505Y-58356204D01*
G37*
D13*
X67700000Y-59055000D03*
D14*
X103702500Y-78920000D03*
X103702500Y-76020000D03*
X101402500Y-76020000D03*
X101402500Y-78920000D03*
D15*
X60674800Y-61420000D03*
D16*
X58674800Y-61220000D03*
X60674800Y-63120000D03*
X58674800Y-63120000D03*
D17*
X82412600Y-73978000D03*
X82412600Y-74778000D03*
X82412600Y-75578000D03*
X82412600Y-76378000D03*
X82412600Y-77178000D03*
X82412600Y-77978000D03*
X82412600Y-78778000D03*
X82412600Y-79578000D03*
X82412600Y-80378000D03*
X82412600Y-81178000D03*
X82412600Y-81978000D03*
D18*
X84112600Y-83678000D03*
X84912600Y-83678000D03*
X85712600Y-83678000D03*
X86512600Y-83678000D03*
X87312600Y-83678000D03*
X88112600Y-83678000D03*
X88912600Y-83678000D03*
X89712600Y-83678000D03*
X90512600Y-83678000D03*
X91312600Y-83678000D03*
X92112600Y-83678000D03*
D17*
X93812600Y-81978000D03*
X93812600Y-81178000D03*
X93812600Y-80378000D03*
X93812600Y-79578000D03*
X93812600Y-78778000D03*
X93812600Y-77978000D03*
X93812600Y-77178000D03*
X93812600Y-76378000D03*
X93812600Y-75578000D03*
X93812600Y-74778000D03*
X93812600Y-73978000D03*
D18*
X92112600Y-72278000D03*
X91312600Y-72278000D03*
X90512600Y-72278000D03*
X89712600Y-72278000D03*
X88912600Y-72278000D03*
X88112600Y-72278000D03*
X87312600Y-72278000D03*
X86512600Y-72278000D03*
X85712600Y-72278000D03*
X84912600Y-72278000D03*
X84112600Y-72278000D03*
D19*
X66050000Y-96350000D03*
X72250000Y-100050000D03*
X66050000Y-100050000D03*
X72250000Y-96350000D03*
D12*
G36*
X117880505Y-62801204D02*
G01*
X117904773Y-62804804D01*
X117928572Y-62810765D01*
X117951671Y-62819030D01*
X117973850Y-62829520D01*
X117994893Y-62842132D01*
X118014599Y-62856747D01*
X118032777Y-62873223D01*
X118049253Y-62891401D01*
X118063868Y-62911107D01*
X118076480Y-62932150D01*
X118086970Y-62954329D01*
X118095235Y-62977428D01*
X118101196Y-63001227D01*
X118104796Y-63025495D01*
X118106000Y-63049999D01*
X118106000Y-63950001D01*
X118104796Y-63974505D01*
X118101196Y-63998773D01*
X118095235Y-64022572D01*
X118086970Y-64045671D01*
X118076480Y-64067850D01*
X118063868Y-64088893D01*
X118049253Y-64108599D01*
X118032777Y-64126777D01*
X118014599Y-64143253D01*
X117994893Y-64157868D01*
X117973850Y-64170480D01*
X117951671Y-64180970D01*
X117928572Y-64189235D01*
X117904773Y-64195196D01*
X117880505Y-64198796D01*
X117856001Y-64200000D01*
X117205999Y-64200000D01*
X117181495Y-64198796D01*
X117157227Y-64195196D01*
X117133428Y-64189235D01*
X117110329Y-64180970D01*
X117088150Y-64170480D01*
X117067107Y-64157868D01*
X117047401Y-64143253D01*
X117029223Y-64126777D01*
X117012747Y-64108599D01*
X116998132Y-64088893D01*
X116985520Y-64067850D01*
X116975030Y-64045671D01*
X116966765Y-64022572D01*
X116960804Y-63998773D01*
X116957204Y-63974505D01*
X116956000Y-63950001D01*
X116956000Y-63049999D01*
X116957204Y-63025495D01*
X116960804Y-63001227D01*
X116966765Y-62977428D01*
X116975030Y-62954329D01*
X116985520Y-62932150D01*
X116998132Y-62911107D01*
X117012747Y-62891401D01*
X117029223Y-62873223D01*
X117047401Y-62856747D01*
X117067107Y-62842132D01*
X117088150Y-62829520D01*
X117110329Y-62819030D01*
X117133428Y-62810765D01*
X117157227Y-62804804D01*
X117181495Y-62801204D01*
X117205999Y-62800000D01*
X117856001Y-62800000D01*
X117880505Y-62801204D01*
X117880505Y-62801204D01*
G37*
D13*
X117531000Y-63500000D03*
D12*
G36*
X115830505Y-62801204D02*
G01*
X115854773Y-62804804D01*
X115878572Y-62810765D01*
X115901671Y-62819030D01*
X115923850Y-62829520D01*
X115944893Y-62842132D01*
X115964599Y-62856747D01*
X115982777Y-62873223D01*
X115999253Y-62891401D01*
X116013868Y-62911107D01*
X116026480Y-62932150D01*
X116036970Y-62954329D01*
X116045235Y-62977428D01*
X116051196Y-63001227D01*
X116054796Y-63025495D01*
X116056000Y-63049999D01*
X116056000Y-63950001D01*
X116054796Y-63974505D01*
X116051196Y-63998773D01*
X116045235Y-64022572D01*
X116036970Y-64045671D01*
X116026480Y-64067850D01*
X116013868Y-64088893D01*
X115999253Y-64108599D01*
X115982777Y-64126777D01*
X115964599Y-64143253D01*
X115944893Y-64157868D01*
X115923850Y-64170480D01*
X115901671Y-64180970D01*
X115878572Y-64189235D01*
X115854773Y-64195196D01*
X115830505Y-64198796D01*
X115806001Y-64200000D01*
X115155999Y-64200000D01*
X115131495Y-64198796D01*
X115107227Y-64195196D01*
X115083428Y-64189235D01*
X115060329Y-64180970D01*
X115038150Y-64170480D01*
X115017107Y-64157868D01*
X114997401Y-64143253D01*
X114979223Y-64126777D01*
X114962747Y-64108599D01*
X114948132Y-64088893D01*
X114935520Y-64067850D01*
X114925030Y-64045671D01*
X114916765Y-64022572D01*
X114910804Y-63998773D01*
X114907204Y-63974505D01*
X114906000Y-63950001D01*
X114906000Y-63049999D01*
X114907204Y-63025495D01*
X114910804Y-63001227D01*
X114916765Y-62977428D01*
X114925030Y-62954329D01*
X114935520Y-62932150D01*
X114948132Y-62911107D01*
X114962747Y-62891401D01*
X114979223Y-62873223D01*
X114997401Y-62856747D01*
X115017107Y-62842132D01*
X115038150Y-62829520D01*
X115060329Y-62819030D01*
X115083428Y-62810765D01*
X115107227Y-62804804D01*
X115131495Y-62801204D01*
X115155999Y-62800000D01*
X115806001Y-62800000D01*
X115830505Y-62801204D01*
X115830505Y-62801204D01*
G37*
D13*
X115481000Y-63500000D03*
D12*
G36*
X113317505Y-62801204D02*
G01*
X113341773Y-62804804D01*
X113365572Y-62810765D01*
X113388671Y-62819030D01*
X113410850Y-62829520D01*
X113431893Y-62842132D01*
X113451599Y-62856747D01*
X113469777Y-62873223D01*
X113486253Y-62891401D01*
X113500868Y-62911107D01*
X113513480Y-62932150D01*
X113523970Y-62954329D01*
X113532235Y-62977428D01*
X113538196Y-63001227D01*
X113541796Y-63025495D01*
X113543000Y-63049999D01*
X113543000Y-63950001D01*
X113541796Y-63974505D01*
X113538196Y-63998773D01*
X113532235Y-64022572D01*
X113523970Y-64045671D01*
X113513480Y-64067850D01*
X113500868Y-64088893D01*
X113486253Y-64108599D01*
X113469777Y-64126777D01*
X113451599Y-64143253D01*
X113431893Y-64157868D01*
X113410850Y-64170480D01*
X113388671Y-64180970D01*
X113365572Y-64189235D01*
X113341773Y-64195196D01*
X113317505Y-64198796D01*
X113293001Y-64200000D01*
X112642999Y-64200000D01*
X112618495Y-64198796D01*
X112594227Y-64195196D01*
X112570428Y-64189235D01*
X112547329Y-64180970D01*
X112525150Y-64170480D01*
X112504107Y-64157868D01*
X112484401Y-64143253D01*
X112466223Y-64126777D01*
X112449747Y-64108599D01*
X112435132Y-64088893D01*
X112422520Y-64067850D01*
X112412030Y-64045671D01*
X112403765Y-64022572D01*
X112397804Y-63998773D01*
X112394204Y-63974505D01*
X112393000Y-63950001D01*
X112393000Y-63049999D01*
X112394204Y-63025495D01*
X112397804Y-63001227D01*
X112403765Y-62977428D01*
X112412030Y-62954329D01*
X112422520Y-62932150D01*
X112435132Y-62911107D01*
X112449747Y-62891401D01*
X112466223Y-62873223D01*
X112484401Y-62856747D01*
X112504107Y-62842132D01*
X112525150Y-62829520D01*
X112547329Y-62819030D01*
X112570428Y-62810765D01*
X112594227Y-62804804D01*
X112618495Y-62801204D01*
X112642999Y-62800000D01*
X113293001Y-62800000D01*
X113317505Y-62801204D01*
X113317505Y-62801204D01*
G37*
D13*
X112968000Y-63500000D03*
D12*
G36*
X111267505Y-62801204D02*
G01*
X111291773Y-62804804D01*
X111315572Y-62810765D01*
X111338671Y-62819030D01*
X111360850Y-62829520D01*
X111381893Y-62842132D01*
X111401599Y-62856747D01*
X111419777Y-62873223D01*
X111436253Y-62891401D01*
X111450868Y-62911107D01*
X111463480Y-62932150D01*
X111473970Y-62954329D01*
X111482235Y-62977428D01*
X111488196Y-63001227D01*
X111491796Y-63025495D01*
X111493000Y-63049999D01*
X111493000Y-63950001D01*
X111491796Y-63974505D01*
X111488196Y-63998773D01*
X111482235Y-64022572D01*
X111473970Y-64045671D01*
X111463480Y-64067850D01*
X111450868Y-64088893D01*
X111436253Y-64108599D01*
X111419777Y-64126777D01*
X111401599Y-64143253D01*
X111381893Y-64157868D01*
X111360850Y-64170480D01*
X111338671Y-64180970D01*
X111315572Y-64189235D01*
X111291773Y-64195196D01*
X111267505Y-64198796D01*
X111243001Y-64200000D01*
X110592999Y-64200000D01*
X110568495Y-64198796D01*
X110544227Y-64195196D01*
X110520428Y-64189235D01*
X110497329Y-64180970D01*
X110475150Y-64170480D01*
X110454107Y-64157868D01*
X110434401Y-64143253D01*
X110416223Y-64126777D01*
X110399747Y-64108599D01*
X110385132Y-64088893D01*
X110372520Y-64067850D01*
X110362030Y-64045671D01*
X110353765Y-64022572D01*
X110347804Y-63998773D01*
X110344204Y-63974505D01*
X110343000Y-63950001D01*
X110343000Y-63049999D01*
X110344204Y-63025495D01*
X110347804Y-63001227D01*
X110353765Y-62977428D01*
X110362030Y-62954329D01*
X110372520Y-62932150D01*
X110385132Y-62911107D01*
X110399747Y-62891401D01*
X110416223Y-62873223D01*
X110434401Y-62856747D01*
X110454107Y-62842132D01*
X110475150Y-62829520D01*
X110497329Y-62819030D01*
X110520428Y-62810765D01*
X110544227Y-62804804D01*
X110568495Y-62801204D01*
X110592999Y-62800000D01*
X111243001Y-62800000D01*
X111267505Y-62801204D01*
X111267505Y-62801204D01*
G37*
D13*
X110918000Y-63500000D03*
D12*
G36*
X83670505Y-88836204D02*
G01*
X83694773Y-88839804D01*
X83718572Y-88845765D01*
X83741671Y-88854030D01*
X83763850Y-88864520D01*
X83784893Y-88877132D01*
X83804599Y-88891747D01*
X83822777Y-88908223D01*
X83839253Y-88926401D01*
X83853868Y-88946107D01*
X83866480Y-88967150D01*
X83876970Y-88989329D01*
X83885235Y-89012428D01*
X83891196Y-89036227D01*
X83894796Y-89060495D01*
X83896000Y-89084999D01*
X83896000Y-89985001D01*
X83894796Y-90009505D01*
X83891196Y-90033773D01*
X83885235Y-90057572D01*
X83876970Y-90080671D01*
X83866480Y-90102850D01*
X83853868Y-90123893D01*
X83839253Y-90143599D01*
X83822777Y-90161777D01*
X83804599Y-90178253D01*
X83784893Y-90192868D01*
X83763850Y-90205480D01*
X83741671Y-90215970D01*
X83718572Y-90224235D01*
X83694773Y-90230196D01*
X83670505Y-90233796D01*
X83646001Y-90235000D01*
X82995999Y-90235000D01*
X82971495Y-90233796D01*
X82947227Y-90230196D01*
X82923428Y-90224235D01*
X82900329Y-90215970D01*
X82878150Y-90205480D01*
X82857107Y-90192868D01*
X82837401Y-90178253D01*
X82819223Y-90161777D01*
X82802747Y-90143599D01*
X82788132Y-90123893D01*
X82775520Y-90102850D01*
X82765030Y-90080671D01*
X82756765Y-90057572D01*
X82750804Y-90033773D01*
X82747204Y-90009505D01*
X82746000Y-89985001D01*
X82746000Y-89084999D01*
X82747204Y-89060495D01*
X82750804Y-89036227D01*
X82756765Y-89012428D01*
X82765030Y-88989329D01*
X82775520Y-88967150D01*
X82788132Y-88946107D01*
X82802747Y-88926401D01*
X82819223Y-88908223D01*
X82837401Y-88891747D01*
X82857107Y-88877132D01*
X82878150Y-88864520D01*
X82900329Y-88854030D01*
X82923428Y-88845765D01*
X82947227Y-88839804D01*
X82971495Y-88836204D01*
X82995999Y-88835000D01*
X83646001Y-88835000D01*
X83670505Y-88836204D01*
X83670505Y-88836204D01*
G37*
D13*
X83321000Y-89535000D03*
D12*
G36*
X81620505Y-88836204D02*
G01*
X81644773Y-88839804D01*
X81668572Y-88845765D01*
X81691671Y-88854030D01*
X81713850Y-88864520D01*
X81734893Y-88877132D01*
X81754599Y-88891747D01*
X81772777Y-88908223D01*
X81789253Y-88926401D01*
X81803868Y-88946107D01*
X81816480Y-88967150D01*
X81826970Y-88989329D01*
X81835235Y-89012428D01*
X81841196Y-89036227D01*
X81844796Y-89060495D01*
X81846000Y-89084999D01*
X81846000Y-89985001D01*
X81844796Y-90009505D01*
X81841196Y-90033773D01*
X81835235Y-90057572D01*
X81826970Y-90080671D01*
X81816480Y-90102850D01*
X81803868Y-90123893D01*
X81789253Y-90143599D01*
X81772777Y-90161777D01*
X81754599Y-90178253D01*
X81734893Y-90192868D01*
X81713850Y-90205480D01*
X81691671Y-90215970D01*
X81668572Y-90224235D01*
X81644773Y-90230196D01*
X81620505Y-90233796D01*
X81596001Y-90235000D01*
X80945999Y-90235000D01*
X80921495Y-90233796D01*
X80897227Y-90230196D01*
X80873428Y-90224235D01*
X80850329Y-90215970D01*
X80828150Y-90205480D01*
X80807107Y-90192868D01*
X80787401Y-90178253D01*
X80769223Y-90161777D01*
X80752747Y-90143599D01*
X80738132Y-90123893D01*
X80725520Y-90102850D01*
X80715030Y-90080671D01*
X80706765Y-90057572D01*
X80700804Y-90033773D01*
X80697204Y-90009505D01*
X80696000Y-89985001D01*
X80696000Y-89084999D01*
X80697204Y-89060495D01*
X80700804Y-89036227D01*
X80706765Y-89012428D01*
X80715030Y-88989329D01*
X80725520Y-88967150D01*
X80738132Y-88946107D01*
X80752747Y-88926401D01*
X80769223Y-88908223D01*
X80787401Y-88891747D01*
X80807107Y-88877132D01*
X80828150Y-88864520D01*
X80850329Y-88854030D01*
X80873428Y-88845765D01*
X80897227Y-88839804D01*
X80921495Y-88836204D01*
X80945999Y-88835000D01*
X81596001Y-88835000D01*
X81620505Y-88836204D01*
X81620505Y-88836204D01*
G37*
D13*
X81271000Y-89535000D03*
D12*
G36*
X50179504Y-73736104D02*
G01*
X50203773Y-73739704D01*
X50227571Y-73745665D01*
X50250671Y-73753930D01*
X50272849Y-73764420D01*
X50293893Y-73777033D01*
X50313598Y-73791647D01*
X50331777Y-73808123D01*
X50348253Y-73826302D01*
X50362867Y-73846007D01*
X50375480Y-73867051D01*
X50385970Y-73889229D01*
X50394235Y-73912329D01*
X50400196Y-73936127D01*
X50403796Y-73960396D01*
X50405000Y-73984900D01*
X50405000Y-74909900D01*
X50403796Y-74934404D01*
X50400196Y-74958673D01*
X50394235Y-74982471D01*
X50385970Y-75005571D01*
X50375480Y-75027749D01*
X50362867Y-75048793D01*
X50348253Y-75068498D01*
X50331777Y-75086677D01*
X50313598Y-75103153D01*
X50293893Y-75117767D01*
X50272849Y-75130380D01*
X50250671Y-75140870D01*
X50227571Y-75149135D01*
X50203773Y-75155096D01*
X50179504Y-75158696D01*
X50155000Y-75159900D01*
X48905000Y-75159900D01*
X48880496Y-75158696D01*
X48856227Y-75155096D01*
X48832429Y-75149135D01*
X48809329Y-75140870D01*
X48787151Y-75130380D01*
X48766107Y-75117767D01*
X48746402Y-75103153D01*
X48728223Y-75086677D01*
X48711747Y-75068498D01*
X48697133Y-75048793D01*
X48684520Y-75027749D01*
X48674030Y-75005571D01*
X48665765Y-74982471D01*
X48659804Y-74958673D01*
X48656204Y-74934404D01*
X48655000Y-74909900D01*
X48655000Y-73984900D01*
X48656204Y-73960396D01*
X48659804Y-73936127D01*
X48665765Y-73912329D01*
X48674030Y-73889229D01*
X48684520Y-73867051D01*
X48697133Y-73846007D01*
X48711747Y-73826302D01*
X48728223Y-73808123D01*
X48746402Y-73791647D01*
X48766107Y-73777033D01*
X48787151Y-73764420D01*
X48809329Y-73753930D01*
X48832429Y-73745665D01*
X48856227Y-73739704D01*
X48880496Y-73736104D01*
X48905000Y-73734900D01*
X50155000Y-73734900D01*
X50179504Y-73736104D01*
X50179504Y-73736104D01*
G37*
D20*
X49530000Y-74447400D03*
D12*
G36*
X50179504Y-76711104D02*
G01*
X50203773Y-76714704D01*
X50227571Y-76720665D01*
X50250671Y-76728930D01*
X50272849Y-76739420D01*
X50293893Y-76752033D01*
X50313598Y-76766647D01*
X50331777Y-76783123D01*
X50348253Y-76801302D01*
X50362867Y-76821007D01*
X50375480Y-76842051D01*
X50385970Y-76864229D01*
X50394235Y-76887329D01*
X50400196Y-76911127D01*
X50403796Y-76935396D01*
X50405000Y-76959900D01*
X50405000Y-77884900D01*
X50403796Y-77909404D01*
X50400196Y-77933673D01*
X50394235Y-77957471D01*
X50385970Y-77980571D01*
X50375480Y-78002749D01*
X50362867Y-78023793D01*
X50348253Y-78043498D01*
X50331777Y-78061677D01*
X50313598Y-78078153D01*
X50293893Y-78092767D01*
X50272849Y-78105380D01*
X50250671Y-78115870D01*
X50227571Y-78124135D01*
X50203773Y-78130096D01*
X50179504Y-78133696D01*
X50155000Y-78134900D01*
X48905000Y-78134900D01*
X48880496Y-78133696D01*
X48856227Y-78130096D01*
X48832429Y-78124135D01*
X48809329Y-78115870D01*
X48787151Y-78105380D01*
X48766107Y-78092767D01*
X48746402Y-78078153D01*
X48728223Y-78061677D01*
X48711747Y-78043498D01*
X48697133Y-78023793D01*
X48684520Y-78002749D01*
X48674030Y-77980571D01*
X48665765Y-77957471D01*
X48659804Y-77933673D01*
X48656204Y-77909404D01*
X48655000Y-77884900D01*
X48655000Y-76959900D01*
X48656204Y-76935396D01*
X48659804Y-76911127D01*
X48665765Y-76887329D01*
X48674030Y-76864229D01*
X48684520Y-76842051D01*
X48697133Y-76821007D01*
X48711747Y-76801302D01*
X48728223Y-76783123D01*
X48746402Y-76766647D01*
X48766107Y-76752033D01*
X48787151Y-76739420D01*
X48809329Y-76728930D01*
X48832429Y-76720665D01*
X48856227Y-76714704D01*
X48880496Y-76711104D01*
X48905000Y-76709900D01*
X50155000Y-76709900D01*
X50179504Y-76711104D01*
X50179504Y-76711104D01*
G37*
D20*
X49530000Y-77422400D03*
D21*
X49530000Y-82170000D03*
X49530000Y-85470000D03*
D12*
G36*
X79635779Y-71753144D02*
G01*
X79658834Y-71756563D01*
X79681443Y-71762227D01*
X79703387Y-71770079D01*
X79724457Y-71780044D01*
X79744448Y-71792026D01*
X79763168Y-71805910D01*
X79780438Y-71821562D01*
X79796090Y-71838832D01*
X79809974Y-71857552D01*
X79821956Y-71877543D01*
X79831921Y-71898613D01*
X79839773Y-71920557D01*
X79845437Y-71943166D01*
X79848856Y-71966221D01*
X79850000Y-71989500D01*
X79850000Y-72564500D01*
X79848856Y-72587779D01*
X79845437Y-72610834D01*
X79839773Y-72633443D01*
X79831921Y-72655387D01*
X79821956Y-72676457D01*
X79809974Y-72696448D01*
X79796090Y-72715168D01*
X79780438Y-72732438D01*
X79763168Y-72748090D01*
X79744448Y-72761974D01*
X79724457Y-72773956D01*
X79703387Y-72783921D01*
X79681443Y-72791773D01*
X79658834Y-72797437D01*
X79635779Y-72800856D01*
X79612500Y-72802000D01*
X79137500Y-72802000D01*
X79114221Y-72800856D01*
X79091166Y-72797437D01*
X79068557Y-72791773D01*
X79046613Y-72783921D01*
X79025543Y-72773956D01*
X79005552Y-72761974D01*
X78986832Y-72748090D01*
X78969562Y-72732438D01*
X78953910Y-72715168D01*
X78940026Y-72696448D01*
X78928044Y-72676457D01*
X78918079Y-72655387D01*
X78910227Y-72633443D01*
X78904563Y-72610834D01*
X78901144Y-72587779D01*
X78900000Y-72564500D01*
X78900000Y-71989500D01*
X78901144Y-71966221D01*
X78904563Y-71943166D01*
X78910227Y-71920557D01*
X78918079Y-71898613D01*
X78928044Y-71877543D01*
X78940026Y-71857552D01*
X78953910Y-71838832D01*
X78969562Y-71821562D01*
X78986832Y-71805910D01*
X79005552Y-71792026D01*
X79025543Y-71780044D01*
X79046613Y-71770079D01*
X79068557Y-71762227D01*
X79091166Y-71756563D01*
X79114221Y-71753144D01*
X79137500Y-71752000D01*
X79612500Y-71752000D01*
X79635779Y-71753144D01*
X79635779Y-71753144D01*
G37*
D22*
X79375000Y-72277000D03*
D12*
G36*
X79635779Y-73503144D02*
G01*
X79658834Y-73506563D01*
X79681443Y-73512227D01*
X79703387Y-73520079D01*
X79724457Y-73530044D01*
X79744448Y-73542026D01*
X79763168Y-73555910D01*
X79780438Y-73571562D01*
X79796090Y-73588832D01*
X79809974Y-73607552D01*
X79821956Y-73627543D01*
X79831921Y-73648613D01*
X79839773Y-73670557D01*
X79845437Y-73693166D01*
X79848856Y-73716221D01*
X79850000Y-73739500D01*
X79850000Y-74314500D01*
X79848856Y-74337779D01*
X79845437Y-74360834D01*
X79839773Y-74383443D01*
X79831921Y-74405387D01*
X79821956Y-74426457D01*
X79809974Y-74446448D01*
X79796090Y-74465168D01*
X79780438Y-74482438D01*
X79763168Y-74498090D01*
X79744448Y-74511974D01*
X79724457Y-74523956D01*
X79703387Y-74533921D01*
X79681443Y-74541773D01*
X79658834Y-74547437D01*
X79635779Y-74550856D01*
X79612500Y-74552000D01*
X79137500Y-74552000D01*
X79114221Y-74550856D01*
X79091166Y-74547437D01*
X79068557Y-74541773D01*
X79046613Y-74533921D01*
X79025543Y-74523956D01*
X79005552Y-74511974D01*
X78986832Y-74498090D01*
X78969562Y-74482438D01*
X78953910Y-74465168D01*
X78940026Y-74446448D01*
X78928044Y-74426457D01*
X78918079Y-74405387D01*
X78910227Y-74383443D01*
X78904563Y-74360834D01*
X78901144Y-74337779D01*
X78900000Y-74314500D01*
X78900000Y-73739500D01*
X78901144Y-73716221D01*
X78904563Y-73693166D01*
X78910227Y-73670557D01*
X78918079Y-73648613D01*
X78928044Y-73627543D01*
X78940026Y-73607552D01*
X78953910Y-73588832D01*
X78969562Y-73571562D01*
X78986832Y-73555910D01*
X79005552Y-73542026D01*
X79025543Y-73530044D01*
X79046613Y-73520079D01*
X79068557Y-73512227D01*
X79091166Y-73506563D01*
X79114221Y-73503144D01*
X79137500Y-73502000D01*
X79612500Y-73502000D01*
X79635779Y-73503144D01*
X79635779Y-73503144D01*
G37*
D22*
X79375000Y-74027000D03*
D12*
G36*
X93260779Y-89061144D02*
G01*
X93283834Y-89064563D01*
X93306443Y-89070227D01*
X93328387Y-89078079D01*
X93349457Y-89088044D01*
X93369448Y-89100026D01*
X93388168Y-89113910D01*
X93405438Y-89129562D01*
X93421090Y-89146832D01*
X93434974Y-89165552D01*
X93446956Y-89185543D01*
X93456921Y-89206613D01*
X93464773Y-89228557D01*
X93470437Y-89251166D01*
X93473856Y-89274221D01*
X93475000Y-89297500D01*
X93475000Y-89772500D01*
X93473856Y-89795779D01*
X93470437Y-89818834D01*
X93464773Y-89841443D01*
X93456921Y-89863387D01*
X93446956Y-89884457D01*
X93434974Y-89904448D01*
X93421090Y-89923168D01*
X93405438Y-89940438D01*
X93388168Y-89956090D01*
X93369448Y-89969974D01*
X93349457Y-89981956D01*
X93328387Y-89991921D01*
X93306443Y-89999773D01*
X93283834Y-90005437D01*
X93260779Y-90008856D01*
X93237500Y-90010000D01*
X92662500Y-90010000D01*
X92639221Y-90008856D01*
X92616166Y-90005437D01*
X92593557Y-89999773D01*
X92571613Y-89991921D01*
X92550543Y-89981956D01*
X92530552Y-89969974D01*
X92511832Y-89956090D01*
X92494562Y-89940438D01*
X92478910Y-89923168D01*
X92465026Y-89904448D01*
X92453044Y-89884457D01*
X92443079Y-89863387D01*
X92435227Y-89841443D01*
X92429563Y-89818834D01*
X92426144Y-89795779D01*
X92425000Y-89772500D01*
X92425000Y-89297500D01*
X92426144Y-89274221D01*
X92429563Y-89251166D01*
X92435227Y-89228557D01*
X92443079Y-89206613D01*
X92453044Y-89185543D01*
X92465026Y-89165552D01*
X92478910Y-89146832D01*
X92494562Y-89129562D01*
X92511832Y-89113910D01*
X92530552Y-89100026D01*
X92550543Y-89088044D01*
X92571613Y-89078079D01*
X92593557Y-89070227D01*
X92616166Y-89064563D01*
X92639221Y-89061144D01*
X92662500Y-89060000D01*
X93237500Y-89060000D01*
X93260779Y-89061144D01*
X93260779Y-89061144D01*
G37*
D22*
X92950000Y-89535000D03*
D12*
G36*
X91510779Y-89061144D02*
G01*
X91533834Y-89064563D01*
X91556443Y-89070227D01*
X91578387Y-89078079D01*
X91599457Y-89088044D01*
X91619448Y-89100026D01*
X91638168Y-89113910D01*
X91655438Y-89129562D01*
X91671090Y-89146832D01*
X91684974Y-89165552D01*
X91696956Y-89185543D01*
X91706921Y-89206613D01*
X91714773Y-89228557D01*
X91720437Y-89251166D01*
X91723856Y-89274221D01*
X91725000Y-89297500D01*
X91725000Y-89772500D01*
X91723856Y-89795779D01*
X91720437Y-89818834D01*
X91714773Y-89841443D01*
X91706921Y-89863387D01*
X91696956Y-89884457D01*
X91684974Y-89904448D01*
X91671090Y-89923168D01*
X91655438Y-89940438D01*
X91638168Y-89956090D01*
X91619448Y-89969974D01*
X91599457Y-89981956D01*
X91578387Y-89991921D01*
X91556443Y-89999773D01*
X91533834Y-90005437D01*
X91510779Y-90008856D01*
X91487500Y-90010000D01*
X90912500Y-90010000D01*
X90889221Y-90008856D01*
X90866166Y-90005437D01*
X90843557Y-89999773D01*
X90821613Y-89991921D01*
X90800543Y-89981956D01*
X90780552Y-89969974D01*
X90761832Y-89956090D01*
X90744562Y-89940438D01*
X90728910Y-89923168D01*
X90715026Y-89904448D01*
X90703044Y-89884457D01*
X90693079Y-89863387D01*
X90685227Y-89841443D01*
X90679563Y-89818834D01*
X90676144Y-89795779D01*
X90675000Y-89772500D01*
X90675000Y-89297500D01*
X90676144Y-89274221D01*
X90679563Y-89251166D01*
X90685227Y-89228557D01*
X90693079Y-89206613D01*
X90703044Y-89185543D01*
X90715026Y-89165552D01*
X90728910Y-89146832D01*
X90744562Y-89129562D01*
X90761832Y-89113910D01*
X90780552Y-89100026D01*
X90800543Y-89088044D01*
X90821613Y-89078079D01*
X90843557Y-89070227D01*
X90866166Y-89064563D01*
X90889221Y-89061144D01*
X90912500Y-89060000D01*
X91487500Y-89060000D01*
X91510779Y-89061144D01*
X91510779Y-89061144D01*
G37*
D22*
X91200000Y-89535000D03*
D12*
G36*
X79635779Y-81532144D02*
G01*
X79658834Y-81535563D01*
X79681443Y-81541227D01*
X79703387Y-81549079D01*
X79724457Y-81559044D01*
X79744448Y-81571026D01*
X79763168Y-81584910D01*
X79780438Y-81600562D01*
X79796090Y-81617832D01*
X79809974Y-81636552D01*
X79821956Y-81656543D01*
X79831921Y-81677613D01*
X79839773Y-81699557D01*
X79845437Y-81722166D01*
X79848856Y-81745221D01*
X79850000Y-81768500D01*
X79850000Y-82343500D01*
X79848856Y-82366779D01*
X79845437Y-82389834D01*
X79839773Y-82412443D01*
X79831921Y-82434387D01*
X79821956Y-82455457D01*
X79809974Y-82475448D01*
X79796090Y-82494168D01*
X79780438Y-82511438D01*
X79763168Y-82527090D01*
X79744448Y-82540974D01*
X79724457Y-82552956D01*
X79703387Y-82562921D01*
X79681443Y-82570773D01*
X79658834Y-82576437D01*
X79635779Y-82579856D01*
X79612500Y-82581000D01*
X79137500Y-82581000D01*
X79114221Y-82579856D01*
X79091166Y-82576437D01*
X79068557Y-82570773D01*
X79046613Y-82562921D01*
X79025543Y-82552956D01*
X79005552Y-82540974D01*
X78986832Y-82527090D01*
X78969562Y-82511438D01*
X78953910Y-82494168D01*
X78940026Y-82475448D01*
X78928044Y-82455457D01*
X78918079Y-82434387D01*
X78910227Y-82412443D01*
X78904563Y-82389834D01*
X78901144Y-82366779D01*
X78900000Y-82343500D01*
X78900000Y-81768500D01*
X78901144Y-81745221D01*
X78904563Y-81722166D01*
X78910227Y-81699557D01*
X78918079Y-81677613D01*
X78928044Y-81656543D01*
X78940026Y-81636552D01*
X78953910Y-81617832D01*
X78969562Y-81600562D01*
X78986832Y-81584910D01*
X79005552Y-81571026D01*
X79025543Y-81559044D01*
X79046613Y-81549079D01*
X79068557Y-81541227D01*
X79091166Y-81535563D01*
X79114221Y-81532144D01*
X79137500Y-81531000D01*
X79612500Y-81531000D01*
X79635779Y-81532144D01*
X79635779Y-81532144D01*
G37*
D22*
X79375000Y-82056000D03*
D12*
G36*
X79635779Y-83282144D02*
G01*
X79658834Y-83285563D01*
X79681443Y-83291227D01*
X79703387Y-83299079D01*
X79724457Y-83309044D01*
X79744448Y-83321026D01*
X79763168Y-83334910D01*
X79780438Y-83350562D01*
X79796090Y-83367832D01*
X79809974Y-83386552D01*
X79821956Y-83406543D01*
X79831921Y-83427613D01*
X79839773Y-83449557D01*
X79845437Y-83472166D01*
X79848856Y-83495221D01*
X79850000Y-83518500D01*
X79850000Y-84093500D01*
X79848856Y-84116779D01*
X79845437Y-84139834D01*
X79839773Y-84162443D01*
X79831921Y-84184387D01*
X79821956Y-84205457D01*
X79809974Y-84225448D01*
X79796090Y-84244168D01*
X79780438Y-84261438D01*
X79763168Y-84277090D01*
X79744448Y-84290974D01*
X79724457Y-84302956D01*
X79703387Y-84312921D01*
X79681443Y-84320773D01*
X79658834Y-84326437D01*
X79635779Y-84329856D01*
X79612500Y-84331000D01*
X79137500Y-84331000D01*
X79114221Y-84329856D01*
X79091166Y-84326437D01*
X79068557Y-84320773D01*
X79046613Y-84312921D01*
X79025543Y-84302956D01*
X79005552Y-84290974D01*
X78986832Y-84277090D01*
X78969562Y-84261438D01*
X78953910Y-84244168D01*
X78940026Y-84225448D01*
X78928044Y-84205457D01*
X78918079Y-84184387D01*
X78910227Y-84162443D01*
X78904563Y-84139834D01*
X78901144Y-84116779D01*
X78900000Y-84093500D01*
X78900000Y-83518500D01*
X78901144Y-83495221D01*
X78904563Y-83472166D01*
X78910227Y-83449557D01*
X78918079Y-83427613D01*
X78928044Y-83406543D01*
X78940026Y-83386552D01*
X78953910Y-83367832D01*
X78969562Y-83350562D01*
X78986832Y-83334910D01*
X79005552Y-83321026D01*
X79025543Y-83309044D01*
X79046613Y-83299079D01*
X79068557Y-83291227D01*
X79091166Y-83285563D01*
X79114221Y-83282144D01*
X79137500Y-83281000D01*
X79612500Y-83281000D01*
X79635779Y-83282144D01*
X79635779Y-83282144D01*
G37*
D22*
X79375000Y-83806000D03*
D12*
G36*
X98368779Y-69630144D02*
G01*
X98391834Y-69633563D01*
X98414443Y-69639227D01*
X98436387Y-69647079D01*
X98457457Y-69657044D01*
X98477448Y-69669026D01*
X98496168Y-69682910D01*
X98513438Y-69698562D01*
X98529090Y-69715832D01*
X98542974Y-69734552D01*
X98554956Y-69754543D01*
X98564921Y-69775613D01*
X98572773Y-69797557D01*
X98578437Y-69820166D01*
X98581856Y-69843221D01*
X98583000Y-69866500D01*
X98583000Y-70341500D01*
X98581856Y-70364779D01*
X98578437Y-70387834D01*
X98572773Y-70410443D01*
X98564921Y-70432387D01*
X98554956Y-70453457D01*
X98542974Y-70473448D01*
X98529090Y-70492168D01*
X98513438Y-70509438D01*
X98496168Y-70525090D01*
X98477448Y-70538974D01*
X98457457Y-70550956D01*
X98436387Y-70560921D01*
X98414443Y-70568773D01*
X98391834Y-70574437D01*
X98368779Y-70577856D01*
X98345500Y-70579000D01*
X97770500Y-70579000D01*
X97747221Y-70577856D01*
X97724166Y-70574437D01*
X97701557Y-70568773D01*
X97679613Y-70560921D01*
X97658543Y-70550956D01*
X97638552Y-70538974D01*
X97619832Y-70525090D01*
X97602562Y-70509438D01*
X97586910Y-70492168D01*
X97573026Y-70473448D01*
X97561044Y-70453457D01*
X97551079Y-70432387D01*
X97543227Y-70410443D01*
X97537563Y-70387834D01*
X97534144Y-70364779D01*
X97533000Y-70341500D01*
X97533000Y-69866500D01*
X97534144Y-69843221D01*
X97537563Y-69820166D01*
X97543227Y-69797557D01*
X97551079Y-69775613D01*
X97561044Y-69754543D01*
X97573026Y-69734552D01*
X97586910Y-69715832D01*
X97602562Y-69698562D01*
X97619832Y-69682910D01*
X97638552Y-69669026D01*
X97658543Y-69657044D01*
X97679613Y-69647079D01*
X97701557Y-69639227D01*
X97724166Y-69633563D01*
X97747221Y-69630144D01*
X97770500Y-69629000D01*
X98345500Y-69629000D01*
X98368779Y-69630144D01*
X98368779Y-69630144D01*
G37*
D22*
X98058000Y-70104000D03*
D12*
G36*
X100118779Y-69630144D02*
G01*
X100141834Y-69633563D01*
X100164443Y-69639227D01*
X100186387Y-69647079D01*
X100207457Y-69657044D01*
X100227448Y-69669026D01*
X100246168Y-69682910D01*
X100263438Y-69698562D01*
X100279090Y-69715832D01*
X100292974Y-69734552D01*
X100304956Y-69754543D01*
X100314921Y-69775613D01*
X100322773Y-69797557D01*
X100328437Y-69820166D01*
X100331856Y-69843221D01*
X100333000Y-69866500D01*
X100333000Y-70341500D01*
X100331856Y-70364779D01*
X100328437Y-70387834D01*
X100322773Y-70410443D01*
X100314921Y-70432387D01*
X100304956Y-70453457D01*
X100292974Y-70473448D01*
X100279090Y-70492168D01*
X100263438Y-70509438D01*
X100246168Y-70525090D01*
X100227448Y-70538974D01*
X100207457Y-70550956D01*
X100186387Y-70560921D01*
X100164443Y-70568773D01*
X100141834Y-70574437D01*
X100118779Y-70577856D01*
X100095500Y-70579000D01*
X99520500Y-70579000D01*
X99497221Y-70577856D01*
X99474166Y-70574437D01*
X99451557Y-70568773D01*
X99429613Y-70560921D01*
X99408543Y-70550956D01*
X99388552Y-70538974D01*
X99369832Y-70525090D01*
X99352562Y-70509438D01*
X99336910Y-70492168D01*
X99323026Y-70473448D01*
X99311044Y-70453457D01*
X99301079Y-70432387D01*
X99293227Y-70410443D01*
X99287563Y-70387834D01*
X99284144Y-70364779D01*
X99283000Y-70341500D01*
X99283000Y-69866500D01*
X99284144Y-69843221D01*
X99287563Y-69820166D01*
X99293227Y-69797557D01*
X99301079Y-69775613D01*
X99311044Y-69754543D01*
X99323026Y-69734552D01*
X99336910Y-69715832D01*
X99352562Y-69698562D01*
X99369832Y-69682910D01*
X99388552Y-69669026D01*
X99408543Y-69657044D01*
X99429613Y-69647079D01*
X99451557Y-69639227D01*
X99474166Y-69633563D01*
X99497221Y-69630144D01*
X99520500Y-69629000D01*
X100095500Y-69629000D01*
X100118779Y-69630144D01*
X100118779Y-69630144D01*
G37*
D22*
X99808000Y-70104000D03*
D12*
G36*
X88398779Y-63244144D02*
G01*
X88421834Y-63247563D01*
X88444443Y-63253227D01*
X88466387Y-63261079D01*
X88487457Y-63271044D01*
X88507448Y-63283026D01*
X88526168Y-63296910D01*
X88543438Y-63312562D01*
X88559090Y-63329832D01*
X88572974Y-63348552D01*
X88584956Y-63368543D01*
X88594921Y-63389613D01*
X88602773Y-63411557D01*
X88608437Y-63434166D01*
X88611856Y-63457221D01*
X88613000Y-63480500D01*
X88613000Y-64055500D01*
X88611856Y-64078779D01*
X88608437Y-64101834D01*
X88602773Y-64124443D01*
X88594921Y-64146387D01*
X88584956Y-64167457D01*
X88572974Y-64187448D01*
X88559090Y-64206168D01*
X88543438Y-64223438D01*
X88526168Y-64239090D01*
X88507448Y-64252974D01*
X88487457Y-64264956D01*
X88466387Y-64274921D01*
X88444443Y-64282773D01*
X88421834Y-64288437D01*
X88398779Y-64291856D01*
X88375500Y-64293000D01*
X87900500Y-64293000D01*
X87877221Y-64291856D01*
X87854166Y-64288437D01*
X87831557Y-64282773D01*
X87809613Y-64274921D01*
X87788543Y-64264956D01*
X87768552Y-64252974D01*
X87749832Y-64239090D01*
X87732562Y-64223438D01*
X87716910Y-64206168D01*
X87703026Y-64187448D01*
X87691044Y-64167457D01*
X87681079Y-64146387D01*
X87673227Y-64124443D01*
X87667563Y-64101834D01*
X87664144Y-64078779D01*
X87663000Y-64055500D01*
X87663000Y-63480500D01*
X87664144Y-63457221D01*
X87667563Y-63434166D01*
X87673227Y-63411557D01*
X87681079Y-63389613D01*
X87691044Y-63368543D01*
X87703026Y-63348552D01*
X87716910Y-63329832D01*
X87732562Y-63312562D01*
X87749832Y-63296910D01*
X87768552Y-63283026D01*
X87788543Y-63271044D01*
X87809613Y-63261079D01*
X87831557Y-63253227D01*
X87854166Y-63247563D01*
X87877221Y-63244144D01*
X87900500Y-63243000D01*
X88375500Y-63243000D01*
X88398779Y-63244144D01*
X88398779Y-63244144D01*
G37*
D22*
X88138000Y-63768000D03*
D12*
G36*
X88398779Y-64994144D02*
G01*
X88421834Y-64997563D01*
X88444443Y-65003227D01*
X88466387Y-65011079D01*
X88487457Y-65021044D01*
X88507448Y-65033026D01*
X88526168Y-65046910D01*
X88543438Y-65062562D01*
X88559090Y-65079832D01*
X88572974Y-65098552D01*
X88584956Y-65118543D01*
X88594921Y-65139613D01*
X88602773Y-65161557D01*
X88608437Y-65184166D01*
X88611856Y-65207221D01*
X88613000Y-65230500D01*
X88613000Y-65805500D01*
X88611856Y-65828779D01*
X88608437Y-65851834D01*
X88602773Y-65874443D01*
X88594921Y-65896387D01*
X88584956Y-65917457D01*
X88572974Y-65937448D01*
X88559090Y-65956168D01*
X88543438Y-65973438D01*
X88526168Y-65989090D01*
X88507448Y-66002974D01*
X88487457Y-66014956D01*
X88466387Y-66024921D01*
X88444443Y-66032773D01*
X88421834Y-66038437D01*
X88398779Y-66041856D01*
X88375500Y-66043000D01*
X87900500Y-66043000D01*
X87877221Y-66041856D01*
X87854166Y-66038437D01*
X87831557Y-66032773D01*
X87809613Y-66024921D01*
X87788543Y-66014956D01*
X87768552Y-66002974D01*
X87749832Y-65989090D01*
X87732562Y-65973438D01*
X87716910Y-65956168D01*
X87703026Y-65937448D01*
X87691044Y-65917457D01*
X87681079Y-65896387D01*
X87673227Y-65874443D01*
X87667563Y-65851834D01*
X87664144Y-65828779D01*
X87663000Y-65805500D01*
X87663000Y-65230500D01*
X87664144Y-65207221D01*
X87667563Y-65184166D01*
X87673227Y-65161557D01*
X87681079Y-65139613D01*
X87691044Y-65118543D01*
X87703026Y-65098552D01*
X87716910Y-65079832D01*
X87732562Y-65062562D01*
X87749832Y-65046910D01*
X87768552Y-65033026D01*
X87788543Y-65021044D01*
X87809613Y-65011079D01*
X87831557Y-65003227D01*
X87854166Y-64997563D01*
X87877221Y-64994144D01*
X87900500Y-64993000D01*
X88375500Y-64993000D01*
X88398779Y-64994144D01*
X88398779Y-64994144D01*
G37*
D22*
X88138000Y-65518000D03*
D12*
G36*
X99003279Y-75281144D02*
G01*
X99026334Y-75284563D01*
X99048943Y-75290227D01*
X99070887Y-75298079D01*
X99091957Y-75308044D01*
X99111948Y-75320026D01*
X99130668Y-75333910D01*
X99147938Y-75349562D01*
X99163590Y-75366832D01*
X99177474Y-75385552D01*
X99189456Y-75405543D01*
X99199421Y-75426613D01*
X99207273Y-75448557D01*
X99212937Y-75471166D01*
X99216356Y-75494221D01*
X99217500Y-75517500D01*
X99217500Y-76092500D01*
X99216356Y-76115779D01*
X99212937Y-76138834D01*
X99207273Y-76161443D01*
X99199421Y-76183387D01*
X99189456Y-76204457D01*
X99177474Y-76224448D01*
X99163590Y-76243168D01*
X99147938Y-76260438D01*
X99130668Y-76276090D01*
X99111948Y-76289974D01*
X99091957Y-76301956D01*
X99070887Y-76311921D01*
X99048943Y-76319773D01*
X99026334Y-76325437D01*
X99003279Y-76328856D01*
X98980000Y-76330000D01*
X98505000Y-76330000D01*
X98481721Y-76328856D01*
X98458666Y-76325437D01*
X98436057Y-76319773D01*
X98414113Y-76311921D01*
X98393043Y-76301956D01*
X98373052Y-76289974D01*
X98354332Y-76276090D01*
X98337062Y-76260438D01*
X98321410Y-76243168D01*
X98307526Y-76224448D01*
X98295544Y-76204457D01*
X98285579Y-76183387D01*
X98277727Y-76161443D01*
X98272063Y-76138834D01*
X98268644Y-76115779D01*
X98267500Y-76092500D01*
X98267500Y-75517500D01*
X98268644Y-75494221D01*
X98272063Y-75471166D01*
X98277727Y-75448557D01*
X98285579Y-75426613D01*
X98295544Y-75405543D01*
X98307526Y-75385552D01*
X98321410Y-75366832D01*
X98337062Y-75349562D01*
X98354332Y-75333910D01*
X98373052Y-75320026D01*
X98393043Y-75308044D01*
X98414113Y-75298079D01*
X98436057Y-75290227D01*
X98458666Y-75284563D01*
X98481721Y-75281144D01*
X98505000Y-75280000D01*
X98980000Y-75280000D01*
X99003279Y-75281144D01*
X99003279Y-75281144D01*
G37*
D22*
X98742500Y-75805000D03*
D12*
G36*
X99003279Y-73531144D02*
G01*
X99026334Y-73534563D01*
X99048943Y-73540227D01*
X99070887Y-73548079D01*
X99091957Y-73558044D01*
X99111948Y-73570026D01*
X99130668Y-73583910D01*
X99147938Y-73599562D01*
X99163590Y-73616832D01*
X99177474Y-73635552D01*
X99189456Y-73655543D01*
X99199421Y-73676613D01*
X99207273Y-73698557D01*
X99212937Y-73721166D01*
X99216356Y-73744221D01*
X99217500Y-73767500D01*
X99217500Y-74342500D01*
X99216356Y-74365779D01*
X99212937Y-74388834D01*
X99207273Y-74411443D01*
X99199421Y-74433387D01*
X99189456Y-74454457D01*
X99177474Y-74474448D01*
X99163590Y-74493168D01*
X99147938Y-74510438D01*
X99130668Y-74526090D01*
X99111948Y-74539974D01*
X99091957Y-74551956D01*
X99070887Y-74561921D01*
X99048943Y-74569773D01*
X99026334Y-74575437D01*
X99003279Y-74578856D01*
X98980000Y-74580000D01*
X98505000Y-74580000D01*
X98481721Y-74578856D01*
X98458666Y-74575437D01*
X98436057Y-74569773D01*
X98414113Y-74561921D01*
X98393043Y-74551956D01*
X98373052Y-74539974D01*
X98354332Y-74526090D01*
X98337062Y-74510438D01*
X98321410Y-74493168D01*
X98307526Y-74474448D01*
X98295544Y-74454457D01*
X98285579Y-74433387D01*
X98277727Y-74411443D01*
X98272063Y-74388834D01*
X98268644Y-74365779D01*
X98267500Y-74342500D01*
X98267500Y-73767500D01*
X98268644Y-73744221D01*
X98272063Y-73721166D01*
X98277727Y-73698557D01*
X98285579Y-73676613D01*
X98295544Y-73655543D01*
X98307526Y-73635552D01*
X98321410Y-73616832D01*
X98337062Y-73599562D01*
X98354332Y-73583910D01*
X98373052Y-73570026D01*
X98393043Y-73558044D01*
X98414113Y-73548079D01*
X98436057Y-73540227D01*
X98458666Y-73534563D01*
X98481721Y-73531144D01*
X98505000Y-73530000D01*
X98980000Y-73530000D01*
X99003279Y-73531144D01*
X99003279Y-73531144D01*
G37*
D22*
X98742500Y-74055000D03*
D12*
G36*
X99003279Y-79091144D02*
G01*
X99026334Y-79094563D01*
X99048943Y-79100227D01*
X99070887Y-79108079D01*
X99091957Y-79118044D01*
X99111948Y-79130026D01*
X99130668Y-79143910D01*
X99147938Y-79159562D01*
X99163590Y-79176832D01*
X99177474Y-79195552D01*
X99189456Y-79215543D01*
X99199421Y-79236613D01*
X99207273Y-79258557D01*
X99212937Y-79281166D01*
X99216356Y-79304221D01*
X99217500Y-79327500D01*
X99217500Y-79902500D01*
X99216356Y-79925779D01*
X99212937Y-79948834D01*
X99207273Y-79971443D01*
X99199421Y-79993387D01*
X99189456Y-80014457D01*
X99177474Y-80034448D01*
X99163590Y-80053168D01*
X99147938Y-80070438D01*
X99130668Y-80086090D01*
X99111948Y-80099974D01*
X99091957Y-80111956D01*
X99070887Y-80121921D01*
X99048943Y-80129773D01*
X99026334Y-80135437D01*
X99003279Y-80138856D01*
X98980000Y-80140000D01*
X98505000Y-80140000D01*
X98481721Y-80138856D01*
X98458666Y-80135437D01*
X98436057Y-80129773D01*
X98414113Y-80121921D01*
X98393043Y-80111956D01*
X98373052Y-80099974D01*
X98354332Y-80086090D01*
X98337062Y-80070438D01*
X98321410Y-80053168D01*
X98307526Y-80034448D01*
X98295544Y-80014457D01*
X98285579Y-79993387D01*
X98277727Y-79971443D01*
X98272063Y-79948834D01*
X98268644Y-79925779D01*
X98267500Y-79902500D01*
X98267500Y-79327500D01*
X98268644Y-79304221D01*
X98272063Y-79281166D01*
X98277727Y-79258557D01*
X98285579Y-79236613D01*
X98295544Y-79215543D01*
X98307526Y-79195552D01*
X98321410Y-79176832D01*
X98337062Y-79159562D01*
X98354332Y-79143910D01*
X98373052Y-79130026D01*
X98393043Y-79118044D01*
X98414113Y-79108079D01*
X98436057Y-79100227D01*
X98458666Y-79094563D01*
X98481721Y-79091144D01*
X98505000Y-79090000D01*
X98980000Y-79090000D01*
X99003279Y-79091144D01*
X99003279Y-79091144D01*
G37*
D22*
X98742500Y-79615000D03*
D12*
G36*
X99003279Y-77341144D02*
G01*
X99026334Y-77344563D01*
X99048943Y-77350227D01*
X99070887Y-77358079D01*
X99091957Y-77368044D01*
X99111948Y-77380026D01*
X99130668Y-77393910D01*
X99147938Y-77409562D01*
X99163590Y-77426832D01*
X99177474Y-77445552D01*
X99189456Y-77465543D01*
X99199421Y-77486613D01*
X99207273Y-77508557D01*
X99212937Y-77531166D01*
X99216356Y-77554221D01*
X99217500Y-77577500D01*
X99217500Y-78152500D01*
X99216356Y-78175779D01*
X99212937Y-78198834D01*
X99207273Y-78221443D01*
X99199421Y-78243387D01*
X99189456Y-78264457D01*
X99177474Y-78284448D01*
X99163590Y-78303168D01*
X99147938Y-78320438D01*
X99130668Y-78336090D01*
X99111948Y-78349974D01*
X99091957Y-78361956D01*
X99070887Y-78371921D01*
X99048943Y-78379773D01*
X99026334Y-78385437D01*
X99003279Y-78388856D01*
X98980000Y-78390000D01*
X98505000Y-78390000D01*
X98481721Y-78388856D01*
X98458666Y-78385437D01*
X98436057Y-78379773D01*
X98414113Y-78371921D01*
X98393043Y-78361956D01*
X98373052Y-78349974D01*
X98354332Y-78336090D01*
X98337062Y-78320438D01*
X98321410Y-78303168D01*
X98307526Y-78284448D01*
X98295544Y-78264457D01*
X98285579Y-78243387D01*
X98277727Y-78221443D01*
X98272063Y-78198834D01*
X98268644Y-78175779D01*
X98267500Y-78152500D01*
X98267500Y-77577500D01*
X98268644Y-77554221D01*
X98272063Y-77531166D01*
X98277727Y-77508557D01*
X98285579Y-77486613D01*
X98295544Y-77465543D01*
X98307526Y-77445552D01*
X98321410Y-77426832D01*
X98337062Y-77409562D01*
X98354332Y-77393910D01*
X98373052Y-77380026D01*
X98393043Y-77368044D01*
X98414113Y-77358079D01*
X98436057Y-77350227D01*
X98458666Y-77344563D01*
X98481721Y-77341144D01*
X98505000Y-77340000D01*
X98980000Y-77340000D01*
X99003279Y-77341144D01*
X99003279Y-77341144D01*
G37*
D22*
X98742500Y-77865000D03*
M02*
