G04 #@! TF.GenerationSoftware,KiCad,Pcbnew,(5.1.0)-1*
G04 #@! TF.CreationDate,2019-07-26T12:40:46+09:00*
G04 #@! TF.ProjectId,ChocIn60,43686f63-496e-4363-902e-6b696361645f,rev?*
G04 #@! TF.SameCoordinates,Original*
G04 #@! TF.FileFunction,Legend,Top*
G04 #@! TF.FilePolarity,Positive*
%FSLAX46Y46*%
G04 Gerber Fmt 4.6, Leading zero omitted, Abs format (unit mm)*
G04 Created by KiCad (PCBNEW (5.1.0)-1) date 2019-07-26 12:40:46*
%MOMM*%
%LPD*%
G04 APERTURE LIST*
%ADD10C,0.150000*%
%ADD11C,0.120000*%
G04 APERTURE END LIST*
D10*
X73122857Y-105577142D02*
X73051428Y-105624761D01*
X72837142Y-105672380D01*
X72694285Y-105672380D01*
X72479999Y-105624761D01*
X72337142Y-105529523D01*
X72265714Y-105434285D01*
X72194285Y-105243809D01*
X72194285Y-105100952D01*
X72265714Y-104910476D01*
X72337142Y-104815238D01*
X72479999Y-104720000D01*
X72694285Y-104672380D01*
X72837142Y-104672380D01*
X73051428Y-104720000D01*
X73122857Y-104767619D01*
X73765714Y-105672380D02*
X73765714Y-104672380D01*
X74408571Y-105672380D02*
X74408571Y-105148571D01*
X74337142Y-105053333D01*
X74194285Y-105005714D01*
X73979999Y-105005714D01*
X73837142Y-105053333D01*
X73765714Y-105100952D01*
X75337142Y-105672380D02*
X75194285Y-105624761D01*
X75122857Y-105577142D01*
X75051428Y-105481904D01*
X75051428Y-105196190D01*
X75122857Y-105100952D01*
X75194285Y-105053333D01*
X75337142Y-105005714D01*
X75551428Y-105005714D01*
X75694285Y-105053333D01*
X75765714Y-105100952D01*
X75837142Y-105196190D01*
X75837142Y-105481904D01*
X75765714Y-105577142D01*
X75694285Y-105624761D01*
X75551428Y-105672380D01*
X75337142Y-105672380D01*
X77122857Y-105624761D02*
X76979999Y-105672380D01*
X76694285Y-105672380D01*
X76551428Y-105624761D01*
X76479999Y-105577142D01*
X76408571Y-105481904D01*
X76408571Y-105196190D01*
X76479999Y-105100952D01*
X76551428Y-105053333D01*
X76694285Y-105005714D01*
X76979999Y-105005714D01*
X77122857Y-105053333D01*
X77765714Y-105672380D02*
X77765714Y-104672380D01*
X78479999Y-105005714D02*
X78479999Y-105672380D01*
X78479999Y-105100952D02*
X78551428Y-105053333D01*
X78694285Y-105005714D01*
X78908571Y-105005714D01*
X79051428Y-105053333D01*
X79122857Y-105148571D01*
X79122857Y-105672380D01*
X80479999Y-104672380D02*
X80194285Y-104672380D01*
X80051428Y-104720000D01*
X79979999Y-104767619D01*
X79837142Y-104910476D01*
X79765714Y-105100952D01*
X79765714Y-105481904D01*
X79837142Y-105577142D01*
X79908571Y-105624761D01*
X80051428Y-105672380D01*
X80337142Y-105672380D01*
X80479999Y-105624761D01*
X80551428Y-105577142D01*
X80622857Y-105481904D01*
X80622857Y-105243809D01*
X80551428Y-105148571D01*
X80479999Y-105100952D01*
X80337142Y-105053333D01*
X80051428Y-105053333D01*
X79908571Y-105100952D01*
X79837142Y-105148571D01*
X79765714Y-105243809D01*
X81551428Y-104672380D02*
X81694285Y-104672380D01*
X81837142Y-104720000D01*
X81908571Y-104767619D01*
X81979999Y-104862857D01*
X82051428Y-105053333D01*
X82051428Y-105291428D01*
X81979999Y-105481904D01*
X81908571Y-105577142D01*
X81837142Y-105624761D01*
X81694285Y-105672380D01*
X81551428Y-105672380D01*
X81408571Y-105624761D01*
X81337142Y-105577142D01*
X81265714Y-105481904D01*
X81194285Y-105291428D01*
X81194285Y-105053333D01*
X81265714Y-104862857D01*
X81337142Y-104767619D01*
X81408571Y-104720000D01*
X81551428Y-104672380D01*
X83837142Y-105672380D02*
X83837142Y-104672380D01*
X83837142Y-105053333D02*
X83979999Y-105005714D01*
X84265714Y-105005714D01*
X84408571Y-105053333D01*
X84479999Y-105100952D01*
X84551428Y-105196190D01*
X84551428Y-105481904D01*
X84479999Y-105577142D01*
X84408571Y-105624761D01*
X84265714Y-105672380D01*
X83979999Y-105672380D01*
X83837142Y-105624761D01*
X85837142Y-105672380D02*
X85837142Y-105148571D01*
X85765714Y-105053333D01*
X85622857Y-105005714D01*
X85337142Y-105005714D01*
X85194285Y-105053333D01*
X85837142Y-105624761D02*
X85694285Y-105672380D01*
X85337142Y-105672380D01*
X85194285Y-105624761D01*
X85122857Y-105529523D01*
X85122857Y-105434285D01*
X85194285Y-105339047D01*
X85337142Y-105291428D01*
X85694285Y-105291428D01*
X85837142Y-105243809D01*
X86479999Y-105624761D02*
X86622857Y-105672380D01*
X86908571Y-105672380D01*
X87051428Y-105624761D01*
X87122857Y-105529523D01*
X87122857Y-105481904D01*
X87051428Y-105386666D01*
X86908571Y-105339047D01*
X86694285Y-105339047D01*
X86551428Y-105291428D01*
X86479999Y-105196190D01*
X86479999Y-105148571D01*
X86551428Y-105053333D01*
X86694285Y-105005714D01*
X86908571Y-105005714D01*
X87051428Y-105053333D01*
X88337142Y-105624761D02*
X88194285Y-105672380D01*
X87908571Y-105672380D01*
X87765714Y-105624761D01*
X87694285Y-105529523D01*
X87694285Y-105148571D01*
X87765714Y-105053333D01*
X87908571Y-105005714D01*
X88194285Y-105005714D01*
X88337142Y-105053333D01*
X88408571Y-105148571D01*
X88408571Y-105243809D01*
X87694285Y-105339047D01*
X89051428Y-105672380D02*
X89051428Y-104672380D01*
X89051428Y-105053333D02*
X89194285Y-105005714D01*
X89479999Y-105005714D01*
X89622857Y-105053333D01*
X89694285Y-105100952D01*
X89765714Y-105196190D01*
X89765714Y-105481904D01*
X89694285Y-105577142D01*
X89622857Y-105624761D01*
X89479999Y-105672380D01*
X89194285Y-105672380D01*
X89051428Y-105624761D01*
X90622857Y-105672380D02*
X90479999Y-105624761D01*
X90408571Y-105577142D01*
X90337142Y-105481904D01*
X90337142Y-105196190D01*
X90408571Y-105100952D01*
X90479999Y-105053333D01*
X90622857Y-105005714D01*
X90837142Y-105005714D01*
X90979999Y-105053333D01*
X91051428Y-105100952D01*
X91122857Y-105196190D01*
X91122857Y-105481904D01*
X91051428Y-105577142D01*
X90979999Y-105624761D01*
X90837142Y-105672380D01*
X90622857Y-105672380D01*
X92408571Y-105672380D02*
X92408571Y-105148571D01*
X92337142Y-105053333D01*
X92194285Y-105005714D01*
X91908571Y-105005714D01*
X91765714Y-105053333D01*
X92408571Y-105624761D02*
X92265714Y-105672380D01*
X91908571Y-105672380D01*
X91765714Y-105624761D01*
X91694285Y-105529523D01*
X91694285Y-105434285D01*
X91765714Y-105339047D01*
X91908571Y-105291428D01*
X92265714Y-105291428D01*
X92408571Y-105243809D01*
X93122857Y-105672380D02*
X93122857Y-105005714D01*
X93122857Y-105196190D02*
X93194285Y-105100952D01*
X93265714Y-105053333D01*
X93408571Y-105005714D01*
X93551428Y-105005714D01*
X94694285Y-105672380D02*
X94694285Y-104672380D01*
X94694285Y-105624761D02*
X94551428Y-105672380D01*
X94265714Y-105672380D01*
X94122857Y-105624761D01*
X94051428Y-105577142D01*
X93980000Y-105481904D01*
X93980000Y-105196190D01*
X94051428Y-105100952D01*
X94122857Y-105053333D01*
X94265714Y-105005714D01*
X94551428Y-105005714D01*
X94694285Y-105053333D01*
X96551428Y-105291428D02*
X97694285Y-105291428D01*
X99337142Y-105005714D02*
X99908571Y-105005714D01*
X99551428Y-104672380D02*
X99551428Y-105529523D01*
X99622857Y-105624761D01*
X99765714Y-105672380D01*
X99908571Y-105672380D01*
X100408571Y-105672380D02*
X100408571Y-105005714D01*
X100408571Y-105196190D02*
X100480000Y-105100952D01*
X100551428Y-105053333D01*
X100694285Y-105005714D01*
X100837142Y-105005714D01*
X101337142Y-105672380D02*
X101337142Y-105005714D01*
X101337142Y-104672380D02*
X101265714Y-104720000D01*
X101337142Y-104767619D01*
X101408571Y-104720000D01*
X101337142Y-104672380D01*
X101337142Y-104767619D01*
X102694285Y-105672380D02*
X102694285Y-105148571D01*
X102622857Y-105053333D01*
X102480000Y-105005714D01*
X102194285Y-105005714D01*
X102051428Y-105053333D01*
X102694285Y-105624761D02*
X102551428Y-105672380D01*
X102194285Y-105672380D01*
X102051428Y-105624761D01*
X101980000Y-105529523D01*
X101980000Y-105434285D01*
X102051428Y-105339047D01*
X102194285Y-105291428D01*
X102551428Y-105291428D01*
X102694285Y-105243809D01*
X103622857Y-105672380D02*
X103480000Y-105624761D01*
X103408571Y-105529523D01*
X103408571Y-104672380D01*
X105337142Y-105291428D02*
X106480000Y-105291428D01*
X108194285Y-105005714D02*
X108551428Y-105672380D01*
X108908571Y-105005714D01*
X110051428Y-105624761D02*
X109908571Y-105672380D01*
X109622857Y-105672380D01*
X109480000Y-105624761D01*
X109408571Y-105529523D01*
X109408571Y-105148571D01*
X109480000Y-105053333D01*
X109622857Y-105005714D01*
X109908571Y-105005714D01*
X110051428Y-105053333D01*
X110122857Y-105148571D01*
X110122857Y-105243809D01*
X109408571Y-105339047D01*
X110765714Y-105672380D02*
X110765714Y-105005714D01*
X110765714Y-105196190D02*
X110837142Y-105100952D01*
X110908571Y-105053333D01*
X111051428Y-105005714D01*
X111194285Y-105005714D01*
X113122857Y-104672380D02*
X113265714Y-104672380D01*
X113408571Y-104720000D01*
X113479999Y-104767619D01*
X113551428Y-104862857D01*
X113622857Y-105053333D01*
X113622857Y-105291428D01*
X113551428Y-105481904D01*
X113479999Y-105577142D01*
X113408571Y-105624761D01*
X113265714Y-105672380D01*
X113122857Y-105672380D01*
X112979999Y-105624761D01*
X112908571Y-105577142D01*
X112837142Y-105481904D01*
X112765714Y-105291428D01*
X112765714Y-105053333D01*
X112837142Y-104862857D01*
X112908571Y-104767619D01*
X112979999Y-104720000D01*
X113122857Y-104672380D01*
X114265714Y-105577142D02*
X114337142Y-105624761D01*
X114265714Y-105672380D01*
X114194285Y-105624761D01*
X114265714Y-105577142D01*
X114265714Y-105672380D01*
X115765714Y-105672380D02*
X114908571Y-105672380D01*
X115337142Y-105672380D02*
X115337142Y-104672380D01*
X115194285Y-104815238D01*
X115051428Y-104910476D01*
X114908571Y-104958095D01*
X78765714Y-107322380D02*
X78765714Y-106322380D01*
X79122857Y-106322380D01*
X79337142Y-106370000D01*
X79480000Y-106465238D01*
X79551428Y-106560476D01*
X79622857Y-106750952D01*
X79622857Y-106893809D01*
X79551428Y-107084285D01*
X79480000Y-107179523D01*
X79337142Y-107274761D01*
X79122857Y-107322380D01*
X78765714Y-107322380D01*
X80837142Y-107274761D02*
X80694285Y-107322380D01*
X80408571Y-107322380D01*
X80265714Y-107274761D01*
X80194285Y-107179523D01*
X80194285Y-106798571D01*
X80265714Y-106703333D01*
X80408571Y-106655714D01*
X80694285Y-106655714D01*
X80837142Y-106703333D01*
X80908571Y-106798571D01*
X80908571Y-106893809D01*
X80194285Y-106989047D01*
X81480000Y-107274761D02*
X81622857Y-107322380D01*
X81908571Y-107322380D01*
X82051428Y-107274761D01*
X82122857Y-107179523D01*
X82122857Y-107131904D01*
X82051428Y-107036666D01*
X81908571Y-106989047D01*
X81694285Y-106989047D01*
X81551428Y-106941428D01*
X81480000Y-106846190D01*
X81480000Y-106798571D01*
X81551428Y-106703333D01*
X81694285Y-106655714D01*
X81908571Y-106655714D01*
X82051428Y-106703333D01*
X82765714Y-107322380D02*
X82765714Y-106655714D01*
X82765714Y-106322380D02*
X82694285Y-106370000D01*
X82765714Y-106417619D01*
X82837142Y-106370000D01*
X82765714Y-106322380D01*
X82765714Y-106417619D01*
X84122857Y-106655714D02*
X84122857Y-107465238D01*
X84051428Y-107560476D01*
X83980000Y-107608095D01*
X83837142Y-107655714D01*
X83622857Y-107655714D01*
X83480000Y-107608095D01*
X84122857Y-107274761D02*
X83980000Y-107322380D01*
X83694285Y-107322380D01*
X83551428Y-107274761D01*
X83480000Y-107227142D01*
X83408571Y-107131904D01*
X83408571Y-106846190D01*
X83480000Y-106750952D01*
X83551428Y-106703333D01*
X83694285Y-106655714D01*
X83980000Y-106655714D01*
X84122857Y-106703333D01*
X84837142Y-106655714D02*
X84837142Y-107322380D01*
X84837142Y-106750952D02*
X84908571Y-106703333D01*
X85051428Y-106655714D01*
X85265714Y-106655714D01*
X85408571Y-106703333D01*
X85480000Y-106798571D01*
X85480000Y-107322380D01*
X86765714Y-107274761D02*
X86622857Y-107322380D01*
X86337142Y-107322380D01*
X86194285Y-107274761D01*
X86122857Y-107179523D01*
X86122857Y-106798571D01*
X86194285Y-106703333D01*
X86337142Y-106655714D01*
X86622857Y-106655714D01*
X86765714Y-106703333D01*
X86837142Y-106798571D01*
X86837142Y-106893809D01*
X86122857Y-106989047D01*
X88122857Y-107322380D02*
X88122857Y-106322380D01*
X88122857Y-107274761D02*
X87980000Y-107322380D01*
X87694285Y-107322380D01*
X87551428Y-107274761D01*
X87480000Y-107227142D01*
X87408571Y-107131904D01*
X87408571Y-106846190D01*
X87480000Y-106750952D01*
X87551428Y-106703333D01*
X87694285Y-106655714D01*
X87980000Y-106655714D01*
X88122857Y-106703333D01*
X89980000Y-107322380D02*
X89980000Y-106322380D01*
X89980000Y-106703333D02*
X90122857Y-106655714D01*
X90408571Y-106655714D01*
X90551428Y-106703333D01*
X90622857Y-106750952D01*
X90694285Y-106846190D01*
X90694285Y-107131904D01*
X90622857Y-107227142D01*
X90551428Y-107274761D01*
X90408571Y-107322380D01*
X90122857Y-107322380D01*
X89980000Y-107274761D01*
X91194285Y-106655714D02*
X91551428Y-107322380D01*
X91908571Y-106655714D02*
X91551428Y-107322380D01*
X91408571Y-107560476D01*
X91337142Y-107608095D01*
X91194285Y-107655714D01*
X93622857Y-107322380D02*
X93622857Y-106655714D01*
X93622857Y-106750952D02*
X93694285Y-106703333D01*
X93837142Y-106655714D01*
X94051428Y-106655714D01*
X94194285Y-106703333D01*
X94265714Y-106798571D01*
X94265714Y-107322380D01*
X94265714Y-106798571D02*
X94337142Y-106703333D01*
X94480000Y-106655714D01*
X94694285Y-106655714D01*
X94837142Y-106703333D01*
X94908571Y-106798571D01*
X94908571Y-107322380D01*
X95622857Y-107322380D02*
X95622857Y-106655714D01*
X95622857Y-106322380D02*
X95551428Y-106370000D01*
X95622857Y-106417619D01*
X95694285Y-106370000D01*
X95622857Y-106322380D01*
X95622857Y-106417619D01*
X96122857Y-106655714D02*
X96694285Y-106655714D01*
X96337142Y-106322380D02*
X96337142Y-107179523D01*
X96408571Y-107274761D01*
X96551428Y-107322380D01*
X96694285Y-107322380D01*
X97837142Y-107322380D02*
X97837142Y-106798571D01*
X97765714Y-106703333D01*
X97622857Y-106655714D01*
X97337142Y-106655714D01*
X97194285Y-106703333D01*
X97837142Y-107274761D02*
X97694285Y-107322380D01*
X97337142Y-107322380D01*
X97194285Y-107274761D01*
X97122857Y-107179523D01*
X97122857Y-107084285D01*
X97194285Y-106989047D01*
X97337142Y-106941428D01*
X97694285Y-106941428D01*
X97837142Y-106893809D01*
X98551428Y-107322380D02*
X98551428Y-106655714D01*
X98551428Y-106846190D02*
X98622857Y-106750952D01*
X98694285Y-106703333D01*
X98837142Y-106655714D01*
X98980000Y-106655714D01*
X99694285Y-107322380D02*
X99551428Y-107274761D01*
X99480000Y-107227142D01*
X99408571Y-107131904D01*
X99408571Y-106846190D01*
X99480000Y-106750952D01*
X99551428Y-106703333D01*
X99694285Y-106655714D01*
X99908571Y-106655714D01*
X100051428Y-106703333D01*
X100122857Y-106750952D01*
X100194285Y-106846190D01*
X100194285Y-107131904D01*
X100122857Y-107227142D01*
X100051428Y-107274761D01*
X99908571Y-107322380D01*
X99694285Y-107322380D01*
X100622857Y-106322380D02*
X101480000Y-106322380D01*
X101051428Y-107322380D02*
X101051428Y-106322380D01*
X101980000Y-107322380D02*
X101980000Y-106322380D01*
X102622857Y-107322380D02*
X102622857Y-106798571D01*
X102551428Y-106703333D01*
X102408571Y-106655714D01*
X102194285Y-106655714D01*
X102051428Y-106703333D01*
X101980000Y-106750952D01*
X103980000Y-107322380D02*
X103980000Y-106798571D01*
X103908571Y-106703333D01*
X103765714Y-106655714D01*
X103480000Y-106655714D01*
X103337142Y-106703333D01*
X103980000Y-107274761D02*
X103837142Y-107322380D01*
X103480000Y-107322380D01*
X103337142Y-107274761D01*
X103265714Y-107179523D01*
X103265714Y-107084285D01*
X103337142Y-106989047D01*
X103480000Y-106941428D01*
X103837142Y-106941428D01*
X103980000Y-106893809D01*
X104694285Y-106655714D02*
X104694285Y-107322380D01*
X104694285Y-106750952D02*
X104765714Y-106703333D01*
X104908571Y-106655714D01*
X105122857Y-106655714D01*
X105265714Y-106703333D01*
X105337142Y-106798571D01*
X105337142Y-107322380D01*
X106051428Y-107322380D02*
X106051428Y-106322380D01*
X106194285Y-106941428D02*
X106622857Y-107322380D01*
X106622857Y-106655714D02*
X106051428Y-107036666D01*
X107837142Y-107274761D02*
X107694285Y-107322380D01*
X107408571Y-107322380D01*
X107265714Y-107274761D01*
X107194285Y-107179523D01*
X107194285Y-106798571D01*
X107265714Y-106703333D01*
X107408571Y-106655714D01*
X107694285Y-106655714D01*
X107837142Y-106703333D01*
X107908571Y-106798571D01*
X107908571Y-106893809D01*
X107194285Y-106989047D01*
X108551428Y-106655714D02*
X108551428Y-107322380D01*
X108551428Y-106750952D02*
X108622857Y-106703333D01*
X108765714Y-106655714D01*
X108980000Y-106655714D01*
X109122857Y-106703333D01*
X109194285Y-106798571D01*
X109194285Y-107322380D01*
D11*
X74870000Y-110490000D02*
X74870000Y-109160000D01*
X74870000Y-109160000D02*
X76200000Y-109160000D01*
X74870000Y-111760000D02*
X77470000Y-111760000D01*
X77470000Y-111760000D02*
X77470000Y-109160000D01*
X77470000Y-109160000D02*
X113090000Y-109160000D01*
X113090000Y-114360000D02*
X113090000Y-109160000D01*
X74870000Y-114360000D02*
X113090000Y-114360000D01*
X74870000Y-114360000D02*
X74870000Y-111760000D01*
D10*
X72882380Y-112093333D02*
X73596666Y-112093333D01*
X73739523Y-112140952D01*
X73834761Y-112236190D01*
X73882380Y-112379047D01*
X73882380Y-112474285D01*
X72882380Y-111712380D02*
X72882380Y-111093333D01*
X73263333Y-111426666D01*
X73263333Y-111283809D01*
X73310952Y-111188571D01*
X73358571Y-111140952D01*
X73453809Y-111093333D01*
X73691904Y-111093333D01*
X73787142Y-111140952D01*
X73834761Y-111188571D01*
X73882380Y-111283809D01*
X73882380Y-111569523D01*
X73834761Y-111664761D01*
X73787142Y-111712380D01*
M02*
