G04 #@! TF.GenerationSoftware,KiCad,Pcbnew,(5.1.0)-1*
G04 #@! TF.CreationDate,2019-07-26T12:40:46+09:00*
G04 #@! TF.ProjectId,ChocIn60,43686f63-496e-4363-902e-6b696361645f,rev?*
G04 #@! TF.SameCoordinates,Original*
G04 #@! TF.FileFunction,Legend,Bot*
G04 #@! TF.FilePolarity,Positive*
%FSLAX46Y46*%
G04 Gerber Fmt 4.6, Leading zero omitted, Abs format (unit mm)*
G04 Created by KiCad (PCBNEW (5.1.0)-1) date 2019-07-26 12:40:46*
%MOMM*%
%LPD*%
G04 APERTURE LIST*
%ADD10C,0.150000*%
%ADD11C,0.120000*%
G04 APERTURE END LIST*
D10*
X114837142Y-105577142D02*
X114908571Y-105624761D01*
X115122857Y-105672380D01*
X115265714Y-105672380D01*
X115480000Y-105624761D01*
X115622857Y-105529523D01*
X115694285Y-105434285D01*
X115765714Y-105243809D01*
X115765714Y-105100952D01*
X115694285Y-104910476D01*
X115622857Y-104815238D01*
X115480000Y-104720000D01*
X115265714Y-104672380D01*
X115122857Y-104672380D01*
X114908571Y-104720000D01*
X114837142Y-104767619D01*
X114194285Y-105672380D02*
X114194285Y-104672380D01*
X113551428Y-105672380D02*
X113551428Y-105148571D01*
X113622857Y-105053333D01*
X113765714Y-105005714D01*
X113980000Y-105005714D01*
X114122857Y-105053333D01*
X114194285Y-105100952D01*
X112622857Y-105672380D02*
X112765714Y-105624761D01*
X112837142Y-105577142D01*
X112908571Y-105481904D01*
X112908571Y-105196190D01*
X112837142Y-105100952D01*
X112765714Y-105053333D01*
X112622857Y-105005714D01*
X112408571Y-105005714D01*
X112265714Y-105053333D01*
X112194285Y-105100952D01*
X112122857Y-105196190D01*
X112122857Y-105481904D01*
X112194285Y-105577142D01*
X112265714Y-105624761D01*
X112408571Y-105672380D01*
X112622857Y-105672380D01*
X110837142Y-105624761D02*
X110980000Y-105672380D01*
X111265714Y-105672380D01*
X111408571Y-105624761D01*
X111480000Y-105577142D01*
X111551428Y-105481904D01*
X111551428Y-105196190D01*
X111480000Y-105100952D01*
X111408571Y-105053333D01*
X111265714Y-105005714D01*
X110980000Y-105005714D01*
X110837142Y-105053333D01*
X110194285Y-105672380D02*
X110194285Y-104672380D01*
X109480000Y-105005714D02*
X109480000Y-105672380D01*
X109480000Y-105100952D02*
X109408571Y-105053333D01*
X109265714Y-105005714D01*
X109051428Y-105005714D01*
X108908571Y-105053333D01*
X108837142Y-105148571D01*
X108837142Y-105672380D01*
X107480000Y-104672380D02*
X107765714Y-104672380D01*
X107908571Y-104720000D01*
X107980000Y-104767619D01*
X108122857Y-104910476D01*
X108194285Y-105100952D01*
X108194285Y-105481904D01*
X108122857Y-105577142D01*
X108051428Y-105624761D01*
X107908571Y-105672380D01*
X107622857Y-105672380D01*
X107480000Y-105624761D01*
X107408571Y-105577142D01*
X107337142Y-105481904D01*
X107337142Y-105243809D01*
X107408571Y-105148571D01*
X107480000Y-105100952D01*
X107622857Y-105053333D01*
X107908571Y-105053333D01*
X108051428Y-105100952D01*
X108122857Y-105148571D01*
X108194285Y-105243809D01*
X106408571Y-104672380D02*
X106265714Y-104672380D01*
X106122857Y-104720000D01*
X106051428Y-104767619D01*
X105980000Y-104862857D01*
X105908571Y-105053333D01*
X105908571Y-105291428D01*
X105980000Y-105481904D01*
X106051428Y-105577142D01*
X106122857Y-105624761D01*
X106265714Y-105672380D01*
X106408571Y-105672380D01*
X106551428Y-105624761D01*
X106622857Y-105577142D01*
X106694285Y-105481904D01*
X106765714Y-105291428D01*
X106765714Y-105053333D01*
X106694285Y-104862857D01*
X106622857Y-104767619D01*
X106551428Y-104720000D01*
X106408571Y-104672380D01*
X104122857Y-105672380D02*
X104122857Y-104672380D01*
X104122857Y-105053333D02*
X103980000Y-105005714D01*
X103694285Y-105005714D01*
X103551428Y-105053333D01*
X103480000Y-105100952D01*
X103408571Y-105196190D01*
X103408571Y-105481904D01*
X103480000Y-105577142D01*
X103551428Y-105624761D01*
X103694285Y-105672380D01*
X103980000Y-105672380D01*
X104122857Y-105624761D01*
X102122857Y-105672380D02*
X102122857Y-105148571D01*
X102194285Y-105053333D01*
X102337142Y-105005714D01*
X102622857Y-105005714D01*
X102765714Y-105053333D01*
X102122857Y-105624761D02*
X102265714Y-105672380D01*
X102622857Y-105672380D01*
X102765714Y-105624761D01*
X102837142Y-105529523D01*
X102837142Y-105434285D01*
X102765714Y-105339047D01*
X102622857Y-105291428D01*
X102265714Y-105291428D01*
X102122857Y-105243809D01*
X101480000Y-105624761D02*
X101337142Y-105672380D01*
X101051428Y-105672380D01*
X100908571Y-105624761D01*
X100837142Y-105529523D01*
X100837142Y-105481904D01*
X100908571Y-105386666D01*
X101051428Y-105339047D01*
X101265714Y-105339047D01*
X101408571Y-105291428D01*
X101480000Y-105196190D01*
X101480000Y-105148571D01*
X101408571Y-105053333D01*
X101265714Y-105005714D01*
X101051428Y-105005714D01*
X100908571Y-105053333D01*
X99622857Y-105624761D02*
X99765714Y-105672380D01*
X100051428Y-105672380D01*
X100194285Y-105624761D01*
X100265714Y-105529523D01*
X100265714Y-105148571D01*
X100194285Y-105053333D01*
X100051428Y-105005714D01*
X99765714Y-105005714D01*
X99622857Y-105053333D01*
X99551428Y-105148571D01*
X99551428Y-105243809D01*
X100265714Y-105339047D01*
X98908571Y-105672380D02*
X98908571Y-104672380D01*
X98908571Y-105053333D02*
X98765714Y-105005714D01*
X98480000Y-105005714D01*
X98337142Y-105053333D01*
X98265714Y-105100952D01*
X98194285Y-105196190D01*
X98194285Y-105481904D01*
X98265714Y-105577142D01*
X98337142Y-105624761D01*
X98480000Y-105672380D01*
X98765714Y-105672380D01*
X98908571Y-105624761D01*
X97337142Y-105672380D02*
X97480000Y-105624761D01*
X97551428Y-105577142D01*
X97622857Y-105481904D01*
X97622857Y-105196190D01*
X97551428Y-105100952D01*
X97480000Y-105053333D01*
X97337142Y-105005714D01*
X97122857Y-105005714D01*
X96980000Y-105053333D01*
X96908571Y-105100952D01*
X96837142Y-105196190D01*
X96837142Y-105481904D01*
X96908571Y-105577142D01*
X96980000Y-105624761D01*
X97122857Y-105672380D01*
X97337142Y-105672380D01*
X95551428Y-105672380D02*
X95551428Y-105148571D01*
X95622857Y-105053333D01*
X95765714Y-105005714D01*
X96051428Y-105005714D01*
X96194285Y-105053333D01*
X95551428Y-105624761D02*
X95694285Y-105672380D01*
X96051428Y-105672380D01*
X96194285Y-105624761D01*
X96265714Y-105529523D01*
X96265714Y-105434285D01*
X96194285Y-105339047D01*
X96051428Y-105291428D01*
X95694285Y-105291428D01*
X95551428Y-105243809D01*
X94837142Y-105672380D02*
X94837142Y-105005714D01*
X94837142Y-105196190D02*
X94765714Y-105100952D01*
X94694285Y-105053333D01*
X94551428Y-105005714D01*
X94408571Y-105005714D01*
X93265714Y-105672380D02*
X93265714Y-104672380D01*
X93265714Y-105624761D02*
X93408571Y-105672380D01*
X93694285Y-105672380D01*
X93837142Y-105624761D01*
X93908571Y-105577142D01*
X93980000Y-105481904D01*
X93980000Y-105196190D01*
X93908571Y-105100952D01*
X93837142Y-105053333D01*
X93694285Y-105005714D01*
X93408571Y-105005714D01*
X93265714Y-105053333D01*
X91408571Y-105291428D02*
X90265714Y-105291428D01*
X88622857Y-105005714D02*
X88051428Y-105005714D01*
X88408571Y-104672380D02*
X88408571Y-105529523D01*
X88337142Y-105624761D01*
X88194285Y-105672380D01*
X88051428Y-105672380D01*
X87551428Y-105672380D02*
X87551428Y-105005714D01*
X87551428Y-105196190D02*
X87480000Y-105100952D01*
X87408571Y-105053333D01*
X87265714Y-105005714D01*
X87122857Y-105005714D01*
X86622857Y-105672380D02*
X86622857Y-105005714D01*
X86622857Y-104672380D02*
X86694285Y-104720000D01*
X86622857Y-104767619D01*
X86551428Y-104720000D01*
X86622857Y-104672380D01*
X86622857Y-104767619D01*
X85265714Y-105672380D02*
X85265714Y-105148571D01*
X85337142Y-105053333D01*
X85480000Y-105005714D01*
X85765714Y-105005714D01*
X85908571Y-105053333D01*
X85265714Y-105624761D02*
X85408571Y-105672380D01*
X85765714Y-105672380D01*
X85908571Y-105624761D01*
X85980000Y-105529523D01*
X85980000Y-105434285D01*
X85908571Y-105339047D01*
X85765714Y-105291428D01*
X85408571Y-105291428D01*
X85265714Y-105243809D01*
X84337142Y-105672380D02*
X84480000Y-105624761D01*
X84551428Y-105529523D01*
X84551428Y-104672380D01*
X82622857Y-105291428D02*
X81480000Y-105291428D01*
X79765714Y-105005714D02*
X79408571Y-105672380D01*
X79051428Y-105005714D01*
X77908571Y-105624761D02*
X78051428Y-105672380D01*
X78337142Y-105672380D01*
X78480000Y-105624761D01*
X78551428Y-105529523D01*
X78551428Y-105148571D01*
X78480000Y-105053333D01*
X78337142Y-105005714D01*
X78051428Y-105005714D01*
X77908571Y-105053333D01*
X77837142Y-105148571D01*
X77837142Y-105243809D01*
X78551428Y-105339047D01*
X77194285Y-105672380D02*
X77194285Y-105005714D01*
X77194285Y-105196190D02*
X77122857Y-105100952D01*
X77051428Y-105053333D01*
X76908571Y-105005714D01*
X76765714Y-105005714D01*
X74837142Y-104672380D02*
X74694285Y-104672380D01*
X74551428Y-104720000D01*
X74480000Y-104767619D01*
X74408571Y-104862857D01*
X74337142Y-105053333D01*
X74337142Y-105291428D01*
X74408571Y-105481904D01*
X74480000Y-105577142D01*
X74551428Y-105624761D01*
X74694285Y-105672380D01*
X74837142Y-105672380D01*
X74980000Y-105624761D01*
X75051428Y-105577142D01*
X75122857Y-105481904D01*
X75194285Y-105291428D01*
X75194285Y-105053333D01*
X75122857Y-104862857D01*
X75051428Y-104767619D01*
X74980000Y-104720000D01*
X74837142Y-104672380D01*
X73694285Y-105577142D02*
X73622857Y-105624761D01*
X73694285Y-105672380D01*
X73765714Y-105624761D01*
X73694285Y-105577142D01*
X73694285Y-105672380D01*
X72194285Y-105672380D02*
X73051428Y-105672380D01*
X72622857Y-105672380D02*
X72622857Y-104672380D01*
X72765714Y-104815238D01*
X72908571Y-104910476D01*
X73051428Y-104958095D01*
X109194285Y-107322380D02*
X109194285Y-106322380D01*
X108837142Y-106322380D01*
X108622857Y-106370000D01*
X108480000Y-106465238D01*
X108408571Y-106560476D01*
X108337142Y-106750952D01*
X108337142Y-106893809D01*
X108408571Y-107084285D01*
X108480000Y-107179523D01*
X108622857Y-107274761D01*
X108837142Y-107322380D01*
X109194285Y-107322380D01*
X107122857Y-107274761D02*
X107265714Y-107322380D01*
X107551428Y-107322380D01*
X107694285Y-107274761D01*
X107765714Y-107179523D01*
X107765714Y-106798571D01*
X107694285Y-106703333D01*
X107551428Y-106655714D01*
X107265714Y-106655714D01*
X107122857Y-106703333D01*
X107051428Y-106798571D01*
X107051428Y-106893809D01*
X107765714Y-106989047D01*
X106480000Y-107274761D02*
X106337142Y-107322380D01*
X106051428Y-107322380D01*
X105908571Y-107274761D01*
X105837142Y-107179523D01*
X105837142Y-107131904D01*
X105908571Y-107036666D01*
X106051428Y-106989047D01*
X106265714Y-106989047D01*
X106408571Y-106941428D01*
X106480000Y-106846190D01*
X106480000Y-106798571D01*
X106408571Y-106703333D01*
X106265714Y-106655714D01*
X106051428Y-106655714D01*
X105908571Y-106703333D01*
X105194285Y-107322380D02*
X105194285Y-106655714D01*
X105194285Y-106322380D02*
X105265714Y-106370000D01*
X105194285Y-106417619D01*
X105122857Y-106370000D01*
X105194285Y-106322380D01*
X105194285Y-106417619D01*
X103837142Y-106655714D02*
X103837142Y-107465238D01*
X103908571Y-107560476D01*
X103980000Y-107608095D01*
X104122857Y-107655714D01*
X104337142Y-107655714D01*
X104480000Y-107608095D01*
X103837142Y-107274761D02*
X103980000Y-107322380D01*
X104265714Y-107322380D01*
X104408571Y-107274761D01*
X104480000Y-107227142D01*
X104551428Y-107131904D01*
X104551428Y-106846190D01*
X104480000Y-106750952D01*
X104408571Y-106703333D01*
X104265714Y-106655714D01*
X103980000Y-106655714D01*
X103837142Y-106703333D01*
X103122857Y-106655714D02*
X103122857Y-107322380D01*
X103122857Y-106750952D02*
X103051428Y-106703333D01*
X102908571Y-106655714D01*
X102694285Y-106655714D01*
X102551428Y-106703333D01*
X102480000Y-106798571D01*
X102480000Y-107322380D01*
X101194285Y-107274761D02*
X101337142Y-107322380D01*
X101622857Y-107322380D01*
X101765714Y-107274761D01*
X101837142Y-107179523D01*
X101837142Y-106798571D01*
X101765714Y-106703333D01*
X101622857Y-106655714D01*
X101337142Y-106655714D01*
X101194285Y-106703333D01*
X101122857Y-106798571D01*
X101122857Y-106893809D01*
X101837142Y-106989047D01*
X99837142Y-107322380D02*
X99837142Y-106322380D01*
X99837142Y-107274761D02*
X99980000Y-107322380D01*
X100265714Y-107322380D01*
X100408571Y-107274761D01*
X100480000Y-107227142D01*
X100551428Y-107131904D01*
X100551428Y-106846190D01*
X100480000Y-106750952D01*
X100408571Y-106703333D01*
X100265714Y-106655714D01*
X99980000Y-106655714D01*
X99837142Y-106703333D01*
X97980000Y-107322380D02*
X97980000Y-106322380D01*
X97980000Y-106703333D02*
X97837142Y-106655714D01*
X97551428Y-106655714D01*
X97408571Y-106703333D01*
X97337142Y-106750952D01*
X97265714Y-106846190D01*
X97265714Y-107131904D01*
X97337142Y-107227142D01*
X97408571Y-107274761D01*
X97551428Y-107322380D01*
X97837142Y-107322380D01*
X97980000Y-107274761D01*
X96765714Y-106655714D02*
X96408571Y-107322380D01*
X96051428Y-106655714D02*
X96408571Y-107322380D01*
X96551428Y-107560476D01*
X96622857Y-107608095D01*
X96765714Y-107655714D01*
X94337142Y-107322380D02*
X94337142Y-106655714D01*
X94337142Y-106750952D02*
X94265714Y-106703333D01*
X94122857Y-106655714D01*
X93908571Y-106655714D01*
X93765714Y-106703333D01*
X93694285Y-106798571D01*
X93694285Y-107322380D01*
X93694285Y-106798571D02*
X93622857Y-106703333D01*
X93480000Y-106655714D01*
X93265714Y-106655714D01*
X93122857Y-106703333D01*
X93051428Y-106798571D01*
X93051428Y-107322380D01*
X92337142Y-107322380D02*
X92337142Y-106655714D01*
X92337142Y-106322380D02*
X92408571Y-106370000D01*
X92337142Y-106417619D01*
X92265714Y-106370000D01*
X92337142Y-106322380D01*
X92337142Y-106417619D01*
X91837142Y-106655714D02*
X91265714Y-106655714D01*
X91622857Y-106322380D02*
X91622857Y-107179523D01*
X91551428Y-107274761D01*
X91408571Y-107322380D01*
X91265714Y-107322380D01*
X90122857Y-107322380D02*
X90122857Y-106798571D01*
X90194285Y-106703333D01*
X90337142Y-106655714D01*
X90622857Y-106655714D01*
X90765714Y-106703333D01*
X90122857Y-107274761D02*
X90265714Y-107322380D01*
X90622857Y-107322380D01*
X90765714Y-107274761D01*
X90837142Y-107179523D01*
X90837142Y-107084285D01*
X90765714Y-106989047D01*
X90622857Y-106941428D01*
X90265714Y-106941428D01*
X90122857Y-106893809D01*
X89408571Y-107322380D02*
X89408571Y-106655714D01*
X89408571Y-106846190D02*
X89337142Y-106750952D01*
X89265714Y-106703333D01*
X89122857Y-106655714D01*
X88980000Y-106655714D01*
X88265714Y-107322380D02*
X88408571Y-107274761D01*
X88480000Y-107227142D01*
X88551428Y-107131904D01*
X88551428Y-106846190D01*
X88480000Y-106750952D01*
X88408571Y-106703333D01*
X88265714Y-106655714D01*
X88051428Y-106655714D01*
X87908571Y-106703333D01*
X87837142Y-106750952D01*
X87765714Y-106846190D01*
X87765714Y-107131904D01*
X87837142Y-107227142D01*
X87908571Y-107274761D01*
X88051428Y-107322380D01*
X88265714Y-107322380D01*
X87337142Y-106322380D02*
X86480000Y-106322380D01*
X86908571Y-107322380D02*
X86908571Y-106322380D01*
X85980000Y-107322380D02*
X85980000Y-106322380D01*
X85337142Y-107322380D02*
X85337142Y-106798571D01*
X85408571Y-106703333D01*
X85551428Y-106655714D01*
X85765714Y-106655714D01*
X85908571Y-106703333D01*
X85980000Y-106750952D01*
X83980000Y-107322380D02*
X83980000Y-106798571D01*
X84051428Y-106703333D01*
X84194285Y-106655714D01*
X84480000Y-106655714D01*
X84622857Y-106703333D01*
X83980000Y-107274761D02*
X84122857Y-107322380D01*
X84480000Y-107322380D01*
X84622857Y-107274761D01*
X84694285Y-107179523D01*
X84694285Y-107084285D01*
X84622857Y-106989047D01*
X84480000Y-106941428D01*
X84122857Y-106941428D01*
X83980000Y-106893809D01*
X83265714Y-106655714D02*
X83265714Y-107322380D01*
X83265714Y-106750952D02*
X83194285Y-106703333D01*
X83051428Y-106655714D01*
X82837142Y-106655714D01*
X82694285Y-106703333D01*
X82622857Y-106798571D01*
X82622857Y-107322380D01*
X81908571Y-107322380D02*
X81908571Y-106322380D01*
X81765714Y-106941428D02*
X81337142Y-107322380D01*
X81337142Y-106655714D02*
X81908571Y-107036666D01*
X80122857Y-107274761D02*
X80265714Y-107322380D01*
X80551428Y-107322380D01*
X80694285Y-107274761D01*
X80765714Y-107179523D01*
X80765714Y-106798571D01*
X80694285Y-106703333D01*
X80551428Y-106655714D01*
X80265714Y-106655714D01*
X80122857Y-106703333D01*
X80051428Y-106798571D01*
X80051428Y-106893809D01*
X80765714Y-106989047D01*
X79408571Y-106655714D02*
X79408571Y-107322380D01*
X79408571Y-106750952D02*
X79337142Y-106703333D01*
X79194285Y-106655714D01*
X78980000Y-106655714D01*
X78837142Y-106703333D01*
X78765714Y-106798571D01*
X78765714Y-107322380D01*
D11*
X67006252Y-63638500D02*
X66483748Y-63638500D01*
X67006252Y-62218500D02*
X66483748Y-62218500D01*
X67006252Y-66402400D02*
X66483748Y-66402400D01*
X67006252Y-64982400D02*
X66483748Y-64982400D01*
X50290252Y-60400000D02*
X49767748Y-60400000D01*
X50290252Y-58980000D02*
X49767748Y-58980000D01*
X66936252Y-59765000D02*
X66413748Y-59765000D01*
X66936252Y-58345000D02*
X66413748Y-58345000D01*
X100302500Y-80170000D02*
X100302500Y-74770000D01*
X104802500Y-80170000D02*
X100302500Y-80170000D01*
D10*
X59024800Y-60720000D02*
X59024800Y-63620000D01*
X59024800Y-60720000D02*
X60324800Y-60720000D01*
X60324800Y-60720000D02*
X60324800Y-63620000D01*
X60324800Y-63620000D02*
X59024800Y-63620000D01*
X83512600Y-72803000D02*
X83512600Y-71528000D01*
X82937600Y-83153000D02*
X82937600Y-82478000D01*
X93287600Y-83153000D02*
X93287600Y-82478000D01*
X93287600Y-72803000D02*
X93287600Y-73478000D01*
X82937600Y-72803000D02*
X82937600Y-73478000D01*
X93287600Y-72803000D02*
X92612600Y-72803000D01*
X93287600Y-83153000D02*
X92612600Y-83153000D01*
X82937600Y-83153000D02*
X83612600Y-83153000D01*
X82937600Y-72803000D02*
X83512600Y-72803000D01*
X66550000Y-100800000D02*
X71750000Y-100800000D01*
X71750000Y-100800000D02*
X71750000Y-95600000D01*
X71750000Y-95600000D02*
X66550000Y-95600000D01*
X66550000Y-95600000D02*
X66550000Y-100800000D01*
X70150000Y-98200000D02*
G75*
G03X70150000Y-98200000I-1000000J0D01*
G01*
D11*
X116244748Y-62790000D02*
X116767252Y-62790000D01*
X116244748Y-64210000D02*
X116767252Y-64210000D01*
X111681748Y-62790000D02*
X112204252Y-62790000D01*
X111681748Y-64210000D02*
X112204252Y-64210000D01*
X82034748Y-88825000D02*
X82557252Y-88825000D01*
X82034748Y-90245000D02*
X82557252Y-90245000D01*
X119270000Y-61770000D02*
X119270000Y-60500000D01*
X118000000Y-61770000D02*
X119270000Y-61770000D01*
X110000000Y-59457071D02*
X110000000Y-59060000D01*
X110760000Y-59457071D02*
X110760000Y-59060000D01*
X110000000Y-50400000D02*
X110000000Y-56400000D01*
X110760000Y-50400000D02*
X110000000Y-50400000D01*
X110760000Y-56400000D02*
X110760000Y-50400000D01*
X111650000Y-59060000D02*
X111650000Y-56400000D01*
X112540000Y-59457071D02*
X112540000Y-59060000D01*
X113300000Y-59457071D02*
X113300000Y-59060000D01*
X112540000Y-50400000D02*
X112540000Y-56400000D01*
X113300000Y-50400000D02*
X112540000Y-50400000D01*
X113300000Y-56400000D02*
X113300000Y-50400000D01*
X114190000Y-59060000D02*
X114190000Y-56400000D01*
X115080000Y-59457071D02*
X115080000Y-59060000D01*
X115840000Y-59457071D02*
X115840000Y-59060000D01*
X115080000Y-50400000D02*
X115080000Y-56400000D01*
X115840000Y-50400000D02*
X115080000Y-50400000D01*
X115840000Y-56400000D02*
X115840000Y-50400000D01*
X116730000Y-59060000D02*
X116730000Y-56400000D01*
X117620000Y-59390000D02*
X117620000Y-59060000D01*
X118380000Y-59390000D02*
X118380000Y-59060000D01*
X117720000Y-56400000D02*
X117720000Y-50400000D01*
X117840000Y-56400000D02*
X117840000Y-50400000D01*
X117960000Y-56400000D02*
X117960000Y-50400000D01*
X118080000Y-56400000D02*
X118080000Y-50400000D01*
X118200000Y-56400000D02*
X118200000Y-50400000D01*
X118320000Y-56400000D02*
X118320000Y-50400000D01*
X117620000Y-50400000D02*
X117620000Y-56400000D01*
X118380000Y-50400000D02*
X117620000Y-50400000D01*
X118380000Y-56400000D02*
X118380000Y-50400000D01*
X119330000Y-56400000D02*
X119330000Y-59060000D01*
X109050000Y-56400000D02*
X119330000Y-56400000D01*
X109050000Y-59060000D02*
X109050000Y-56400000D01*
X119330000Y-59060000D02*
X109050000Y-59060000D01*
X100270000Y-64270000D02*
X100270000Y-63000000D01*
X99000000Y-64270000D02*
X100270000Y-64270000D01*
X93540000Y-61957071D02*
X93540000Y-61502929D01*
X94300000Y-61957071D02*
X94300000Y-61502929D01*
X93540000Y-59417071D02*
X93540000Y-59020000D01*
X94300000Y-59417071D02*
X94300000Y-59020000D01*
X93540000Y-50360000D02*
X93540000Y-56360000D01*
X94300000Y-50360000D02*
X93540000Y-50360000D01*
X94300000Y-56360000D02*
X94300000Y-50360000D01*
X95190000Y-59020000D02*
X95190000Y-56360000D01*
X96080000Y-61957071D02*
X96080000Y-61502929D01*
X96840000Y-61957071D02*
X96840000Y-61502929D01*
X96080000Y-59417071D02*
X96080000Y-59020000D01*
X96840000Y-59417071D02*
X96840000Y-59020000D01*
X96080000Y-50360000D02*
X96080000Y-56360000D01*
X96840000Y-50360000D02*
X96080000Y-50360000D01*
X96840000Y-56360000D02*
X96840000Y-50360000D01*
X97730000Y-59020000D02*
X97730000Y-56360000D01*
X98620000Y-61890000D02*
X98620000Y-61502929D01*
X99380000Y-61890000D02*
X99380000Y-61502929D01*
X98620000Y-59417071D02*
X98620000Y-59020000D01*
X99380000Y-59417071D02*
X99380000Y-59020000D01*
X98720000Y-56360000D02*
X98720000Y-50360000D01*
X98840000Y-56360000D02*
X98840000Y-50360000D01*
X98960000Y-56360000D02*
X98960000Y-50360000D01*
X99080000Y-56360000D02*
X99080000Y-50360000D01*
X99200000Y-56360000D02*
X99200000Y-50360000D01*
X99320000Y-56360000D02*
X99320000Y-50360000D01*
X98620000Y-50360000D02*
X98620000Y-56360000D01*
X99380000Y-50360000D02*
X98620000Y-50360000D01*
X99380000Y-56360000D02*
X99380000Y-50360000D01*
X100330000Y-56360000D02*
X100330000Y-59020000D01*
X92590000Y-56360000D02*
X100330000Y-56360000D01*
X92590000Y-59020000D02*
X92590000Y-56360000D01*
X100330000Y-59020000D02*
X92590000Y-59020000D01*
X48620000Y-76536964D02*
X48620000Y-75332836D01*
X50440000Y-76536964D02*
X50440000Y-75332836D01*
X50530000Y-86070000D02*
X50530000Y-82170000D01*
X48530000Y-86070000D02*
X48530000Y-82170000D01*
X50530000Y-86070000D02*
X48530000Y-86070000D01*
X78865000Y-73323267D02*
X78865000Y-72980733D01*
X79885000Y-73323267D02*
X79885000Y-72980733D01*
X91903733Y-89025000D02*
X92246267Y-89025000D01*
X91903733Y-90045000D02*
X92246267Y-90045000D01*
X78865000Y-83102267D02*
X78865000Y-82759733D01*
X79885000Y-83102267D02*
X79885000Y-82759733D01*
X99104267Y-70614000D02*
X98761733Y-70614000D01*
X99104267Y-69594000D02*
X98761733Y-69594000D01*
X87628000Y-64814267D02*
X87628000Y-64471733D01*
X88648000Y-64814267D02*
X88648000Y-64471733D01*
X99252500Y-74758733D02*
X99252500Y-75101267D01*
X98232500Y-74758733D02*
X98232500Y-75101267D01*
X99252500Y-78568733D02*
X99252500Y-78911267D01*
X98232500Y-78568733D02*
X98232500Y-78911267D01*
D10*
X59938095Y-57502380D02*
X59938095Y-58311904D01*
X59890476Y-58407142D01*
X59842857Y-58454761D01*
X59747619Y-58502380D01*
X59557142Y-58502380D01*
X59461904Y-58454761D01*
X59414285Y-58407142D01*
X59366666Y-58311904D01*
X59366666Y-57502380D01*
X58938095Y-58454761D02*
X58795238Y-58502380D01*
X58557142Y-58502380D01*
X58461904Y-58454761D01*
X58414285Y-58407142D01*
X58366666Y-58311904D01*
X58366666Y-58216666D01*
X58414285Y-58121428D01*
X58461904Y-58073809D01*
X58557142Y-58026190D01*
X58747619Y-57978571D01*
X58842857Y-57930952D01*
X58890476Y-57883333D01*
X58938095Y-57788095D01*
X58938095Y-57692857D01*
X58890476Y-57597619D01*
X58842857Y-57550000D01*
X58747619Y-57502380D01*
X58509523Y-57502380D01*
X58366666Y-57550000D01*
X57604761Y-57978571D02*
X57461904Y-58026190D01*
X57414285Y-58073809D01*
X57366666Y-58169047D01*
X57366666Y-58311904D01*
X57414285Y-58407142D01*
X57461904Y-58454761D01*
X57557142Y-58502380D01*
X57938095Y-58502380D01*
X57938095Y-57502380D01*
X57604761Y-57502380D01*
X57509523Y-57550000D01*
X57461904Y-57597619D01*
X57414285Y-57692857D01*
X57414285Y-57788095D01*
X57461904Y-57883333D01*
X57509523Y-57930952D01*
X57604761Y-57978571D01*
X57938095Y-57978571D01*
X56414285Y-58502380D02*
X56985714Y-58502380D01*
X56700000Y-58502380D02*
X56700000Y-57502380D01*
X56795238Y-57645238D01*
X56890476Y-57740476D01*
X56985714Y-57788095D01*
X66911666Y-61730880D02*
X67245000Y-61254690D01*
X67483095Y-61730880D02*
X67483095Y-60730880D01*
X67102142Y-60730880D01*
X67006904Y-60778500D01*
X66959285Y-60826119D01*
X66911666Y-60921357D01*
X66911666Y-61064214D01*
X66959285Y-61159452D01*
X67006904Y-61207071D01*
X67102142Y-61254690D01*
X67483095Y-61254690D01*
X65959285Y-61730880D02*
X66530714Y-61730880D01*
X66245000Y-61730880D02*
X66245000Y-60730880D01*
X66340238Y-60873738D01*
X66435476Y-60968976D01*
X66530714Y-61016595D01*
X66911666Y-64494780D02*
X67245000Y-64018590D01*
X67483095Y-64494780D02*
X67483095Y-63494780D01*
X67102142Y-63494780D01*
X67006904Y-63542400D01*
X66959285Y-63590019D01*
X66911666Y-63685257D01*
X66911666Y-63828114D01*
X66959285Y-63923352D01*
X67006904Y-63970971D01*
X67102142Y-64018590D01*
X67483095Y-64018590D01*
X66530714Y-63590019D02*
X66483095Y-63542400D01*
X66387857Y-63494780D01*
X66149761Y-63494780D01*
X66054523Y-63542400D01*
X66006904Y-63590019D01*
X65959285Y-63685257D01*
X65959285Y-63780495D01*
X66006904Y-63923352D01*
X66578333Y-64494780D01*
X65959285Y-64494780D01*
X50195666Y-58492380D02*
X50529000Y-58016190D01*
X50767095Y-58492380D02*
X50767095Y-57492380D01*
X50386142Y-57492380D01*
X50290904Y-57540000D01*
X50243285Y-57587619D01*
X50195666Y-57682857D01*
X50195666Y-57825714D01*
X50243285Y-57920952D01*
X50290904Y-57968571D01*
X50386142Y-58016190D01*
X50767095Y-58016190D01*
X49338523Y-57825714D02*
X49338523Y-58492380D01*
X49576619Y-57444761D02*
X49814714Y-58159047D01*
X49195666Y-58159047D01*
X66841666Y-57857380D02*
X67175000Y-57381190D01*
X67413095Y-57857380D02*
X67413095Y-56857380D01*
X67032142Y-56857380D01*
X66936904Y-56905000D01*
X66889285Y-56952619D01*
X66841666Y-57047857D01*
X66841666Y-57190714D01*
X66889285Y-57285952D01*
X66936904Y-57333571D01*
X67032142Y-57381190D01*
X67413095Y-57381190D01*
X66508333Y-56857380D02*
X65889285Y-56857380D01*
X66222619Y-57238333D01*
X66079761Y-57238333D01*
X65984523Y-57285952D01*
X65936904Y-57333571D01*
X65889285Y-57428809D01*
X65889285Y-57666904D01*
X65936904Y-57762142D01*
X65984523Y-57809761D01*
X66079761Y-57857380D01*
X66365476Y-57857380D01*
X66460714Y-57809761D01*
X66508333Y-57762142D01*
X105578690Y-76993809D02*
X106054880Y-76993809D01*
X105054880Y-76660476D02*
X105578690Y-76993809D01*
X105054880Y-77327142D01*
X106054880Y-78184285D02*
X106054880Y-77612857D01*
X106054880Y-77898571D02*
X105054880Y-77898571D01*
X105197738Y-77803333D01*
X105292976Y-77708095D01*
X105340595Y-77612857D01*
X62577180Y-61431904D02*
X61577180Y-61431904D01*
X61577180Y-61670000D01*
X61624800Y-61812857D01*
X61720038Y-61908095D01*
X61815276Y-61955714D01*
X62005752Y-62003333D01*
X62148609Y-62003333D01*
X62339085Y-61955714D01*
X62434323Y-61908095D01*
X62529561Y-61812857D01*
X62577180Y-61670000D01*
X62577180Y-61431904D01*
X61672419Y-62384285D02*
X61624800Y-62431904D01*
X61577180Y-62527142D01*
X61577180Y-62765238D01*
X61624800Y-62860476D01*
X61672419Y-62908095D01*
X61767657Y-62955714D01*
X61862895Y-62955714D01*
X62005752Y-62908095D01*
X62577180Y-62336666D01*
X62577180Y-62955714D01*
X80114980Y-77216095D02*
X80924504Y-77216095D01*
X81019742Y-77263714D01*
X81067361Y-77311333D01*
X81114980Y-77406571D01*
X81114980Y-77597047D01*
X81067361Y-77692285D01*
X81019742Y-77739904D01*
X80924504Y-77787523D01*
X80114980Y-77787523D01*
X81114980Y-78787523D02*
X81114980Y-78216095D01*
X81114980Y-78501809D02*
X80114980Y-78501809D01*
X80257838Y-78406571D01*
X80353076Y-78311333D01*
X80400695Y-78216095D01*
X70483333Y-94540761D02*
X70340476Y-94588380D01*
X70102380Y-94588380D01*
X70007142Y-94540761D01*
X69959523Y-94493142D01*
X69911904Y-94397904D01*
X69911904Y-94302666D01*
X69959523Y-94207428D01*
X70007142Y-94159809D01*
X70102380Y-94112190D01*
X70292857Y-94064571D01*
X70388095Y-94016952D01*
X70435714Y-93969333D01*
X70483333Y-93874095D01*
X70483333Y-93778857D01*
X70435714Y-93683619D01*
X70388095Y-93636000D01*
X70292857Y-93588380D01*
X70054761Y-93588380D01*
X69911904Y-93636000D01*
X69578571Y-93588380D02*
X69340476Y-94588380D01*
X69150000Y-93874095D01*
X68959523Y-94588380D01*
X68721428Y-93588380D01*
X67816666Y-94588380D02*
X68388095Y-94588380D01*
X68102380Y-94588380D02*
X68102380Y-93588380D01*
X68197619Y-93731238D01*
X68292857Y-93826476D01*
X68388095Y-93874095D01*
X116672666Y-65602380D02*
X117006000Y-65126190D01*
X117244095Y-65602380D02*
X117244095Y-64602380D01*
X116863142Y-64602380D01*
X116767904Y-64650000D01*
X116720285Y-64697619D01*
X116672666Y-64792857D01*
X116672666Y-64935714D01*
X116720285Y-65030952D01*
X116767904Y-65078571D01*
X116863142Y-65126190D01*
X117244095Y-65126190D01*
X116339333Y-64602380D02*
X115672666Y-64602380D01*
X116101238Y-65602380D01*
X112109666Y-65602380D02*
X112443000Y-65126190D01*
X112681095Y-65602380D02*
X112681095Y-64602380D01*
X112300142Y-64602380D01*
X112204904Y-64650000D01*
X112157285Y-64697619D01*
X112109666Y-64792857D01*
X112109666Y-64935714D01*
X112157285Y-65030952D01*
X112204904Y-65078571D01*
X112300142Y-65126190D01*
X112681095Y-65126190D01*
X111252523Y-64602380D02*
X111443000Y-64602380D01*
X111538238Y-64650000D01*
X111585857Y-64697619D01*
X111681095Y-64840476D01*
X111728714Y-65030952D01*
X111728714Y-65411904D01*
X111681095Y-65507142D01*
X111633476Y-65554761D01*
X111538238Y-65602380D01*
X111347761Y-65602380D01*
X111252523Y-65554761D01*
X111204904Y-65507142D01*
X111157285Y-65411904D01*
X111157285Y-65173809D01*
X111204904Y-65078571D01*
X111252523Y-65030952D01*
X111347761Y-64983333D01*
X111538238Y-64983333D01*
X111633476Y-65030952D01*
X111681095Y-65078571D01*
X111728714Y-65173809D01*
X82462666Y-91637380D02*
X82796000Y-91161190D01*
X83034095Y-91637380D02*
X83034095Y-90637380D01*
X82653142Y-90637380D01*
X82557904Y-90685000D01*
X82510285Y-90732619D01*
X82462666Y-90827857D01*
X82462666Y-90970714D01*
X82510285Y-91065952D01*
X82557904Y-91113571D01*
X82653142Y-91161190D01*
X83034095Y-91161190D01*
X81557904Y-90637380D02*
X82034095Y-90637380D01*
X82081714Y-91113571D01*
X82034095Y-91065952D01*
X81938857Y-91018333D01*
X81700761Y-91018333D01*
X81605523Y-91065952D01*
X81557904Y-91113571D01*
X81510285Y-91208809D01*
X81510285Y-91446904D01*
X81557904Y-91542142D01*
X81605523Y-91589761D01*
X81700761Y-91637380D01*
X81938857Y-91637380D01*
X82034095Y-91589761D01*
X82081714Y-91542142D01*
X119722380Y-55781666D02*
X120436666Y-55781666D01*
X120579523Y-55734047D01*
X120674761Y-55638809D01*
X120722380Y-55495952D01*
X120722380Y-55400714D01*
X120055714Y-56686428D02*
X120722380Y-56686428D01*
X119674761Y-56448333D02*
X120389047Y-56210238D01*
X120389047Y-56829285D01*
X100722380Y-57011666D02*
X101436666Y-57011666D01*
X101579523Y-56964047D01*
X101674761Y-56868809D01*
X101722380Y-56725952D01*
X101722380Y-56630714D01*
X100817619Y-57440238D02*
X100770000Y-57487857D01*
X100722380Y-57583095D01*
X100722380Y-57821190D01*
X100770000Y-57916428D01*
X100817619Y-57964047D01*
X100912857Y-58011666D01*
X101008095Y-58011666D01*
X101150952Y-57964047D01*
X101722380Y-57392619D01*
X101722380Y-58011666D01*
X51278571Y-75601566D02*
X51278571Y-75268233D01*
X51802380Y-75268233D02*
X50802380Y-75268233D01*
X50802380Y-75744423D01*
X51802380Y-76649185D02*
X51802380Y-76077757D01*
X51802380Y-76363471D02*
X50802380Y-76363471D01*
X50945238Y-76268233D01*
X51040476Y-76172995D01*
X51088095Y-76077757D01*
X51982380Y-83081904D02*
X50982380Y-83081904D01*
X50982380Y-83320000D01*
X51030000Y-83462857D01*
X51125238Y-83558095D01*
X51220476Y-83605714D01*
X51410952Y-83653333D01*
X51553809Y-83653333D01*
X51744285Y-83605714D01*
X51839523Y-83558095D01*
X51934761Y-83462857D01*
X51982380Y-83320000D01*
X51982380Y-83081904D01*
X51982380Y-84605714D02*
X51982380Y-84034285D01*
X51982380Y-84320000D02*
X50982380Y-84320000D01*
X51125238Y-84224761D01*
X51220476Y-84129523D01*
X51268095Y-84034285D01*
X81162142Y-72985333D02*
X81209761Y-72937714D01*
X81257380Y-72794857D01*
X81257380Y-72699619D01*
X81209761Y-72556761D01*
X81114523Y-72461523D01*
X81019285Y-72413904D01*
X80828809Y-72366285D01*
X80685952Y-72366285D01*
X80495476Y-72413904D01*
X80400238Y-72461523D01*
X80305000Y-72556761D01*
X80257380Y-72699619D01*
X80257380Y-72794857D01*
X80305000Y-72937714D01*
X80352619Y-72985333D01*
X80257380Y-73318666D02*
X80257380Y-73985333D01*
X81257380Y-73556761D01*
X92241666Y-91322142D02*
X92289285Y-91369761D01*
X92432142Y-91417380D01*
X92527380Y-91417380D01*
X92670238Y-91369761D01*
X92765476Y-91274523D01*
X92813095Y-91179285D01*
X92860714Y-90988809D01*
X92860714Y-90845952D01*
X92813095Y-90655476D01*
X92765476Y-90560238D01*
X92670238Y-90465000D01*
X92527380Y-90417380D01*
X92432142Y-90417380D01*
X92289285Y-90465000D01*
X92241666Y-90512619D01*
X91384523Y-90417380D02*
X91575000Y-90417380D01*
X91670238Y-90465000D01*
X91717857Y-90512619D01*
X91813095Y-90655476D01*
X91860714Y-90845952D01*
X91860714Y-91226904D01*
X91813095Y-91322142D01*
X91765476Y-91369761D01*
X91670238Y-91417380D01*
X91479761Y-91417380D01*
X91384523Y-91369761D01*
X91336904Y-91322142D01*
X91289285Y-91226904D01*
X91289285Y-90988809D01*
X91336904Y-90893571D01*
X91384523Y-90845952D01*
X91479761Y-90798333D01*
X91670238Y-90798333D01*
X91765476Y-90845952D01*
X91813095Y-90893571D01*
X91860714Y-90988809D01*
X81162142Y-82764333D02*
X81209761Y-82716714D01*
X81257380Y-82573857D01*
X81257380Y-82478619D01*
X81209761Y-82335761D01*
X81114523Y-82240523D01*
X81019285Y-82192904D01*
X80828809Y-82145285D01*
X80685952Y-82145285D01*
X80495476Y-82192904D01*
X80400238Y-82240523D01*
X80305000Y-82335761D01*
X80257380Y-82478619D01*
X80257380Y-82573857D01*
X80305000Y-82716714D01*
X80352619Y-82764333D01*
X80257380Y-83669095D02*
X80257380Y-83192904D01*
X80733571Y-83145285D01*
X80685952Y-83192904D01*
X80638333Y-83288142D01*
X80638333Y-83526238D01*
X80685952Y-83621476D01*
X80733571Y-83669095D01*
X80828809Y-83716714D01*
X81066904Y-83716714D01*
X81162142Y-83669095D01*
X81209761Y-83621476D01*
X81257380Y-83526238D01*
X81257380Y-83288142D01*
X81209761Y-83192904D01*
X81162142Y-83145285D01*
X99099666Y-69031142D02*
X99147285Y-69078761D01*
X99290142Y-69126380D01*
X99385380Y-69126380D01*
X99528238Y-69078761D01*
X99623476Y-68983523D01*
X99671095Y-68888285D01*
X99718714Y-68697809D01*
X99718714Y-68554952D01*
X99671095Y-68364476D01*
X99623476Y-68269238D01*
X99528238Y-68174000D01*
X99385380Y-68126380D01*
X99290142Y-68126380D01*
X99147285Y-68174000D01*
X99099666Y-68221619D01*
X98242523Y-68459714D02*
X98242523Y-69126380D01*
X98480619Y-68078761D02*
X98718714Y-68793047D01*
X98099666Y-68793047D01*
X89925142Y-64476333D02*
X89972761Y-64428714D01*
X90020380Y-64285857D01*
X90020380Y-64190619D01*
X89972761Y-64047761D01*
X89877523Y-63952523D01*
X89782285Y-63904904D01*
X89591809Y-63857285D01*
X89448952Y-63857285D01*
X89258476Y-63904904D01*
X89163238Y-63952523D01*
X89068000Y-64047761D01*
X89020380Y-64190619D01*
X89020380Y-64285857D01*
X89068000Y-64428714D01*
X89115619Y-64476333D01*
X89020380Y-64809666D02*
X89020380Y-65428714D01*
X89401333Y-65095380D01*
X89401333Y-65238238D01*
X89448952Y-65333476D01*
X89496571Y-65381095D01*
X89591809Y-65428714D01*
X89829904Y-65428714D01*
X89925142Y-65381095D01*
X89972761Y-65333476D01*
X90020380Y-65238238D01*
X90020380Y-64952523D01*
X89972761Y-64857285D01*
X89925142Y-64809666D01*
X97669642Y-74763333D02*
X97717261Y-74715714D01*
X97764880Y-74572857D01*
X97764880Y-74477619D01*
X97717261Y-74334761D01*
X97622023Y-74239523D01*
X97526785Y-74191904D01*
X97336309Y-74144285D01*
X97193452Y-74144285D01*
X97002976Y-74191904D01*
X96907738Y-74239523D01*
X96812500Y-74334761D01*
X96764880Y-74477619D01*
X96764880Y-74572857D01*
X96812500Y-74715714D01*
X96860119Y-74763333D01*
X96860119Y-75144285D02*
X96812500Y-75191904D01*
X96764880Y-75287142D01*
X96764880Y-75525238D01*
X96812500Y-75620476D01*
X96860119Y-75668095D01*
X96955357Y-75715714D01*
X97050595Y-75715714D01*
X97193452Y-75668095D01*
X97764880Y-75096666D01*
X97764880Y-75715714D01*
X97669642Y-78573333D02*
X97717261Y-78525714D01*
X97764880Y-78382857D01*
X97764880Y-78287619D01*
X97717261Y-78144761D01*
X97622023Y-78049523D01*
X97526785Y-78001904D01*
X97336309Y-77954285D01*
X97193452Y-77954285D01*
X97002976Y-78001904D01*
X96907738Y-78049523D01*
X96812500Y-78144761D01*
X96764880Y-78287619D01*
X96764880Y-78382857D01*
X96812500Y-78525714D01*
X96860119Y-78573333D01*
X97764880Y-79525714D02*
X97764880Y-78954285D01*
X97764880Y-79240000D02*
X96764880Y-79240000D01*
X96907738Y-79144761D01*
X97002976Y-79049523D01*
X97050595Y-78954285D01*
M02*
