G04 #@! TF.GenerationSoftware,KiCad,Pcbnew,(5.1.0)-1*
G04 #@! TF.CreationDate,2019-07-26T12:40:46+09:00*
G04 #@! TF.ProjectId,ChocIn60,43686f63-496e-4363-902e-6b696361645f,rev?*
G04 #@! TF.SameCoordinates,Original*
G04 #@! TF.FileFunction,Soldermask,Bot*
G04 #@! TF.FilePolarity,Negative*
%FSLAX46Y46*%
G04 Gerber Fmt 4.6, Leading zero omitted, Abs format (unit mm)*
G04 Created by KiCad (PCBNEW (5.1.0)-1) date 2019-07-26 12:40:46*
%MOMM*%
%LPD*%
G04 APERTURE LIST*
%ADD10C,0.100000*%
G04 APERTURE END LIST*
D10*
G36*
X109330443Y-112135519D02*
G01*
X109396627Y-112142037D01*
X109566466Y-112193557D01*
X109722991Y-112277222D01*
X109758729Y-112306552D01*
X109860186Y-112389814D01*
X109943448Y-112491271D01*
X109972778Y-112527009D01*
X110056443Y-112683534D01*
X110107963Y-112853373D01*
X110125359Y-113030000D01*
X110107963Y-113206627D01*
X110056443Y-113376466D01*
X109972778Y-113532991D01*
X109943448Y-113568729D01*
X109860186Y-113670186D01*
X109758729Y-113753448D01*
X109722991Y-113782778D01*
X109566466Y-113866443D01*
X109396627Y-113917963D01*
X109330443Y-113924481D01*
X109264260Y-113931000D01*
X109175740Y-113931000D01*
X109109557Y-113924481D01*
X109043373Y-113917963D01*
X108873534Y-113866443D01*
X108717009Y-113782778D01*
X108681271Y-113753448D01*
X108579814Y-113670186D01*
X108496552Y-113568729D01*
X108467222Y-113532991D01*
X108383557Y-113376466D01*
X108332037Y-113206627D01*
X108314641Y-113030000D01*
X108332037Y-112853373D01*
X108383557Y-112683534D01*
X108467222Y-112527009D01*
X108496552Y-112491271D01*
X108579814Y-112389814D01*
X108681271Y-112306552D01*
X108717009Y-112277222D01*
X108873534Y-112193557D01*
X109043373Y-112142037D01*
X109109557Y-112135519D01*
X109175740Y-112129000D01*
X109264260Y-112129000D01*
X109330443Y-112135519D01*
X109330443Y-112135519D01*
G37*
G36*
X111870443Y-112135519D02*
G01*
X111936627Y-112142037D01*
X112106466Y-112193557D01*
X112262991Y-112277222D01*
X112298729Y-112306552D01*
X112400186Y-112389814D01*
X112483448Y-112491271D01*
X112512778Y-112527009D01*
X112596443Y-112683534D01*
X112647963Y-112853373D01*
X112665359Y-113030000D01*
X112647963Y-113206627D01*
X112596443Y-113376466D01*
X112512778Y-113532991D01*
X112483448Y-113568729D01*
X112400186Y-113670186D01*
X112298729Y-113753448D01*
X112262991Y-113782778D01*
X112106466Y-113866443D01*
X111936627Y-113917963D01*
X111870443Y-113924481D01*
X111804260Y-113931000D01*
X111715740Y-113931000D01*
X111649557Y-113924481D01*
X111583373Y-113917963D01*
X111413534Y-113866443D01*
X111257009Y-113782778D01*
X111221271Y-113753448D01*
X111119814Y-113670186D01*
X111036552Y-113568729D01*
X111007222Y-113532991D01*
X110923557Y-113376466D01*
X110872037Y-113206627D01*
X110854641Y-113030000D01*
X110872037Y-112853373D01*
X110923557Y-112683534D01*
X111007222Y-112527009D01*
X111036552Y-112491271D01*
X111119814Y-112389814D01*
X111221271Y-112306552D01*
X111257009Y-112277222D01*
X111413534Y-112193557D01*
X111583373Y-112142037D01*
X111649557Y-112135519D01*
X111715740Y-112129000D01*
X111804260Y-112129000D01*
X111870443Y-112135519D01*
X111870443Y-112135519D01*
G37*
G36*
X76310443Y-112135519D02*
G01*
X76376627Y-112142037D01*
X76546466Y-112193557D01*
X76702991Y-112277222D01*
X76738729Y-112306552D01*
X76840186Y-112389814D01*
X76923448Y-112491271D01*
X76952778Y-112527009D01*
X77036443Y-112683534D01*
X77087963Y-112853373D01*
X77105359Y-113030000D01*
X77087963Y-113206627D01*
X77036443Y-113376466D01*
X76952778Y-113532991D01*
X76923448Y-113568729D01*
X76840186Y-113670186D01*
X76738729Y-113753448D01*
X76702991Y-113782778D01*
X76546466Y-113866443D01*
X76376627Y-113917963D01*
X76310443Y-113924481D01*
X76244260Y-113931000D01*
X76155740Y-113931000D01*
X76089557Y-113924481D01*
X76023373Y-113917963D01*
X75853534Y-113866443D01*
X75697009Y-113782778D01*
X75661271Y-113753448D01*
X75559814Y-113670186D01*
X75476552Y-113568729D01*
X75447222Y-113532991D01*
X75363557Y-113376466D01*
X75312037Y-113206627D01*
X75294641Y-113030000D01*
X75312037Y-112853373D01*
X75363557Y-112683534D01*
X75447222Y-112527009D01*
X75476552Y-112491271D01*
X75559814Y-112389814D01*
X75661271Y-112306552D01*
X75697009Y-112277222D01*
X75853534Y-112193557D01*
X76023373Y-112142037D01*
X76089557Y-112135519D01*
X76155740Y-112129000D01*
X76244260Y-112129000D01*
X76310443Y-112135519D01*
X76310443Y-112135519D01*
G37*
G36*
X78850443Y-112135519D02*
G01*
X78916627Y-112142037D01*
X79086466Y-112193557D01*
X79242991Y-112277222D01*
X79278729Y-112306552D01*
X79380186Y-112389814D01*
X79463448Y-112491271D01*
X79492778Y-112527009D01*
X79576443Y-112683534D01*
X79627963Y-112853373D01*
X79645359Y-113030000D01*
X79627963Y-113206627D01*
X79576443Y-113376466D01*
X79492778Y-113532991D01*
X79463448Y-113568729D01*
X79380186Y-113670186D01*
X79278729Y-113753448D01*
X79242991Y-113782778D01*
X79086466Y-113866443D01*
X78916627Y-113917963D01*
X78850443Y-113924481D01*
X78784260Y-113931000D01*
X78695740Y-113931000D01*
X78629557Y-113924481D01*
X78563373Y-113917963D01*
X78393534Y-113866443D01*
X78237009Y-113782778D01*
X78201271Y-113753448D01*
X78099814Y-113670186D01*
X78016552Y-113568729D01*
X77987222Y-113532991D01*
X77903557Y-113376466D01*
X77852037Y-113206627D01*
X77834641Y-113030000D01*
X77852037Y-112853373D01*
X77903557Y-112683534D01*
X77987222Y-112527009D01*
X78016552Y-112491271D01*
X78099814Y-112389814D01*
X78201271Y-112306552D01*
X78237009Y-112277222D01*
X78393534Y-112193557D01*
X78563373Y-112142037D01*
X78629557Y-112135519D01*
X78695740Y-112129000D01*
X78784260Y-112129000D01*
X78850443Y-112135519D01*
X78850443Y-112135519D01*
G37*
G36*
X81390443Y-112135519D02*
G01*
X81456627Y-112142037D01*
X81626466Y-112193557D01*
X81782991Y-112277222D01*
X81818729Y-112306552D01*
X81920186Y-112389814D01*
X82003448Y-112491271D01*
X82032778Y-112527009D01*
X82116443Y-112683534D01*
X82167963Y-112853373D01*
X82185359Y-113030000D01*
X82167963Y-113206627D01*
X82116443Y-113376466D01*
X82032778Y-113532991D01*
X82003448Y-113568729D01*
X81920186Y-113670186D01*
X81818729Y-113753448D01*
X81782991Y-113782778D01*
X81626466Y-113866443D01*
X81456627Y-113917963D01*
X81390443Y-113924481D01*
X81324260Y-113931000D01*
X81235740Y-113931000D01*
X81169557Y-113924481D01*
X81103373Y-113917963D01*
X80933534Y-113866443D01*
X80777009Y-113782778D01*
X80741271Y-113753448D01*
X80639814Y-113670186D01*
X80556552Y-113568729D01*
X80527222Y-113532991D01*
X80443557Y-113376466D01*
X80392037Y-113206627D01*
X80374641Y-113030000D01*
X80392037Y-112853373D01*
X80443557Y-112683534D01*
X80527222Y-112527009D01*
X80556552Y-112491271D01*
X80639814Y-112389814D01*
X80741271Y-112306552D01*
X80777009Y-112277222D01*
X80933534Y-112193557D01*
X81103373Y-112142037D01*
X81169557Y-112135519D01*
X81235740Y-112129000D01*
X81324260Y-112129000D01*
X81390443Y-112135519D01*
X81390443Y-112135519D01*
G37*
G36*
X83930443Y-112135519D02*
G01*
X83996627Y-112142037D01*
X84166466Y-112193557D01*
X84322991Y-112277222D01*
X84358729Y-112306552D01*
X84460186Y-112389814D01*
X84543448Y-112491271D01*
X84572778Y-112527009D01*
X84656443Y-112683534D01*
X84707963Y-112853373D01*
X84725359Y-113030000D01*
X84707963Y-113206627D01*
X84656443Y-113376466D01*
X84572778Y-113532991D01*
X84543448Y-113568729D01*
X84460186Y-113670186D01*
X84358729Y-113753448D01*
X84322991Y-113782778D01*
X84166466Y-113866443D01*
X83996627Y-113917963D01*
X83930443Y-113924481D01*
X83864260Y-113931000D01*
X83775740Y-113931000D01*
X83709557Y-113924481D01*
X83643373Y-113917963D01*
X83473534Y-113866443D01*
X83317009Y-113782778D01*
X83281271Y-113753448D01*
X83179814Y-113670186D01*
X83096552Y-113568729D01*
X83067222Y-113532991D01*
X82983557Y-113376466D01*
X82932037Y-113206627D01*
X82914641Y-113030000D01*
X82932037Y-112853373D01*
X82983557Y-112683534D01*
X83067222Y-112527009D01*
X83096552Y-112491271D01*
X83179814Y-112389814D01*
X83281271Y-112306552D01*
X83317009Y-112277222D01*
X83473534Y-112193557D01*
X83643373Y-112142037D01*
X83709557Y-112135519D01*
X83775740Y-112129000D01*
X83864260Y-112129000D01*
X83930443Y-112135519D01*
X83930443Y-112135519D01*
G37*
G36*
X86470443Y-112135519D02*
G01*
X86536627Y-112142037D01*
X86706466Y-112193557D01*
X86862991Y-112277222D01*
X86898729Y-112306552D01*
X87000186Y-112389814D01*
X87083448Y-112491271D01*
X87112778Y-112527009D01*
X87196443Y-112683534D01*
X87247963Y-112853373D01*
X87265359Y-113030000D01*
X87247963Y-113206627D01*
X87196443Y-113376466D01*
X87112778Y-113532991D01*
X87083448Y-113568729D01*
X87000186Y-113670186D01*
X86898729Y-113753448D01*
X86862991Y-113782778D01*
X86706466Y-113866443D01*
X86536627Y-113917963D01*
X86470443Y-113924481D01*
X86404260Y-113931000D01*
X86315740Y-113931000D01*
X86249557Y-113924481D01*
X86183373Y-113917963D01*
X86013534Y-113866443D01*
X85857009Y-113782778D01*
X85821271Y-113753448D01*
X85719814Y-113670186D01*
X85636552Y-113568729D01*
X85607222Y-113532991D01*
X85523557Y-113376466D01*
X85472037Y-113206627D01*
X85454641Y-113030000D01*
X85472037Y-112853373D01*
X85523557Y-112683534D01*
X85607222Y-112527009D01*
X85636552Y-112491271D01*
X85719814Y-112389814D01*
X85821271Y-112306552D01*
X85857009Y-112277222D01*
X86013534Y-112193557D01*
X86183373Y-112142037D01*
X86249557Y-112135519D01*
X86315740Y-112129000D01*
X86404260Y-112129000D01*
X86470443Y-112135519D01*
X86470443Y-112135519D01*
G37*
G36*
X89010443Y-112135519D02*
G01*
X89076627Y-112142037D01*
X89246466Y-112193557D01*
X89402991Y-112277222D01*
X89438729Y-112306552D01*
X89540186Y-112389814D01*
X89623448Y-112491271D01*
X89652778Y-112527009D01*
X89736443Y-112683534D01*
X89787963Y-112853373D01*
X89805359Y-113030000D01*
X89787963Y-113206627D01*
X89736443Y-113376466D01*
X89652778Y-113532991D01*
X89623448Y-113568729D01*
X89540186Y-113670186D01*
X89438729Y-113753448D01*
X89402991Y-113782778D01*
X89246466Y-113866443D01*
X89076627Y-113917963D01*
X89010443Y-113924481D01*
X88944260Y-113931000D01*
X88855740Y-113931000D01*
X88789557Y-113924481D01*
X88723373Y-113917963D01*
X88553534Y-113866443D01*
X88397009Y-113782778D01*
X88361271Y-113753448D01*
X88259814Y-113670186D01*
X88176552Y-113568729D01*
X88147222Y-113532991D01*
X88063557Y-113376466D01*
X88012037Y-113206627D01*
X87994641Y-113030000D01*
X88012037Y-112853373D01*
X88063557Y-112683534D01*
X88147222Y-112527009D01*
X88176552Y-112491271D01*
X88259814Y-112389814D01*
X88361271Y-112306552D01*
X88397009Y-112277222D01*
X88553534Y-112193557D01*
X88723373Y-112142037D01*
X88789557Y-112135519D01*
X88855740Y-112129000D01*
X88944260Y-112129000D01*
X89010443Y-112135519D01*
X89010443Y-112135519D01*
G37*
G36*
X94090443Y-112135519D02*
G01*
X94156627Y-112142037D01*
X94326466Y-112193557D01*
X94482991Y-112277222D01*
X94518729Y-112306552D01*
X94620186Y-112389814D01*
X94703448Y-112491271D01*
X94732778Y-112527009D01*
X94816443Y-112683534D01*
X94867963Y-112853373D01*
X94885359Y-113030000D01*
X94867963Y-113206627D01*
X94816443Y-113376466D01*
X94732778Y-113532991D01*
X94703448Y-113568729D01*
X94620186Y-113670186D01*
X94518729Y-113753448D01*
X94482991Y-113782778D01*
X94326466Y-113866443D01*
X94156627Y-113917963D01*
X94090443Y-113924481D01*
X94024260Y-113931000D01*
X93935740Y-113931000D01*
X93869557Y-113924481D01*
X93803373Y-113917963D01*
X93633534Y-113866443D01*
X93477009Y-113782778D01*
X93441271Y-113753448D01*
X93339814Y-113670186D01*
X93256552Y-113568729D01*
X93227222Y-113532991D01*
X93143557Y-113376466D01*
X93092037Y-113206627D01*
X93074641Y-113030000D01*
X93092037Y-112853373D01*
X93143557Y-112683534D01*
X93227222Y-112527009D01*
X93256552Y-112491271D01*
X93339814Y-112389814D01*
X93441271Y-112306552D01*
X93477009Y-112277222D01*
X93633534Y-112193557D01*
X93803373Y-112142037D01*
X93869557Y-112135519D01*
X93935740Y-112129000D01*
X94024260Y-112129000D01*
X94090443Y-112135519D01*
X94090443Y-112135519D01*
G37*
G36*
X96630443Y-112135519D02*
G01*
X96696627Y-112142037D01*
X96866466Y-112193557D01*
X97022991Y-112277222D01*
X97058729Y-112306552D01*
X97160186Y-112389814D01*
X97243448Y-112491271D01*
X97272778Y-112527009D01*
X97356443Y-112683534D01*
X97407963Y-112853373D01*
X97425359Y-113030000D01*
X97407963Y-113206627D01*
X97356443Y-113376466D01*
X97272778Y-113532991D01*
X97243448Y-113568729D01*
X97160186Y-113670186D01*
X97058729Y-113753448D01*
X97022991Y-113782778D01*
X96866466Y-113866443D01*
X96696627Y-113917963D01*
X96630443Y-113924481D01*
X96564260Y-113931000D01*
X96475740Y-113931000D01*
X96409557Y-113924481D01*
X96343373Y-113917963D01*
X96173534Y-113866443D01*
X96017009Y-113782778D01*
X95981271Y-113753448D01*
X95879814Y-113670186D01*
X95796552Y-113568729D01*
X95767222Y-113532991D01*
X95683557Y-113376466D01*
X95632037Y-113206627D01*
X95614641Y-113030000D01*
X95632037Y-112853373D01*
X95683557Y-112683534D01*
X95767222Y-112527009D01*
X95796552Y-112491271D01*
X95879814Y-112389814D01*
X95981271Y-112306552D01*
X96017009Y-112277222D01*
X96173534Y-112193557D01*
X96343373Y-112142037D01*
X96409557Y-112135519D01*
X96475740Y-112129000D01*
X96564260Y-112129000D01*
X96630443Y-112135519D01*
X96630443Y-112135519D01*
G37*
G36*
X99170443Y-112135519D02*
G01*
X99236627Y-112142037D01*
X99406466Y-112193557D01*
X99562991Y-112277222D01*
X99598729Y-112306552D01*
X99700186Y-112389814D01*
X99783448Y-112491271D01*
X99812778Y-112527009D01*
X99896443Y-112683534D01*
X99947963Y-112853373D01*
X99965359Y-113030000D01*
X99947963Y-113206627D01*
X99896443Y-113376466D01*
X99812778Y-113532991D01*
X99783448Y-113568729D01*
X99700186Y-113670186D01*
X99598729Y-113753448D01*
X99562991Y-113782778D01*
X99406466Y-113866443D01*
X99236627Y-113917963D01*
X99170443Y-113924481D01*
X99104260Y-113931000D01*
X99015740Y-113931000D01*
X98949557Y-113924481D01*
X98883373Y-113917963D01*
X98713534Y-113866443D01*
X98557009Y-113782778D01*
X98521271Y-113753448D01*
X98419814Y-113670186D01*
X98336552Y-113568729D01*
X98307222Y-113532991D01*
X98223557Y-113376466D01*
X98172037Y-113206627D01*
X98154641Y-113030000D01*
X98172037Y-112853373D01*
X98223557Y-112683534D01*
X98307222Y-112527009D01*
X98336552Y-112491271D01*
X98419814Y-112389814D01*
X98521271Y-112306552D01*
X98557009Y-112277222D01*
X98713534Y-112193557D01*
X98883373Y-112142037D01*
X98949557Y-112135519D01*
X99015740Y-112129000D01*
X99104260Y-112129000D01*
X99170443Y-112135519D01*
X99170443Y-112135519D01*
G37*
G36*
X101710443Y-112135519D02*
G01*
X101776627Y-112142037D01*
X101946466Y-112193557D01*
X102102991Y-112277222D01*
X102138729Y-112306552D01*
X102240186Y-112389814D01*
X102323448Y-112491271D01*
X102352778Y-112527009D01*
X102436443Y-112683534D01*
X102487963Y-112853373D01*
X102505359Y-113030000D01*
X102487963Y-113206627D01*
X102436443Y-113376466D01*
X102352778Y-113532991D01*
X102323448Y-113568729D01*
X102240186Y-113670186D01*
X102138729Y-113753448D01*
X102102991Y-113782778D01*
X101946466Y-113866443D01*
X101776627Y-113917963D01*
X101710443Y-113924481D01*
X101644260Y-113931000D01*
X101555740Y-113931000D01*
X101489557Y-113924481D01*
X101423373Y-113917963D01*
X101253534Y-113866443D01*
X101097009Y-113782778D01*
X101061271Y-113753448D01*
X100959814Y-113670186D01*
X100876552Y-113568729D01*
X100847222Y-113532991D01*
X100763557Y-113376466D01*
X100712037Y-113206627D01*
X100694641Y-113030000D01*
X100712037Y-112853373D01*
X100763557Y-112683534D01*
X100847222Y-112527009D01*
X100876552Y-112491271D01*
X100959814Y-112389814D01*
X101061271Y-112306552D01*
X101097009Y-112277222D01*
X101253534Y-112193557D01*
X101423373Y-112142037D01*
X101489557Y-112135519D01*
X101555740Y-112129000D01*
X101644260Y-112129000D01*
X101710443Y-112135519D01*
X101710443Y-112135519D01*
G37*
G36*
X104250443Y-112135519D02*
G01*
X104316627Y-112142037D01*
X104486466Y-112193557D01*
X104642991Y-112277222D01*
X104678729Y-112306552D01*
X104780186Y-112389814D01*
X104863448Y-112491271D01*
X104892778Y-112527009D01*
X104976443Y-112683534D01*
X105027963Y-112853373D01*
X105045359Y-113030000D01*
X105027963Y-113206627D01*
X104976443Y-113376466D01*
X104892778Y-113532991D01*
X104863448Y-113568729D01*
X104780186Y-113670186D01*
X104678729Y-113753448D01*
X104642991Y-113782778D01*
X104486466Y-113866443D01*
X104316627Y-113917963D01*
X104250443Y-113924481D01*
X104184260Y-113931000D01*
X104095740Y-113931000D01*
X104029557Y-113924481D01*
X103963373Y-113917963D01*
X103793534Y-113866443D01*
X103637009Y-113782778D01*
X103601271Y-113753448D01*
X103499814Y-113670186D01*
X103416552Y-113568729D01*
X103387222Y-113532991D01*
X103303557Y-113376466D01*
X103252037Y-113206627D01*
X103234641Y-113030000D01*
X103252037Y-112853373D01*
X103303557Y-112683534D01*
X103387222Y-112527009D01*
X103416552Y-112491271D01*
X103499814Y-112389814D01*
X103601271Y-112306552D01*
X103637009Y-112277222D01*
X103793534Y-112193557D01*
X103963373Y-112142037D01*
X104029557Y-112135519D01*
X104095740Y-112129000D01*
X104184260Y-112129000D01*
X104250443Y-112135519D01*
X104250443Y-112135519D01*
G37*
G36*
X106790443Y-112135519D02*
G01*
X106856627Y-112142037D01*
X107026466Y-112193557D01*
X107182991Y-112277222D01*
X107218729Y-112306552D01*
X107320186Y-112389814D01*
X107403448Y-112491271D01*
X107432778Y-112527009D01*
X107516443Y-112683534D01*
X107567963Y-112853373D01*
X107585359Y-113030000D01*
X107567963Y-113206627D01*
X107516443Y-113376466D01*
X107432778Y-113532991D01*
X107403448Y-113568729D01*
X107320186Y-113670186D01*
X107218729Y-113753448D01*
X107182991Y-113782778D01*
X107026466Y-113866443D01*
X106856627Y-113917963D01*
X106790443Y-113924481D01*
X106724260Y-113931000D01*
X106635740Y-113931000D01*
X106569557Y-113924481D01*
X106503373Y-113917963D01*
X106333534Y-113866443D01*
X106177009Y-113782778D01*
X106141271Y-113753448D01*
X106039814Y-113670186D01*
X105956552Y-113568729D01*
X105927222Y-113532991D01*
X105843557Y-113376466D01*
X105792037Y-113206627D01*
X105774641Y-113030000D01*
X105792037Y-112853373D01*
X105843557Y-112683534D01*
X105927222Y-112527009D01*
X105956552Y-112491271D01*
X106039814Y-112389814D01*
X106141271Y-112306552D01*
X106177009Y-112277222D01*
X106333534Y-112193557D01*
X106503373Y-112142037D01*
X106569557Y-112135519D01*
X106635740Y-112129000D01*
X106724260Y-112129000D01*
X106790443Y-112135519D01*
X106790443Y-112135519D01*
G37*
G36*
X91550443Y-112135519D02*
G01*
X91616627Y-112142037D01*
X91786466Y-112193557D01*
X91942991Y-112277222D01*
X91978729Y-112306552D01*
X92080186Y-112389814D01*
X92163448Y-112491271D01*
X92192778Y-112527009D01*
X92276443Y-112683534D01*
X92327963Y-112853373D01*
X92345359Y-113030000D01*
X92327963Y-113206627D01*
X92276443Y-113376466D01*
X92192778Y-113532991D01*
X92163448Y-113568729D01*
X92080186Y-113670186D01*
X91978729Y-113753448D01*
X91942991Y-113782778D01*
X91786466Y-113866443D01*
X91616627Y-113917963D01*
X91550443Y-113924481D01*
X91484260Y-113931000D01*
X91395740Y-113931000D01*
X91329557Y-113924481D01*
X91263373Y-113917963D01*
X91093534Y-113866443D01*
X90937009Y-113782778D01*
X90901271Y-113753448D01*
X90799814Y-113670186D01*
X90716552Y-113568729D01*
X90687222Y-113532991D01*
X90603557Y-113376466D01*
X90552037Y-113206627D01*
X90534641Y-113030000D01*
X90552037Y-112853373D01*
X90603557Y-112683534D01*
X90687222Y-112527009D01*
X90716552Y-112491271D01*
X90799814Y-112389814D01*
X90901271Y-112306552D01*
X90937009Y-112277222D01*
X91093534Y-112193557D01*
X91263373Y-112142037D01*
X91329557Y-112135519D01*
X91395740Y-112129000D01*
X91484260Y-112129000D01*
X91550443Y-112135519D01*
X91550443Y-112135519D01*
G37*
G36*
X81390442Y-109595518D02*
G01*
X81456627Y-109602037D01*
X81626466Y-109653557D01*
X81782991Y-109737222D01*
X81818729Y-109766552D01*
X81920186Y-109849814D01*
X82003448Y-109951271D01*
X82032778Y-109987009D01*
X82116443Y-110143534D01*
X82167963Y-110313373D01*
X82185359Y-110490000D01*
X82167963Y-110666627D01*
X82116443Y-110836466D01*
X82032778Y-110992991D01*
X82003448Y-111028729D01*
X81920186Y-111130186D01*
X81818729Y-111213448D01*
X81782991Y-111242778D01*
X81626466Y-111326443D01*
X81456627Y-111377963D01*
X81390443Y-111384481D01*
X81324260Y-111391000D01*
X81235740Y-111391000D01*
X81169557Y-111384481D01*
X81103373Y-111377963D01*
X80933534Y-111326443D01*
X80777009Y-111242778D01*
X80741271Y-111213448D01*
X80639814Y-111130186D01*
X80556552Y-111028729D01*
X80527222Y-110992991D01*
X80443557Y-110836466D01*
X80392037Y-110666627D01*
X80374641Y-110490000D01*
X80392037Y-110313373D01*
X80443557Y-110143534D01*
X80527222Y-109987009D01*
X80556552Y-109951271D01*
X80639814Y-109849814D01*
X80741271Y-109766552D01*
X80777009Y-109737222D01*
X80933534Y-109653557D01*
X81103373Y-109602037D01*
X81169558Y-109595518D01*
X81235740Y-109589000D01*
X81324260Y-109589000D01*
X81390442Y-109595518D01*
X81390442Y-109595518D01*
G37*
G36*
X77101000Y-111391000D02*
G01*
X75299000Y-111391000D01*
X75299000Y-109589000D01*
X77101000Y-109589000D01*
X77101000Y-111391000D01*
X77101000Y-111391000D01*
G37*
G36*
X78850442Y-109595518D02*
G01*
X78916627Y-109602037D01*
X79086466Y-109653557D01*
X79242991Y-109737222D01*
X79278729Y-109766552D01*
X79380186Y-109849814D01*
X79463448Y-109951271D01*
X79492778Y-109987009D01*
X79576443Y-110143534D01*
X79627963Y-110313373D01*
X79645359Y-110490000D01*
X79627963Y-110666627D01*
X79576443Y-110836466D01*
X79492778Y-110992991D01*
X79463448Y-111028729D01*
X79380186Y-111130186D01*
X79278729Y-111213448D01*
X79242991Y-111242778D01*
X79086466Y-111326443D01*
X78916627Y-111377963D01*
X78850443Y-111384481D01*
X78784260Y-111391000D01*
X78695740Y-111391000D01*
X78629557Y-111384481D01*
X78563373Y-111377963D01*
X78393534Y-111326443D01*
X78237009Y-111242778D01*
X78201271Y-111213448D01*
X78099814Y-111130186D01*
X78016552Y-111028729D01*
X77987222Y-110992991D01*
X77903557Y-110836466D01*
X77852037Y-110666627D01*
X77834641Y-110490000D01*
X77852037Y-110313373D01*
X77903557Y-110143534D01*
X77987222Y-109987009D01*
X78016552Y-109951271D01*
X78099814Y-109849814D01*
X78201271Y-109766552D01*
X78237009Y-109737222D01*
X78393534Y-109653557D01*
X78563373Y-109602037D01*
X78629558Y-109595518D01*
X78695740Y-109589000D01*
X78784260Y-109589000D01*
X78850442Y-109595518D01*
X78850442Y-109595518D01*
G37*
G36*
X83930442Y-109595518D02*
G01*
X83996627Y-109602037D01*
X84166466Y-109653557D01*
X84322991Y-109737222D01*
X84358729Y-109766552D01*
X84460186Y-109849814D01*
X84543448Y-109951271D01*
X84572778Y-109987009D01*
X84656443Y-110143534D01*
X84707963Y-110313373D01*
X84725359Y-110490000D01*
X84707963Y-110666627D01*
X84656443Y-110836466D01*
X84572778Y-110992991D01*
X84543448Y-111028729D01*
X84460186Y-111130186D01*
X84358729Y-111213448D01*
X84322991Y-111242778D01*
X84166466Y-111326443D01*
X83996627Y-111377963D01*
X83930443Y-111384481D01*
X83864260Y-111391000D01*
X83775740Y-111391000D01*
X83709557Y-111384481D01*
X83643373Y-111377963D01*
X83473534Y-111326443D01*
X83317009Y-111242778D01*
X83281271Y-111213448D01*
X83179814Y-111130186D01*
X83096552Y-111028729D01*
X83067222Y-110992991D01*
X82983557Y-110836466D01*
X82932037Y-110666627D01*
X82914641Y-110490000D01*
X82932037Y-110313373D01*
X82983557Y-110143534D01*
X83067222Y-109987009D01*
X83096552Y-109951271D01*
X83179814Y-109849814D01*
X83281271Y-109766552D01*
X83317009Y-109737222D01*
X83473534Y-109653557D01*
X83643373Y-109602037D01*
X83709558Y-109595518D01*
X83775740Y-109589000D01*
X83864260Y-109589000D01*
X83930442Y-109595518D01*
X83930442Y-109595518D01*
G37*
G36*
X86470442Y-109595518D02*
G01*
X86536627Y-109602037D01*
X86706466Y-109653557D01*
X86862991Y-109737222D01*
X86898729Y-109766552D01*
X87000186Y-109849814D01*
X87083448Y-109951271D01*
X87112778Y-109987009D01*
X87196443Y-110143534D01*
X87247963Y-110313373D01*
X87265359Y-110490000D01*
X87247963Y-110666627D01*
X87196443Y-110836466D01*
X87112778Y-110992991D01*
X87083448Y-111028729D01*
X87000186Y-111130186D01*
X86898729Y-111213448D01*
X86862991Y-111242778D01*
X86706466Y-111326443D01*
X86536627Y-111377963D01*
X86470443Y-111384481D01*
X86404260Y-111391000D01*
X86315740Y-111391000D01*
X86249557Y-111384481D01*
X86183373Y-111377963D01*
X86013534Y-111326443D01*
X85857009Y-111242778D01*
X85821271Y-111213448D01*
X85719814Y-111130186D01*
X85636552Y-111028729D01*
X85607222Y-110992991D01*
X85523557Y-110836466D01*
X85472037Y-110666627D01*
X85454641Y-110490000D01*
X85472037Y-110313373D01*
X85523557Y-110143534D01*
X85607222Y-109987009D01*
X85636552Y-109951271D01*
X85719814Y-109849814D01*
X85821271Y-109766552D01*
X85857009Y-109737222D01*
X86013534Y-109653557D01*
X86183373Y-109602037D01*
X86249558Y-109595518D01*
X86315740Y-109589000D01*
X86404260Y-109589000D01*
X86470442Y-109595518D01*
X86470442Y-109595518D01*
G37*
G36*
X89010442Y-109595518D02*
G01*
X89076627Y-109602037D01*
X89246466Y-109653557D01*
X89402991Y-109737222D01*
X89438729Y-109766552D01*
X89540186Y-109849814D01*
X89623448Y-109951271D01*
X89652778Y-109987009D01*
X89736443Y-110143534D01*
X89787963Y-110313373D01*
X89805359Y-110490000D01*
X89787963Y-110666627D01*
X89736443Y-110836466D01*
X89652778Y-110992991D01*
X89623448Y-111028729D01*
X89540186Y-111130186D01*
X89438729Y-111213448D01*
X89402991Y-111242778D01*
X89246466Y-111326443D01*
X89076627Y-111377963D01*
X89010443Y-111384481D01*
X88944260Y-111391000D01*
X88855740Y-111391000D01*
X88789557Y-111384481D01*
X88723373Y-111377963D01*
X88553534Y-111326443D01*
X88397009Y-111242778D01*
X88361271Y-111213448D01*
X88259814Y-111130186D01*
X88176552Y-111028729D01*
X88147222Y-110992991D01*
X88063557Y-110836466D01*
X88012037Y-110666627D01*
X87994641Y-110490000D01*
X88012037Y-110313373D01*
X88063557Y-110143534D01*
X88147222Y-109987009D01*
X88176552Y-109951271D01*
X88259814Y-109849814D01*
X88361271Y-109766552D01*
X88397009Y-109737222D01*
X88553534Y-109653557D01*
X88723373Y-109602037D01*
X88789558Y-109595518D01*
X88855740Y-109589000D01*
X88944260Y-109589000D01*
X89010442Y-109595518D01*
X89010442Y-109595518D01*
G37*
G36*
X91550442Y-109595518D02*
G01*
X91616627Y-109602037D01*
X91786466Y-109653557D01*
X91942991Y-109737222D01*
X91978729Y-109766552D01*
X92080186Y-109849814D01*
X92163448Y-109951271D01*
X92192778Y-109987009D01*
X92276443Y-110143534D01*
X92327963Y-110313373D01*
X92345359Y-110490000D01*
X92327963Y-110666627D01*
X92276443Y-110836466D01*
X92192778Y-110992991D01*
X92163448Y-111028729D01*
X92080186Y-111130186D01*
X91978729Y-111213448D01*
X91942991Y-111242778D01*
X91786466Y-111326443D01*
X91616627Y-111377963D01*
X91550443Y-111384481D01*
X91484260Y-111391000D01*
X91395740Y-111391000D01*
X91329557Y-111384481D01*
X91263373Y-111377963D01*
X91093534Y-111326443D01*
X90937009Y-111242778D01*
X90901271Y-111213448D01*
X90799814Y-111130186D01*
X90716552Y-111028729D01*
X90687222Y-110992991D01*
X90603557Y-110836466D01*
X90552037Y-110666627D01*
X90534641Y-110490000D01*
X90552037Y-110313373D01*
X90603557Y-110143534D01*
X90687222Y-109987009D01*
X90716552Y-109951271D01*
X90799814Y-109849814D01*
X90901271Y-109766552D01*
X90937009Y-109737222D01*
X91093534Y-109653557D01*
X91263373Y-109602037D01*
X91329558Y-109595518D01*
X91395740Y-109589000D01*
X91484260Y-109589000D01*
X91550442Y-109595518D01*
X91550442Y-109595518D01*
G37*
G36*
X99170442Y-109595518D02*
G01*
X99236627Y-109602037D01*
X99406466Y-109653557D01*
X99562991Y-109737222D01*
X99598729Y-109766552D01*
X99700186Y-109849814D01*
X99783448Y-109951271D01*
X99812778Y-109987009D01*
X99896443Y-110143534D01*
X99947963Y-110313373D01*
X99965359Y-110490000D01*
X99947963Y-110666627D01*
X99896443Y-110836466D01*
X99812778Y-110992991D01*
X99783448Y-111028729D01*
X99700186Y-111130186D01*
X99598729Y-111213448D01*
X99562991Y-111242778D01*
X99406466Y-111326443D01*
X99236627Y-111377963D01*
X99170443Y-111384481D01*
X99104260Y-111391000D01*
X99015740Y-111391000D01*
X98949557Y-111384481D01*
X98883373Y-111377963D01*
X98713534Y-111326443D01*
X98557009Y-111242778D01*
X98521271Y-111213448D01*
X98419814Y-111130186D01*
X98336552Y-111028729D01*
X98307222Y-110992991D01*
X98223557Y-110836466D01*
X98172037Y-110666627D01*
X98154641Y-110490000D01*
X98172037Y-110313373D01*
X98223557Y-110143534D01*
X98307222Y-109987009D01*
X98336552Y-109951271D01*
X98419814Y-109849814D01*
X98521271Y-109766552D01*
X98557009Y-109737222D01*
X98713534Y-109653557D01*
X98883373Y-109602037D01*
X98949558Y-109595518D01*
X99015740Y-109589000D01*
X99104260Y-109589000D01*
X99170442Y-109595518D01*
X99170442Y-109595518D01*
G37*
G36*
X101710442Y-109595518D02*
G01*
X101776627Y-109602037D01*
X101946466Y-109653557D01*
X102102991Y-109737222D01*
X102138729Y-109766552D01*
X102240186Y-109849814D01*
X102323448Y-109951271D01*
X102352778Y-109987009D01*
X102436443Y-110143534D01*
X102487963Y-110313373D01*
X102505359Y-110490000D01*
X102487963Y-110666627D01*
X102436443Y-110836466D01*
X102352778Y-110992991D01*
X102323448Y-111028729D01*
X102240186Y-111130186D01*
X102138729Y-111213448D01*
X102102991Y-111242778D01*
X101946466Y-111326443D01*
X101776627Y-111377963D01*
X101710443Y-111384481D01*
X101644260Y-111391000D01*
X101555740Y-111391000D01*
X101489557Y-111384481D01*
X101423373Y-111377963D01*
X101253534Y-111326443D01*
X101097009Y-111242778D01*
X101061271Y-111213448D01*
X100959814Y-111130186D01*
X100876552Y-111028729D01*
X100847222Y-110992991D01*
X100763557Y-110836466D01*
X100712037Y-110666627D01*
X100694641Y-110490000D01*
X100712037Y-110313373D01*
X100763557Y-110143534D01*
X100847222Y-109987009D01*
X100876552Y-109951271D01*
X100959814Y-109849814D01*
X101061271Y-109766552D01*
X101097009Y-109737222D01*
X101253534Y-109653557D01*
X101423373Y-109602037D01*
X101489558Y-109595518D01*
X101555740Y-109589000D01*
X101644260Y-109589000D01*
X101710442Y-109595518D01*
X101710442Y-109595518D01*
G37*
G36*
X109330442Y-109595518D02*
G01*
X109396627Y-109602037D01*
X109566466Y-109653557D01*
X109722991Y-109737222D01*
X109758729Y-109766552D01*
X109860186Y-109849814D01*
X109943448Y-109951271D01*
X109972778Y-109987009D01*
X110056443Y-110143534D01*
X110107963Y-110313373D01*
X110125359Y-110490000D01*
X110107963Y-110666627D01*
X110056443Y-110836466D01*
X109972778Y-110992991D01*
X109943448Y-111028729D01*
X109860186Y-111130186D01*
X109758729Y-111213448D01*
X109722991Y-111242778D01*
X109566466Y-111326443D01*
X109396627Y-111377963D01*
X109330443Y-111384481D01*
X109264260Y-111391000D01*
X109175740Y-111391000D01*
X109109557Y-111384481D01*
X109043373Y-111377963D01*
X108873534Y-111326443D01*
X108717009Y-111242778D01*
X108681271Y-111213448D01*
X108579814Y-111130186D01*
X108496552Y-111028729D01*
X108467222Y-110992991D01*
X108383557Y-110836466D01*
X108332037Y-110666627D01*
X108314641Y-110490000D01*
X108332037Y-110313373D01*
X108383557Y-110143534D01*
X108467222Y-109987009D01*
X108496552Y-109951271D01*
X108579814Y-109849814D01*
X108681271Y-109766552D01*
X108717009Y-109737222D01*
X108873534Y-109653557D01*
X109043373Y-109602037D01*
X109109558Y-109595518D01*
X109175740Y-109589000D01*
X109264260Y-109589000D01*
X109330442Y-109595518D01*
X109330442Y-109595518D01*
G37*
G36*
X104250442Y-109595518D02*
G01*
X104316627Y-109602037D01*
X104486466Y-109653557D01*
X104642991Y-109737222D01*
X104678729Y-109766552D01*
X104780186Y-109849814D01*
X104863448Y-109951271D01*
X104892778Y-109987009D01*
X104976443Y-110143534D01*
X105027963Y-110313373D01*
X105045359Y-110490000D01*
X105027963Y-110666627D01*
X104976443Y-110836466D01*
X104892778Y-110992991D01*
X104863448Y-111028729D01*
X104780186Y-111130186D01*
X104678729Y-111213448D01*
X104642991Y-111242778D01*
X104486466Y-111326443D01*
X104316627Y-111377963D01*
X104250443Y-111384481D01*
X104184260Y-111391000D01*
X104095740Y-111391000D01*
X104029557Y-111384481D01*
X103963373Y-111377963D01*
X103793534Y-111326443D01*
X103637009Y-111242778D01*
X103601271Y-111213448D01*
X103499814Y-111130186D01*
X103416552Y-111028729D01*
X103387222Y-110992991D01*
X103303557Y-110836466D01*
X103252037Y-110666627D01*
X103234641Y-110490000D01*
X103252037Y-110313373D01*
X103303557Y-110143534D01*
X103387222Y-109987009D01*
X103416552Y-109951271D01*
X103499814Y-109849814D01*
X103601271Y-109766552D01*
X103637009Y-109737222D01*
X103793534Y-109653557D01*
X103963373Y-109602037D01*
X104029558Y-109595518D01*
X104095740Y-109589000D01*
X104184260Y-109589000D01*
X104250442Y-109595518D01*
X104250442Y-109595518D01*
G37*
G36*
X111870442Y-109595518D02*
G01*
X111936627Y-109602037D01*
X112106466Y-109653557D01*
X112262991Y-109737222D01*
X112298729Y-109766552D01*
X112400186Y-109849814D01*
X112483448Y-109951271D01*
X112512778Y-109987009D01*
X112596443Y-110143534D01*
X112647963Y-110313373D01*
X112665359Y-110490000D01*
X112647963Y-110666627D01*
X112596443Y-110836466D01*
X112512778Y-110992991D01*
X112483448Y-111028729D01*
X112400186Y-111130186D01*
X112298729Y-111213448D01*
X112262991Y-111242778D01*
X112106466Y-111326443D01*
X111936627Y-111377963D01*
X111870443Y-111384481D01*
X111804260Y-111391000D01*
X111715740Y-111391000D01*
X111649557Y-111384481D01*
X111583373Y-111377963D01*
X111413534Y-111326443D01*
X111257009Y-111242778D01*
X111221271Y-111213448D01*
X111119814Y-111130186D01*
X111036552Y-111028729D01*
X111007222Y-110992991D01*
X110923557Y-110836466D01*
X110872037Y-110666627D01*
X110854641Y-110490000D01*
X110872037Y-110313373D01*
X110923557Y-110143534D01*
X111007222Y-109987009D01*
X111036552Y-109951271D01*
X111119814Y-109849814D01*
X111221271Y-109766552D01*
X111257009Y-109737222D01*
X111413534Y-109653557D01*
X111583373Y-109602037D01*
X111649558Y-109595518D01*
X111715740Y-109589000D01*
X111804260Y-109589000D01*
X111870442Y-109595518D01*
X111870442Y-109595518D01*
G37*
G36*
X106790442Y-109595518D02*
G01*
X106856627Y-109602037D01*
X107026466Y-109653557D01*
X107182991Y-109737222D01*
X107218729Y-109766552D01*
X107320186Y-109849814D01*
X107403448Y-109951271D01*
X107432778Y-109987009D01*
X107516443Y-110143534D01*
X107567963Y-110313373D01*
X107585359Y-110490000D01*
X107567963Y-110666627D01*
X107516443Y-110836466D01*
X107432778Y-110992991D01*
X107403448Y-111028729D01*
X107320186Y-111130186D01*
X107218729Y-111213448D01*
X107182991Y-111242778D01*
X107026466Y-111326443D01*
X106856627Y-111377963D01*
X106790443Y-111384481D01*
X106724260Y-111391000D01*
X106635740Y-111391000D01*
X106569557Y-111384481D01*
X106503373Y-111377963D01*
X106333534Y-111326443D01*
X106177009Y-111242778D01*
X106141271Y-111213448D01*
X106039814Y-111130186D01*
X105956552Y-111028729D01*
X105927222Y-110992991D01*
X105843557Y-110836466D01*
X105792037Y-110666627D01*
X105774641Y-110490000D01*
X105792037Y-110313373D01*
X105843557Y-110143534D01*
X105927222Y-109987009D01*
X105956552Y-109951271D01*
X106039814Y-109849814D01*
X106141271Y-109766552D01*
X106177009Y-109737222D01*
X106333534Y-109653557D01*
X106503373Y-109602037D01*
X106569558Y-109595518D01*
X106635740Y-109589000D01*
X106724260Y-109589000D01*
X106790442Y-109595518D01*
X106790442Y-109595518D01*
G37*
G36*
X94090442Y-109595518D02*
G01*
X94156627Y-109602037D01*
X94326466Y-109653557D01*
X94482991Y-109737222D01*
X94518729Y-109766552D01*
X94620186Y-109849814D01*
X94703448Y-109951271D01*
X94732778Y-109987009D01*
X94816443Y-110143534D01*
X94867963Y-110313373D01*
X94885359Y-110490000D01*
X94867963Y-110666627D01*
X94816443Y-110836466D01*
X94732778Y-110992991D01*
X94703448Y-111028729D01*
X94620186Y-111130186D01*
X94518729Y-111213448D01*
X94482991Y-111242778D01*
X94326466Y-111326443D01*
X94156627Y-111377963D01*
X94090443Y-111384481D01*
X94024260Y-111391000D01*
X93935740Y-111391000D01*
X93869557Y-111384481D01*
X93803373Y-111377963D01*
X93633534Y-111326443D01*
X93477009Y-111242778D01*
X93441271Y-111213448D01*
X93339814Y-111130186D01*
X93256552Y-111028729D01*
X93227222Y-110992991D01*
X93143557Y-110836466D01*
X93092037Y-110666627D01*
X93074641Y-110490000D01*
X93092037Y-110313373D01*
X93143557Y-110143534D01*
X93227222Y-109987009D01*
X93256552Y-109951271D01*
X93339814Y-109849814D01*
X93441271Y-109766552D01*
X93477009Y-109737222D01*
X93633534Y-109653557D01*
X93803373Y-109602037D01*
X93869558Y-109595518D01*
X93935740Y-109589000D01*
X94024260Y-109589000D01*
X94090442Y-109595518D01*
X94090442Y-109595518D01*
G37*
G36*
X96630442Y-109595518D02*
G01*
X96696627Y-109602037D01*
X96866466Y-109653557D01*
X97022991Y-109737222D01*
X97058729Y-109766552D01*
X97160186Y-109849814D01*
X97243448Y-109951271D01*
X97272778Y-109987009D01*
X97356443Y-110143534D01*
X97407963Y-110313373D01*
X97425359Y-110490000D01*
X97407963Y-110666627D01*
X97356443Y-110836466D01*
X97272778Y-110992991D01*
X97243448Y-111028729D01*
X97160186Y-111130186D01*
X97058729Y-111213448D01*
X97022991Y-111242778D01*
X96866466Y-111326443D01*
X96696627Y-111377963D01*
X96630443Y-111384481D01*
X96564260Y-111391000D01*
X96475740Y-111391000D01*
X96409557Y-111384481D01*
X96343373Y-111377963D01*
X96173534Y-111326443D01*
X96017009Y-111242778D01*
X95981271Y-111213448D01*
X95879814Y-111130186D01*
X95796552Y-111028729D01*
X95767222Y-110992991D01*
X95683557Y-110836466D01*
X95632037Y-110666627D01*
X95614641Y-110490000D01*
X95632037Y-110313373D01*
X95683557Y-110143534D01*
X95767222Y-109987009D01*
X95796552Y-109951271D01*
X95879814Y-109849814D01*
X95981271Y-109766552D01*
X96017009Y-109737222D01*
X96173534Y-109653557D01*
X96343373Y-109602037D01*
X96409558Y-109595518D01*
X96475740Y-109589000D01*
X96564260Y-109589000D01*
X96630442Y-109595518D01*
X96630442Y-109595518D01*
G37*
G36*
X44580915Y-104085677D02*
G01*
X44830819Y-104110290D01*
X45311803Y-104256195D01*
X45311806Y-104256196D01*
X45755081Y-104493131D01*
X46143617Y-104811995D01*
X46462481Y-105200531D01*
X46699416Y-105643806D01*
X46699417Y-105643809D01*
X46845322Y-106124793D01*
X46894588Y-106625000D01*
X46845322Y-107125207D01*
X46699417Y-107606191D01*
X46699416Y-107606194D01*
X46462481Y-108049469D01*
X46143617Y-108438005D01*
X45755081Y-108756869D01*
X45311806Y-108993804D01*
X45311803Y-108993805D01*
X44830819Y-109139710D01*
X44580915Y-109164323D01*
X44455964Y-109176630D01*
X39206540Y-109176630D01*
X39081589Y-109164323D01*
X38831685Y-109139710D01*
X38350701Y-108993805D01*
X38350698Y-108993804D01*
X37907423Y-108756869D01*
X37518887Y-108438005D01*
X37200023Y-108049469D01*
X36963088Y-107606194D01*
X36963087Y-107606191D01*
X36817182Y-107125207D01*
X36767916Y-106625000D01*
X36817182Y-106124793D01*
X36963087Y-105643809D01*
X36963088Y-105643806D01*
X37200023Y-105200531D01*
X37518887Y-104811995D01*
X37907423Y-104493131D01*
X38350698Y-104256196D01*
X38350701Y-104256195D01*
X38831685Y-104110290D01*
X39081589Y-104085677D01*
X39206540Y-104073370D01*
X44455964Y-104073370D01*
X44580915Y-104085677D01*
X44580915Y-104085677D01*
G37*
G36*
X67001000Y-100651000D02*
G01*
X65099000Y-100651000D01*
X65099000Y-99449000D01*
X67001000Y-99449000D01*
X67001000Y-100651000D01*
X67001000Y-100651000D01*
G37*
G36*
X73201000Y-100651000D02*
G01*
X71299000Y-100651000D01*
X71299000Y-99449000D01*
X73201000Y-99449000D01*
X73201000Y-100651000D01*
X73201000Y-100651000D01*
G37*
G36*
X67001000Y-96951000D02*
G01*
X65099000Y-96951000D01*
X65099000Y-95749000D01*
X67001000Y-95749000D01*
X67001000Y-96951000D01*
X67001000Y-96951000D01*
G37*
G36*
X73201000Y-96951000D02*
G01*
X71299000Y-96951000D01*
X71299000Y-95749000D01*
X73201000Y-95749000D01*
X73201000Y-96951000D01*
X73201000Y-96951000D01*
G37*
G36*
X81734674Y-88788465D02*
G01*
X81772367Y-88799899D01*
X81807103Y-88818466D01*
X81837548Y-88843452D01*
X81862534Y-88873897D01*
X81881101Y-88908633D01*
X81892535Y-88946326D01*
X81897000Y-88991661D01*
X81897000Y-90078339D01*
X81892535Y-90123674D01*
X81881101Y-90161367D01*
X81862534Y-90196103D01*
X81837548Y-90226548D01*
X81807103Y-90251534D01*
X81772367Y-90270101D01*
X81734674Y-90281535D01*
X81689339Y-90286000D01*
X80852661Y-90286000D01*
X80807326Y-90281535D01*
X80769633Y-90270101D01*
X80734897Y-90251534D01*
X80704452Y-90226548D01*
X80679466Y-90196103D01*
X80660899Y-90161367D01*
X80649465Y-90123674D01*
X80645000Y-90078339D01*
X80645000Y-88991661D01*
X80649465Y-88946326D01*
X80660899Y-88908633D01*
X80679466Y-88873897D01*
X80704452Y-88843452D01*
X80734897Y-88818466D01*
X80769633Y-88799899D01*
X80807326Y-88788465D01*
X80852661Y-88784000D01*
X81689339Y-88784000D01*
X81734674Y-88788465D01*
X81734674Y-88788465D01*
G37*
G36*
X83784674Y-88788465D02*
G01*
X83822367Y-88799899D01*
X83857103Y-88818466D01*
X83887548Y-88843452D01*
X83912534Y-88873897D01*
X83931101Y-88908633D01*
X83942535Y-88946326D01*
X83947000Y-88991661D01*
X83947000Y-90078339D01*
X83942535Y-90123674D01*
X83931101Y-90161367D01*
X83912534Y-90196103D01*
X83887548Y-90226548D01*
X83857103Y-90251534D01*
X83822367Y-90270101D01*
X83784674Y-90281535D01*
X83739339Y-90286000D01*
X82902661Y-90286000D01*
X82857326Y-90281535D01*
X82819633Y-90270101D01*
X82784897Y-90251534D01*
X82754452Y-90226548D01*
X82729466Y-90196103D01*
X82710899Y-90161367D01*
X82699465Y-90123674D01*
X82695000Y-90078339D01*
X82695000Y-88991661D01*
X82699465Y-88946326D01*
X82710899Y-88908633D01*
X82729466Y-88873897D01*
X82754452Y-88843452D01*
X82784897Y-88818466D01*
X82819633Y-88799899D01*
X82857326Y-88788465D01*
X82902661Y-88784000D01*
X83739339Y-88784000D01*
X83784674Y-88788465D01*
X83784674Y-88788465D01*
G37*
G36*
X93364499Y-89013445D02*
G01*
X93401995Y-89024820D01*
X93436554Y-89043292D01*
X93466847Y-89068153D01*
X93491708Y-89098446D01*
X93510180Y-89133005D01*
X93521555Y-89170501D01*
X93526000Y-89215638D01*
X93526000Y-89854362D01*
X93521555Y-89899499D01*
X93510180Y-89936995D01*
X93491708Y-89971554D01*
X93466847Y-90001847D01*
X93436554Y-90026708D01*
X93401995Y-90045180D01*
X93364499Y-90056555D01*
X93319362Y-90061000D01*
X92580638Y-90061000D01*
X92535501Y-90056555D01*
X92498005Y-90045180D01*
X92463446Y-90026708D01*
X92433153Y-90001847D01*
X92408292Y-89971554D01*
X92389820Y-89936995D01*
X92378445Y-89899499D01*
X92374000Y-89854362D01*
X92374000Y-89215638D01*
X92378445Y-89170501D01*
X92389820Y-89133005D01*
X92408292Y-89098446D01*
X92433153Y-89068153D01*
X92463446Y-89043292D01*
X92498005Y-89024820D01*
X92535501Y-89013445D01*
X92580638Y-89009000D01*
X93319362Y-89009000D01*
X93364499Y-89013445D01*
X93364499Y-89013445D01*
G37*
G36*
X91614499Y-89013445D02*
G01*
X91651995Y-89024820D01*
X91686554Y-89043292D01*
X91716847Y-89068153D01*
X91741708Y-89098446D01*
X91760180Y-89133005D01*
X91771555Y-89170501D01*
X91776000Y-89215638D01*
X91776000Y-89854362D01*
X91771555Y-89899499D01*
X91760180Y-89936995D01*
X91741708Y-89971554D01*
X91716847Y-90001847D01*
X91686554Y-90026708D01*
X91651995Y-90045180D01*
X91614499Y-90056555D01*
X91569362Y-90061000D01*
X90830638Y-90061000D01*
X90785501Y-90056555D01*
X90748005Y-90045180D01*
X90713446Y-90026708D01*
X90683153Y-90001847D01*
X90658292Y-89971554D01*
X90639820Y-89936995D01*
X90628445Y-89899499D01*
X90624000Y-89854362D01*
X90624000Y-89215638D01*
X90628445Y-89170501D01*
X90639820Y-89133005D01*
X90658292Y-89098446D01*
X90683153Y-89068153D01*
X90713446Y-89043292D01*
X90748005Y-89024820D01*
X90785501Y-89013445D01*
X90830638Y-89009000D01*
X91569362Y-89009000D01*
X91614499Y-89013445D01*
X91614499Y-89013445D01*
G37*
G36*
X50181000Y-85971000D02*
G01*
X48879000Y-85971000D01*
X48879000Y-84969000D01*
X50181000Y-84969000D01*
X50181000Y-85971000D01*
X50181000Y-85971000D01*
G37*
G36*
X92438600Y-84479000D02*
G01*
X83786600Y-84479000D01*
X83786600Y-82877000D01*
X92438600Y-82877000D01*
X92438600Y-84479000D01*
X92438600Y-84479000D01*
G37*
G36*
X79739499Y-83234445D02*
G01*
X79776995Y-83245820D01*
X79811554Y-83264292D01*
X79841847Y-83289153D01*
X79866708Y-83319446D01*
X79885180Y-83354005D01*
X79896555Y-83391501D01*
X79901000Y-83436638D01*
X79901000Y-84175362D01*
X79896555Y-84220499D01*
X79885180Y-84257995D01*
X79866708Y-84292554D01*
X79841847Y-84322847D01*
X79811554Y-84347708D01*
X79776995Y-84366180D01*
X79739499Y-84377555D01*
X79694362Y-84382000D01*
X79055638Y-84382000D01*
X79010501Y-84377555D01*
X78973005Y-84366180D01*
X78938446Y-84347708D01*
X78908153Y-84322847D01*
X78883292Y-84292554D01*
X78864820Y-84257995D01*
X78853445Y-84220499D01*
X78849000Y-84175362D01*
X78849000Y-83436638D01*
X78853445Y-83391501D01*
X78864820Y-83354005D01*
X78883292Y-83319446D01*
X78908153Y-83289153D01*
X78938446Y-83264292D01*
X78973005Y-83245820D01*
X79010501Y-83234445D01*
X79055638Y-83230000D01*
X79694362Y-83230000D01*
X79739499Y-83234445D01*
X79739499Y-83234445D01*
G37*
G36*
X50181000Y-82671000D02*
G01*
X48879000Y-82671000D01*
X48879000Y-81669000D01*
X50181000Y-81669000D01*
X50181000Y-82671000D01*
X50181000Y-82671000D01*
G37*
G36*
X79739499Y-81484445D02*
G01*
X79776995Y-81495820D01*
X79811554Y-81514292D01*
X79841847Y-81539153D01*
X79866708Y-81569446D01*
X79885180Y-81604005D01*
X79896555Y-81641501D01*
X79901000Y-81686638D01*
X79901000Y-82425362D01*
X79896555Y-82470499D01*
X79885180Y-82507995D01*
X79866708Y-82542554D01*
X79841847Y-82572847D01*
X79811554Y-82597708D01*
X79776995Y-82616180D01*
X79739499Y-82627555D01*
X79694362Y-82632000D01*
X79055638Y-82632000D01*
X79010501Y-82627555D01*
X78973005Y-82616180D01*
X78938446Y-82597708D01*
X78908153Y-82572847D01*
X78883292Y-82542554D01*
X78864820Y-82507995D01*
X78853445Y-82470499D01*
X78849000Y-82425362D01*
X78849000Y-81686638D01*
X78853445Y-81641501D01*
X78864820Y-81604005D01*
X78883292Y-81569446D01*
X78908153Y-81539153D01*
X78938446Y-81514292D01*
X78973005Y-81495820D01*
X79010501Y-81484445D01*
X79055638Y-81480000D01*
X79694362Y-81480000D01*
X79739499Y-81484445D01*
X79739499Y-81484445D01*
G37*
G36*
X83213600Y-82304000D02*
G01*
X81611600Y-82304000D01*
X81611600Y-73652000D01*
X83213600Y-73652000D01*
X83213600Y-82304000D01*
X83213600Y-82304000D01*
G37*
G36*
X94613600Y-82304000D02*
G01*
X93011600Y-82304000D01*
X93011600Y-73652000D01*
X94613600Y-73652000D01*
X94613600Y-82304000D01*
X94613600Y-82304000D01*
G37*
G36*
X65488968Y-74985395D02*
G01*
X66132608Y-75252000D01*
X66135232Y-75253087D01*
X66716853Y-75641713D01*
X67211481Y-76136341D01*
X67600107Y-76717962D01*
X67600108Y-76717964D01*
X67867799Y-77364226D01*
X68004266Y-78050292D01*
X68004266Y-78749804D01*
X67867799Y-79435870D01*
X67621909Y-80029499D01*
X67600107Y-80082134D01*
X67211481Y-80663755D01*
X66716853Y-81158383D01*
X66135232Y-81547009D01*
X66135231Y-81547010D01*
X66135230Y-81547010D01*
X65488968Y-81814701D01*
X64802902Y-81951168D01*
X64103390Y-81951168D01*
X63417324Y-81814701D01*
X62771062Y-81547010D01*
X62771061Y-81547010D01*
X62771060Y-81547009D01*
X62189439Y-81158383D01*
X61694811Y-80663755D01*
X61306185Y-80082134D01*
X61284383Y-80029499D01*
X61038493Y-79435870D01*
X60902026Y-78749804D01*
X60902026Y-78050292D01*
X61038493Y-77364226D01*
X61306184Y-76717964D01*
X61306185Y-76717962D01*
X61694811Y-76136341D01*
X62189439Y-75641713D01*
X62771060Y-75253087D01*
X62773684Y-75252000D01*
X63417324Y-74985395D01*
X64103390Y-74848928D01*
X64802902Y-74848928D01*
X65488968Y-74985395D01*
X65488968Y-74985395D01*
G37*
G36*
X99106999Y-79043445D02*
G01*
X99144495Y-79054820D01*
X99179054Y-79073292D01*
X99209347Y-79098153D01*
X99234208Y-79128446D01*
X99252680Y-79163005D01*
X99264055Y-79200501D01*
X99268500Y-79245638D01*
X99268500Y-79984362D01*
X99264055Y-80029499D01*
X99252680Y-80066995D01*
X99234208Y-80101554D01*
X99209347Y-80131847D01*
X99179054Y-80156708D01*
X99144495Y-80175180D01*
X99106999Y-80186555D01*
X99061862Y-80191000D01*
X98423138Y-80191000D01*
X98378001Y-80186555D01*
X98340505Y-80175180D01*
X98305946Y-80156708D01*
X98275653Y-80131847D01*
X98250792Y-80101554D01*
X98232320Y-80066995D01*
X98220945Y-80029499D01*
X98216500Y-79984362D01*
X98216500Y-79245638D01*
X98220945Y-79200501D01*
X98232320Y-79163005D01*
X98250792Y-79128446D01*
X98275653Y-79098153D01*
X98305946Y-79073292D01*
X98340505Y-79054820D01*
X98378001Y-79043445D01*
X98423138Y-79039000D01*
X99061862Y-79039000D01*
X99106999Y-79043445D01*
X99106999Y-79043445D01*
G37*
G36*
X104653500Y-80021000D02*
G01*
X102751500Y-80021000D01*
X102751500Y-77819000D01*
X104653500Y-77819000D01*
X104653500Y-80021000D01*
X104653500Y-80021000D01*
G37*
G36*
X102353500Y-80021000D02*
G01*
X100451500Y-80021000D01*
X100451500Y-77819000D01*
X102353500Y-77819000D01*
X102353500Y-80021000D01*
X102353500Y-80021000D01*
G37*
G36*
X99106999Y-77293445D02*
G01*
X99144495Y-77304820D01*
X99179054Y-77323292D01*
X99209347Y-77348153D01*
X99234208Y-77378446D01*
X99252680Y-77413005D01*
X99264055Y-77450501D01*
X99268500Y-77495638D01*
X99268500Y-78234362D01*
X99264055Y-78279499D01*
X99252680Y-78316995D01*
X99234208Y-78351554D01*
X99209347Y-78381847D01*
X99179054Y-78406708D01*
X99144495Y-78425180D01*
X99106999Y-78436555D01*
X99061862Y-78441000D01*
X98423138Y-78441000D01*
X98378001Y-78436555D01*
X98340505Y-78425180D01*
X98305946Y-78406708D01*
X98275653Y-78381847D01*
X98250792Y-78351554D01*
X98232320Y-78316995D01*
X98220945Y-78279499D01*
X98216500Y-78234362D01*
X98216500Y-77495638D01*
X98220945Y-77450501D01*
X98232320Y-77413005D01*
X98250792Y-77378446D01*
X98275653Y-77348153D01*
X98305946Y-77323292D01*
X98340505Y-77304820D01*
X98378001Y-77293445D01*
X98423138Y-77289000D01*
X99061862Y-77289000D01*
X99106999Y-77293445D01*
X99106999Y-77293445D01*
G37*
G36*
X50305562Y-76663081D02*
G01*
X50340481Y-76673674D01*
X50372663Y-76690876D01*
X50400873Y-76714027D01*
X50424024Y-76742237D01*
X50441226Y-76774419D01*
X50451819Y-76809338D01*
X50456000Y-76851795D01*
X50456000Y-77993005D01*
X50451819Y-78035462D01*
X50441226Y-78070381D01*
X50424024Y-78102563D01*
X50400873Y-78130773D01*
X50372663Y-78153924D01*
X50340481Y-78171126D01*
X50305562Y-78181719D01*
X50263105Y-78185900D01*
X48796895Y-78185900D01*
X48754438Y-78181719D01*
X48719519Y-78171126D01*
X48687337Y-78153924D01*
X48659127Y-78130773D01*
X48635976Y-78102563D01*
X48618774Y-78070381D01*
X48608181Y-78035462D01*
X48604000Y-77993005D01*
X48604000Y-76851795D01*
X48608181Y-76809338D01*
X48618774Y-76774419D01*
X48635976Y-76742237D01*
X48659127Y-76714027D01*
X48687337Y-76690876D01*
X48719519Y-76673674D01*
X48754438Y-76663081D01*
X48796895Y-76658900D01*
X50263105Y-76658900D01*
X50305562Y-76663081D01*
X50305562Y-76663081D01*
G37*
G36*
X104653500Y-77121000D02*
G01*
X102751500Y-77121000D01*
X102751500Y-74919000D01*
X104653500Y-74919000D01*
X104653500Y-77121000D01*
X104653500Y-77121000D01*
G37*
G36*
X102353500Y-77121000D02*
G01*
X100451500Y-77121000D01*
X100451500Y-74919000D01*
X102353500Y-74919000D01*
X102353500Y-77121000D01*
X102353500Y-77121000D01*
G37*
G36*
X99106999Y-75233445D02*
G01*
X99144495Y-75244820D01*
X99179054Y-75263292D01*
X99209347Y-75288153D01*
X99234208Y-75318446D01*
X99252680Y-75353005D01*
X99264055Y-75390501D01*
X99268500Y-75435638D01*
X99268500Y-76174362D01*
X99264055Y-76219499D01*
X99252680Y-76256995D01*
X99234208Y-76291554D01*
X99209347Y-76321847D01*
X99179054Y-76346708D01*
X99144495Y-76365180D01*
X99106999Y-76376555D01*
X99061862Y-76381000D01*
X98423138Y-76381000D01*
X98378001Y-76376555D01*
X98340505Y-76365180D01*
X98305946Y-76346708D01*
X98275653Y-76321847D01*
X98250792Y-76291554D01*
X98232320Y-76256995D01*
X98220945Y-76219499D01*
X98216500Y-76174362D01*
X98216500Y-75435638D01*
X98220945Y-75390501D01*
X98232320Y-75353005D01*
X98250792Y-75318446D01*
X98275653Y-75288153D01*
X98305946Y-75263292D01*
X98340505Y-75244820D01*
X98378001Y-75233445D01*
X98423138Y-75229000D01*
X99061862Y-75229000D01*
X99106999Y-75233445D01*
X99106999Y-75233445D01*
G37*
G36*
X50305562Y-73688081D02*
G01*
X50340481Y-73698674D01*
X50372663Y-73715876D01*
X50400873Y-73739027D01*
X50424024Y-73767237D01*
X50441226Y-73799419D01*
X50451819Y-73834338D01*
X50456000Y-73876795D01*
X50456000Y-75018005D01*
X50451819Y-75060462D01*
X50441226Y-75095381D01*
X50424024Y-75127563D01*
X50400873Y-75155773D01*
X50372663Y-75178924D01*
X50340481Y-75196126D01*
X50305562Y-75206719D01*
X50263105Y-75210900D01*
X48796895Y-75210900D01*
X48754438Y-75206719D01*
X48719519Y-75196126D01*
X48687337Y-75178924D01*
X48659127Y-75155773D01*
X48635976Y-75127563D01*
X48618774Y-75095381D01*
X48608181Y-75060462D01*
X48604000Y-75018005D01*
X48604000Y-73876795D01*
X48608181Y-73834338D01*
X48618774Y-73799419D01*
X48635976Y-73767237D01*
X48659127Y-73739027D01*
X48687337Y-73715876D01*
X48719519Y-73698674D01*
X48754438Y-73688081D01*
X48796895Y-73683900D01*
X50263105Y-73683900D01*
X50305562Y-73688081D01*
X50305562Y-73688081D01*
G37*
G36*
X99106999Y-73483445D02*
G01*
X99144495Y-73494820D01*
X99179054Y-73513292D01*
X99209347Y-73538153D01*
X99234208Y-73568446D01*
X99252680Y-73603005D01*
X99264055Y-73640501D01*
X99268500Y-73685638D01*
X99268500Y-74424362D01*
X99264055Y-74469499D01*
X99252680Y-74506995D01*
X99234208Y-74541554D01*
X99209347Y-74571847D01*
X99179054Y-74596708D01*
X99144495Y-74615180D01*
X99106999Y-74626555D01*
X99061862Y-74631000D01*
X98423138Y-74631000D01*
X98378001Y-74626555D01*
X98340505Y-74615180D01*
X98305946Y-74596708D01*
X98275653Y-74571847D01*
X98250792Y-74541554D01*
X98232320Y-74506995D01*
X98220945Y-74469499D01*
X98216500Y-74424362D01*
X98216500Y-73685638D01*
X98220945Y-73640501D01*
X98232320Y-73603005D01*
X98250792Y-73568446D01*
X98275653Y-73538153D01*
X98305946Y-73513292D01*
X98340505Y-73494820D01*
X98378001Y-73483445D01*
X98423138Y-73479000D01*
X99061862Y-73479000D01*
X99106999Y-73483445D01*
X99106999Y-73483445D01*
G37*
G36*
X79739499Y-73455445D02*
G01*
X79776995Y-73466820D01*
X79811554Y-73485292D01*
X79841847Y-73510153D01*
X79866708Y-73540446D01*
X79885180Y-73575005D01*
X79896555Y-73612501D01*
X79901000Y-73657638D01*
X79901000Y-74396362D01*
X79896555Y-74441499D01*
X79885180Y-74478995D01*
X79866708Y-74513554D01*
X79841847Y-74543847D01*
X79811554Y-74568708D01*
X79776995Y-74587180D01*
X79739499Y-74598555D01*
X79694362Y-74603000D01*
X79055638Y-74603000D01*
X79010501Y-74598555D01*
X78973005Y-74587180D01*
X78938446Y-74568708D01*
X78908153Y-74543847D01*
X78883292Y-74513554D01*
X78864820Y-74478995D01*
X78853445Y-74441499D01*
X78849000Y-74396362D01*
X78849000Y-73657638D01*
X78853445Y-73612501D01*
X78864820Y-73575005D01*
X78883292Y-73540446D01*
X78908153Y-73510153D01*
X78938446Y-73485292D01*
X78973005Y-73466820D01*
X79010501Y-73455445D01*
X79055638Y-73451000D01*
X79694362Y-73451000D01*
X79739499Y-73455445D01*
X79739499Y-73455445D01*
G37*
G36*
X92438600Y-73079000D02*
G01*
X83786600Y-73079000D01*
X83786600Y-71477000D01*
X92438600Y-71477000D01*
X92438600Y-73079000D01*
X92438600Y-73079000D01*
G37*
G36*
X79739499Y-71705445D02*
G01*
X79776995Y-71716820D01*
X79811554Y-71735292D01*
X79841847Y-71760153D01*
X79866708Y-71790446D01*
X79885180Y-71825005D01*
X79896555Y-71862501D01*
X79901000Y-71907638D01*
X79901000Y-72646362D01*
X79896555Y-72691499D01*
X79885180Y-72728995D01*
X79866708Y-72763554D01*
X79841847Y-72793847D01*
X79811554Y-72818708D01*
X79776995Y-72837180D01*
X79739499Y-72848555D01*
X79694362Y-72853000D01*
X79055638Y-72853000D01*
X79010501Y-72848555D01*
X78973005Y-72837180D01*
X78938446Y-72818708D01*
X78908153Y-72793847D01*
X78883292Y-72763554D01*
X78864820Y-72728995D01*
X78853445Y-72691499D01*
X78849000Y-72646362D01*
X78849000Y-71907638D01*
X78853445Y-71862501D01*
X78864820Y-71825005D01*
X78883292Y-71790446D01*
X78908153Y-71760153D01*
X78938446Y-71735292D01*
X78973005Y-71716820D01*
X79010501Y-71705445D01*
X79055638Y-71701000D01*
X79694362Y-71701000D01*
X79739499Y-71705445D01*
X79739499Y-71705445D01*
G37*
G36*
X100222499Y-69582445D02*
G01*
X100259995Y-69593820D01*
X100294554Y-69612292D01*
X100324847Y-69637153D01*
X100349708Y-69667446D01*
X100368180Y-69702005D01*
X100379555Y-69739501D01*
X100384000Y-69784638D01*
X100384000Y-70423362D01*
X100379555Y-70468499D01*
X100368180Y-70505995D01*
X100349708Y-70540554D01*
X100324847Y-70570847D01*
X100294554Y-70595708D01*
X100259995Y-70614180D01*
X100222499Y-70625555D01*
X100177362Y-70630000D01*
X99438638Y-70630000D01*
X99393501Y-70625555D01*
X99356005Y-70614180D01*
X99321446Y-70595708D01*
X99291153Y-70570847D01*
X99266292Y-70540554D01*
X99247820Y-70505995D01*
X99236445Y-70468499D01*
X99232000Y-70423362D01*
X99232000Y-69784638D01*
X99236445Y-69739501D01*
X99247820Y-69702005D01*
X99266292Y-69667446D01*
X99291153Y-69637153D01*
X99321446Y-69612292D01*
X99356005Y-69593820D01*
X99393501Y-69582445D01*
X99438638Y-69578000D01*
X100177362Y-69578000D01*
X100222499Y-69582445D01*
X100222499Y-69582445D01*
G37*
G36*
X98472499Y-69582445D02*
G01*
X98509995Y-69593820D01*
X98544554Y-69612292D01*
X98574847Y-69637153D01*
X98599708Y-69667446D01*
X98618180Y-69702005D01*
X98629555Y-69739501D01*
X98634000Y-69784638D01*
X98634000Y-70423362D01*
X98629555Y-70468499D01*
X98618180Y-70505995D01*
X98599708Y-70540554D01*
X98574847Y-70570847D01*
X98544554Y-70595708D01*
X98509995Y-70614180D01*
X98472499Y-70625555D01*
X98427362Y-70630000D01*
X97688638Y-70630000D01*
X97643501Y-70625555D01*
X97606005Y-70614180D01*
X97571446Y-70595708D01*
X97541153Y-70570847D01*
X97516292Y-70540554D01*
X97497820Y-70505995D01*
X97486445Y-70468499D01*
X97482000Y-70423362D01*
X97482000Y-69784638D01*
X97486445Y-69739501D01*
X97497820Y-69702005D01*
X97516292Y-69667446D01*
X97541153Y-69637153D01*
X97571446Y-69612292D01*
X97606005Y-69593820D01*
X97643501Y-69582445D01*
X97688638Y-69578000D01*
X98427362Y-69578000D01*
X98472499Y-69582445D01*
X98472499Y-69582445D01*
G37*
G36*
X66183674Y-64945865D02*
G01*
X66221367Y-64957299D01*
X66256103Y-64975866D01*
X66286548Y-65000852D01*
X66311534Y-65031297D01*
X66330101Y-65066033D01*
X66341535Y-65103726D01*
X66346000Y-65149061D01*
X66346000Y-66235739D01*
X66341535Y-66281074D01*
X66330101Y-66318767D01*
X66311534Y-66353503D01*
X66286548Y-66383948D01*
X66256103Y-66408934D01*
X66221367Y-66427501D01*
X66183674Y-66438935D01*
X66138339Y-66443400D01*
X65301661Y-66443400D01*
X65256326Y-66438935D01*
X65218633Y-66427501D01*
X65183897Y-66408934D01*
X65153452Y-66383948D01*
X65128466Y-66353503D01*
X65109899Y-66318767D01*
X65098465Y-66281074D01*
X65094000Y-66235739D01*
X65094000Y-65149061D01*
X65098465Y-65103726D01*
X65109899Y-65066033D01*
X65128466Y-65031297D01*
X65153452Y-65000852D01*
X65183897Y-64975866D01*
X65218633Y-64957299D01*
X65256326Y-64945865D01*
X65301661Y-64941400D01*
X66138339Y-64941400D01*
X66183674Y-64945865D01*
X66183674Y-64945865D01*
G37*
G36*
X68233674Y-64945865D02*
G01*
X68271367Y-64957299D01*
X68306103Y-64975866D01*
X68336548Y-65000852D01*
X68361534Y-65031297D01*
X68380101Y-65066033D01*
X68391535Y-65103726D01*
X68396000Y-65149061D01*
X68396000Y-66235739D01*
X68391535Y-66281074D01*
X68380101Y-66318767D01*
X68361534Y-66353503D01*
X68336548Y-66383948D01*
X68306103Y-66408934D01*
X68271367Y-66427501D01*
X68233674Y-66438935D01*
X68188339Y-66443400D01*
X67351661Y-66443400D01*
X67306326Y-66438935D01*
X67268633Y-66427501D01*
X67233897Y-66408934D01*
X67203452Y-66383948D01*
X67178466Y-66353503D01*
X67159899Y-66318767D01*
X67148465Y-66281074D01*
X67144000Y-66235739D01*
X67144000Y-65149061D01*
X67148465Y-65103726D01*
X67159899Y-65066033D01*
X67178466Y-65031297D01*
X67203452Y-65000852D01*
X67233897Y-64975866D01*
X67268633Y-64957299D01*
X67306326Y-64945865D01*
X67351661Y-64941400D01*
X68188339Y-64941400D01*
X68233674Y-64945865D01*
X68233674Y-64945865D01*
G37*
G36*
X88502499Y-64946445D02*
G01*
X88539995Y-64957820D01*
X88574554Y-64976292D01*
X88604847Y-65001153D01*
X88629708Y-65031446D01*
X88648180Y-65066005D01*
X88659555Y-65103501D01*
X88664000Y-65148638D01*
X88664000Y-65887362D01*
X88659555Y-65932499D01*
X88648180Y-65969995D01*
X88629708Y-66004554D01*
X88604847Y-66034847D01*
X88574554Y-66059708D01*
X88539995Y-66078180D01*
X88502499Y-66089555D01*
X88457362Y-66094000D01*
X87818638Y-66094000D01*
X87773501Y-66089555D01*
X87736005Y-66078180D01*
X87701446Y-66059708D01*
X87671153Y-66034847D01*
X87646292Y-66004554D01*
X87627820Y-65969995D01*
X87616445Y-65932499D01*
X87612000Y-65887362D01*
X87612000Y-65148638D01*
X87616445Y-65103501D01*
X87627820Y-65066005D01*
X87646292Y-65031446D01*
X87671153Y-65001153D01*
X87701446Y-64976292D01*
X87736005Y-64957820D01*
X87773501Y-64946445D01*
X87818638Y-64942000D01*
X88457362Y-64942000D01*
X88502499Y-64946445D01*
X88502499Y-64946445D01*
G37*
G36*
X88502499Y-63196445D02*
G01*
X88539995Y-63207820D01*
X88574554Y-63226292D01*
X88604847Y-63251153D01*
X88629708Y-63281446D01*
X88648180Y-63316005D01*
X88659555Y-63353501D01*
X88664000Y-63398638D01*
X88664000Y-64137362D01*
X88659555Y-64182499D01*
X88648180Y-64219995D01*
X88629708Y-64254554D01*
X88604847Y-64284847D01*
X88574554Y-64309708D01*
X88539995Y-64328180D01*
X88502499Y-64339555D01*
X88457362Y-64344000D01*
X87818638Y-64344000D01*
X87773501Y-64339555D01*
X87736005Y-64328180D01*
X87701446Y-64309708D01*
X87671153Y-64284847D01*
X87646292Y-64254554D01*
X87627820Y-64219995D01*
X87616445Y-64182499D01*
X87612000Y-64137362D01*
X87612000Y-63398638D01*
X87616445Y-63353501D01*
X87627820Y-63316005D01*
X87646292Y-63281446D01*
X87671153Y-63251153D01*
X87701446Y-63226292D01*
X87736005Y-63207820D01*
X87773501Y-63196445D01*
X87818638Y-63192000D01*
X88457362Y-63192000D01*
X88502499Y-63196445D01*
X88502499Y-63196445D01*
G37*
G36*
X115944674Y-62753465D02*
G01*
X115982367Y-62764899D01*
X116017103Y-62783466D01*
X116047548Y-62808452D01*
X116072534Y-62838897D01*
X116091101Y-62873633D01*
X116102535Y-62911326D01*
X116107000Y-62956661D01*
X116107000Y-64043339D01*
X116102535Y-64088674D01*
X116091101Y-64126367D01*
X116072534Y-64161103D01*
X116047548Y-64191548D01*
X116017103Y-64216534D01*
X115982367Y-64235101D01*
X115944674Y-64246535D01*
X115899339Y-64251000D01*
X115062661Y-64251000D01*
X115017326Y-64246535D01*
X114979633Y-64235101D01*
X114944897Y-64216534D01*
X114914452Y-64191548D01*
X114889466Y-64161103D01*
X114870899Y-64126367D01*
X114859465Y-64088674D01*
X114855000Y-64043339D01*
X114855000Y-62956661D01*
X114859465Y-62911326D01*
X114870899Y-62873633D01*
X114889466Y-62838897D01*
X114914452Y-62808452D01*
X114944897Y-62783466D01*
X114979633Y-62764899D01*
X115017326Y-62753465D01*
X115062661Y-62749000D01*
X115899339Y-62749000D01*
X115944674Y-62753465D01*
X115944674Y-62753465D01*
G37*
G36*
X111381674Y-62753465D02*
G01*
X111419367Y-62764899D01*
X111454103Y-62783466D01*
X111484548Y-62808452D01*
X111509534Y-62838897D01*
X111528101Y-62873633D01*
X111539535Y-62911326D01*
X111544000Y-62956661D01*
X111544000Y-64043339D01*
X111539535Y-64088674D01*
X111528101Y-64126367D01*
X111509534Y-64161103D01*
X111484548Y-64191548D01*
X111454103Y-64216534D01*
X111419367Y-64235101D01*
X111381674Y-64246535D01*
X111336339Y-64251000D01*
X110499661Y-64251000D01*
X110454326Y-64246535D01*
X110416633Y-64235101D01*
X110381897Y-64216534D01*
X110351452Y-64191548D01*
X110326466Y-64161103D01*
X110307899Y-64126367D01*
X110296465Y-64088674D01*
X110292000Y-64043339D01*
X110292000Y-62956661D01*
X110296465Y-62911326D01*
X110307899Y-62873633D01*
X110326466Y-62838897D01*
X110351452Y-62808452D01*
X110381897Y-62783466D01*
X110416633Y-62764899D01*
X110454326Y-62753465D01*
X110499661Y-62749000D01*
X111336339Y-62749000D01*
X111381674Y-62753465D01*
X111381674Y-62753465D01*
G37*
G36*
X113431674Y-62753465D02*
G01*
X113469367Y-62764899D01*
X113504103Y-62783466D01*
X113534548Y-62808452D01*
X113559534Y-62838897D01*
X113578101Y-62873633D01*
X113589535Y-62911326D01*
X113594000Y-62956661D01*
X113594000Y-64043339D01*
X113589535Y-64088674D01*
X113578101Y-64126367D01*
X113559534Y-64161103D01*
X113534548Y-64191548D01*
X113504103Y-64216534D01*
X113469367Y-64235101D01*
X113431674Y-64246535D01*
X113386339Y-64251000D01*
X112549661Y-64251000D01*
X112504326Y-64246535D01*
X112466633Y-64235101D01*
X112431897Y-64216534D01*
X112401452Y-64191548D01*
X112376466Y-64161103D01*
X112357899Y-64126367D01*
X112346465Y-64088674D01*
X112342000Y-64043339D01*
X112342000Y-62956661D01*
X112346465Y-62911326D01*
X112357899Y-62873633D01*
X112376466Y-62838897D01*
X112401452Y-62808452D01*
X112431897Y-62783466D01*
X112466633Y-62764899D01*
X112504326Y-62753465D01*
X112549661Y-62749000D01*
X113386339Y-62749000D01*
X113431674Y-62753465D01*
X113431674Y-62753465D01*
G37*
G36*
X117994674Y-62753465D02*
G01*
X118032367Y-62764899D01*
X118067103Y-62783466D01*
X118097548Y-62808452D01*
X118122534Y-62838897D01*
X118141101Y-62873633D01*
X118152535Y-62911326D01*
X118157000Y-62956661D01*
X118157000Y-64043339D01*
X118152535Y-64088674D01*
X118141101Y-64126367D01*
X118122534Y-64161103D01*
X118097548Y-64191548D01*
X118067103Y-64216534D01*
X118032367Y-64235101D01*
X117994674Y-64246535D01*
X117949339Y-64251000D01*
X117112661Y-64251000D01*
X117067326Y-64246535D01*
X117029633Y-64235101D01*
X116994897Y-64216534D01*
X116964452Y-64191548D01*
X116939466Y-64161103D01*
X116920899Y-64126367D01*
X116909465Y-64088674D01*
X116905000Y-64043339D01*
X116905000Y-62956661D01*
X116909465Y-62911326D01*
X116920899Y-62873633D01*
X116939466Y-62838897D01*
X116964452Y-62808452D01*
X116994897Y-62783466D01*
X117029633Y-62764899D01*
X117067326Y-62753465D01*
X117112661Y-62749000D01*
X117949339Y-62749000D01*
X117994674Y-62753465D01*
X117994674Y-62753465D01*
G37*
G36*
X96570443Y-62105519D02*
G01*
X96636627Y-62112037D01*
X96806466Y-62163557D01*
X96962991Y-62247222D01*
X96975171Y-62257218D01*
X97100186Y-62359814D01*
X97173930Y-62449673D01*
X97212778Y-62497009D01*
X97296443Y-62653534D01*
X97347963Y-62823373D01*
X97365359Y-63000000D01*
X97347963Y-63176627D01*
X97296443Y-63346466D01*
X97212778Y-63502991D01*
X97201138Y-63517174D01*
X97100186Y-63640186D01*
X96998729Y-63723448D01*
X96962991Y-63752778D01*
X96806466Y-63836443D01*
X96636627Y-63887963D01*
X96570443Y-63894481D01*
X96504260Y-63901000D01*
X96415740Y-63901000D01*
X96349557Y-63894481D01*
X96283373Y-63887963D01*
X96113534Y-63836443D01*
X95957009Y-63752778D01*
X95921271Y-63723448D01*
X95819814Y-63640186D01*
X95718862Y-63517174D01*
X95707222Y-63502991D01*
X95623557Y-63346466D01*
X95572037Y-63176627D01*
X95554641Y-63000000D01*
X95572037Y-62823373D01*
X95623557Y-62653534D01*
X95707222Y-62497009D01*
X95746070Y-62449673D01*
X95819814Y-62359814D01*
X95944829Y-62257218D01*
X95957009Y-62247222D01*
X96113534Y-62163557D01*
X96283373Y-62112037D01*
X96349557Y-62105519D01*
X96415740Y-62099000D01*
X96504260Y-62099000D01*
X96570443Y-62105519D01*
X96570443Y-62105519D01*
G37*
G36*
X99901000Y-63901000D02*
G01*
X98099000Y-63901000D01*
X98099000Y-62099000D01*
X99901000Y-62099000D01*
X99901000Y-63901000D01*
X99901000Y-63901000D01*
G37*
G36*
X94030443Y-62105519D02*
G01*
X94096627Y-62112037D01*
X94266466Y-62163557D01*
X94422991Y-62247222D01*
X94435171Y-62257218D01*
X94560186Y-62359814D01*
X94633930Y-62449673D01*
X94672778Y-62497009D01*
X94756443Y-62653534D01*
X94807963Y-62823373D01*
X94825359Y-63000000D01*
X94807963Y-63176627D01*
X94756443Y-63346466D01*
X94672778Y-63502991D01*
X94661138Y-63517174D01*
X94560186Y-63640186D01*
X94458729Y-63723448D01*
X94422991Y-63752778D01*
X94266466Y-63836443D01*
X94096627Y-63887963D01*
X94030443Y-63894481D01*
X93964260Y-63901000D01*
X93875740Y-63901000D01*
X93809557Y-63894481D01*
X93743373Y-63887963D01*
X93573534Y-63836443D01*
X93417009Y-63752778D01*
X93381271Y-63723448D01*
X93279814Y-63640186D01*
X93178862Y-63517174D01*
X93167222Y-63502991D01*
X93083557Y-63346466D01*
X93032037Y-63176627D01*
X93014641Y-63000000D01*
X93032037Y-62823373D01*
X93083557Y-62653534D01*
X93167222Y-62497009D01*
X93206070Y-62449673D01*
X93279814Y-62359814D01*
X93404829Y-62257218D01*
X93417009Y-62247222D01*
X93573534Y-62163557D01*
X93743373Y-62112037D01*
X93809557Y-62105519D01*
X93875740Y-62099000D01*
X93964260Y-62099000D01*
X94030443Y-62105519D01*
X94030443Y-62105519D01*
G37*
G36*
X68233674Y-62181965D02*
G01*
X68271367Y-62193399D01*
X68306103Y-62211966D01*
X68336548Y-62236952D01*
X68361534Y-62267397D01*
X68380101Y-62302133D01*
X68391535Y-62339826D01*
X68396000Y-62385161D01*
X68396000Y-63471839D01*
X68391535Y-63517174D01*
X68380101Y-63554867D01*
X68361534Y-63589603D01*
X68336548Y-63620048D01*
X68306103Y-63645034D01*
X68271367Y-63663601D01*
X68233674Y-63675035D01*
X68188339Y-63679500D01*
X67351661Y-63679500D01*
X67306326Y-63675035D01*
X67268633Y-63663601D01*
X67233897Y-63645034D01*
X67203452Y-63620048D01*
X67178466Y-63589603D01*
X67159899Y-63554867D01*
X67148465Y-63517174D01*
X67144000Y-63471839D01*
X67144000Y-62385161D01*
X67148465Y-62339826D01*
X67159899Y-62302133D01*
X67178466Y-62267397D01*
X67203452Y-62236952D01*
X67233897Y-62211966D01*
X67268633Y-62193399D01*
X67306326Y-62181965D01*
X67351661Y-62177500D01*
X68188339Y-62177500D01*
X68233674Y-62181965D01*
X68233674Y-62181965D01*
G37*
G36*
X66183674Y-62181965D02*
G01*
X66221367Y-62193399D01*
X66256103Y-62211966D01*
X66286548Y-62236952D01*
X66311534Y-62267397D01*
X66330101Y-62302133D01*
X66341535Y-62339826D01*
X66346000Y-62385161D01*
X66346000Y-63471839D01*
X66341535Y-63517174D01*
X66330101Y-63554867D01*
X66311534Y-63589603D01*
X66286548Y-63620048D01*
X66256103Y-63645034D01*
X66221367Y-63663601D01*
X66183674Y-63675035D01*
X66138339Y-63679500D01*
X65301661Y-63679500D01*
X65256326Y-63675035D01*
X65218633Y-63663601D01*
X65183897Y-63645034D01*
X65153452Y-63620048D01*
X65128466Y-63589603D01*
X65109899Y-63554867D01*
X65098465Y-63517174D01*
X65094000Y-63471839D01*
X65094000Y-62385161D01*
X65098465Y-62339826D01*
X65109899Y-62302133D01*
X65128466Y-62267397D01*
X65153452Y-62236952D01*
X65183897Y-62211966D01*
X65218633Y-62193399D01*
X65256326Y-62181965D01*
X65301661Y-62177500D01*
X66138339Y-62177500D01*
X66183674Y-62181965D01*
X66183674Y-62181965D01*
G37*
G36*
X59075800Y-63471000D02*
G01*
X58273800Y-63471000D01*
X58273800Y-62769000D01*
X59075800Y-62769000D01*
X59075800Y-63471000D01*
X59075800Y-63471000D01*
G37*
G36*
X61075800Y-63471000D02*
G01*
X60273800Y-63471000D01*
X60273800Y-62769000D01*
X61075800Y-62769000D01*
X61075800Y-63471000D01*
X61075800Y-63471000D01*
G37*
G36*
X61075800Y-61971000D02*
G01*
X60273800Y-61971000D01*
X60273800Y-60869000D01*
X61075800Y-60869000D01*
X61075800Y-61971000D01*
X61075800Y-61971000D01*
G37*
G36*
X59075800Y-61571000D02*
G01*
X58273800Y-61571000D01*
X58273800Y-60869000D01*
X59075800Y-60869000D01*
X59075800Y-61571000D01*
X59075800Y-61571000D01*
G37*
G36*
X118901000Y-61401000D02*
G01*
X117099000Y-61401000D01*
X117099000Y-59599000D01*
X118901000Y-59599000D01*
X118901000Y-61401000D01*
X118901000Y-61401000D01*
G37*
G36*
X115570443Y-59605519D02*
G01*
X115636627Y-59612037D01*
X115806466Y-59663557D01*
X115962991Y-59747222D01*
X115992615Y-59771534D01*
X116100186Y-59859814D01*
X116179951Y-59957009D01*
X116212778Y-59997009D01*
X116296443Y-60153534D01*
X116347963Y-60323373D01*
X116365359Y-60500000D01*
X116347963Y-60676627D01*
X116296443Y-60846466D01*
X116212778Y-61002991D01*
X116183448Y-61038729D01*
X116100186Y-61140186D01*
X116011731Y-61212778D01*
X115962991Y-61252778D01*
X115806466Y-61336443D01*
X115636627Y-61387963D01*
X115570442Y-61394482D01*
X115504260Y-61401000D01*
X115415740Y-61401000D01*
X115349558Y-61394482D01*
X115283373Y-61387963D01*
X115113534Y-61336443D01*
X114957009Y-61252778D01*
X114908269Y-61212778D01*
X114819814Y-61140186D01*
X114736552Y-61038729D01*
X114707222Y-61002991D01*
X114623557Y-60846466D01*
X114572037Y-60676627D01*
X114554641Y-60500000D01*
X114572037Y-60323373D01*
X114623557Y-60153534D01*
X114707222Y-59997009D01*
X114740049Y-59957009D01*
X114819814Y-59859814D01*
X114927385Y-59771534D01*
X114957009Y-59747222D01*
X115113534Y-59663557D01*
X115283373Y-59612037D01*
X115349557Y-59605519D01*
X115415740Y-59599000D01*
X115504260Y-59599000D01*
X115570443Y-59605519D01*
X115570443Y-59605519D01*
G37*
G36*
X113030443Y-59605519D02*
G01*
X113096627Y-59612037D01*
X113266466Y-59663557D01*
X113422991Y-59747222D01*
X113452615Y-59771534D01*
X113560186Y-59859814D01*
X113639951Y-59957009D01*
X113672778Y-59997009D01*
X113756443Y-60153534D01*
X113807963Y-60323373D01*
X113825359Y-60500000D01*
X113807963Y-60676627D01*
X113756443Y-60846466D01*
X113672778Y-61002991D01*
X113643448Y-61038729D01*
X113560186Y-61140186D01*
X113471731Y-61212778D01*
X113422991Y-61252778D01*
X113266466Y-61336443D01*
X113096627Y-61387963D01*
X113030442Y-61394482D01*
X112964260Y-61401000D01*
X112875740Y-61401000D01*
X112809558Y-61394482D01*
X112743373Y-61387963D01*
X112573534Y-61336443D01*
X112417009Y-61252778D01*
X112368269Y-61212778D01*
X112279814Y-61140186D01*
X112196552Y-61038729D01*
X112167222Y-61002991D01*
X112083557Y-60846466D01*
X112032037Y-60676627D01*
X112014641Y-60500000D01*
X112032037Y-60323373D01*
X112083557Y-60153534D01*
X112167222Y-59997009D01*
X112200049Y-59957009D01*
X112279814Y-59859814D01*
X112387385Y-59771534D01*
X112417009Y-59747222D01*
X112573534Y-59663557D01*
X112743373Y-59612037D01*
X112809557Y-59605519D01*
X112875740Y-59599000D01*
X112964260Y-59599000D01*
X113030443Y-59605519D01*
X113030443Y-59605519D01*
G37*
G36*
X110490443Y-59605519D02*
G01*
X110556627Y-59612037D01*
X110726466Y-59663557D01*
X110882991Y-59747222D01*
X110912615Y-59771534D01*
X111020186Y-59859814D01*
X111099951Y-59957009D01*
X111132778Y-59997009D01*
X111216443Y-60153534D01*
X111267963Y-60323373D01*
X111285359Y-60500000D01*
X111267963Y-60676627D01*
X111216443Y-60846466D01*
X111132778Y-61002991D01*
X111103448Y-61038729D01*
X111020186Y-61140186D01*
X110931731Y-61212778D01*
X110882991Y-61252778D01*
X110726466Y-61336443D01*
X110556627Y-61387963D01*
X110490442Y-61394482D01*
X110424260Y-61401000D01*
X110335740Y-61401000D01*
X110269558Y-61394482D01*
X110203373Y-61387963D01*
X110033534Y-61336443D01*
X109877009Y-61252778D01*
X109828269Y-61212778D01*
X109739814Y-61140186D01*
X109656552Y-61038729D01*
X109627222Y-61002991D01*
X109543557Y-60846466D01*
X109492037Y-60676627D01*
X109474641Y-60500000D01*
X109492037Y-60323373D01*
X109543557Y-60153534D01*
X109627222Y-59997009D01*
X109660049Y-59957009D01*
X109739814Y-59859814D01*
X109847385Y-59771534D01*
X109877009Y-59747222D01*
X110033534Y-59663557D01*
X110203373Y-59612037D01*
X110269557Y-59605519D01*
X110335740Y-59599000D01*
X110424260Y-59599000D01*
X110490443Y-59605519D01*
X110490443Y-59605519D01*
G37*
G36*
X96570442Y-59565518D02*
G01*
X96636627Y-59572037D01*
X96806466Y-59623557D01*
X96962991Y-59707222D01*
X96998729Y-59736552D01*
X97100186Y-59819814D01*
X97183448Y-59921271D01*
X97212778Y-59957009D01*
X97296443Y-60113534D01*
X97347963Y-60283373D01*
X97365359Y-60460000D01*
X97347963Y-60636627D01*
X97296443Y-60806466D01*
X97212778Y-60962991D01*
X97183448Y-60998729D01*
X97100186Y-61100186D01*
X96998729Y-61183448D01*
X96962991Y-61212778D01*
X96806466Y-61296443D01*
X96636627Y-61347963D01*
X96570442Y-61354482D01*
X96504260Y-61361000D01*
X96415740Y-61361000D01*
X96349558Y-61354482D01*
X96283373Y-61347963D01*
X96113534Y-61296443D01*
X95957009Y-61212778D01*
X95921271Y-61183448D01*
X95819814Y-61100186D01*
X95736552Y-60998729D01*
X95707222Y-60962991D01*
X95623557Y-60806466D01*
X95572037Y-60636627D01*
X95554641Y-60460000D01*
X95572037Y-60283373D01*
X95623557Y-60113534D01*
X95707222Y-59957009D01*
X95736552Y-59921271D01*
X95819814Y-59819814D01*
X95921271Y-59736552D01*
X95957009Y-59707222D01*
X96113534Y-59623557D01*
X96283373Y-59572037D01*
X96349558Y-59565518D01*
X96415740Y-59559000D01*
X96504260Y-59559000D01*
X96570442Y-59565518D01*
X96570442Y-59565518D01*
G37*
G36*
X99110442Y-59565518D02*
G01*
X99176627Y-59572037D01*
X99346466Y-59623557D01*
X99502991Y-59707222D01*
X99538729Y-59736552D01*
X99640186Y-59819814D01*
X99723448Y-59921271D01*
X99752778Y-59957009D01*
X99836443Y-60113534D01*
X99887963Y-60283373D01*
X99905359Y-60460000D01*
X99887963Y-60636627D01*
X99836443Y-60806466D01*
X99752778Y-60962991D01*
X99723448Y-60998729D01*
X99640186Y-61100186D01*
X99538729Y-61183448D01*
X99502991Y-61212778D01*
X99346466Y-61296443D01*
X99176627Y-61347963D01*
X99110442Y-61354482D01*
X99044260Y-61361000D01*
X98955740Y-61361000D01*
X98889558Y-61354482D01*
X98823373Y-61347963D01*
X98653534Y-61296443D01*
X98497009Y-61212778D01*
X98461271Y-61183448D01*
X98359814Y-61100186D01*
X98276552Y-60998729D01*
X98247222Y-60962991D01*
X98163557Y-60806466D01*
X98112037Y-60636627D01*
X98094641Y-60460000D01*
X98112037Y-60283373D01*
X98163557Y-60113534D01*
X98247222Y-59957009D01*
X98276552Y-59921271D01*
X98359814Y-59819814D01*
X98461271Y-59736552D01*
X98497009Y-59707222D01*
X98653534Y-59623557D01*
X98823373Y-59572037D01*
X98889558Y-59565518D01*
X98955740Y-59559000D01*
X99044260Y-59559000D01*
X99110442Y-59565518D01*
X99110442Y-59565518D01*
G37*
G36*
X94030442Y-59565518D02*
G01*
X94096627Y-59572037D01*
X94266466Y-59623557D01*
X94422991Y-59707222D01*
X94458729Y-59736552D01*
X94560186Y-59819814D01*
X94643448Y-59921271D01*
X94672778Y-59957009D01*
X94756443Y-60113534D01*
X94807963Y-60283373D01*
X94825359Y-60460000D01*
X94807963Y-60636627D01*
X94756443Y-60806466D01*
X94672778Y-60962991D01*
X94643448Y-60998729D01*
X94560186Y-61100186D01*
X94458729Y-61183448D01*
X94422991Y-61212778D01*
X94266466Y-61296443D01*
X94096627Y-61347963D01*
X94030442Y-61354482D01*
X93964260Y-61361000D01*
X93875740Y-61361000D01*
X93809558Y-61354482D01*
X93743373Y-61347963D01*
X93573534Y-61296443D01*
X93417009Y-61212778D01*
X93381271Y-61183448D01*
X93279814Y-61100186D01*
X93196552Y-60998729D01*
X93167222Y-60962991D01*
X93083557Y-60806466D01*
X93032037Y-60636627D01*
X93014641Y-60460000D01*
X93032037Y-60283373D01*
X93083557Y-60113534D01*
X93167222Y-59957009D01*
X93196552Y-59921271D01*
X93279814Y-59819814D01*
X93381271Y-59736552D01*
X93417009Y-59707222D01*
X93573534Y-59623557D01*
X93743373Y-59572037D01*
X93809558Y-59565518D01*
X93875740Y-59559000D01*
X93964260Y-59559000D01*
X94030442Y-59565518D01*
X94030442Y-59565518D01*
G37*
G36*
X49467674Y-58943465D02*
G01*
X49505367Y-58954899D01*
X49540103Y-58973466D01*
X49570548Y-58998452D01*
X49595534Y-59028897D01*
X49614101Y-59063633D01*
X49625535Y-59101326D01*
X49630000Y-59146661D01*
X49630000Y-60233339D01*
X49625535Y-60278674D01*
X49614101Y-60316367D01*
X49595534Y-60351103D01*
X49570548Y-60381548D01*
X49540103Y-60406534D01*
X49505367Y-60425101D01*
X49467674Y-60436535D01*
X49422339Y-60441000D01*
X48585661Y-60441000D01*
X48540326Y-60436535D01*
X48502633Y-60425101D01*
X48467897Y-60406534D01*
X48437452Y-60381548D01*
X48412466Y-60351103D01*
X48393899Y-60316367D01*
X48382465Y-60278674D01*
X48378000Y-60233339D01*
X48378000Y-59146661D01*
X48382465Y-59101326D01*
X48393899Y-59063633D01*
X48412466Y-59028897D01*
X48437452Y-58998452D01*
X48467897Y-58973466D01*
X48502633Y-58954899D01*
X48540326Y-58943465D01*
X48585661Y-58939000D01*
X49422339Y-58939000D01*
X49467674Y-58943465D01*
X49467674Y-58943465D01*
G37*
G36*
X51517674Y-58943465D02*
G01*
X51555367Y-58954899D01*
X51590103Y-58973466D01*
X51620548Y-58998452D01*
X51645534Y-59028897D01*
X51664101Y-59063633D01*
X51675535Y-59101326D01*
X51680000Y-59146661D01*
X51680000Y-60233339D01*
X51675535Y-60278674D01*
X51664101Y-60316367D01*
X51645534Y-60351103D01*
X51620548Y-60381548D01*
X51590103Y-60406534D01*
X51555367Y-60425101D01*
X51517674Y-60436535D01*
X51472339Y-60441000D01*
X50635661Y-60441000D01*
X50590326Y-60436535D01*
X50552633Y-60425101D01*
X50517897Y-60406534D01*
X50487452Y-60381548D01*
X50462466Y-60351103D01*
X50443899Y-60316367D01*
X50432465Y-60278674D01*
X50428000Y-60233339D01*
X50428000Y-59146661D01*
X50432465Y-59101326D01*
X50443899Y-59063633D01*
X50462466Y-59028897D01*
X50487452Y-58998452D01*
X50517897Y-58973466D01*
X50552633Y-58954899D01*
X50590326Y-58943465D01*
X50635661Y-58939000D01*
X51472339Y-58939000D01*
X51517674Y-58943465D01*
X51517674Y-58943465D01*
G37*
G36*
X68163674Y-58308465D02*
G01*
X68201367Y-58319899D01*
X68236103Y-58338466D01*
X68266548Y-58363452D01*
X68291534Y-58393897D01*
X68310101Y-58428633D01*
X68321535Y-58466326D01*
X68326000Y-58511661D01*
X68326000Y-59598339D01*
X68321535Y-59643674D01*
X68310101Y-59681367D01*
X68291534Y-59716103D01*
X68266548Y-59746548D01*
X68236103Y-59771534D01*
X68201367Y-59790101D01*
X68163674Y-59801535D01*
X68118339Y-59806000D01*
X67281661Y-59806000D01*
X67236326Y-59801535D01*
X67198633Y-59790101D01*
X67163897Y-59771534D01*
X67133452Y-59746548D01*
X67108466Y-59716103D01*
X67089899Y-59681367D01*
X67078465Y-59643674D01*
X67074000Y-59598339D01*
X67074000Y-58511661D01*
X67078465Y-58466326D01*
X67089899Y-58428633D01*
X67108466Y-58393897D01*
X67133452Y-58363452D01*
X67163897Y-58338466D01*
X67198633Y-58319899D01*
X67236326Y-58308465D01*
X67281661Y-58304000D01*
X68118339Y-58304000D01*
X68163674Y-58308465D01*
X68163674Y-58308465D01*
G37*
G36*
X66113674Y-58308465D02*
G01*
X66151367Y-58319899D01*
X66186103Y-58338466D01*
X66216548Y-58363452D01*
X66241534Y-58393897D01*
X66260101Y-58428633D01*
X66271535Y-58466326D01*
X66276000Y-58511661D01*
X66276000Y-59598339D01*
X66271535Y-59643674D01*
X66260101Y-59681367D01*
X66241534Y-59716103D01*
X66216548Y-59746548D01*
X66186103Y-59771534D01*
X66151367Y-59790101D01*
X66113674Y-59801535D01*
X66068339Y-59806000D01*
X65231661Y-59806000D01*
X65186326Y-59801535D01*
X65148633Y-59790101D01*
X65113897Y-59771534D01*
X65083452Y-59746548D01*
X65058466Y-59716103D01*
X65039899Y-59681367D01*
X65028465Y-59643674D01*
X65024000Y-59598339D01*
X65024000Y-58511661D01*
X65028465Y-58466326D01*
X65039899Y-58428633D01*
X65058466Y-58393897D01*
X65083452Y-58363452D01*
X65113897Y-58338466D01*
X65148633Y-58319899D01*
X65186326Y-58308465D01*
X65231661Y-58304000D01*
X66068339Y-58304000D01*
X66113674Y-58308465D01*
X66113674Y-58308465D01*
G37*
G36*
X61751000Y-57271000D02*
G01*
X54649000Y-57271000D01*
X54649000Y-55719000D01*
X61751000Y-55719000D01*
X61751000Y-57271000D01*
X61751000Y-57271000D01*
G37*
G36*
X61199672Y-54688449D02*
G01*
X61199674Y-54688450D01*
X61199675Y-54688450D01*
X61268103Y-54716793D01*
X61329686Y-54757942D01*
X61382058Y-54810314D01*
X61423207Y-54871897D01*
X61451550Y-54940325D01*
X61466000Y-55012967D01*
X61466000Y-55087033D01*
X61451550Y-55159675D01*
X61423207Y-55228103D01*
X61382058Y-55289686D01*
X61329686Y-55342058D01*
X61268103Y-55383207D01*
X61199675Y-55411550D01*
X61199674Y-55411550D01*
X61199672Y-55411551D01*
X61127034Y-55426000D01*
X61052966Y-55426000D01*
X60980328Y-55411551D01*
X60980326Y-55411550D01*
X60980325Y-55411550D01*
X60911897Y-55383207D01*
X60850314Y-55342058D01*
X60797942Y-55289686D01*
X60756793Y-55228103D01*
X60728450Y-55159675D01*
X60714000Y-55087033D01*
X60714000Y-55012967D01*
X60728450Y-54940325D01*
X60756793Y-54871897D01*
X60797942Y-54810314D01*
X60850314Y-54757942D01*
X60911897Y-54716793D01*
X60980325Y-54688450D01*
X60980326Y-54688450D01*
X60980328Y-54688449D01*
X61052966Y-54674000D01*
X61127034Y-54674000D01*
X61199672Y-54688449D01*
X61199672Y-54688449D01*
G37*
G36*
X55419672Y-54688449D02*
G01*
X55419674Y-54688450D01*
X55419675Y-54688450D01*
X55488103Y-54716793D01*
X55549686Y-54757942D01*
X55602058Y-54810314D01*
X55643207Y-54871897D01*
X55671550Y-54940325D01*
X55686000Y-55012967D01*
X55686000Y-55087033D01*
X55671550Y-55159675D01*
X55643207Y-55228103D01*
X55602058Y-55289686D01*
X55549686Y-55342058D01*
X55488103Y-55383207D01*
X55419675Y-55411550D01*
X55419674Y-55411550D01*
X55419672Y-55411551D01*
X55347034Y-55426000D01*
X55272966Y-55426000D01*
X55200328Y-55411551D01*
X55200326Y-55411550D01*
X55200325Y-55411550D01*
X55131897Y-55383207D01*
X55070314Y-55342058D01*
X55017942Y-55289686D01*
X54976793Y-55228103D01*
X54948450Y-55159675D01*
X54934000Y-55087033D01*
X54934000Y-55012967D01*
X54948450Y-54940325D01*
X54976793Y-54871897D01*
X55017942Y-54810314D01*
X55070314Y-54757942D01*
X55131897Y-54716793D01*
X55200325Y-54688450D01*
X55200326Y-54688450D01*
X55200328Y-54688449D01*
X55272966Y-54674000D01*
X55347034Y-54674000D01*
X55419672Y-54688449D01*
X55419672Y-54688449D01*
G37*
M02*
